<?xml version="1.0" encoding="UTF-8"?>
<svg id="_レイヤー_1" data-name="レイヤー_1" xmlns="http://www.w3.org/2000/svg" version="1.1" viewBox="0 0 530 130">
  <!-- Generator: Adobe Illustrator 30.3.0, SVG Export Plug-In . SVG Version: 2.1.3 Build 182)  -->
  <defs>
    <style>
      .st0 {
        fill: #58c2ef;
      }
    </style>
  </defs>
  <path class="st0" d="M106.52,112.43c.23.63.06,1.52-.52,2.66-.93.13-1.89.09-2.88-.09-.99-.19-1.95-.41-2.88-.67-1.51.63-2.53,1.08-3.06,1.33-.52.25-1.02.35-1.48.29-.47-.06-1.4-.1-2.79-.1-.35.13-.67.32-.96.57-.29.25-.67.51-1.14.76-.12.13-.23.19-.35.19-1.17,0-2.33.03-3.49.1-1.17.06-2.27.09-3.32.09-.7-.76-1.14-1.33-1.31-1.71-.17-.38-.44-1.26-.79-2.66-.23-.76-.76-1.64-1.57-2.66-1.17-1.39-2.36-3.29-3.58-5.69-1.22-2.4-2.18-4.43-2.88-6.07l-.87-.95c-.47,0-.82.13-1.05.38-1.86,1.27-3.61,1.46-5.24.57-1.05-.25-2.07-.38-3.06-.38h-3.06c-.82-.12-1.63-.12-2.44,0-.82.13-1.69.19-2.62.19-.7,0-1.43-.03-2.18-.1-.76-.06-1.48-.09-2.18-.09-.93.13-1.89.32-2.88.57-.99.25-1.95.63-2.88,1.14-.82.51-1.66.82-2.53.95-.87.13-1.78.26-2.71.38-1.28,0-2.53.16-3.75.47-1.22.32-2.47.66-3.75,1.04-.35.13-.73.29-1.14.47-.41.19-.73.54-.96,1.04,0,.63-.03,1.3-.09,1.99-.06.7-.09,1.42-.09,2.18-.35,1.14-.58,2.34-.7,3.61-.47,1.77-1.2,3.29-2.18,4.56-.99,1.27-2.01,2.53-3.06,3.8-.47,0-.9-.03-1.31-.09-.41-.06-.85-.1-1.31-.1-.35,0-.73.03-1.14.1-.41.06-.85.16-1.31.28-1.28.12-2.62-.07-4.02-.57-.12-.12-.2-.16-.26-.09-.06.07-.2.09-.44.09h-.87l-.35-.19c-.12-.25-.26-.35-.44-.29-.17.07-.55.03-1.14-.09-.7-.25-1.34-.38-1.92-.38h-1.22c-.35,0-.82-.06-1.4-.19-.23-.12-.58-.22-1.05-.29-.47-.06-.99-.22-1.57-.47-.35-.12-.61-.16-.79-.09-.17.07-.44.03-.79-.09l-.52-.19h-.35l-.35-.19c.23-1.77.49-3.51.79-5.22.29-1.71.84-3.38,1.66-5.03.23-.5.41-.95.52-1.33.11-.38.17-.82.17-1.33l.52-3.23c.35-.63.7-1.33,1.05-2.09.35-.76.7-1.39,1.05-1.9.23-.76.26-1.52.09-2.28-.17-.76-.03-1.45.44-2.09.35-.63.55-1.26.61-1.9.06-.63.32-1.14.79-1.52.46-1.01.9-1.99,1.31-2.94.41-.95.73-1.93.96-2.94.11-.12.17-.38.17-.76.35-2.66,1.34-4.93,2.97-6.83-.12-.5-.17-.98-.17-1.42v-1.04c.23-.76.64-1.45,1.22-2.09.58-.63,1.1-1.2,1.57-1.71.58-.76,1.1-1.52,1.57-2.28.46-.76.76-1.58.87-2.47.46-1.9,1.1-3.67,1.92-5.31.81-1.64,1.8-3.23,2.97-4.75.7-1.01,1.31-2.12,1.83-3.32.52-1.2,1.08-2.44,1.66-3.7.46-1.01.9-2.09,1.31-3.23.41-1.14.67-2.28.79-3.42.93-1.26,1.57-2.25,1.92-2.94.35-.69.67-1.52.96-2.47.29-.95.67-2.44,1.14-4.46.23-.25.55-.47.96-.66.41-.19.67-.54.79-1.04,0-.5.29-.88.87-1.14.93-.63,1.57-1.52,1.92-2.66.35-1.01.84-1.93,1.48-2.75.64-.82,1.25-1.61,1.83-2.37.58-.63.93-1.26,1.05-1.9.58-1.77,1.37-3.38,2.36-4.84.99-1.45,1.83-2.94,2.53-4.46.58-.5,1.1-.79,1.57-.85.46-.06.93-.1,1.4-.1h.52c1.16.51,2.38.89,3.67,1.14.81.13,1.57.19,2.27.19h2.79c.35,0,.7.07,1.05.19,1.51.51,3.08.76,4.71.76s3.2.07,4.72.19c1.98,1.52,3.67,2.97,5.06,4.37,1.4,1.39,2.5,3.8,3.32,7.21.11.13.29.26.52.38.23.13.41.32.52.57.23.13.46.25.7.38.23.13.46.32.7.57.23.51.44,1.04.61,1.61.17.57.38,1.17.61,1.8.23.51.52,1.04.87,1.61.35.57.76,1.17,1.22,1.8.23,1.27.61,2.53,1.14,3.8.52,1.27.73,2.72.61,4.37l1.22,1.9c0,.63.03,1.3.09,1.99.06.7.09,1.42.09,2.18.58.38.9.89.96,1.52.06.63.14,1.33.26,2.09.35.51.7,1.04,1.05,1.61s.7,1.11,1.05,1.61c.23.89.46,1.74.7,2.56.23.82.41,1.61.52,2.37-.12.51-.21,1.01-.26,1.52-.06.51-.15,1.01-.26,1.52.23,1.27.67,2.37,1.31,3.32.64.95,1.25,1.93,1.83,2.94.58,2.41,1.14,4.84,1.66,7.31s.9,4.97,1.14,7.5c1.28,1.77,2.07,3.67,2.36,5.69.29,2.03.67,4.11,1.13,6.26.23.89.35,1.74.35,2.56s.06,1.68.17,2.56c.23.76.76,1.74,1.57,2.94.81,1.2,1.45,2.12,1.92,2.75,0,1.27.06,2.56.17,3.89.11,1.33.41,2.63.87,3.89ZM64.44,72.38c-.12-.88-.41-1.68-.87-2.37-.47-.69-.58-1.49-.35-2.37-.47-.88-.7-1.96-.7-3.23s.11-1.96.35-2.09c-.12-.25-.17-.63-.17-1.14-.47-.63-.9-1.2-1.31-1.71-.41-.5-.79-1.07-1.14-1.71,0,.13-.23-.06-.7-.57-.58-.12-1.05-.5-1.4-1.14-.12-.38-.26-.76-.44-1.14-.17-.38-.44-.63-.79-.76-.47,0-.82.16-1.05.47-.23.32-.58.6-1.05.85-.47.13-.9.25-1.31.38-.41.13-.85.25-1.31.38-.82.76-1.34,1.77-1.57,3.04v2.28c-.47.89-.96,1.65-1.48,2.28-.52.63-.9,1.33-1.14,2.09-.35,1.77-.87,3.35-1.57,4.75,0,.89-.17,1.68-.52,2.37-.35.7-.64,1.42-.87,2.18-.12.13-.17.51-.17,1.14,0,.76.41,1.14,1.22,1.14.46,0,.93-.03,1.4-.09.46-.06.93-.09,1.4-.09.23.13.52.28.87.47.35.19.64.35.87.47,1.75-.25,3.41-.63,4.98-1.14,1.57-.5,3.11-1.07,4.63-1.71.7-.63,1.45-1.07,2.27-1.33.81-.25,1.45-.82,1.92-1.71Z"/>
  <path class="st0" d="M201.7,94.77c0,.63-.06,1.23-.17,1.8-.12.57-.17,1.17-.17,1.8-.58,1.39-1.08,2.75-1.48,4.08-.41,1.33-.44,2.88-.09,4.65-.35,2.03-.9,3.99-1.66,5.88-.76,1.9-1.95,3.61-3.58,5.12-.58.38-1.17.7-1.75.95-.58.25-1.17.57-1.75.95-.47.38-.99.66-1.57.85-.58.19-1.17.47-1.75.85-1.28.88-2.62,1.61-4.02,2.18s-2.74,1.3-4.02,2.18c-.12,0-.26.06-.44.19-.17.12-.38.12-.61,0-.93-.13-1.86.03-2.79.47-.93.44-2.04.66-3.32.66h-1.31c-.52,0-1.08-.07-1.66-.19-2.33,0-4.02.57-5.06,1.71-1.86.38-3.55.31-5.06-.19-1.51-.51-3.03-1.01-4.54-1.52-1.05.12-2.27.31-3.67.57-1.63-.25-3.12-.54-4.45-.85-1.34-.32-2.77-.6-4.28-.85-.12,0-.32.03-.61.09-.29.06-.61.16-.96.28-.93-.25-1.95-.54-3.06-.85-1.11-.32-2.24-.6-3.41-.85-.35-.38-.7-.73-1.05-1.04-.35-.32-.64-.6-.87-.85-.23.12-.58.19-1.05.19-1.05.38-2.04.82-2.97,1.33-.58.25-1.17-.07-1.75-.95-1.17-1.9-1.75-3.86-1.75-5.88v-3.61c.35-1.01.64-1.83.87-2.47.23-.63.52-1.2.87-1.71-.23-1.14-.64-2.06-1.22-2.75-.58-.69-1.05-1.42-1.4-2.18-.12-.63-.17-1.3-.17-1.99s-.12-1.3-.35-1.8c-.7-3.54-.52-7.08.52-10.63-.47-1.26-.82-2.53-1.05-3.8-.35-1.39-.64-2.75-.87-4.08-.23-1.33-.35-2.62-.35-3.89v-4.27c0-1.45-.29-2.88-.87-4.27-.23-.88-.23-1.71,0-2.47.23-.88.38-1.71.44-2.47.06-.76.03-1.52-.09-2.28-.12-.38-.2-.76-.26-1.14-.06-.38-.09-.69-.09-.95.23-1.26.44-2.43.61-3.51.17-1.07.32-2.18.44-3.32.23-1.14.29-2.28.17-3.42-.12-1.14-.06-2.34.17-3.61.35-.63.55-1.3.61-1.99.06-.69.09-1.49.09-2.37.11-.63.14-1.26.09-1.9-.06-.63-.09-1.26-.09-1.9v-4.27c0-1.45-.06-2.88-.17-4.27,0-2.66-.17-5.5-.52-8.54.23-.63.44-1.26.61-1.9.17-.63.15-1.33-.09-2.09-.12-1.14-.23-2.34-.35-3.61-.12-1.26,0-2.53.35-3.8.11-.63.11-1.2,0-1.71-.12-.5-.29-1.01-.52-1.52.7-.76,1.16-1.33,1.4-1.71.35-.63.58-1.39.7-2.28.58-.25,1.11-.44,1.57-.57.46-.12.93-.25,1.4-.38.58.13,1.14.22,1.66.28.52.07,1.14.16,1.83.29,1.28-.25,2.62-.54,4.02-.85,1.4-.31,2.85-.66,4.37-1.04,1.05.13,2.18.26,3.41.38,1.22.13,2.42.51,3.58,1.14.7-.12,1.4-.22,2.1-.28.7-.06,1.4-.16,2.1-.28,1.16-.12,2.3-.16,3.41-.1,1.1.07,2.18.41,3.23,1.04,2.33,1.01,4.89,1.65,7.68,1.9.7.25,1.45.41,2.27.47.81.07,1.69.09,2.62.09l2.97,1.9c1.16.13,2.3.32,3.41.57,1.11.25,2.24.25,3.41,0,.93.13,1.77.51,2.53,1.14.76.63,1.66,1.01,2.71,1.14,1.05,0,2.33.32,3.84.95.81.76,1.63,1.84,2.44,3.23.23.26.44.54.61.85.17.32.44.6.79.85,2.1,1.39,3.72,3.2,4.89,5.41,1.16,2.22,1.98,4.59,2.44,7.12.23.89.35,1.87.35,2.94v3.32c0,.63.03,1.36.09,2.18.06.82.15,1.55.26,2.18.23,1.65.17,3.26-.17,4.84-.35,1.58-.76,3.2-1.22,4.84-.47,1.14-1.02,2.28-1.66,3.42-.64,1.14-1.37,2.22-2.18,3.23-.23.13-.47.28-.7.47-.23.19-.47.35-.7.47-.7.25-1.11.51-1.22.76-.7,1.27-1.63,2.31-2.79,3.13-1.17.82-2.21,1.74-3.14,2.75,0,.25-.06.51-.17.76-.12.25-.17.51-.17.76-.23.76,0,1.46.7,2.09.23.13.55.22.96.28.41.07.79.16,1.14.29.35.38.67.76.96,1.14.29.38.67.82,1.14,1.33.23.25.52.54.87.85.35.32.7.6,1.05.85.35.76.67,1.52.96,2.28.29.76.61,1.58.96,2.47.23.38.38.76.44,1.14.06.38.14.7.26.95,1.28,1.65,2.24,3.48,2.88,5.5.64,2.03,1.37,3.99,2.18,5.88.23.38.35.79.35,1.23s.06.85.17,1.23c.23.51.35,1.01.35,1.52v1.33ZM173.93,45.8c.58-1.64.58-3.1,0-4.37-.58-1.77-1.34-3.86-2.27-6.26-.47-.63-.96-1.26-1.48-1.9-.52-.63-1.08-1.26-1.66-1.9-2.21-.63-4.43-1.23-6.64-1.8-2.21-.57-4.48-.79-6.81-.66-1.28,0-2.16-.06-2.62-.19-.47-.12-1.4-.57-2.79-1.33-.7.13-1.28.7-1.75,1.71-.12,1.65-.26,3.42-.44,5.31-.17,1.9-.38,3.8-.61,5.69-.12.38-.15.79-.09,1.23.06.44.09.98.09,1.61,0,.89.03,1.8.09,2.75.06.95.09,1.93.09,2.94.23.38.46.82.7,1.33.23.51.52.95.87,1.33,0,.26.29.51.87.76,1.05-.63,1.77-.98,2.18-1.04.41-.06,1.25-.03,2.53.09.93.63,1.8,1.33,2.62,2.09.81,0,1.63.03,2.44.09.81.07,1.63.09,2.44.09s1.6-.06,2.36-.19c.76-.12,1.54,0,2.36.38.93-.63,1.92-1.3,2.97-1.99,1.05-.69,2.15-1.55,3.32-2.56.23-.63.46-1.2.7-1.71.23-.5.41-1.01.52-1.52ZM179.52,91.55v-4.37c-.47-1.26-1.02-2.4-1.66-3.42-.64-1.01-1.37-1.96-2.18-2.85-.7-.38-1.34-.69-1.92-.95-.58-.25-1.11-.5-1.57-.76-1.75-1.01-3.52-1.68-5.33-1.99-1.81-.31-3.58-.47-5.33-.47-1.51,0-2.97.03-4.37.09-1.4.07-2.79.09-4.19.09-1.05.51-2.1,1.27-3.14,2.28-.7.38-1.11,1.01-1.22,1.9.11.63.26,1.36.44,2.18.17.82.32,1.68.44,2.56,0,.76-.03,1.55-.09,2.37-.06.83.09,1.74.44,2.75.11.25.11.6,0,1.04-.12.44-.23.79-.35,1.04-.12.13-.23.35-.35.66-.12.32-.23.6-.35.85.23.38.52.57.87.57s.52.32.52.95c-.12.51-.32,1.01-.61,1.52-.29.51-.44,1.01-.44,1.52v.76c.23.13.41.25.52.38.11.13.23.19.35.19,3.26,1.9,6.46,2.34,9.6,1.33,1.16-.25,1.98-.38,2.44-.38.81.13,1.54.25,2.18.38.64.13,1.31.25,2.01.38.93-.38,1.86-.79,2.79-1.23.93-.44,1.63-1.11,2.1-1.99.23-.25.7-.5,1.4-.76,3.14-1.39,5.47-3.61,6.99-6.64Z"/>
  <path class="st0" d="M292.85,108.63c-.12-.12-.23-.19-.35-.19l.17.19c-.47.25-.79.83-.96,1.71-.17.89-.5,1.52-.96,1.9-.12.38-.52.95-1.22,1.71-.7.76-1.22,1.08-1.57.95-1.63-.38-3.55-.38-5.76,0-.35.38-.7.76-1.05,1.14-.35.38-.82.82-1.4,1.33-.12,0-.23.03-.35.1-.12.06-.29.09-.52.09-.35.13-.87.19-1.57.19-3.73-.12-7.39.63-11,2.28-.82.25-1.69.41-2.62.47-.93.06-1.86-.1-2.79-.47-.7-.38-1.37-.6-2.01-.67-.64-.06-1.31-.03-2.01.1-1.51,0-2.97-.25-4.37-.76-.58.13-1.2.25-1.83.38-.64.13-1.25.32-1.83.57-.58.25-1.17.6-1.75,1.04-.58.44-1.22.6-1.92.47-.12-.25-.29-.54-.52-.85-.23-.31-.47-.73-.7-1.23-.23-.12-.52-.29-.87-.47-.35-.19-.64-.35-.87-.47-1.51-.25-2.91-.82-4.19-1.71-1.75-1.26-3.44-2.21-5.06-2.85-.82-.25-1.48-.73-2.01-1.42-.52-.69-1.08-1.3-1.66-1.8-.47-1.26-.87-2.47-1.22-3.61-.35-1.14-.58-2.34-.7-3.61-.35-.25-.64-.54-.87-.85-.23-.31-.47-.6-.7-.85-.7-.5-1.05-.95-1.05-1.33-.12-1.14-.47-2.02-1.05-2.66-.58-.63-1.11-1.52-1.57-2.66,0-.25-.03-.63-.09-1.14-.06-.5-.15-1.01-.26-1.52v-1.04c0-.44-.06-.79-.17-1.04-.47-1.01-.93-1.99-1.4-2.94-.47-.95-.87-1.87-1.22-2.75,0-.63.11-1.58.35-2.85.58-2.66.52-5.25-.17-7.78-.35-.88-.58-1.77-.7-2.66-.12-.88-.29-1.77-.52-2.66.11-.25.26-.6.44-1.04.17-.44.38-.79.61-1.04l-1.22-3.99c-.23-.63-.55-1.23-.96-1.8-.41-.57-.79-1.11-1.13-1.61-.12-1.01.09-1.96.61-2.85.52-.88.84-1.77.96-2.66,0-.38-.03-.76-.09-1.14-.06-.38-.09-.76-.09-1.14.93-1.39,1.54-2.85,1.83-4.37.29-1.52.49-3.1.61-4.75.81-.5,1.51-1.07,2.1-1.71.58-.63.99-1.45,1.22-2.47.11-.38.2-.82.26-1.33.06-.5.14-1.01.26-1.52.58-1.01,1.19-2.06,1.83-3.13.64-1.07,1.25-2.06,1.83-2.94.23-.63.44-1.33.61-2.09.17-.76.49-1.39.96-1.9.58-.38,1.02-.88,1.31-1.52.29-.63.55-1.26.79-1.9.81-.12,1.51-.31,2.1-.57.58-.25,1.1-.44,1.57-.57.58-.38.87-.76.87-1.14.35-1.77,1.08-3.07,2.18-3.89,1.1-.82,2.36-1.42,3.75-1.8.46-.12.87-.22,1.22-.28.35-.06.81-.16,1.4-.28.23-.25.52-.6.87-1.04.35-.44.7-.92,1.05-1.42.7-.25,1.37-.5,2.01-.76.64-.25,1.19-.5,1.66-.76h1.22c.93.38,1.89.73,2.88,1.04.99.32,2.07.66,3.23,1.04.93-.12,1.89-.35,2.88-.66.99-.31,1.95-.35,2.88-.1.11,0,.23.03.35.1.11.06.23.03.35-.1.81,0,1.63-.12,2.44-.38.81-.25,1.63-.31,2.44-.19.7,0,1.42-.06,2.18-.19.76-.12,1.48-.38,2.18-.76.58-.12,1.14-.22,1.66-.28.52-.06,1.08.03,1.66.28.35.38.7.73,1.05,1.04.35.32.76.73,1.22,1.23.93.13,1.95.35,3.06.66,1.1.32,2.24.66,3.41,1.04.58.13,1.14.44,1.66.95.52.51,1.19.89,2.01,1.14.7.26,1.42.41,2.18.47.76.07,1.54.09,2.36.09,1.86,2.03,4.07,3.42,6.64,4.18.23.13.46.25.7.38.23.13.46.26.7.38.93.89,1.83,1.8,2.71,2.75.87.95,1.72,1.87,2.53,2.75.81,1.01,1.28,2.09,1.4,3.23.93.89,1.48,1.55,1.66,1.99.17.44.26,1.68.26,3.7.7.38,1.34.79,1.92,1.23.58.44.93,1.11,1.05,1.99.23.51.46.98.7,1.42.23.44.41.92.52,1.42.35.51.73.92,1.13,1.23.41.32.84.73,1.31,1.23.35.89.64,1.74.87,2.56.23.82.23,1.74,0,2.75-.23.89-.29,1.84-.17,2.85.11,1.01.11,2.09,0,3.23-.12,1.01-.12,2.09,0,3.23.11,1.14.23,2.22.35,3.23.12.51.17,1.04.17,1.61s.06,1.04.17,1.42c.46.89.73,1.77.79,2.66.06.89.03,1.77-.09,2.66,0,.51.03.98.09,1.42.06.45.09.98.09,1.61-.47,1.65-.87,3.32-1.22,5.03-.35,1.71-.87,3.32-1.57,4.84-.7,1.39-1.4,2.79-2.1,4.18-.7,1.39-1.51,2.72-2.45,3.99v3.23c-.58.38-1.13.79-1.66,1.23-.52.44-.96.79-1.31,1.04-.81,1.52-1.31,2.88-1.48,4.08-.17,1.2-.44,2.31-.79,3.32-.47.51-.93,1.01-1.4,1.52-.47.51-.99,1.01-1.57,1.52-.58.51-1.25.92-2.01,1.23-.76.32-1.6.28-2.53-.1-1.05-.25-1.92-.19-2.62.19-.47.13-.93.25-1.4.38-.47.13-.87.25-1.22.38ZM290.06,65.73c-.23-.63-.38-1.23-.44-1.8-.06-.57-.15-1.17-.26-1.8,0-1.01-.06-1.83-.17-2.47-.23-1.01-.55-2.12-.96-3.32-.41-1.2-.85-2.37-1.31-3.51-.12-.5-.32-1.04-.61-1.61-.29-.57-.55-1.11-.79-1.61-.93-2.02-2.39-3.23-4.37-3.61-.35-.12-.76-.28-1.22-.47-.47-.19-.87-.41-1.22-.66-.7-.5-1.4-.88-2.1-1.14-.7-.25-1.4-.44-2.1-.57-.93-.25-1.92-.54-2.97-.85-1.05-.31-2.04-.54-2.97-.66-1.17-.63-2.27-.57-3.32.19-3.14,1.39-6,3.2-8.56,5.41-2.56,2.22-4.77,5.22-6.64,9.02-.35.51-.67,1.08-.96,1.71-.29.63-.55,1.27-.79,1.9-.47.63-.87,1.3-1.22,1.99-.35.7-.64,1.36-.87,1.99.11,1.01.52,1.84,1.22,2.47.7.63,1.1,1.46,1.22,2.47,0,.51-.17.98-.52,1.42-.35.44-.58.92-.7,1.42.23.51.52,1.08.87,1.71.35.63.64,1.27.87,1.9.35.63.61,1.3.79,1.99.17.7.32,1.42.44,2.18.23.63.44,1.27.61,1.9.17.63.32,1.27.44,1.9l2.44,2.09c.35.25.73.6,1.14,1.04.41.44.84.79,1.31,1.04,1.4.38,2.62.76,3.67,1.14.93.25,1.75.38,2.44.38h2.27c-.12,0-.17.06-.17.19h.35c-.12,0-.17-.06-.17-.19.23-.25.52-.41.87-.47.35-.06.64-.1.87-.1.7,0,1.42.03,2.18.1.76.06,1.54.03,2.36-.1.23-.25.55-.28.96-.09.41.19.79.35,1.14.47.46,0,.81-.12,1.05-.38,0-.5-.03-.95-.09-1.33-.06-.38.09-.69.44-.95,1.51-.88,2.97-1.58,4.37-2.09.58-.5,1.08-.95,1.48-1.33.41-.38.79-.82,1.14-1.33.46-.25.84-.57,1.14-.95.29-.38.67-.63,1.13-.76,1.05-.38,1.95-.92,2.71-1.61.76-.69,1.48-1.42,2.18-2.18.11-.25.2-.47.26-.66.06-.19.14-.41.26-.67,1.28-2.91,1.57-5.82.87-8.73Z"/>
  <path class="st0" d="M433.26,21.88c-.7,2.41-.99,4.68-.87,6.83.12.63.12,1.3,0,1.99-.12.7-.23,1.36-.35,1.99-.12.51-.15,1.14-.09,1.9.06.76-.03,1.39-.26,1.9-.23.89-.23,1.74,0,2.56.23.82.41,1.61.52,2.37-.23.89-.47,1.87-.7,2.94-.23,1.08-.29,2.25-.17,3.51,0,1.52-.17,3.04-.52,4.56-.12.89-.12,1.77,0,2.66.46,1.65.64,3.23.52,4.75-.12,1.52-.41,3.04-.87,4.56-.47.89-.7,1.77-.7,2.66.11,1.39-.06,2.72-.52,3.99-.47,1.27-.99,2.53-1.57,3.8-.12.38-.35.7-.7.95-.35.25-.64.57-.87.95-.82,2.91-1.46,4.97-1.92,6.17-.47,1.2-1.34,3.07-2.62,5.6-.12.25-.35.57-.7.95-.35.38-.64.7-.87.95-.12.25-.26.44-.44.57-.17.13-.26.25-.26.38-.47,1.65-1.17,3.04-2.1,4.18-.93,1.14-1.86,2.21-2.79,3.23-.47.51-.85,1.04-1.14,1.61-.29.57-.67,1.17-1.13,1.8-1.17.89-2.27,1.77-3.32,2.66-1.05.89-2.16,1.77-3.32,2.66-.7.51-1.4.95-2.1,1.33-.82.25-1.63.6-2.45,1.04-.82.44-1.63.79-2.44,1.04-.82.51-1.63.92-2.45,1.23-.82.32-1.63.73-2.44,1.23h-4.02c-.58.25-1.2.54-1.83.85-.64.32-1.31.41-2.01.29-.7-.12-1.37.03-2.01.47-.64.44-1.31.73-2.01.85-.35-.12-.76-.25-1.22-.38-.47-.12-.93-.19-1.4-.19-.47.38-.9.73-1.31,1.04-.41.32-.85.67-1.31,1.04-.12,0-.26.03-.44.1-.17.06-.38.09-.61.09-.47,0-.96.03-1.48.09-.52.07-1.02.03-1.48-.09-.82-.5-1.57-.69-2.27-.57-.7.13-1.46,0-2.27-.38-.93-.25-1.4-.82-1.4-1.71,0-1.14-.58-1.83-1.75-2.09-.35,0-.67.03-.96.1-.29.06-.61.09-.96.09-.47-.12-.87-.38-1.22-.76-.35-.38-.76-.69-1.22-.95-.58-.5-1.22-.98-1.92-1.42-.7-.44-1.46-.73-2.27-.85-.7-.12-1.37-.35-2.01-.66-.64-.31-1.25-.54-1.83-.67-1.28-.5-2.21-1.64-2.79-3.42-.35-1.64-.99-2.97-1.92-3.99-.35-.5-.64-.98-.87-1.42-.23-.44-.47-.92-.7-1.42-.23-.25-.47-.63-.7-1.14-.24-.5-.47-.82-.7-.95-1.17-.76-2.07-1.71-2.71-2.85-.64-1.14-1.2-2.34-1.66-3.61-.12-.12-.21-.31-.26-.57-.06-.25-.15-.44-.26-.57-.82-.5-1.22-1.26-1.22-2.28s-.12-1.96-.35-2.85c-.23-.25-.52-.57-.87-.95-.35-.38-.7-.82-1.05-1.33-.23-1.01-.52-2.02-.87-3.04-.35-1.01-.64-2.09-.87-3.23,0-2.02-.03-3.51-.09-4.46-.06-.95-.15-1.9-.26-2.85-.12-.95-.41-2.31-.87-4.08,0-1.01.2-2.02.61-3.04.41-1.01.49-2.21.26-3.61-.35-.63-.67-1.39-.96-2.28-.29-.88-.67-1.77-1.13-2.66,0-.25-.03-.57-.09-.95-.06-.38-.09-.69-.09-.95.12-1.01.17-1.96.17-2.85v-2.66c0-1.01.12-2.06.35-3.13.23-1.07.41-2.06.52-2.94.23-1.39.44-2.75.61-4.08.17-1.33.38-2.69.61-4.08.23-2.02.64-4.05,1.22-6.07.58-2.02,1.22-4.05,1.92-6.07,1.28-.88,2.47-1.71,3.58-2.47,1.1-.76,2.24-1.58,3.41-2.47h7.51l1.92.76c.58.13,1.16.09,1.75-.1.58-.19,1.16-.35,1.75-.47.58.38,1.25.79,2.01,1.23.76.44,1.54.98,2.36,1.61,0,.26.09.57.26.95.17.38.26.7.26.95,0,.89-.03,1.84-.09,2.85-.06,1.01-.26,2.03-.61,3.04-.23,1.14-.23,2.34,0,3.61.12.38.17,1.01.17,1.9-.12,1.01-.29,2.09-.52,3.23-.24,1.14-.52,2.22-.87,3.23-.12.51-.17.98-.17,1.42s.06.85.17,1.23c.35,1.01.38,1.96.09,2.85-.29.89-.32,1.77-.09,2.66.7,1.52.93,3.29.7,5.31,0,1.01.17,1.84.52,2.47.58,1.14.9,2.25.96,3.32.06,1.08.03,2.18-.09,3.32-.23,1.01-.26,2.03-.09,3.04.17,1.01.44,1.96.79,2.85.46.76.81,1.49,1.05,2.18.23.7.58,1.49,1.05,2.37.58.63,1.22,1.33,1.92,2.09.7.76,1.28,1.65,1.75,2.66.11.63.58,1.39,1.4,2.28l.52.38c.58.13,1.19.19,1.83.19h1.83c.58.51,1.11.95,1.57,1.33.46.38.93.76,1.4,1.14.7-.38,1.34-.76,1.92-1.14.58-.38,1.16-.82,1.75-1.33l2.45-.57c.11,0,.26-.03.44-.09.17-.06.32-.03.44.09,3.26,1.14,5.76-.06,7.51-3.61.23-.76.58-1.52,1.05-2.28.46-.76.81-1.58,1.05-2.47.23-.63.52-1.2.87-1.71.35-.5.7-1.01,1.05-1.52v-2.66c.35-.25.73-.6,1.14-1.04.41-.44.84-.79,1.31-1.04.23-.63.44-1.26.61-1.9.17-.63.44-1.26.79-1.9.23-.5.44-.98.61-1.42.17-.44.44-.92.79-1.42-.12-.63-.23-1.14-.35-1.52-.12-.38-.23-.82-.35-1.33.81-2.02,1.28-3.99,1.4-5.88.12-.63.14-1.3.09-1.99-.06-.69-.15-1.42-.26-2.18.23-.63.44-1.23.61-1.8.17-.57.32-1.11.44-1.61,0-1.01-.09-1.99-.26-2.94-.17-.95-.15-1.87.09-2.75.23-.88.29-1.52.17-1.9-.47-2.02-.58-3.99-.35-5.88.23-1.9.58-3.67,1.05-5.31-.12-.63-.21-1.26-.26-1.9-.06-.63-.09-1.26-.09-1.9.23-.25.46-.44.7-.57.23-.12.41-.38.52-.76.58.25,1.08.47,1.48.66.41.19.84.35,1.31.47,1.63.63,3.26,1.14,4.89,1.52,1.63.38,3.32.32,5.06-.19,1.98.13,3.99.22,6.02.28,2.04.06,4.04.41,6.03,1.04,1.63.51,2.62,1.46,2.97,2.85l1.22,3.23Z"/>
  <path class="st0" d="M528.43,10.31c-.23,1.52-.38,3.01-.44,4.46-.06,1.46-.09,2.94-.09,4.46,0,1.77-.03,3.48-.09,5.12-.06,1.65-.2,3.35-.44,5.13-.12.25-.17.63-.17,1.14.12,1.27.32,2.5.61,3.7.29,1.2.32,2.31.09,3.32-.23.63-.29,1.27-.17,1.9.11.63.06,1.27-.17,1.9-.12.26-.23.51-.35.76-.12.26-.23.51-.35.76-.58.13-1.14.22-1.66.29-.52.06-1.08.09-1.66.09-.23.13-.55.35-.96.66-.41.32-.79.6-1.13.85-.47-.25-.85-.5-1.13-.76-.29-.25-.61-.44-.96-.57-.23,0-.52-.03-.87-.1-.35-.06-.64-.03-.87.1-.82.38-1.89.47-3.23.28-1.34-.19-2.48-.28-3.41-.28-1.17,0-2.24.16-3.23.47-.99.32-2.01.73-3.06,1.23-.82.51-1.66.79-2.53.85-.87.06-1.78.28-2.71.66-.58.89-.82,1.71-.7,2.47.23,1.01.44,2.12.61,3.32.17,1.2.03,2.44-.44,3.7,0,.51.06.82.17.95.46,1.27.7,2.53.7,3.8s-.12,2.6-.35,3.99c-.12,1.27-.17,2.5-.17,3.7s-.12,2.5-.35,3.89c-.23,1.39-.17,2.66.17,3.8.11.76.17,1.52.17,2.28v2.09c-.12.89-.17.89-.17,0v.57c0,.13-.03.22-.09.28-.06.07-.09.16-.09.29.11,2.15.14,3.77.09,4.84-.06,1.08-.15,2.03-.26,2.85-.12.82-.35,2.06-.7,3.7v.95c.46,2.03.7,4.08.7,6.17s-.06,4.15-.17,6.17c0,1.39.03,2.79.09,4.18.06,1.39.32,2.85.79,4.37-.12.76-.29,1.61-.52,2.56-.23.95-.52,1.87-.87,2.75-.12.5-.32.95-.61,1.33-.29.38-.73.82-1.31,1.33-2.79-.26-5.41,0-7.86.76-1.28.5-2.62.31-4.02-.57l-.35-.38c-1.75-1.14-3.44-1.33-5.06-.57-.7.38-1.4.5-2.1.38-.7-.13-1.34-.19-1.92-.19-.82,0-1.51.31-2.09.95-.58.63-1.34.69-2.27.19-.12-1.01-.03-1.96.26-2.85.29-.88.49-1.9.61-3.04-.12-.88-.32-1.83-.61-2.85-.29-1.01-.55-2.02-.79-3.04.23-.63.41-1.23.52-1.8.11-.57.17-1.11.17-1.61.11-.63.14-1.3.09-1.99-.06-.69-.09-1.36-.09-1.99.11-2.02.14-3.95.09-5.79-.06-1.83-.2-3.7-.44-5.6-.23-1.52-.38-3-.44-4.46-.06-1.45-.15-3-.26-4.65.35-.5.67-1.01.96-1.52.29-.5.67-1.01,1.14-1.52l.17-1.52v-1.9c-.12-1.77-.12-3.64,0-5.6.12-1.96.35-3.83.7-5.6-.12-1.39-.29-2.75-.52-4.08-.23-1.33-.64-2.62-1.22-3.89.23-.63.49-1.26.79-1.9.29-.63.49-1.2.61-1.71-.12-1.01-.09-1.9.09-2.66.17-.76.09-1.58-.26-2.47-.12-.38-.41-.69-.87-.95-.82,0-1.63-.06-2.44-.19-.82-.12-1.63-.19-2.45-.19s-1.6-.12-2.36-.38c-.76-.25-1.54-.25-2.36,0-.7.38-1.37.41-2.01.09-.64-.31-1.31-.41-2.01-.28h-4.54l-4.37-.76c-.23,0-.52-.19-.87-.57-.35-.38-.52-.76-.52-1.14v-1.33c.23-.76.44-1.55.61-2.37.17-.82.14-1.68-.09-2.56-.12-.12-.15-.35-.09-.66.06-.31.09-.54.09-.66.46-2.28.7-4.94.7-7.97s-.12-5.69-.35-7.97v-2.28c0-.76.11-1.45.35-2.09.58-.63,1.16-.98,1.75-1.04.58-.06,1.16-.16,1.75-.28.58-.25,1.1-.54,1.57-.85.46-.31.99-.54,1.57-.66,2.68-1.01,5.18-1.01,7.51,0l1.22.38c1.05-.5,2.15-.73,3.32-.66,1.16.06,2.38-.22,3.67-.85.23,0,.61.03,1.13.1.52.06,1.08.09,1.66.09,1.05-.5,2.12-1.01,3.23-1.52,1.11-.5,2.18-1.26,3.23-2.28,1.86-.25,3.69-.31,5.5-.19,1.8.13,3.52-.12,5.15-.76.81.13,1.54.35,2.18.66.64.32,1.19.6,1.66.85.81,0,1.46-.28,1.92-.85.46-.57,1.16-.92,2.1-1.04.93-.25,2.27-.19,4.02.19.7.13,1.42.47,2.18,1.04.76.57,1.54.79,2.36.66.58-.38,1.07-.76,1.48-1.14.41-.38.9-.76,1.48-1.14.7,0,1.45.16,2.27.47.81.32,1.57.41,2.27.28.81-.12,1.6-.28,2.36-.47.76-.19,1.72-.29,2.88-.29.46.13.93.29,1.4.47.46.19.93.41,1.4.66.7-.25,1.42-.44,2.18-.57.76-.12,1.54-.25,2.36-.38.23.38.46.76.7,1.14.23.38.41.7.52.95Z"/>
</svg>