<?xml version="1.0" encoding="UTF-8"?>
<svg id="_レイヤー_1" data-name="レイヤー_1" xmlns="http://www.w3.org/2000/svg" version="1.1" viewBox="0 0 930 550">
  <!-- Generator: Adobe Illustrator 30.3.0, SVG Export Plug-In . SVG Version: 2.1.3 Build 182)  -->
  <defs>
    <style>
      .st0 {
        fill: #ee89b5;
      }

      .st1 {
        fill: #fbcd26;
      }

      .st2 {
        fill: #00c0eb;
      }

      .st3 {
        fill: #292929;
      }

      .st4 {
        fill: #ff9c10;
      }

      .st5 {
        fill: #155353;
      }

      .st6 {
        opacity: .6;
      }

      .st6, .st7 {
        fill: #fff;
      }

      .st8 {
        fill: #563d2f;
      }

      .st9 {
        fill: #62c6f2;
      }

      .st10 {
        fill: #f09cab;
      }

      .st11 {
        fill: #14af73;
      }

      .st12 {
        fill: #ffae00;
      }

      .st13 {
        fill: #0088cf;
      }

      .st14 {
        fill: #ff364a;
      }

      .st15 {
        fill: #c2db49;
      }

      .st16 {
        fill: #ffbeac;
      }

      .st17 {
        fill: #d57535;
      }

      .st18 {
        fill: #fbf454;
      }
    </style>
  </defs>
  <g>
    <rect class="st10" x=".38" y="-.47" width="930" height="550"/>
    <rect class="st18" x=".6" y="-.47" width="929.56" height="550"/>
    <path class="st14" d="M238.59,79.4c-17.88-1.1-24.54,15.03-25.65,30.24-7.42-1.71-15.36-1.97-22.61-1.11-30.8,3.63-32.79,25.63-9.24,41.93,19.77,13.68,49.15,14.93,72.68,11.87.09-.09.19-.18.28-.27,1.02-11.61,3.4-23.06,4.6-34.65,1.76-17.04,4.8-46.49-20.05-48.02Z"/>
    <g>
      <path class="st12" d="M817.62,129.8c7.13-4.15,14.26-9.23,19.79-15.18,32.48-34.89-33.16-28.08-41.51,1.06-.43-8.77-.83-17.8-2.7-26.41-11.21-51.47-40.77,10.59-11.62,31.25-2.29-.33-4.6-.6-6.96-.79-11.81-.97-49.91,2.02-32.17,18.97,8.96,8.56,28.67,7.12,39.58,3.88-7.37,5.15-6.28,8.31-10.49,15.95-22.1,40.13,21.93,24.12,26.76-5.21-.32,5.77-.24,12.03,1.64,16.94,11.94,31.29,31.89-3.53,12.42-25.55,4.84,5.23,10.45,6.54,17.53,8.13,45.73,10.26,30.67-39.23-12.27-23.05Z"/>
      <ellipse class="st7" cx="797.8" cy="132.46" rx="14.23" ry="13.43"/>
    </g>
    <g>
      <path class="st9" d="M89.9,472.54c3.26-1.9,6.52-4.22,9.06-6.94,14.86-15.96-15.17-12.85-19,.49-.2-4.01-.38-8.14-1.24-12.08-5.13-23.55-18.66,4.84-5.32,14.3-1.05-.15-2.11-.28-3.18-.36-5.4-.44-22.84.92-14.72,8.68,4.1,3.92,13.12,3.26,18.11,1.77-3.37,2.36-2.87,3.8-4.8,7.3-10.11,18.36,10.03,11.04,12.24-2.38-.14,2.64-.11,5.5.75,7.75,5.46,14.32,14.59-1.62,5.68-11.69,2.22,2.39,4.78,2.99,8.02,3.72,20.93,4.69,14.03-17.95-5.61-10.55Z"/>
      <ellipse class="st7" cx="80.83" cy="473.75" rx="6.51" ry="6.14"/>
    </g>
    <g>
      <path class="st0" d="M465.85,126.57c3.26-1.9,6.52-4.22,9.06-6.94,14.86-15.96-15.17-12.85-19,.49-.2-4.01-.38-8.14-1.24-12.08-5.13-23.55-18.66,4.84-5.32,14.3-1.05-.15-2.11-.28-3.18-.36-5.4-.44-22.84.92-14.72,8.68,4.1,3.92,13.12,3.26,18.11,1.77-3.37,2.36-2.87,3.8-4.8,7.3-10.11,18.36,10.03,11.04,12.24-2.38-.14,2.64-.11,5.5.75,7.75,5.46,14.32,14.59-1.62,5.68-11.69,2.22,2.39,4.78,2.99,8.02,3.72,20.93,4.69,14.03-17.95-5.61-10.55Z"/>
      <ellipse class="st7" cx="456.78" cy="127.78" rx="6.51" ry="6.14"/>
    </g>
    <g>
      <path class="st11" d="M207.4,297.98c46.01-12.16,2.46-36.94-22.2-18.17,4.41-3.91,8.77-8.96,10.98-14.33,13.53-32.97-31.09-25-29.94,7.99-.07-6.55.08-13.58-1.31-20.01-1.89-8.72-5.77-23.52-16.99-15.56-9.84,6.98-3.27,31.84.15,40.66-3.41-5.91-7.68-11.29-12.24-16.46-7.18-8.14-27.08-28.99-30.7-7.97-2.32,13.49,14.54,26.71,28.71,32.64-3.61-.01-7.25.31-10.85.8-12.48,1.7-40.18,12.42-21.74,26.76,10.98,8.54,31.49-1.19,41.46-7.29-5.98,4.42-10.42,10.36-13.93,16.68-5.41,9.76-11.79,31.86,7.71,25.74,10.3-3.23,17.27-21.67,19.04-31.37-.46,6.94.27,14.19,2.1,20.89,3.1,11.29,14.64,27.46,24.72,10.18,5.39-9.23-2.96-25.15-8.63-32.89,4.18,5.44,9.63,11.13,15.83,14.51,11.25,6.12,28.92,6.46,25.4-10.24-2.3-10.92-19.24-17.27-29.12-20.24,7.32,1.05,14.45-.43,21.53-2.3Z"/>
      <path class="st1" d="M187.74,289.72c3.19,13.69-5.99,27.22-20.49,30.23-14.5,3.01-28.84-5.65-32.03-19.34-3.19-13.69,5.99-27.22,20.49-30.23,14.5-3.01,28.84,5.65,32.03,19.34Z"/>
      <g>
        <path class="st3" d="M153.54,292.77c.5,2.13-.32,4.1-1.81,4.41-1.5.31-3.11-1.16-3.6-3.29-.5-2.13.31-4.11,1.81-4.42,1.5-.31,3.11,1.16,3.6,3.29Z"/>
        <path class="st3" d="M173.05,288.73c.5,2.12-.31,4.1-1.81,4.41-1.5.31-3.11-1.16-3.6-3.29-.5-2.13.31-4.11,1.81-4.42,1.5-.31,3.11,1.16,3.61,3.29Z"/>
      </g>
      <path class="st3" d="M153.97,302.3l17.51-3.63s-.45,6.63-6.54,10.75c-4.9-.08-9.67-3.87-10.97-7.12Z"/>
    </g>
    <path class="st14" d="M849.29,386.08c2.89-1.45,6.48-.42,8.02,2.31h0c3.98,7.06,13.28,9.74,20.76,5.98,2.89-1.45,6.48-.42,8.03,2.31,1.54,2.73.44,6.12-2.45,7.57-7.49,3.76-10.32,12.53-6.34,19.6h0c1.54,2.74.44,6.12-2.45,7.57-2.89,1.46-6.48.43-8.02-2.31h0c-3.99-7.06-13.28-9.74-20.76-5.98-2.89,1.45-6.49.42-8.02-2.31-1.54-2.73-.44-6.12,2.45-7.57,7.49-3.76,10.32-12.53,6.34-19.59h0c-1.54-2.74-.44-6.13,2.45-7.58Z"/>
    <path class="st7" d="M774.03,297.47c1.33-.67,2.98-.19,3.69,1.06h0c1.83,3.25,6.11,4.48,9.55,2.75,1.33-.67,2.98-.19,3.69,1.06.71,1.26.2,2.81-1.13,3.48-3.45,1.73-4.75,5.77-2.91,9.01h0c.71,1.26.2,2.82-1.13,3.48-1.33.67-2.98.2-3.69-1.06h0c-1.83-3.25-6.11-4.48-9.55-2.75-1.33.67-2.99.19-3.69-1.06-.71-1.26-.2-2.82,1.13-3.48,3.44-1.73,4.75-5.77,2.91-9.01h0c-.71-1.26-.2-2.82,1.13-3.49Z"/>
    <path class="st7" d="M57.69,202.77c1.33-.67,2.98-.19,3.69,1.06h0c1.83,3.25,6.11,4.48,9.55,2.75,1.33-.67,2.98-.19,3.69,1.06.71,1.26.2,2.81-1.13,3.48-3.45,1.73-4.75,5.77-2.91,9.01h0c.71,1.26.2,2.82-1.13,3.48-1.33.67-2.98.2-3.69-1.06h0c-1.83-3.25-6.11-4.48-9.55-2.75-1.33.67-2.99.19-3.69-1.06-.71-1.26-.2-2.82,1.13-3.48,3.44-1.73,4.75-5.77,2.91-9.01h0c-.71-1.26-.2-2.82,1.13-3.49Z"/>
    <path class="st14" d="M92.08,69.06c1.33-.67,2.98-.19,3.69,1.06h0c1.83,3.25,6.11,4.48,9.55,2.75,1.33-.67,2.98-.19,3.69,1.06.71,1.26.2,2.81-1.13,3.48-3.44,1.73-4.75,5.77-2.91,9.01h0c.71,1.26.2,2.82-1.13,3.48-1.33.67-2.98.2-3.69-1.06h0c-1.83-3.25-6.11-4.48-9.55-2.75-1.33.67-2.99.19-3.69-1.06-.71-1.26-.2-2.81,1.13-3.48,3.44-1.73,4.75-5.77,2.91-9.01h0c-.71-1.26-.2-2.82,1.13-3.49Z"/>
    <path class="st14" d="M852.46,478.34c1.33-.67,2.98-.19,3.69,1.06h0c1.83,3.25,6.11,4.48,9.55,2.75,1.33-.67,2.98-.19,3.69,1.06.71,1.26.2,2.81-1.13,3.48-3.44,1.73-4.75,5.77-2.91,9.01h0c.71,1.26.2,2.82-1.13,3.48-1.33.67-2.98.2-3.69-1.06h0c-1.83-3.25-6.11-4.48-9.55-2.75-1.33.67-2.99.19-3.69-1.06-.71-1.26-.2-2.81,1.13-3.48,3.44-1.73,4.75-5.77,2.91-9.01h0c-.71-1.26-.2-2.82,1.13-3.49Z"/>
    <path class="st14" d="M633.94,58.08c1.33-.67,2.98-.19,3.69,1.06h0c1.83,3.25,6.11,4.48,9.55,2.75,1.33-.67,2.98-.19,3.69,1.06.71,1.26.2,2.81-1.13,3.48-3.44,1.73-4.75,5.77-2.91,9.01h0c.71,1.26.2,2.82-1.13,3.48-1.33.67-2.98.2-3.69-1.06h0c-1.83-3.25-6.11-4.48-9.55-2.75-1.33.67-2.99.19-3.69-1.06-.71-1.26-.2-2.81,1.13-3.48,3.44-1.73,4.75-5.77,2.91-9.01h0c-.71-1.26-.2-2.82,1.13-3.49Z"/>
    <path class="st11" d="M881.35,232.97c1.33-.67,2.98-.19,3.69,1.06h0c1.83,3.25,6.11,4.48,9.55,2.75,1.33-.67,2.98-.19,3.69,1.06.71,1.26.2,2.81-1.13,3.48-3.44,1.73-4.75,5.77-2.91,9.01h0c.71,1.26.2,2.82-1.13,3.48-1.33.67-2.98.2-3.69-1.06h0c-1.83-3.25-6.11-4.48-9.55-2.75-1.33.67-2.99.19-3.69-1.06-.71-1.26-.2-2.81,1.13-3.48,3.44-1.73,4.75-5.77,2.91-9.01h0c-.71-1.26-.2-2.82,1.13-3.49Z"/>
    <path class="st11" d="M80.84,376.49c1.33-.67,2.98-.19,3.69,1.06h0c1.83,3.25,6.11,4.48,9.55,2.75,1.33-.67,2.98-.19,3.69,1.06.71,1.26.2,2.81-1.13,3.48-3.44,1.73-4.75,5.77-2.91,9.01h0c.71,1.26.2,2.82-1.13,3.48-1.33.67-2.98.2-3.69-1.06h0c-1.83-3.25-6.11-4.48-9.55-2.75-1.33.67-2.99.19-3.69-1.06-.71-1.26-.2-2.81,1.13-3.48,3.44-1.73,4.75-5.77,2.91-9.01h0c-.71-1.26-.2-2.82,1.13-3.49Z"/>
    <g>
      <g>
        <path class="st15" d="M427.32,391.34s24.78-1.84,36.06,9.17c33.27,32.48,49.03,149.03,49.03,149.03h-212.77s18.1-109.36,25.25-128.8c7.15-19.44,33.01-21.96,33.01-21.96l69.42-7.44Z"/>
        <path class="st16" d="M403.05,370.44l2.48,11.03c1.4,6.24,7.23,10.7,13.98,10.7h0c-.05-.48-4.6,25.93-46.88,34,0,0-22.26,2.88-15.82-23.65l-11.2-18.85,57.44-13.22Z"/>
      </g>
      <g>
        <g>
          <path class="st17" d="M309.18,365.32s-17.77,19.48-18.31,27.8c-.54,8.32,18.97,11.71,18.97,11.71,0,0,3.71-8.71,4.36-11.67,0,0,.01,7.73-2.03,11.38l5.59,2.11s8.07-10.6,7.04-25.68c-1.03-15.08-5.14-25.13-15.61-15.66Z"/>
          <path class="st17" d="M434.35,348.45s22.49,14.51,25.28,22.42c2.79,7.91-15.13,15.92-15.13,15.92,0,0-5.96-7.51-7.39-10.21,0,0,2.1,7.47,5.06,10.5l-4.83,3.4s-10.69-8.28-13.8-23.1c-3.12-14.82-1.89-25.54,10.81-18.92Z"/>
          <g>
            <path class="st17" d="M293.46,313.56s-13.29-53.65,44.23-72.69c28.29-9.36,54-9.66,73.53,4.78,18.38,13.59,30.46,37.06,26.66,58.8l-1.65,9.46-137.99,17.05-4.78-17.41Z"/>
            <path class="st16" d="M425.99,316.5s3.83,25.45.58,39.84c0,0-14.85,41.99-60.58,46.16-57.39,5.23-79.93-82.75-57.69-125.17,22.23-42.42,79.53-30.25,95.39-13,9.85,10.72,20.63,25.51,22.3,52.18Z"/>
            <path class="st8" d="M341.5,339.25c.84,4.23-1.32,8.16-4.82,8.78-3.5.62-7.03-2.3-7.87-6.53-.84-4.23,1.32-8.16,4.82-8.78,3.5-.62,7.03,2.3,7.87,6.53Z"/>
            <path class="st8" d="M392.23,326.86c.84,4.23-1.32,8.16-4.82,8.78-3.5.62-7.03-2.3-7.87-6.53-.84-4.23,1.32-8.16,4.82-8.78,3.5-.62,7.03,2.3,7.87,6.53Z"/>
            <path class="st8" d="M353,350.45c.01-.06.03-.12.05-.18,1.19-3.41,2.97-5.35,5.29-5.76,3.49-.61,6.38,2.61,6.7,2.98.6.69.49,1.7-.25,2.27-.73.57-1.81.46-2.41-.23-.6-.69-2.23-2.05-3.42-1.84-.96.17-1.9,1.44-2.65,3.58-.3.85-1.27,1.31-2.17,1.03-.84-.26-1.32-1.07-1.14-1.87Z"/>
            <path class="st8" d="M392.78,308.79c-.28.1-.6.08-.92-.07-.36-.17-8.88-4.11-13.83,1.95-.46.56-1.3.52-1.88-.09-.58-.61-.67-1.57-.21-2.13,6.05-7.4,16.18-2.68,16.61-2.48.71.34,1.13,1.23.94,1.99-.11.42-.38.71-.72.83Z"/>
            <path class="st8" d="M333.83,319.77c-.2.12-.47.14-.77.04-.35-.12-8.49-2.84-10.74,3.39-.21.58-.91.64-1.56.13-.65-.51-1.02-1.39-.81-1.97,2.75-7.61,12.45-4.35,12.86-4.21.68.24,1.29,1.02,1.36,1.76.04.41-.1.71-.34.86Z"/>
            <path class="st16" d="M414.2,329.67c.39,10.68,6.91,19.14,14.56,18.89,7.65-.25,13.53-9.11,13.14-19.8-.39-10.68-6.91-19.14-14.56-18.89-7.65.25-13.53,9.11-13.14,19.8Z"/>
            <path class="st16" d="M315.44,342.09c4.4,8.98,2.76,18.53-3.67,21.34-6.43,2.81-15.21-2.2-19.61-11.17-4.4-8.98-2.76-18.53,3.67-21.34,6.43-2.81,15.21,2.2,19.61,11.17Z"/>
          </g>
          <path class="st17" d="M427.34,309.87l-1.95.24c-.9-.32-65.07-28.56-75.88-61.06,0,0,36.16-8.24,57.07,7.98,20.9,16.22,20.76,52.84,20.76,52.84Z"/>
          <path class="st17" d="M349.52,249.05s-29.18,70.37-48.84,81.14c0,0-8.39-27.16-1.64-42.67,6.75-15.51,23.58-38.85,50.48-38.48Z"/>
        </g>
        <path class="st8" d="M356.31,371.74c.94,0,1.92-.03,2.97-.1,16.2-1.08,24.03-12.9,24.36-13.41.36-.56.18-1.3-.42-1.64-.6-.34-1.38-.17-1.74.4-.09.14-7.53,11.28-22.38,12.27-14.31.95-16.11-5.37-16.18-5.64-.17-.64-.84-1.04-1.52-.89-.68.15-1.1.77-.95,1.41.08.33,1.94,7.6,15.86,7.6Z"/>
      </g>
      <path class="st4" d="M634.42,365.27s34.82-3.3,62.79,20.21c27.97,23.52,39.54,164.06,39.54,164.06h-271.21s-24.93-142.11,85.97-173.66c72.03-20.5,82.91-10.61,82.91-10.61Z"/>
      <g>
        <path class="st5" d="M485.56,537.61l-4.01,2,4.01,9.92,84.67-44.63c3.11-1.64,4.98-4.45,4.98-7.46v-7.08l-89.66,47.25Z"/>
        <g>
          <path class="st13" d="M378.86,487.18h192.77c3.6,0,4.99,3.83,1.96,5.43l-90.89,47.9c-.13.07-.29.11-.45.11h-202.24c-.82,0-1.14-.87-.45-1.24l98.85-52.1c.13-.07.29-.11.45-.11Z"/>
          <g>
            <path class="st2" d="M437.84,492.45l-20.37,10.73c-.95.5-.51,1.69.61,1.69h57.01c1.7,0,3.37-.4,4.81-1.16l20.5-10.81c.95-.5.51-1.69-.61-1.69h-56.85c-1.81,0-3.58.43-5.11,1.23Z"/>
            <path class="st2" d="M302.03,536.57h176.32c1.74,0,3.45-.41,4.92-1.19l49.09-25.95c1.24-.66.67-2.23-.81-2.23h-179.59c-1.56,0-3.08.37-4.39,1.06l-46.83,24.76c-1.98,1.05-1.07,3.55,1.29,3.55Z"/>
          </g>
        </g>
        <path class="st13" d="M268.46,549.53h217.1l-54.16-133.93c-4.04-8.88-14.42-14.77-26.02-14.77h-191.92c-13.41,0-19.22,6.9-14.55,17.16l48.02,118.8c3.05,7.6,11.74,12.73,21.53,12.73Z"/>
        <path class="st7" d="M314.64,479.39c0,5.32,5.28,9.63,11.79,9.63s11.79-4.31,11.79-9.63-5.28-9.63-11.79-9.63-11.79,4.31-11.79,9.63Z"/>
      </g>
      <g>
        <path class="st5" d="M467.07,277.79s-16.09-67.34,49.89-88.53c65.98-21.19,102.64,10.24,124.5,55.97l-174.39,32.56Z"/>
        <path class="st16" d="M590.24,332.31l8.85,23.54,23.33,9.42s6.44,59.32-53.09,53.8c0,0-26.12-5.32-23.12-35.79l-17.91-28.19,61.94-22.78Z"/>
        <path class="st16" d="M615.84,281.29s4.07,27.84,0,51.44c0,0-22.17,55.22-74.69,55.25-62.69.05-85.27-102.44-60.04-151.03,25.23-48.59,90.8-34.9,109.01-15.24,11.31,12.21,23.7,29.09,25.72,59.57Z"/>
        <path class="st5" d="M507.24,307.81c.98,4.83-1.47,9.33-5.47,10.05-4,.72-8.04-2.6-9.02-7.43-.98-4.83,1.47-9.33,5.47-10.05,4-.72,8.04,2.6,9.02,7.43Z"/>
        <path class="st5" d="M568.68,293.01c.98,4.83-1.47,9.33-5.47,10.05-4,.72-8.04-2.6-9.02-7.43-.98-4.83,1.47-9.33,5.47-10.05,4-.72,8.04,2.6,9.02,7.43Z"/>
        <path class="st5" d="M521.84,322.95c-.03-.06-.06-.13-.09-.19-1.53-3.85-1.41-6.78.36-8.71,2.66-2.9,7.67-1.97,8.24-1.86,1.05.21,1.73,1.19,1.5,2.19-.22,1-1.27,1.64-2.32,1.43-1.06-.21-3.55-.33-4.45.66-.73.8-.61,2.57.35,4.98.38.96-.13,2.03-1.15,2.39-.94.33-1.99-.07-2.44-.89Z"/>
        <path class="st5" d="M566.41,271.11c-.31.11-.68.1-1.05-.08-.41-.2-10.17-4.66-15.8,2.28-.52.64-1.48.6-2.15-.1s-.78-1.79-.25-2.43c6.88-8.48,18.49-3.13,18.98-2.9.81.39,1.3,1.4,1.08,2.27-.12.48-.43.82-.82.95Z"/>
        <path class="st5" d="M499.4,283.34c-.25.09-.56.05-.87-.14-.35-.22-8.72-5.18-12.88,1.24-.39.59-1.18.49-1.78-.23-.6-.72-.76-1.79-.38-2.39,5.09-7.84,15.04-1.9,15.47-1.65.7.43,1.17,1.45,1.05,2.28-.06.46-.3.77-.61.88Z"/>
        <path class="st5" d="M518.72,206.41s.87,31.45,43.79,40.24c13.99,2.87,26.8,9.76,36.5,19.7,7.57,7.75,12.66,16.74,6.85,24.21l9.98,42.16s43.35-23.57,28.94-77.43c-14.42-53.86-75.35-88.66-126.06-48.88Z"/>
        <path class="st7" d="M566.86,323.96s4.38,24.67-15.13,30.63c-19.51,5.96-32.84-7.94-32.84-7.94l47.97-22.69Z"/>
        <path class="st16" d="M605.86,290.57c-4.47,11.47-1.43,23.08,6.79,25.93,8.21,2.85,18.49-4.14,22.96-15.61,4.47-11.47,1.43-23.08-6.79-25.93-8.21-2.85-18.49,4.14-22.96,15.61Z"/>
        <path class="st5" d="M518.72,206.41s-8.97,18.17-16.55,42.15c-3.66,11.58-6.32,23.41-18.24,27.82-6.09,2.25-12.1,3.22-16.86,1.41-20.76-7.9-6.94-59.25,21.26-72.9,28.2-13.65,30.39,1.53,30.39,1.53Z"/>
      </g>
      <g>
        <path class="st16" d="M696.09,281.03s1.24,14.45,10.48,29.98c7.98,13.41,41.4,62.94,63.62,95.53,11.18,16.4,6.1,38.25-11.34,48.73h0c-20.66,12.41-48.16,2.99-55.57-19.04l-47.89-139.07s-10.08-3.01-15.7-20.35c-5.62-17.34,56.4,4.23,56.4,4.23Z"/>
        <g>
          <path class="st16" d="M677.88,297.34c5.79-1.31,16.62-1.64,20.04-22.29,3.42-20.65,8.46-38.03,9.41-40.33.96-2.3-.95-25.15-1.54-27.99-.59-2.84-9.9-4.18-9.78,1.75.06,3.1.15,9.36.23,14.64.08,5.68-2.09,11.17-6.1,15.41h0l-35.94-2.33-1.99,8.74s-2.28-13.82-7.55-18.88c-5.27-5.07-12.82-4.29-12.42,3.07.41,7.35,3.91,31.56,3.91,31.56,0,0-.97,11.61,3.76,20.91,7.97,15.7,19.2,20,37.98,15.75Z"/>
          <path class="st16" d="M692.51,240.61l.02-8.4c.02-9.47-.66-18.93-2.04-28.32l-1.02-6.98c-.51-2.75-3.32-4.57-6.22-4.02h0c-2.73.52-4.56,2.96-4.17,5.56l2.55,17-.76,23.53,11.64,1.61Z"/>
          <path class="st16" d="M681,241.18l-2.87-24.01c-.06-.5-.14-.99-.25-1.48l-4.49-20.57c-.74-2.68-3.66-4.26-6.48-3.53l-1.23.32c-2.88.75-4.53,3.61-3.62,6.29l4.16,16.75c.33,1.35.49,2.73.46,4.11l-.44,19.57,14.77,2.54Z"/>
          <path class="st16" d="M652.05,245.72l1.5-16.59c.11-1.16.08-2.34-.08-3.49l-2.64-19.45c-.72-2.77,1.18-5.54,4.16-6.06l1.05-.18c2.75-.48,5.42,1.16,6.07,3.73l2.85,18.38c.05.35.1.71.13,1.06l1.33,15.53-14.37,7.09Z"/>
        </g>
      </g>
      <path class="st16" d="M478.55,438.43s20.25,3.22,25.97,10.25c5.72,7.04,14.35,16.01,9.61,21.37l-4.73,5.36s6.47,9.13.64,13.6c-5.83,4.47,4.28,15.69-11.47,13.48-15.75-2.22-37.17-8.9-36-27.22,1.17-18.33,6.42-38.96,15.97-36.84Z"/>
    </g>
  </g>
  <path class="st6" d="M530.76,269.24l-130.23,73.4c-.95.53-2.12.57-3.06.05-.95-.51-1.55-1.46-1.55-2.53v-146.75c0-1.04.6-2.01,1.55-2.53.95-.51,2.12-.48,3.06.03l130.23,73.4c.91.51,1.48,1.47,1.48,2.46s-.56,1.96-1.48,2.47Z"/>
</svg>