<?xml version="1.0" encoding="UTF-8"?>
<svg id="_レイヤー_1" data-name="レイヤー_1" xmlns="http://www.w3.org/2000/svg" version="1.1" viewBox="0 0 250 145">
  <!-- Generator: Adobe Illustrator 30.3.0, SVG Export Plug-In . SVG Version: 2.1.3 Build 182)  -->
  <defs>
    <style>
      .st0 {
        fill: #58c2ef;
      }
    </style>
  </defs>
  <path class="st0" d="M21.7,54.59c-.74-2.71-3.66-.06-3.57,1.81.07,1.4,1.33,2.11,2.56,2.09,1.63-.03,2.94-1.4,3.91-2.65,2.14-2.75,4.23-5.31,6.96-7.46,2.68-2.1,5.63-3.72,8.73-5.01,13.13-5.46,28.07-4.79,41.81-3.58,20.4,1.8,40.79,3.61,61.19,5.42,10.1.89,20.2,1.79,30.3,2.68,4.06.36,8.85,1.42,12.76-.32,3.67-1.63,5.25-5.44,6.99-8.89,3.65-7.23,10.71-11.71,18.14-13.56,9-2.25,18.29-.63,27.08,1.58,2.36.59,4.71,1.24,7.06,1.89-.32-.62-.64-1.24-.96-1.86-1.25,2.96-4.27,3.33-7.03,3.28-3.32-.05-6.6-.65-9.92-.55-7.79.24-13.51,6.73-16.17,13.96-1.8,4.9-2.37,10.16-3.04,15.31-.55,4.2-.77,9.91-3.7,13.25-1.68,1.91-4.18,1.82-6.47,1.95-2.65.15-5.31.32-7.96.47-5.4.32-10.81.64-16.21.96-21.62,1.28-43.23,2.63-64.84,3.95-21.61,1.33-43.23,2.65-64.84,3.97-5.5.34-11,.68-16.51,1.01-4.86.29-10.4,1.26-15.02-.71-3.78-1.61-6.85-6.31-4.13-10.36,1.39-2.07,3.47-3.66,5.26-5.33,2-1.86,3.98-3.73,5.92-5.67,1.9-1.9,3.79-3.83,5.68-5.76.72-.73-.41-1.94-1.19-1.3-4.5,3.67-8.94,7.37-13.26,11.26-3.39,3.04-7.43,6.48-6.52,11.68.77,4.39,4.22,7.69,8.18,8.97,5.02,1.62,10.54.8,15.72.48,22.59-1.39,45.19-2.79,67.78-4.18,22.69-1.4,45.39-2.81,68.08-4.21,11.3-.7,22.59-1.43,33.89-2.16,2.36-.16,4.82-.18,6.89-1.55,1.63-1.08,2.79-2.81,3.57-4.63,2.01-4.71,2.21-10.2,2.83-15.22,1.07-8.63,3.59-20.22,12.93-23.03,3.45-1.04,7.2-.28,10.69-.04,2.96.22,6.29.39,8.94-1.31,1.27-.81,2.17-2.02,2.77-3.43.38-.87-.17-1.64-.96-1.86-15.25-4.25-33.19-8.6-47.28,2.02-2.77,2.09-5.16,4.7-6.95,7.75-1.87,3.19-3.02,7.78-6.65,9.28-1.67.69-3.55.67-5.3.56-2.44-.15-4.87-.41-7.3-.62-4.71-.4-9.42-.81-14.12-1.22-19.22-1.67-38.45-3.33-57.67-5-15-1.3-30.3-3.51-45.39-1.85-7.14.79-14.38,2.51-20.74,6.16-3.01,1.73-5.76,3.85-8.21,6.38-1.32,1.37-2.45,2.86-3.58,4.39-.59.81-1.19,1.55-2.07,2-.3.14-.41.32-.43.16.03-.14.08-.28.15-.4.24-.25.09-.35-.44-.28.48,1.09,1.97.44,1.66-.69h0Z"/>
  <path class="st0" d="M43.45,41.89c1.94,6.79,2.82,13.88,2.18,20.99-.31,3.37-.92,6.72-1.82,9.98-.48,1.73-1.06,3.43-1.72,5.11-.56,1.42-1.61,3.05-1.35,4.63.07.41.49.78.9.56,1.43-.75,1.96-2.48,2.53-3.94.68-1.71,1.26-3.47,1.76-5.25,1.02-3.59,1.66-7.28,1.93-11.01.53-7.37-.28-14.88-2.81-21.75-.4-1.09-1.92-.42-1.6.67h0Z"/>
  <path class="st0" d="M65.54,52.52c4.98-.14,9.97-.29,14.95-.43-.4-.33-.8-.66-1.21-1,.18,3.41-.26,6.76-1.25,10.02.23-.23.46-.46.69-.69-5.3,2.13-10.95,2.54-16.45,1.26.37.53.75,1.07,1.12,1.6.32-2.34.65-4.68.97-7.01.3-2.16.88-4.58.47-6.74-.19-.99-1.41-1.24-1.88-.29-.97,1.99-1.05,4.45-1.33,6.61-.3,2.34-.61,4.68-.91,7.02-.1.79.39,1.44,1.12,1.6,4.92,1.09,10.01.89,14.87-.56.96-.28,2.4-.54,3.2-1.22.85-.72.95-2.59,1.14-3.64.48-2.73.58-5.52.39-8.26-.04-.65-.63-1.02-1.2-1-4.97.24-9.95.48-14.92.72-1.24.06-1.01,2.02.21,1.98h0Z"/>
  <path class="st0" d="M103.46,54.19c3.16-.75,7.28-2.14,10.1.24,1.79,1.5,2.73,5.05.51,6.64.28-.08.57-.15.85-.22-5.43-.74-10.99-.69-16.44-.1.48.39.95.79,1.43,1.18-.03-3.1.79-5.86,2.13-8.62.65-1.33-1.37-2.68-2.15-1.37-1.86,3.11-2.67,6.7-2.56,10.33.02.73.78,1.26,1.43,1.18,4.33-.56,8.68-.73,13.02-.45,1.78.11,3.31.68,4.58-.92.8-1,1.16-2.27,1.17-3.54.02-2.72-1.48-5.35-3.81-6.55-3.25-1.67-7.42-.94-10.64.57-.8.38-.57,1.88.38,1.64h0Z"/>
  <path class="st0" d="M130.48,56.13c-.01.13,7.4-.23,8.06-.27,2.86-.16,5.73-.33,8.59-.49-.39-.24-.78-.48-1.18-.73.93,2.73.96,5.61.02,8.37.43-.25.86-.49,1.3-.74-5.44-.81-10.97-.88-16.45-.25.47.39.94.78,1.42,1.17-.38-2.96.28-5.82,1.82-8.35.86-1.41-.96-3.06-1.95-1.65-2.12,3-2.93,6.68-2.43,10.33.1.72.71,1.26,1.42,1.17,5.28-.65,10.53-.59,15.79.09.48.06,1.12-.21,1.3-.74,1.1-3.42,1.09-6.92-.12-10.27-.18-.5-.68-.77-1.18-.73-2.67.2-5.34.41-8.01.61-1.33.1-2.67.2-4,.3-1.25.1-2.67.04-3.88.45-.89.29-2.19,1.47-1.2,2.43.6.59,1.82.32,1.67-.67-.08-.56-.93-.62-.99-.01h0Z"/>
  <path class="st0" d="M41.28,42.13c7.89-5.7,15.22-12.34,22.69-18.61,7.5-6.29,14.94-12.68,22.41-19.02-.42,0-.85-.02-1.27-.02,2.89,2.26,6.28,3.55,9.91,3.68-.21-.58-.43-1.17-.64-1.76-3.48,5.46-6.78,11.03-9.88,16.72-1.53,2.8-3.01,5.64-4.44,8.5-1.51,3.01-3.14,6.05-4.31,9.22-.45,1.24,1.14,1.95,1.77.82,1.54-2.79,2.77-5.78,4.19-8.64,1.42-2.87,2.89-5.7,4.41-8.51,3.09-5.71,6.38-11.3,9.86-16.76.39-.61.23-1.73-.64-1.76-3.27-.12-6.31-1.18-8.92-3.22-.35-.28-.9-.34-1.27-.02-7.54,6.42-15.1,12.81-22.6,19.27-7.37,6.35-15.02,12.49-21.94,19.37-.41.41.22,1.04.66.73h0Z"/>
  <path class="st0" d="M40.61,87.4c5.66,9.89,11.64,19.56,17.96,29,3.16,4.72,6.4,9.37,9.73,13.95,1.67,2.29,3.35,4.57,5.06,6.82,1.54,2.04,2.93,4.58,5.2,5.74.62.31,1.12-.38.97-.97-.65-2.61-2.9-4.7-4.48-6.78-1.71-2.26-3.39-4.53-5.06-6.82-3.28-4.5-6.5-9.05-9.65-13.66-6.34-9.3-12.36-18.83-18.05-28.57-.7-1.19-2.36.11-1.69,1.3h0Z"/>
  <path class="st0" d="M74.51,83.88c-.05,2.34.62,4.64,1.07,6.93.46,2.29.92,4.59,1.38,6.89.92,4.6,1.86,9.19,2.81,13.77,1.9,9.19,3.79,18.37,5.69,27.55.28-.48.55-.95.83-1.43-2.62,1.4-5.3,1.91-8.2,1.85-1.63-.04-2.13,2.5-.42,2.7,3.26.38,6.64-.44,9.55-2.02.47-.26.96-.82.83-1.43-1.98-9.27-3.96-18.54-5.94-27.82-.98-4.59-1.96-9.17-2.97-13.75-.51-2.29-1.01-4.58-1.52-6.87-.5-2.26-.82-4.63-1.8-6.71-.35-.74-1.29-.45-1.31.36h0Z"/>
  <path class="st0" d="M45.59,92.84c-.81-1.94-3.23-3.26-5.23-2.82-2.45.55-3.96,2.94-3.95,5.46,0,2.84,1.7,5.44,4.21,6.49,2.29.96,6.62,1.08,8.03-1.51.24-.44-.11-1.1-.58-1.13-1.91-.12-3.54,1.13-5.54.77-1.91-.34-3.42-1.66-3.9-3.65-.41-1.76.17-3.65,1.88-4.34,1.7-.68,3.45-.72,4.41,1.12.21.4.85.02.68-.4h0Z"/>
  <path class="st0" d="M58.02,118.79c-1.64,2.89-1.3,6.48.77,8.97.36.44.95.59,1.43.22,1.07-.8,2.04-.82,3.27-1.09.79-.17,1.19-1.46.28-1.79-1.65-.62-3.39.09-4.74,1.16.48.07.95.15,1.43.22-1.68-1.91-2.1-4.65-1.02-7.04.44-.97-.91-1.54-1.41-.66h0Z"/>
  <path class="st0" d="M41.53,40.67c-1.13-2.56-.91-5.85,1.32-7.78.98-.84,2.25-1.31,3.5-1.37,1.47-.08,2.49.76,3.85.92.76.09,1.2-.76.82-1.41-.85-1.45-3.2-1.77-4.7-1.73-1.85.05-3.67.76-5.05,2.08-2.72,2.59-3.31,7.05-1.38,10.23.56.92,2.06.06,1.62-.95h0Z"/>
  <path class="st0" d="M66.47,17.56c-.17.4-.37.48-.6.24-.21-.29-.27-.6-.17-.94.08-.55.52-1.1.9-1.46.66-.61,1.53-.94,2.39-1.04,1.85-.22,3.7.65,4.92,2.06.48.56,1.32.1,1.11-.65-1.23-4.36-7.35-4.72-10.15-1.76-1.31,1.39-2.25,4.32-.22,5.51,1.28.74,3.48-.83,2.82-2.39-.29-.67-1.2-.27-1.01.42h0Z"/>
  <path class="st0" d="M29.18,49.65c2.04,5.28,3.66,10.64,4.08,16.36.21,2.83.16,5.67-.14,8.49-.15,1.37-.36,2.73-.63,4.08-.26,1.29-.83,2.7-.57,4.02.12.63.79.84,1.22.37.9-.98,1.08-2.53,1.32-3.81.28-1.44.49-2.89.63-4.35.29-3,.31-6.04.05-9.04-.5-5.84-1.96-11.75-4.83-16.78-.38-.67-1.41-.04-1.14.66h0Z"/>
  <path class="st0" d="M11.44,69.69c3.67-1.85,7.24-3.93,10.66-6.24,1.77-1.19,3.46-2.49,5.12-3.85,1.39-1.14,3.26-2.32,4.14-3.94.29-.53-.33-1.12-.83-.91-1.58.67-2.95,2.35-4.29,3.46-1.58,1.31-3.2,2.55-4.83,3.79-3.29,2.51-6.73,4.78-10.31,6.8-.51.29-.21,1.16.33.89h0Z"/>
  <path class="st0" d="M6.27,76.97c4.84-2.31,9.55-4.8,14.14-7.64,4.62-2.85,9.37-5.98,13.49-9.57.87-.76-.08-2.14-1.02-1.47-4.35,3.09-8.54,6.39-12.98,9.36-4.53,3.03-9.16,5.93-13.91,8.57-.43.24-.19.97.28.75h0Z"/>
  <path class="st0" d="M8.05,81.05c5.11-1.91,9.97-5.02,14.56-8.04,2.3-1.51,4.57-3.08,6.8-4.7,2.03-1.47,4.64-3.1,5.95-5.35.22-.38-.23-.69-.55-.6-2.36.72-4.56,2.83-6.55,4.3-2.22,1.63-4.47,3.22-6.76,4.75-4.56,3.04-9.38,5.68-13.84,8.87-.4.29-.04.92.39.76h0Z"/>
  <path class="st0" d="M14.67,83.09c3.69-2.37,7.36-4.74,10.99-7.22,1.81-1.24,3.6-2.5,5.39-3.75,1.65-1.16,3.56-2.21,4.89-3.78.53-.62-.17-1.46-.85-1.22-1.88.69-3.56,2.17-5.2,3.33-1.79,1.26-3.59,2.51-5.37,3.79-3.56,2.56-7.04,5.21-10.53,7.87-.62.47.05,1.39.68.98h0Z"/>
  <path class="st0" d="M19.88,86.01c2.66-2.09,5.38-4.1,8.11-6.09,1.33-.97,2.68-1.9,4.04-2.82,1.33-.9,2.72-1.7,3.7-3.03.24-.33,0-.87-.42-.8-2.97.48-5.83,3.08-8.25,4.85-2.82,2.06-5.44,4.32-7.98,6.76-.64.61.08,1.7.8,1.14h0Z"/>
  <path class="st0" d="M27.1,85.89c2.64-1.56,5.93-2.92,7.97-5.33.36-.42-.01-1.27-.59-1.12-3.05.8-5.77,3.25-8.37,5.03-.94.64.06,1.97.99,1.42h0Z"/>
  <path class="st0" d="M186.54,48.56c2.75,4.26,5.48,8.3,7.5,13.03.97,2.29,1.81,4.64,2.49,7.04.68,2.41.98,4.92,1.64,7.32.33,1.2,2.01.61,1.95-.52-.12-2.53-.95-5.19-1.65-7.6-.74-2.56-1.66-5.06-2.74-7.48-2.04-4.57-4.66-9.3-8.09-12.88-.63-.65-1.57.39-1.1,1.1h0Z"/>
  <path class="st0" d="M198.95,30.33c-3.16,7.34-6.17,14.73-9.05,22.2-.43,1.12,1.2,1.89,1.64.76,2.93-7.45,5.7-14.96,8.34-22.52.22-.65-.66-1.08-.93-.44h0Z"/>
  <path class="st0" d="M208.08,25.4c-3.12,5.05-6.11,10.19-8.66,15.58-2.58,5.45-5.25,11.09-7.06,16.87-.37,1.17,1.19,1.96,1.69.79,2.38-5.51,4.42-11.15,6.95-16.6,2.52-5.43,5.07-10.85,7.88-16.12.26-.49-.5-.98-.79-.51h0Z"/>
  <path class="st0" d="M212.95,23.7c-3.58,6.19-7,12.46-10.35,18.79-1.63,3.07-3.25,6.14-4.88,9.2-1.71,3.22-3.62,6.43-5.04,9.8-.42.99.98,1.98,1.59,1.01,1.83-2.89,3.3-6.09,4.87-9.14,1.68-3.26,3.36-6.53,5.04-9.79,3.31-6.44,6.55-12.91,9.63-19.47.28-.59-.55-.93-.86-.4h0Z"/>
  <path class="st0" d="M217.75,23.02c-8.24,12.96-15.98,26.31-22.8,40.14-.6,1.22,1.22,2.04,1.84.85,7.06-13.61,14.19-27.17,21.76-40.48.27-.48-.5-.98-.79-.51h0Z"/>
  <path class="st0" d="M213.29,36.25c-2.86,4.96-5.72,9.92-8.59,14.89-1.43,2.48-2.82,4.97-4.2,7.48-1.36,2.46-3.03,4.93-4.04,7.57-.35.92.82,1.76,1.45.92,1.6-2.15,2.76-4.77,4.04-7.14,1.42-2.6,2.83-5.19,4.2-7.82,2.69-5.15,5.38-10.31,8.07-15.47.32-.62-.6-1.01-.93-.43h0Z"/>
  <path class="st0" d="M210.5,48.31c-2.43,3.99-4.88,7.96-7.26,11.98-1.2,2.03-2.39,4.07-3.57,6.11-1.12,1.95-2.54,3.98-3.07,6.2-.13.55.61,1.04,1.03.65,1.53-1.48,2.51-3.61,3.55-5.48,1.15-2.06,2.28-4.11,3.4-6.19,2.29-4.23,4.49-8.5,6.72-12.75.26-.5-.52-1.01-.82-.52h0Z"/>
  <path class="st0" d="M203.8,67.28c-1.03,1.51-2.07,3.02-3.02,4.6-.17.28.18.6.39.33,1.11-1.44,2.14-2.96,3.17-4.47.26-.38-.27-.83-.54-.45h0Z"/>
  <path class="st0" d="M211.07,40.17c3.03-2.24,5.96-4.66,8.7-7.29,2.51-2.41,5.21-4.99,6.84-8.15.19-.36-.28-.73-.58-.49-2.69,2.17-4.86,5.02-7.31,7.49-2.64,2.66-5.41,5.14-8.33,7.46-.6.48.06,1.44.68.98h0Z"/>
  <path class="st0" d="M214.85,31.88c1.56-1.7,3.16-3.36,4.7-5.08,1.44-1.6,3.01-3.15,4.03-5.09.33-.63-.48-1.23-1-.84-1.72,1.29-2.99,3.14-4.33,4.83-1.43,1.81-2.8,3.66-4.21,5.49-.44.57.35,1.19.81.69h0Z"/>
  <path class="st0" d="M215.55,34.45c1.47-2.14,3.12-4.03,4.94-5.84,1.69-1.68,3.8-3.12,5.3-4.98.41-.5-.13-1.15-.68-.97-2.27.78-4.33,2.87-5.97,4.65-1.78,1.93-3.27,4.2-4.6,6.49-.35.6.61,1.22,1,.64h0Z"/>
  <path class="st0" d="M225.39,32.32c1.61-1.28,3.22-2.55,4.76-3.91,1.3-1.16,2.95-2.26,3.79-3.84.3-.55-.33-1.09-.83-.91-1.63.61-2.98,2.2-4.29,3.36-1.48,1.3-2.87,2.7-4.28,4.09-.66.65.08,1.82.84,1.21h0Z"/>
  <path class="st0" d="M231.67,31.25c.98-.56,1.96-1.12,2.94-1.68.84-.48,1.94-.87,2.54-1.68.41-.55,0-1.29-.65-1.25-.95.08-1.87.81-2.7,1.27-.93.52-1.86,1.04-2.79,1.55-1.04.58-.38,2.37.66,1.78h0Z"/>
  <path class="st0" d="M238.66,29.45c.56.09.71-.83.14-.92s-.71.83-.14.92h0Z"/>
  <path class="st0" d="M160.7,96.18c-7.11-6.67-18.01-10.99-27.31-6.31-3.84,1.94-7.2,5.15-8.96,9.25-1.7,3.96-1.9,9.2.83,12.68,2.72,3.46,8.26,3.69,10.59-.45.37-.66-.18-1.5-.82-1.6-4.18-.66-8.55,1.54-10.52,5.53-1.96,3.97-1.08,9.09,1.97,12.1,3.43,3.4,8.68,3.82,13.21,3.7,4.81-.11,9.63-1.16,14.13-3,5.1-2.07,9.8-5.17,13.78-9.12-.59-.5-1.17-.99-1.76-1.48-3.1,7.36,2.75,15,9.42,16.92,8.21,2.37,16.6-3.27,22.67-8.55-.66-.2-1.31-.39-1.97-.58,5.43,10.85,20.67,4.83,27.8-.94,3.95-3.19,6.62-7.91,5.95-13.22-.61-4.82-3.69-9.26-8.18-10.77-5.01-1.69-10.8.12-14.13,4.47.77.12,1.55.24,2.32.36-1.83-7.19-7.81-12.95-14.87-14.15-7.08-1.2-14.54,2.32-18.63,8.5.77.35,1.53.7,2.3,1.05.65-3.29-.83-6.47-3.28-8.48-2.73-2.24-6.18-2.71-9.51-1.7-3.4,1.04-6.49,3.59-8.64,6.5-1.4,1.89-1.95,6.26,1.36,6.03,1.41-.1,1.17-2.37-.24-2.27.06,0,.48-1.63.68-1.93.66-1.03,1.66-1.95,2.56-2.75,1.82-1.59,3.99-2.91,6.36-3.28,4.1-.63,9.07,2.67,8.13,7.47-.25,1.29,1.55,2.18,2.3,1.05,3.56-5.4,10-8.44,16.18-7.39,6.19,1.05,11.18,6.15,12.76,12.4.27,1.06,1.73,1.13,2.32.36,2.35-3.07,6.23-4.53,9.9-3.86,3.75.69,6.54,3.85,7.4,7.65,2.16,9.48-8.29,14.96-15.4,17.25-4.41,1.43-10.57,1.48-13.03-3.38-.36-.71-1.26-1.2-1.97-.58-5.24,4.59-11.98,9.51-19.15,8.53-5.8-.8-11.95-7.34-9.27-13.74.58-1.37-1.06-2.18-1.98-1.26-5.82,5.8-13.35,9.66-21.24,10.99-6.56,1.1-19.5,1.37-19.05-8.72.21-4.78,4.57-8.15,8.98-7.47-.27-.53-.55-1.06-.82-1.6-1.06,1.91-3.7,2.2-5.42,1.24-2.07-1.14-2.96-3.74-3.09-6.06-.28-4.79,2.5-9.22,6.11-11.99,9.08-6.94,20.38-2.59,28.44,3.58.65.49,1.39-.46.79-1.02h0Z"/>
</svg>