<?xml version="1.0" encoding="UTF-8"?>
<svg id="_レイヤー_2" data-name="レイヤー 2" xmlns="http://www.w3.org/2000/svg" viewBox="0 0 1323.6 118.89">
  <defs>
    <style>
      .cls-1 {
        fill: #231815;
      }
    </style>
  </defs>
  <g id="_レイヤー_1-2" data-name="レイヤー 1">
    <g>
      <g>
        <path class="cls-1" d="M1268.47,30.19c.21-1.62-1.1-3.02-2.71-2.88l-15.52,1.35c-1.18.1-2.13,1.02-2.28,2.22-1.66,12.88-11.26,61.83-13.38,74.71-1.18,7.19,18.33,2.4,18.33,2.4,8.95-30.76,14.14-67.04,15.56-77.79Z"/>
        <path class="cls-1" d="M1317.27,70.28c-1.85,2.61-15.91,15.57-18.46,11.62-2.55-3.95.15-43.43-1.1-45.11-1.24-1.68-16.05-.69-15.08,3.42-.26,17.51-1.46,61.06,2.27,66.08,3.73,5.03,26.35-7.64,38.7-21.63,0,0-4.48-17.01-6.33-14.4Z"/>
      </g>
      <path class="cls-1" d="M1212.38,64.66s-55.46.14-59.1,1.05v19.77c2.08.91,59.1-1.6,59.1-1.6v-19.22Z"/>
      <path class="cls-1" d="M863.84,106.61c3.03-1.53,50.76-50.84,52.65-52.75,1.89-1.91,1.14-22.93-1.89-22.55-3.03.38-70.07,6.5-75.76,7.64,0,0-1.14,3.06.76,5.35,1.89,2.29,4.55,16.44,6.44,16.44s39.77-8.03,42.04-8.79c2.27-.76,4.17-.76,3.03,1.53-1.14,2.29-38.26,44.34-39.77,45.49-1.52,1.15,9.47,9.17,12.5,7.65Z"/>
      <g>
        <path class="cls-1" d="M702.7,29.91l65.49-3.16,1.82-15.8s-64.05.99-67.31.99v17.96Z"/>
        <polygon class="cls-1" points="718.98 96.49 736.35 97.48 748.97 58.36 778.69 56.7 783.03 37.81 690.39 40.97 689.67 61.68 733.51 59.23 718.98 96.49"/>
      </g>
      <g>
        <path class="cls-1" d="M917.51,20.43l7.41.05,6.81-20.48-10.75,1.03c-1.06,3.51-3.46,19.4-3.46,19.4Z"/>
        <polygon class="cls-1" points="949.65 .56 938.46 1 932.48 19.5 941.89 20.37 949.65 .56"/>
      </g>
      <g>
        <path class="cls-1" d="M213.28,57.74l-26.04,37.03,14.44,8.45,15.89-23.92,22.41,14.2,7.65-13.52-20.34-15.31,19.46-29.29,13.97,1.71,4.08-22.03-14.91-1.85-3.9,17.44c-16.03-1.33-72.28,7.8-72.28,7.8l3.17,25.85,36.4-6.55Z"/>
        <polygon class="cls-1" points="286.1 18.19 272.85 16.44 267.17 37.53 278.81 38.35 286.1 18.19"/>
      </g>
      <path class="cls-1" d="M598.7,75.36c-.5-.5-1.2-.76-1.9-.7l-29.55,2.38c-.23.02-.43-.05-.59-.19-.16-.14-.26-.34-.27-.56l-1.18-25.65c-.02-.43.3-.79.73-.82l25.19-1.98c1.15-.09,2.07-.98,2.19-2.11l1.48-13.84c.07-.7-.16-1.38-.65-1.89-.49-.51-1.18-.77-1.88-.72l-70.39,4.51c-1.26.08-2.24,1.12-2.24,2.37v14.77c0,.66.28,1.29.77,1.74.49.45,1.15.67,1.82.62l25.85-2.04c.22-.02.43.05.6.2.16.15.26.35.26.57l.56,25.74c0,.42-.31.77-.73.8l-30.49,2.46c-1.3.1-2.26,1.19-2.2,2.48l.75,14.81c.03.64.32,1.23.8,1.66.44.39,1,.6,1.58.6.06,0,.12,0,.18,0l76.26-5.46c1.17-.08,2.1-.98,2.21-2.14l1.51-15.69c.07-.7-.18-1.39-.68-1.89Z"/>
      <g>
        <path class="cls-1" d="M131.46,86.11l6.75-3.97c.62-.36.91-1.1.7-1.78l-3.53-11.67c-.26-.87-1.23-1.34-2.09-1l-8.22,3.23c-.81.32-1.2,1.22-.88,2.02l5,12.41c.36.89,1.43,1.25,2.26.76Z"/>
        <path class="cls-1" d="M120.84,88.29l-5.59-11.74c-.41-.86-1.49-1.16-2.29-.63l-6.82,4.48c-.65.43-.89,1.27-.55,1.97l5.23,10.81c.38.78,1.33,1.11,2.12.72l7.18-3.54c.77-.38,1.09-1.29.72-2.05Z"/>
        <path class="cls-1" d="M166.74,75.56l-9.17-6.65c-.7-.51-1.68-.36-2.19.33-4.46,5.98-23.63,31.74-27.94,38.65-.51.83-.14,1.9.78,2.25l7.61,2.92c.63.24,1.34.06,1.78-.45l29.41-34.8c.58-.69.46-1.72-.28-2.25Z"/>
      </g>
      <path class="cls-1" d="M660.69,47.47c-2.28.25-39.05,25.59-42.07,29.33-1.01,1.25,4.82,10.03,6.84,9.28.85-.32,8.57-5.05,17.33-10.54-.33,7.06-.89,24.66-1.11,26.33-.25,2.01,9.63-.75,10.14-2.01.45-1.1.3-22.97.61-30.43,8.91-5.69,16.7-10.79,17.13-11.44,1.01-1.5-6.59-10.78-8.87-10.53Z"/>
      <path class="cls-1" d="M814.22,47.47c-2.28.25-39.05,25.59-42.07,29.33-1.01,1.25,4.82,10.03,6.84,9.28.85-.32,8.57-5.05,17.33-10.54-.33,7.06-.89,24.66-1.11,26.33-.25,2.01,9.63-.75,10.14-2.01.45-1.1.3-22.97.61-30.43,8.91-5.69,16.7-10.79,17.13-11.44,1.01-1.5-6.59-10.78-8.87-10.53Z"/>
      <g>
        <path class="cls-1" d="M444.1,73.43c1.51-1.79,8.54-36.61,10.14-51.05.28-2.54-1.52-4.73-3.86-4.7l-14.69.17c-1.99.02-3.69,1.66-3.96,3.82-1.54,12.3-6.36,50.49-6.9,52.1-.64,1.91,17.57,1.7,19.29-.34Z"/>
        <path class="cls-1" d="M476.79,18.66c-1.09.04-2.02,1.05-2.19,2.35-2.53,19.62-10.87,77.78-10.39,83.83.51,6.3,15.32,4.32,16.03,2.13,3.46-10.64,12.63-60.33,16.82-83.74,1.23-6.87-14.14-4.82-20.27-4.57Z"/>
      </g>
      <path class="cls-1" d="M1089.84,115.84c0,1.58,17.41.95,17.41,0s7.08-22.13,11.81-36.04c4.72-13.91,18.3-43.32,15.94-44.26-2.36-.95-63.75,0-66.11.32s-12.69,35.1-12.99,37.94c0,0,12.69.95,14.17,0,1.48-.95,5.36-18.02,6.54-19.92,1.18-1.9,25.33-1.26,29.46-.95,4.13.32,4.13.95,2.95,4.11-4.13,8.22-19.18,57.23-19.18,58.81Z"/>
      <path class="cls-1" d="M361.63,98.46c0,1.58,18.86.95,18.86,0s7.67-22.13,12.79-36.04c5.11-13.91,19.82-43.32,17.26-44.26-2.56-.95-69.04,0-71.6.32s-13.74,35.1-14.06,37.94c0,0,17.49,1.31,19.09.36,1.6-.95,6.71-18.64,7.99-20.54,1.28-1.9,22.79-1,27.27-.69,4.47.32,4.47.95,3.2,4.11-4.48,8.22-20.78,57.23-20.78,58.81Z"/>
      <path class="cls-1" d="M1020.67,62.61l-32.14,45.33,12.75,4.18s6.76-10.13,14.83-22.28l21.19,15.71,6.65-10.74s-14.97-9.74-22-13.78c10.29-15.54,20.62-31.25,20.9-32.14.55-1.79,1.66-4.18-2.22-4.77-3.88-.6-63.73,5.96-70.38,7.75,0,0,2.77,20.28,2.77,22.66s47.66-11.93,47.66-11.93Z"/>
      <path class="cls-1" d="M64.51,118.89l14.43-4.26-10.79-38.5,23.13-9.34-4.83-14.16s-10.14,3.84-22.5,8.51l-4.86-15.28,30.35-11.06-6.39-20.54-28.75,9.48-5.78-17.69-16.94,5.35,5.15,18.65L0,42.71l7.99,22.12,35.14-12.64,5.47,14.76c-14.52,5.47-27.84,10.45-28.54,10.61l6.22,15.49,26.98-10.89,11.25,36.74Z"/>
    </g>
  </g>
</svg>