<?xml version="1.0" encoding="UTF-8"?>
<svg id="_レイヤー_2" data-name="レイヤー 2" xmlns="http://www.w3.org/2000/svg" viewBox="0 0 130.64 194.76">
  <defs>
    <style>
      .cls-1 {
        fill: #111a1f;
      }

      .cls-2 {
        fill: #121214;
      }

      .cls-3 {
        fill: #231815;
      }

      .cls-4 {
        fill: #1e1114;
      }

      .cls-5 {
        fill: #f5efe0;
      }

      .cls-6 {
        fill: none;
        stroke: #231815;
        stroke-linecap: round;
        stroke-linejoin: round;
        stroke-width: 3px;
      }

      .cls-7 {
        fill: #fff;
      }

      .cls-8 {
        fill: #1d171f;
      }

      .cls-9 {
        fill: #040000;
      }

      .cls-10 {
        fill: #f8f7f7;
      }
    </style>
  </defs>
  <g id="_レイヤー_1-2" data-name="レイヤー 1">
    <g>
      <g>
        <g>
          <path class="cls-7" d="M93.5,163.5c-2.47,0-5.62-1.5-7.03-5.72l-.45-1.35-2.5-.54-.59.16c-4.87,1.33-10.11,1.98-16.01,1.98s-12.3-.64-20.22-2.02l-1.64-.28-.9,1.4c-2.27,3.54-5.24,5.57-8.16,5.57-1.95,0-3.74-.89-5.05-2.52-1.95-2.41-2.56-6.13-1.67-10.2l.55-2.52-2.53-.47c-9-1.67-16.72-7.12-21.19-14.94-9.07-15.87.81-39.99,8.02-57.61.54-1.32,1.06-2.6,1.56-3.83l.38-.94-.38-.94c-1.58-3.88-2.41-9.96-.52-14.13.89-1.96,2.26-3.24,4.18-3.91,1.09-.38,2.19-.57,3.28-.57,2.62,0,5.33,1.08,8.29,3.3l1.28.96,1.41-.77c7.15-3.88,18.88-6.2,31.38-6.2s24.83,2.54,31.72,6.78l.51.32.7.06s.12,0,.12,0c.76,0,1.38-.28,2.63-.85,1.59-.72,4.25-1.93,6.49-2.09h.18c.14.01.28.02.42.02h.38c3.44,0,5.84.88,7.34,2.69,3.28,3.97,1.74,11.94,1.08,15.35-.27,1.4-.4,2.1-.34,2.75l.04.35.13.32c6.27,15.82,17.94,45.27,7.62,60.97-4.58,6.97-13.4,13.04-21.45,14.75l-2.18.47.22,2.22c.41,4.21-.42,7.69-2.35,9.82-1.26,1.38-2.94,2.15-4.74,2.15Z"/>
          <path class="cls-9" d="M64.99,49.92c12.53,0,23.89,2.4,30.4,6.41l1.03.64,1.21.09.21.02h.19c1.3,0,2.24-.43,3.66-1.07,1.41-.64,3.74-1.7,5.51-1.86h.02c.18,0,.36.02.54.02h.08s.04,0,.04,0h.26c3.94,0,5.05,1.34,5.41,1.78,2.53,3.06,1.1,10.49.56,13.28-.31,1.59-.47,2.46-.37,3.47l.07.69.26.65c6.1,15.4,17.46,44.06,7.86,58.68-4.25,6.47-12.43,12.09-19.88,13.68l-4.37.93.43,4.45c.34,3.5-.27,6.3-1.72,7.9-.99,1.1-2.12,1.33-2.89,1.33-1.6,0-3.67-1.05-4.66-4.01l-.9-2.7-2.78-.6-.51-.11-1.2-.26-1.18.32c-4.66,1.27-9.68,1.89-15.35,1.89s-12.01-.63-19.79-1.98l-3.27-.57-1.79,2.8c-1.8,2.81-4,4.41-6.05,4.41-1.51,0-2.52-.86-3.11-1.59-1.47-1.82-1.9-4.77-1.18-8.1l1.09-5.04-5.07-.94c-8.27-1.54-15.37-6.54-19.48-13.72-8.46-14.81,1.54-39.25,8.16-55.42.54-1.32,1.07-2.6,1.56-3.84l.76-1.88-.76-1.88c-1.43-3.51-2.08-8.81-.56-12.16.6-1.32,1.46-2.14,2.72-2.58.84-.29,1.64-.43,2.46-.43,2.06,0,4.28.92,6.79,2.8l2.57,1.93,2.82-1.53c6.8-3.69,18.08-5.9,30.18-5.9h0M64.99,44.92c-12.35,0-24.7,2.23-32.57,6.51-3.01-2.25-6.27-3.8-9.79-3.8-1.33,0-2.7.22-4.1.71-8.4,2.91-7.91,14.59-5.16,21.34-7.15,17.72-19.82,45.43-9.43,63.61,4.86,8.5,13.29,14.37,22.91,16.16-2.05,9.42,3.06,15.74,9.17,15.74,3.47,0,7.27-2.04,10.26-6.72,6.75,1.17,13.72,2.06,20.65,2.06,5.63,0,11.24-.58,16.67-2.07q.26.06.51.11c1.64,4.91,5.54,7.43,9.4,7.43,5.32,0,10.55-4.8,9.58-14.71,8.82-1.88,18.07-8.31,23.01-15.83,11.02-16.77-.62-46.19-7.39-63.27-.19-1.89,7-23.04-10.57-23.04-.11,0-.22,0-.33,0-.01,0-.03,0-.04,0-.2,0-.4-.02-.61-.02-.06,0-.11,0-.17,0-3.91.27-8.26,2.93-8.95,2.93,0,0-.01,0-.02,0-7.84-4.84-20.44-7.16-33.03-7.16h0Z"/>
        </g>
        <g>
          <path class="cls-1" d="M60.09,114.49c1.48,0,.82,1.18,2.24,2.48,7.53,6.93,13.87-2.09,14.79-2.21,3.62-.46,2.91,5.9-5.59,7.14-12.03,1.76-17.11-7.44-11.44-7.42Z"/>
          <path class="cls-2" d="M67.74,111.42c4.45-.57,4.92,4.73-.06,3.83-2.5-.45-2.4-3.51.06-3.83Z"/>
        </g>
        <g>
          <path class="cls-4" d="M46.54,110.29c-.47.25-1.39.7-1.86.79-2.12.42-3.73.1-5.52-1.11-.6-.41-1.44-1.26-1.82-1.87-1.18-1.93-1.33-3.58-.93-5.76.2-1.11.66-2.11,1.28-3.05,2.8-4.26,8.97-4.23,11.69-.32,2.69,3.86,1.21,9.12-2.85,11.33Z"/>
          <path class="cls-10" d="M42.09,100.38c2.82.04,2.38,5.39-.69,4.7-2.3-.51-1.68-4.74.69-4.7Z"/>
        </g>
        <g>
          <path class="cls-8" d="M90.43,96.86c5.33-.23,8.66,5.53,7.01,10.36-.01.03-.13.1-.42.61-1.85,3.2-3.29,3.37-6.42,4.2-9.05-.41-8.63-14.81-.17-15.17Z"/>
          <path class="cls-5" d="M97.44,107.22c1.65-4.83-1.68-10.59-7.01-10.36,6.39-1.47,9.39,4.71,7.01,10.36Z"/>
          <path class="cls-10" d="M89.03,101.14c2.83-.32,2.68,4.22.54,4.52-2.81.39-3.01-4.24-.54-4.52Z"/>
        </g>
      </g>
      <g>
        <path class="cls-3" d="M47.42,193.16c.05-2.02.08-5.76.08-9.17,0-2.27,0-4.42-.05-5.79,0-.52-.08-.52-1.6-.52-.98,0-2.2.05-3.41.05-.98,0-1.47-.7-1.47-1.39s.46-1.37,1.42-1.37h.05c1.55.03,4.29.05,6.97.05,2.2,0,4.39-.03,5.86-.05,1.01-.03,1.34.83,1.34,1.39,0,.7-.41,1.37-1.24,1.37h-.1c-.88-.05-1.63-.05-2.25-.05q-2.56,0-2.56.52c-.05,1.76-.08,4.26-.08,6.79,0,3.1.05,6.25.13,8.16.05.9-.75,1.34-1.55,1.34s-1.55-.44-1.55-1.32v-.03Z"/>
        <path class="cls-3" d="M58.66,184.74c0-5.81,4.26-10.02,9.95-10.02s9.97,4.21,9.97,10.02-4.29,10.02-9.97,10.02-9.95-4-9.95-10.02ZM75.53,184.74c0-4.47-3.1-7.36-6.92-7.36s-6.92,2.89-6.92,7.36,3.1,7.31,6.92,7.31,6.92-2.87,6.92-7.31Z"/>
        <path class="cls-3" d="M83.7,194.48c-.72,0-1.47-.47-1.47-1.32v-.08c.1-2.01.13-4.29.13-6.48,0-2.66-.05-5.19-.05-7,0-3.18.03-4.88,5.09-4.88.54,0,1.06.03,1.45.05,4.08.26,5.97,3.02,5.97,5.81s-1.99,5.79-5.61,6.15c-.62.08-1.21.13-1.86.13-.59,0-1.21-.05-1.89-.21-.08-.03-.13-.03-.18-.03-.13,0-.16.08-.16.28,0,1.6.08,3.44.08,5.14v1.01c-.03.98-.75,1.42-1.5,1.42ZM87.34,177.43c-2.07,0-2.3.29-2.3,2.69,0,.9.03,1.96.03,2.87v.44c0,.54.52.72,2.12.72.49,0,1.03-.03,1.58-.08,1.96-.18,3.15-1.96,3.15-3.62,0-1.55-1.01-3-3.33-3,0,0-.62-.03-1.24-.03Z"/>
      </g>
      <path class="cls-6" d="M87.86,35.42c-1.41,0-2.82-.54-3.89-1.61l-19.04-19.04-18.75,18.75c-2.15,2.15-5.63,2.15-7.78,0-2.15-2.15-2.15-5.63,0-7.78L61.05,3.11c2.15-2.15,5.63-2.15,7.78,0l22.92,22.92c2.15,2.15,2.15,5.63,0,7.78-1.07,1.07-2.48,1.61-3.89,1.61Z"/>
    </g>
  </g>
</svg>