<?xml version="1.0" encoding="UTF-8"?>
<svg id="_レイヤー_1" data-name="レイヤー_1" xmlns="http://www.w3.org/2000/svg" version="1.1" viewBox="0 0 793.7 439.37">
  <!-- Generator: Adobe Illustrator 30.3.0, SVG Export Plug-In . SVG Version: 2.1.3 Build 182)  -->
  <defs>
    <style>
      .st0 {
        fill: #181617;
      }
    </style>
  </defs>
  <g>
    <path class="st0" d="M389.44,289.56c1.78-17.46-3.42-34.52-9.03-50.84-6.98-20.25-13.18-40.77-20.88-60.74-8.34-21.25-14.55-43.27-24.08-64.02-6.66-14.46-9.76-31.65-22.48-42.41-10.67-7.16-24.44-5.61-36.57-4.1-4.01.46-8.07.96-12.08,1.37-33.01,2.6-65.16,11.26-96.99,19.88-37.16,14.04-75.15,25.63-112.45,39.31-7.52,2.78-15.37,4.92-22.57,8.62-5.61,2.87-8.8,8.66-12.49,13.5-5.43,7.11-6.43,16.28-9.3,24.49-3.19,12.22-11.35,23.89-8.48,36.94,1.64,14.09,6.29,27.54,10.49,40.99,4.92,13.77,8.57,27.95,13.45,41.77,9.26,27.31,21.66,53.4,32.92,79.94,7.43,15.28,14.09,31.51,26.27,43.73,4.47,4.61,10.85,6.16,16.83,7.75,10.35,2.64,21.02,0,31.51-.09,15.14-.32,29.59-5.02,44.14-8.57,15.46-3.78,30.28-9.62,45.69-13.45,13-3.24,25.58-7.93,38.3-12.04,32.06-9.21,64.11-20.15,92.66-37.8,5.93-3.56,13.13-6.11,16.87-12.31,5.88-9.35,8.89-20.06,11.9-30.55,1.6-7.3,5.75-13.82,6.38-21.34ZM372.75,305.39c-14.04,11.31-31.51,17.28-48.15,23.76-34.47,12.49-68.08,27.36-102.74,39.31-23.03,8.16-46.01,16.87-70.18,21.2-14.64,2.78-30.55,6.38-44.82.09-5.24-2.01-8.62-6.75-11.22-11.45-4.97-9.07-8.8-18.7-12.68-28.23-9.48-24.4-21.66-47.65-30.41-72.32-10.62-29.05-21.84-58.32-25.35-89.24-1.41-11.86-3.33-24.62,1.87-35.89,2.14-5.84,8.25-8.48,13.5-10.85,35.11-14.18,70.45-28.18,107.11-37.71,26.13-6.7,51.66-15.78,78.25-20.7,18.92-4.15,38.3-4.97,57.5-7.11,7.75-.59,16.32-.14,22.89,4.47,6.98,6.66,10.76,15.87,14.14,24.76,5.02,13.27,11.72,25.81,16.23,39.26,8.53,25.03,18.74,49.48,26.58,74.74,5.47,17.83,12.86,35.25,15.32,53.81,1.09,10.99,1.82,24.49-7.84,32.1Z"/>
    <path class="st0" d="M253.5,178.21c-14.64-4.56-29.64-7.8-44.6-11.13-22.71-5.34-45.69-10.08-68.99-12.04-5.2-.73-10.4.41-15.32,2.14,2.33,9.67,7.71,18.38,9.26,28.23,3.65,20.25,13.13,38.71,19.38,58.18,5.43,16.6,10.62,33.29,15.32,50.11,2.55,8.66,4.74,17.51,8.8,25.67,2.1,3.92,5.2,8.25,10.03,8.62,6.38-1.64,11.04-6.84,15.59-11.22,10.17-11.22,18.42-23.99,27.59-35.98,17.6-23.48,35.52-46.92,49.61-72.69,2.28-4.92,5.97-11.49,1.96-16.46-7.11-8.48-18.6-10.35-28.64-13.45ZM269.1,211.13c-9.44-5.2-20.2-6.61-30.32-10.03-7.66-2.55-15.78-3.47-23.39-6.25-18.74-6.75-38.53-9.71-57.59-15.28-7.16-1.87-14.55-2.55-21.84-3.15-1.46-4.24-3.01-8.44-4.51-12.59,35.7,4.88,70.95,12.54,106.11,20.29,13,3.92,26.9,5.61,38.62,12.81-2.05,4.88-4.47,9.58-7.07,14.18Z"/>
    <path class="st0" d="M234.08,360.47c3.51-6.48,5.56-13.91,4.65-21.34-2.28,6.93-4.06,14.09-4.65,21.34Z"/>
    <path class="st0" d="M223.87,357.83c3.33-3.15,5.47-7.34,6.43-11.76-3.74,2.87-5.56,7.25-6.43,11.76Z"/>
    <path class="st0" d="M108.13,366.12c.46-5.88.32-11.76.36-17.65-.05-5.29.64-10.9-2.14-15.69-.36,11.13-1.73,22.57,1.78,33.33Z"/>
    <path class="st0" d="M94.59,332.47l-.96.41c-.09-6.75,1.19-13.5.23-20.25-4.01,9.85-3.06,20.93-2.28,31.33,1.6-1.46-1.14-10.26,2.51-8.16,2.28,5.79.59,12.4,2.74,18.33.55-11.72,3.69-24.03-.05-35.48-1.37,4.42,1.05,10.4-2.19,13.82Z"/>
    <path class="st0" d="M59.75,271.69c2.1-12.18,4.79-24.4,4.47-36.84-3.56,11.86-5.15,24.49-4.47,36.84Z"/>
    <path class="st0" d="M60.07,210.54c-3.28,12.22-5.02,24.85-4.38,37.53,2.28-12.36,5.93-24.9,4.38-37.53Z"/>
    <path class="st0" d="M50.45,233.02c2.42-13.04,6.02-25.99,6.38-39.31-6.34,11.9-6.93,26.08-6.38,39.31Z"/>
    <path class="st0" d="M47.58,183.41c-1.73,9.07-2.78,18.47-1.78,27.72,1.92-12.31,4.74-24.53,5.75-36.98-1.92,2.78-3.37,5.88-3.97,9.26Z"/>
  </g>
  <g>
    <path class="st0" d="M711.83,434.05c8.09,1.5,16.04,5.26,24.39,3.68,8.71-1,15.53-6.95,22.67-11.45,8.01-5.33,9.72-15.74,16.28-22.41,9.14-10.45,11.64-24.47,14.13-37.66,1.68-9.74,3.5-19.59,2.97-29.49-1.08-10.36-10.29-17.39-19.05-21.54-12.31-6.02-25.38-10.28-38.31-14.7-23.69-10.33-48.53-17.66-72.06-28.31-10.7-4.85-21.6-9.26-32.78-12.92-31.49-10.32-63.26-21.31-96.5-24.01-9.64-.63-19.41-1.32-29.01.22-7.26.89-12.47,6.52-18.72,9.8-7.4,5.54-16.41,10.54-20.05,19.52-5.7,18.99-10.17,38.51-11.29,58.39-.29,9.47.23,20.1,7.22,27.31,6.71,6.3,15.05,10.65,23.55,14.04,21.23,7.73,43.09,13.63,64.1,21.97,11.97,4.8,24.71,7.16,36.76,11.69,19.33,6.19,38.38,13.3,57.97,18.62,22.43,6.33,45.06,11.89,67.73,17.26ZM499.81,243.09c6.92-2.69,14.55-2.24,21.83-2.29,29.43.47,58.18,8.07,86.02,17.13,15.95,5.12,31.98,10.08,47.36,16.73,10.13,4.48,20.68,8,30.42,13.34,26.76,13.75,56.28,20.66,83.5,33.24,7.4,3.66,16.34,9.06,16.98,18.24.42,9.65-1.41,19.24-3.07,28.7-2.28,12-4.94,24.74-13.72,33.85-5.46,6.54-14.1,8.79-22.14,10.23-18.71,2.91-37.18-3.18-55.29-7.02-17.92-3.71-35.53-8.73-52.96-14.23-18.16-5.22-36.3-10.68-54.19-16.77-14.08-4.68-28.51-8.3-42.49-13.28-18.37-6.64-37.54-11.15-55.13-19.82-5.97-2.81-10.8-8.22-12.33-14.69-3.01-10.34-1.19-21.17.66-31.51,2.34-12.75,7.13-24.87,12.53-36.61,2.88-5.81,6.28-11.91,12.02-15.25Z"/>
    <path class="st0" d="M732.68,393.06c3.14,2.24,7.08,2.93,10.8,3.73,3.29.78,6.43-.9,9.35-2.22-2.62-5.06-8.38-5.94-13.3-7.51,2.13-6.3,3.86-12.7,6.13-18.94,2.37,1.48,4.57,3.42,7.27,4.26,2.49.22,4.75-1.09,6.99-1.95-3.99-2.84-8.79-3.8-13.54-4.42,2.48-8.09,5.27-16.06,8.21-23.97,2.85,1.42,5.56,3.14,8.55,4.25,2.47.72,4.8-.95,6.91-1.94-3.61-3.95-8.97-4.43-13.92-5.07-1.18-.9-2.34-1.78-3.51-2.64-6.9,12.64-11.91,26.16-17.63,39.34-1.8,5.37-5.51,11.54-2.3,17.09Z"/>
    <path class="st0" d="M708.07,347.18c-3.66,9.83-4.71,20.59-10.14,29.73-1.87,2.72-1.13,6.06-.64,9.09,1.8-.77,3.59-1.55,5.36-2.37,2.76,1.03,5.54,2.18,8.48,2.39,9.22.81,19.36-6.01,20.05-15.64.05-7.83-5.25-14.59-11.19-19.15,6.58-2.82,14.07-5.8,17.5-12.57,2.11-3.63,1.32-8.61-2.05-11.26-4.3-3.48-10.16-5.78-15.73-4.71-2.66.49-3.47,3.4-4.39,5.59-2.16,6.39-4.9,12.59-7.27,18.91ZM724.04,361.78c2.74,3.84,4.72,9.51,1.43,13.69-5.13,6.34-14.47,7.15-21.68,4.2,2.65-8.69,6.86-16.87,8.31-25.93,4.7,1.37,9.24,3.83,11.95,8.04ZM734.2,332.64c1.64,2.42-.22,5.54-2.27,7.07-5.25,3.97-11.8,5.51-17.94,7.55,1.85-6.83,4-13.58,5.76-20.43,5.25.06,11.31,1.18,14.45,5.81Z"/>
    <path class="st0" d="M689.1,364.77c-1.34,3.26-.75,6.87.33,10.09,2.79-1.71,5.89-3.49,7.11-6.69,2.96-7.17,5.23-14.6,7.15-22.1,2.03-7.6,5.7-14.71,7.33-22.41.61-1.64-.72-3.01-1.42-4.33-4.97,10.3-10.44,20.38-14.22,31.21-1.7,4.9-4.29,9.43-6.28,14.23Z"/>
    <path class="st0" d="M653.3,354.41c-1.76,5.36-5.63,11.5-1.83,16.95,2.75-2.17,6.2-4.25,6.98-7.94,1.49-5.85,2.92-11.73,4.86-17.44,3.85,2.63,7.13,6.12,8.98,10.46,2.83,4.96,3.8,11.03,7.86,15.22,3.23-1.98,5.58-6.78,3.49-10.35-2.85-6.23-5.86-12.48-10.07-17.97,5.63-2.14,11.29-4.63,15.58-8.95,3.84-3.62,6.36-9.28,4.86-14.54-2.29-7.23-9.93-11.64-17.23-11.89-4.82.1-7.32,5.02-8.69,8.99-4.49,12.66-10.62,24.68-14.79,37.45ZM687.14,321.74c2,2.74-.28,6.29-2.57,8.02-5.18,3.87-11.6,5.28-17.7,6.99,3.33-7.02,6.34-14.22,9.64-21.26,3.99,1.09,8.4,2.44,10.63,6.25Z"/>
    <path class="st0" d="M626.23,361.17c7.65,4.6,19.56,1.52,22.48-7.41-4.23-.28-8.46-.13-12.63.54-2.25.05-5.22.83-6.53-1.6-2.28-3.88-1.82-8.63-1.18-12.9,1.51-8.98,6.25-17.04,11.78-24.11,3.29-4.07,8.45-7.56,13.9-6.9,5.09,2.15,3.93,8.3,3.22,12.63,2.67-4.22,4.12-9.76,1.49-14.33-1.62-3.49-6.02-4.18-9.43-3.56-5.79,1.38-10.61,5.36-14.31,9.87-8.13,10.15-14.1,22.71-13.77,35.99.16,4.28,1.35,9.1,4.97,11.79Z"/>
    <path class="st0" d="M597.48,317.72c3.01,6.46,10.93,8.71,14.02,15.12,1.5,2.83,1.41,6.42-.59,9.01-1.79,2.92-5.26,3.78-8.29,4.74-4.26-3.96-8.58-7.83-13.17-11.37-2.23,5.98-1.13,13.2,3.21,17.98,3.38,3.82,9.33,4.8,13.79,2.41,6.19-3.2,11.81-8.73,12.94-15.83,1-7.02-2.85-13.89-8.21-18.19-3.09-2.78-7.3-5-8.66-9.22-1.19-4.35-.82-9.24,1.11-13.32,2.33-3.12,6.72-5.77,10.67-4.41,3.75,1.32,3,5.65,3.25,8.81,1.84-2.84,3.89-6.12,2.76-9.63-1.2-5.01-7.32-6.98-11.86-5.52-5.66,2.02-10.95,6.57-12.08,12.74-1.06,5.49-1.3,11.48,1.1,16.69Z"/>
    <path class="st0" d="M559.13,331.63c-1.49,2.29-2.15,5.24-.57,7.69,6.09,2.38,13.8,3.22,19.37-.89,5.2-3.64,10.11-8.9,10.64-15.49.29-6.32-4.49-11.45-9.38-14.76,5.98-3.67,13.55-7.54,15.18-14.99-.89-6.28-4.96-13.26-11.87-14.05-3.45-1.08-7.59.59-8.56,4.3-5.25,15.97-8.62,32.53-14.81,48.2ZM581.79,319.01c2.83,4.34-1.32,9.19-4.89,11.58-4.19,3.19-9.71,2.58-14.55,1.62,2.69-7,5.8-13.77,8.94-20.56,4.55.54,8.6,3.09,10.5,7.36ZM588.82,294.33c-4.05,4.59-9.62,7.36-15,10.08,2.17-5.95,4.46-11.85,6.58-17.83,4.02,1.04,6.53,4.29,8.42,7.75Z"/>
    <path class="st0" d="M529.59,324.38c.12,4.69,1.43,10.79,6.52,12.32,4.44.03,7.9-3.42,11.11-6.03,6.49-5.28,8.68-13.64,12.28-20.83,3.46-6.96,5.06-14.62,7.68-21.88,1.16-2.27.1-4.64-.55-6.87-1.65,1.27-3.88,2.17-4.65,4.31-3.01,6.52-4.44,13.68-7.55,20.19-2.27,4.68-4.27,9.55-6.62,14.21-1.92,3.88-5.62,6.36-9.24,8.53-2.75-6.17-1.5-13.01-.23-19.34,1.65-8.92,5.78-17.3,6.46-26.39.39-1.54-2.79-2.9-2.94-.87-4.86,13.92-12.48,27.54-12.26,42.63Z"/>
    <path class="st0" d="M506.65,289.46c2.7,4.58,8.14,6.39,11.46,10.39,4.87,7.8-3.59,20.75-12.9,17.42-3.64-3.13-5.03-7.88-6.78-12.15-3.35,5.09-3.53,11.81-1.37,17.38,1.64,4.34,6.78,5.22,10.85,5.32,5.79.18,10.46-4.06,14.05-8.1,5.54-6.56,8.36-16.69,3.62-24.47-2.58-5.11-8.57-6.19-13-9.07-1.55-.79-2.52-2.56-2.29-4.29.7-4.37,4.09-7.65,7.04-10.62,2.41-2.04,5.75-4.12,9-3.01,4.13,2.85,4.79,8.22,6.7,12.53,3.86-4.32,1.96-10.45-.64-14.87-2.12-4.06-7.62-5.16-11.56-3.32-5.48,2.65-9.63,7.39-12.88,12.43-2.81,4.12-3.88,9.93-1.3,14.42Z"/>
  </g>
  <g>
    <path class="st0" d="M503.95,95.94c-4.23,3.2-8.6,7.8-7.98,13.54.74,3.85,2.31,7.49,3.14,11.31,2.32,11.09,5.08,22.1,7.23,33.23,3.77,14,4.13,28.68,8.25,42.61,1.43,4.66,1.72,10.2,5.74,13.5,3.14,3.07,7.56,4.56,11.9,4.4,5.2-.19,10.4-.67,15.61-1.12,10.77-.93,21.17-3.95,31.68-6.32,4.85-1.37,10.4-2.61,13.58-6.87,1.98-2.55,2.08-5.93,2.3-9.03,5.47,1.22,11.08,2.31,16.7,1.79,5.67-.46,11.38-.43,17.04-1.35,10.9-1.72,22.11-1.75,32.78-4.9,12.66-3.73,25.58-8.08,36.07-16.4,4.35-3.44,8.69-7.25,11.28-12.24,1.37-2.41,1.04-5.26,1.51-7.88,3.08-3.84,7.49-7.25,8.01-12.53.92-6.37-3.57-12.31-9.2-14.8,2.08-2.2,4.15-4.5,5.59-7.19,3.32-5.81,3.1-13.18.65-19.26-2.33-5.95-8.01-9.9-14.02-11.39,2.81-3.74,5.32-7.96,5.69-12.72.68-5.92-1.21-12.56-6.31-16.09-5.39-3.99-12.33-4.37-18.79-4.62-8.84-.48-17.43,2.26-25.93,4.39-3.44-12.58-7.15-25.33-13.67-36.73-3.63-6.3-8.34-12.62-15.36-15.31-5.73-2.23-12.86-3.7-18.22.26-5.02,3.07-7.18,9.11-7.13,14.77.02,9.07,2.43,17.91,4.39,26.7,1.08,5.11,2.08,10.41,1.11,15.64-1.08,6.42-5.23,11.87-9.91,16.22-5.97,5.07-13.88,6.62-21.04,9.35-.75-2.19-1-4.6-2.35-6.5-1.81-1.78-4.61-1.73-6.98-1.86-10.51,0-20.6,3.49-30.8,5.65-11.21,2.62-23,4.99-32.58,11.76ZM548.11,171.59c3.81-2.23,9.13-2.95,13-.5,3.54,3.32,3.4,9.25.72,13.04-2.81,4.59-8.93,6.59-13.94,4.8-3.13-1.54-6.19-4.52-6.24-8.23.4-3.9,3.22-7.16,6.47-9.11ZM577.16,89.68c10.62-1.85,22.07-5.17,28.77-14.26,6.03-6.83,7.45-16.45,6.25-25.2-1.4-10.16-4.54-20.04-5.22-30.31-.46-6.08,3.24-13.05,9.74-13.91,7.25-.62,14.85,2.63,19.12,8.63,7.75,10.38,11.59,23.08,14.37,35.59,1.06,3.61.03,8.33,3.45,10.81,1.15.92,2.66,1.66,4.15,1.15,8.45-2.71,16.93-6.25,25.97-6.15,6-.04,12.87-.12,17.41,4.43,3.89,4.52,3.49,11.49.41,16.33-2.23,4.07-6.11,6.68-9.25,9.9-.23,1.95,2.09,3.63,3.87,4.17,3.24.33,6.75-.72,9.78.96,6.09,2.66,8.17,10.41,6.53,16.42-1.7,4.77-5.22,8.82-9.5,11.42-1.84,1.14-3.59,2.41-5.16,3.89,1.16,1.1,2.21,2.41,3.61,3.24,3.52.41,7.68-.57,10.48,2.22,2,2.15,3.75,5.57,2.27,8.45-2.23,4.71-6.99,7.28-10.44,10.94.71,1.56,1.87,2.86,2.73,4.35-1.1,4.15-4.59,7.06-7.64,9.84-10.99,9.63-25.28,14.16-39.15,17.86-9.97,2.74-20.38,2.75-30.54,4.35-6.35,1.12-12.83,1.02-19.25,1.4-5.13.32-10.1-1.28-15.11-2.13-2.05-16.63-5.56-33.06-9.43-49.35-2.18-9.33-2.86-18.9-5.11-28.2-1.41-5.53-2.13-11.21-3.09-16.83Z"/>
    <path class="st0" d="M656.58,166.64c2.01,1.69,4.04,3.37,6.1,4.98-1.16-2.45-2.85-5.56-6.1-4.98Z"/>
    <path class="st0" d="M645.92,169.88c2.29,1.69,4.82,2.98,7.38,4.27-1.84-2.13-4.12-5.46-7.38-4.27Z"/>
    <path class="st0" d="M647.37,177.6c-3.22-2.92-6.05-7.56-11-7.17,2.61,3.65,6.27,6.97,11,7.17Z"/>
    <path class="st0" d="M640.81,180.58c-4.13-2.69-6.71-7.61-11.65-8.99,3.04,3.85,6.15,8.85,11.65,8.99Z"/>
    <path class="st0" d="M624.24,172.86c1.4,4.41,4.6,8.15,8.7,10.27-2.64-3.61-4.84-7.81-8.7-10.27Z"/>
    <path class="st0" d="M553.44,186.24c-1.71-1.21-3.9-1.96-5.05-3.77-1.08-2.17-1.53-4.57-2.41-6.81-3.46,4.99,1.9,11.47,7.46,10.59Z"/>
  </g>
</svg>