<?xml version="1.0" encoding="UTF-8"?>
<svg id="_レイヤー_2" data-name="レイヤー 2" xmlns="http://www.w3.org/2000/svg" viewBox="0 0 187.2 161">
  <defs>
    <style>
      .cls-1 {
        fill: #181617;
      }
    </style>
  </defs>
  <g id="_レイヤー_1-2" data-name="レイヤー 1">
    <g>
      <path class="cls-1" d="M66.86,153.33c3.87,1.19,7.54,2.89,11.44,3.97,4.36,1.15,8.43,3.49,13.01,3.69,2.78.16,5.44-.84,7.89-2.06,10.17-5.13,20.32-10.36,29.97-16.46,3.73-2.33,7.66-4.41,11.15-7.1,2.76-2.15,5.74-4.02,8.33-6.37,2.28-1.93,4.17-4.27,6.37-6.26,1.92-1.77,2.33-4.5,2.28-6.98-.23-1.63-1.21-3.01-1.93-4.45,2.4-.83,4.7-1.93,6.97-3.04,2.43-1.2,4.09-3.47,5.32-5.81,3.5-7.37,5.77-15.23,8.37-22.94,1.33-4.14,2.28-8.41,3.82-12.49,1.42-3.78,2.78-7.6,3.6-11.57,1.04-5.04,3.13-9.85,3.71-14.99.32-2.35-1.24-4.33-2.45-6.17-1.98-2.99-4.81-5.3-6.8-8.27-1.73-2.34-4.28-3.95-7-4.84-4.74-1.58-9.69-2.43-14.55-3.57-8.32-1.98-16.62-4.09-24.93-6.16-6.53-1.6-12.92-3.72-19.52-5.06-5.67-1.15-11.35-2.38-17-3.65-4.85-1-9.67-2.43-14.65-2.6-2.48-.13-5.34-.52-7.39,1.23-3.49,2.94-5.2,7.37-6.58,11.6-1.51,4.83-1.88,9.92-3.22,14.79-1.68,6.27-2.99,12.63-4.24,19.01-1.07,5.01-1.89,10.1-3.38,15.02-.61,2.93-1.65,5.74-2.24,8.67-.66,3.29-2.04,6.74-.76,10.07-.73.43-1.46.86-2.19,1.27-6.94,3.25-13.91,6.38-20.79,9.74-8.09,4.2-16.32,8.12-24.24,12.64-2.04,1.14-4.13,2.45-5.21,4.62.48,3.68.43,7.48,1.65,11.03.65,2.04,2.54,3.26,4.18,4.45,2.34,1.53,4.73,2.96,7.13,4.4,4.82,2.86,9.98,5.06,14.95,7.66,5.64,2.96,11.5,5.46,17.28,8.12,4.2,1.94,8.54,3.54,12.73,5.49,2.89,1.35,5.9,2.44,8.94,3.38ZM46.26,136.25c-2.4-1.01-4.92-1.8-7.15-3.17-.79-.34-.58-1.34-.79-2.01,5.95,2.23,11.66,5.04,17.62,7.23-.39.34-.76.7-1.14,1.06-2.99-.61-5.71-2.06-8.54-3.11ZM184.77,39.29c.16,2.88-.91,5.66-1.55,8.44-1.52,5.15-2.04,10.57-3.93,15.63-1.47,4-2.8,8.03-3.99,12.12-2.33,7.04-4.81,14.06-7.74,20.88-1.32,2.72-2.37,5.64-4.42,7.91-1.05,1.19-2.57,1.8-3.97,2.45.42-2.14,1.88-3.83,2.55-5.87,1.4-4.13,2.72-8.28,4.3-12.35,2.91-7.5,5.44-15.15,8.11-22.75,2.53-7.09,4.65-14.37,5.77-21.84.66-4.32.48-8.71-.03-13.03,1.91,2.6,3.9,5.3,4.9,8.41ZM60.63,45.94c1.34-5.8,2.67-11.59,4.38-17.29,1.95-6.32,2.48-13.07,5.46-19.05,1.4-2.91,3.16-6.56,6.79-6.95,6.57-.86,13.03,1.07,19.43,2.33,8.46,1.92,17.04,3.34,25.38,5.82,9.81,2.81,19.71,5.24,29.58,7.87,5.31,1.46,10.74,2.47,16.02,4.03,3.19.92,6.51,2.28,8.57,5.01,1.45,1.93,1.52,4.42,1.71,6.72.7,7.86-1.36,15.6-3.54,23.08-2.43,7.49-5.27,14.86-7.98,22.26-2.66,6.92-5.56,13.74-7.68,20.84-.45,2.27-1.29,4.43-2.27,6.52-.54,1.05-1.72,1.57-2.88,1.47-2.77-.1-5.52-.59-8.3-.51-2.33.14-4.54-.68-6.79-1.12-2.97-.61-5.94-1.27-8.87-2.07-5.16-1.42-10.43-2.45-15.54-4.04-8.7-2.69-17.59-4.77-26.3-7.42-7.79-2.53-15.7-4.73-23.19-8.08-2.72-1.24-5.57-2.23-8.16-3.75-1.51-.96-3.05-2.39-3.04-4.32,1.97-10.54,4.8-20.9,7.21-31.35ZM23.77,96.95c6.33-3.56,12.8-6.82,19.28-10.07,3.46-1.72,6.7-3.91,10.43-5.03,1.2,1.13,2.57,1.98,4.02,2.72,1.85.94,3.83,1.68,5.72,2.57,7.5,3.47,15.44,5.82,23.25,8.47,8.98,2.91,18.15,5.16,27.13,8.08,4.83,1.57,9.82,2.64,14.71,4.02,3.18.91,6.39,1.68,9.64,2.37,2.17.44,4.3,1.22,6.53,1.31,2.67.09,5.33.34,7.99.6-1.68,2.24-3.77,4.13-5.78,6.06-2.91,2.83-6.35,5.01-9.65,7.34-5.55,3.93-11.2,7.72-17.15,11.02-.78.43-1.56.86-2.34,1.3-3.1,1.73-6.22,3.46-9.29,5.25-3.67,2.11-7.26,4.44-11.28,5.81-2.65.98-5.53.61-8.13-.34-6.04-2.14-11.99-4.53-17.88-7.07-3.68-1.56-7.47-2.81-11.27-4.01-.16-.04-.3-.1-.45-.14-4.49-1.42-8.82-3.26-13.15-5.08-6.26-2.65-12.72-4.82-18.83-7.81-5.15-2.48-10.43-4.72-15.4-7.56-2.72-1.55-5.44-3.19-7.72-5.37-.69-.63-1.1-1.48-1.43-2.34,6.72-4.55,14.02-8.12,21.08-12.07Z"/>
      <path class="cls-1" d="M69.43,83.36c5.65,1.35,11.16,3.27,16.8,4.64,8.19,2.13,16.3,4.52,24.41,6.95,4.17,1.32,8.27,2.85,12.48,4.04,4.02,1.14,7.95,2.67,12.03,3.57,2.32.5,4.61,1.21,6.97,1.45,2.44.24,5.09-.29,6.92-1.99,2.79-2.53,4.44-5.96,6.16-9.24,1.8-3.34,3.36-6.78,4.83-10.26,1.88-4.44,4.11-8.74,5.61-13.34,1.25-3.85,2.9-7.56,3.99-11.47.64-2.47,1.41-4.9,2.14-7.34,1.34-5.2,1.87-10.57,2.06-15.92.09-1.72-1.5-2.75-2.8-3.5-3.52-1.98-7.33-3.55-11.26-4.52-2.27-.62-4.68-.32-6.92-1.05-7.55-1.89-15.09-3.82-22.65-5.66-9.1-2.39-18.31-4.37-27.35-6.98-6.34-1.48-12.76-2.68-19.2-3.57-2.4-.34-4.79-1.58-7.24-1.12-.75.28-1.12,1.05-1.39,1.76-.68,1.93-.72,4-1.03,6.01-.31,2.29-.96,4.52-1.6,6.74-1.75,6.18-2.83,12.52-4.36,18.75-1.15,4.55-1.89,9.21-3.1,13.75-1.4,5.31-2.12,10.76-3.51,16.07-.6,2.5-.88,5.33.16,7.76,2.12,2.16,4.9,3.76,7.85,4.49ZM142.47,91.94c-1.84.74-3.8.21-5.62-.28-5.08-1.36-10.06-2.99-15.16-4.28.45-1.27.91-2.55,1.34-3.83-3.92-2.6-8.68-3.16-13.04-4.65-2.96-1.01-6.05-1.43-9.09-2.09-2.34-.49-4.72-.64-7.09-.57-.62,1.17-1.24,2.35-1.83,3.55-4.62-1.09-9.16-2.42-13.77-3.54-1.45-.14-1.24-1.82-1.06-2.86,1.53-8.38,3.93-16.56,5.76-24.86,1.24-4.79,1.54-9.75,2.86-14.52.49-1.81,1.02-3.61,1.5-5.43,4.1,1.42,8.41,2.13,12.61,3.25,6.85,1.51,13.63,3.3,20.45,4.98,3.45.82,6.88,1.72,10.28,2.75,4.71,1.42,9.54,2.42,14.31,3.68,3.58,1.06,7.17,2.11,10.83,2.89-1.26,3.87-2.44,7.78-3.24,11.78-1.89,9.45-4.93,18.62-8.19,27.67-.83,2.07-.83,4.37-1.84,6.36ZM121.17,84.24c-.4.91-.8,1.82-1.19,2.73-5.1-1.36-10.26-2.49-15.35-3.87-3.92-1.1-7.83-2.23-11.79-3.14.54-.81,1.1-1.62,1.64-2.43,3.8-.12,7.46,1.03,11.15,1.74,2.94.6,5.71,1.77,8.62,2.47,2.38.6,4.73,1.34,6.92,2.49ZM156.2,44.66c-4.01-1.14-7.99-2.42-12-3.55-4.67-1.19-9.39-2.21-14.01-3.56-5.03-1.47-10.16-2.55-15.25-3.77-9.08-2.32-18.29-4.08-27.45-5.95.31-1.43.6-2.86.89-4.29,2.76.1,5.4.99,8.12,1.37,5.74.91,11.37,2.42,17.08,3.51,9.91,1.88,19.7,4.29,29.33,7.27,4.85,1.48,9.75,2.81,14.72,3.85-.49,1.7-.96,3.4-1.43,5.11ZM76.75,10.07c1.29.1,2.56.31,3.8.66,4.18,1.21,8.58,1.3,12.81,2.24,5.08.82,10.11,1.89,15.05,3.31,14.67,3.48,29.33,6.92,44.08,10.02,3.03.73,6.13,1.3,8.93,2.68,3.55,1.45,7.18,2.83,10.23,5.22.03.27.1.79.13,1.04-8.73-2.68-17.69-4.51-26.54-6.74-8.08-1.84-16.06-4.08-24.08-6.07-5.97-1.53-11.95-3-17.9-4.53-6.1-1.56-12.32-2.43-18.45-3.81-2.93-.64-5.87-1.1-8.81-1.66.23-.79.48-1.57.74-2.36Z"/>
      <path class="cls-1" d="M152.05,51.55c.79-.93,1.6-2.7.28-3.54-.99-.54-2.21-1.33-3.32-.69-1.6.71-2.01,2.91-1.47,4.42.94,1.72,3.5,1.19,4.52-.2ZM149.14,48c.9.22,1.81.48,2.69.76-.19.92-.25,2.05-1.17,2.57-.71.5-1.56.1-2.31-.06.04-1.14.2-2.28.79-3.28Z"/>
      <path class="cls-1" d="M146.61,48.76c.01-1.57-1.34-3.65-3.13-2.94-.9.29-1.73.83-2.31,1.57-.65,1.2-.39,2.76.44,3.8,1.77,1.58,5.3.06,4.99-2.44ZM141.96,47.61c.75-.82,1.88-.66,2.86-.57.2,1.02,1.22,2.55-.01,3.24-.81.49-2.37.72-2.75-.4-.33-.71-.3-1.54-.1-2.27Z"/>
      <path class="cls-1" d="M131.8,71.04c.14.98,1.26,1.1,2.02,1.41,3.22.89,6.28,2.52,9.71,2.47-2.78-3.44-7.62-3.89-11.72-3.88Z"/>
      <path class="cls-1" d="M136.94,60.43l-.39.63c3.14,1.78,6.83,2.29,10.34,2.89-2.75-2.36-6.47-3.09-9.95-3.52Z"/>
      <path class="cls-1" d="M147.51,67.64c-3.55-3.08-8.44-3.08-12.87-3.36,1.71,1.01,3.7,1.26,5.56,1.83,2.39.7,4.84,1.2,7.3,1.53Z"/>
      <path class="cls-1" d="M134.19,68.51c3.52,1.63,7.34,2.64,11.23,2.81-3.15-3.21-7.98-2.97-12.03-4.02.21.42.29,1.02.81,1.21Z"/>
      <path class="cls-1" d="M132.77,76.36c2.35.65,4.82.84,7.25.92-3.07-2.12-6.93-2.36-10.52-2.76.7,1.15,2.11,1.41,3.27,1.84Z"/>
      <path class="cls-1" d="M29.09,103.72c1.5.86,3.19,1.34,4.73,2.12,2.35,1.16,4.53,2.65,6.76,4.04,3.46,2.16,7.13,3.95,10.68,5.93.69.38,1.37.74,2.07,1.1,2.75,1.41,5.57,2.65,8.41,3.86,4.86,2.07,9.53,4.6,14.42,6.63,2.5,1.1,5.08,2.04,7.62,3.06,3.97,1.55,7.77,3.5,11.79,4.92,1.77.64,3.8,1.61,5.63.58,3.75-1.85,7.54-3.66,11.26-5.57,6.04-3.1,11.9-6.52,17.11-10.89,1.85-1.6,4.57-1.99,5.96-4.1-.34-1.37-1.95-1.27-3.04-1.57-3.03-.75-6.02-1.63-9.04-2.36-8.31-2.11-16.31-5.19-24.51-7.64-7.82-2.56-15.55-5.52-22.95-9.13-3.07-1.24-5.98-2.8-9.02-4.11-3.47-1.35-6.62-3.38-9.97-4.98-.1-.06-.21-.11-.31-.16-.55-.23-1.2-.57-1.74-.1-2.66,1.96-5.26,4.01-8.02,5.82-3.97,2.31-8.17,4.19-12.07,6.59-1.81,1.14-3.68,2.18-5.53,3.24-1.09.4-1.39,2.25-.24,2.74ZM38.34,106.8c1.12-.66,2.16-1.55,3.4-1.97,2.43.74,4.73,1.87,7.11,2.76-1.43.96-2.87,1.93-4.22,3-2.16-1.16-4.24-2.46-6.29-3.79ZM91.44,117.45c-2.43-1.02-4.84-2.06-7.26-3.09,1.4-1.22,2.69-2.56,4.16-3.69,2.73.82,5.27,2.13,7.96,3.09-1.63,1.21-3.25,2.45-4.85,3.69ZM97.5,114.26c2.75,1.01,5.49,2.06,8.22,3.1-1.82,1.22-3.65,2.45-5.47,3.66-2.46-.95-4.9-1.97-7.34-2.96,1.52-1.29,3.05-2.56,4.59-3.8ZM82.53,113.61c-2.13-.91-4.23-1.85-6.35-2.78,1.53-1.13,3.03-2.28,4.5-3.49,2.11.9,4.22,1.8,6.34,2.67-1.48,1.21-2.99,2.4-4.49,3.6ZM74.54,110.12c-2.13-.92-4.26-1.83-6.37-2.76,1.58-1.17,3.16-2.36,4.73-3.55,2.11.99,4.22,1.94,6.34,2.91-1.54,1.16-3.13,2.27-4.7,3.39ZM66.7,106.71c-2.7-1.21-5.39-2.48-8.08-3.73,1.77-1.13,3.56-2.23,5.37-3.3,2.56,1.17,5.13,2.34,7.66,3.58-1.64,1.17-3.29,2.32-4.95,3.46ZM65.12,107.88c-1.44,1.09-2.93,2.09-4.4,3.15-2.91-1.21-5.83-2.42-8.72-3.67,1.68-1.12,3.37-2.25,5.06-3.37,2.68,1.3,5.36,2.6,8.06,3.89ZM66.66,108.58c2.08.95,4.2,1.84,6.27,2.84-1.23.98-2.54,1.92-3.45,3.22-2.31-.94-4.6-1.91-6.89-2.85,1.37-1.04,2.74-2.11,4.07-3.21ZM74.61,112.11c2.05.91,4.1,1.82,6.14,2.75-1.2,1-2.39,1.98-3.67,2.9-2.08-.85-4.16-1.74-6.27-2.54,1.33-.95,2.59-2.01,3.8-3.11ZM82.62,115.68c2.37,1.04,4.74,2.08,7.14,3.07-1.14.83-2.28,1.66-3.41,2.52-2.42-.82-4.78-1.76-7.16-2.68,1.12-1,2.26-1.97,3.44-2.9ZM91.35,119.43c2.35.95,4.69,1.95,7.05,2.89-1.09.79-2.18,1.58-3.25,2.39-2.33-.92-4.65-1.83-6.98-2.74,1.06-.84,2.13-1.7,3.18-2.55ZM100.1,122.98c2.01.73,4.02,1.39,6.07,2.01-1.19.8-2.36,1.6-3.52,2.4-1.88-.69-3.81-1.22-5.68-1.88,1.03-.85,2.08-1.68,3.14-2.53ZM101.95,121.61c1.71-1.26,3.42-2.5,5.13-3.76,2.17.83,4.39,1.53,6.58,2.25-1.75,1.21-3.55,2.36-5.32,3.54-2.13-.69-4.28-1.31-6.39-2.03ZM109.02,116.62c1.16-.84,2.37-1.61,3.58-2.37,2.15.76,4.23,1.75,6.42,2.45-1.13.71-2.25,1.42-3.37,2.13-2.22-.73-4.44-1.4-6.63-2.21ZM107.64,116.09c-2.83-1.04-5.64-2.09-8.43-3.19.92-.76,1.84-1.54,2.73-2.34,3.1,1.14,6.21,2.28,9.35,3.27-1.22.75-2.44,1.51-3.65,2.26ZM98.09,112.48c-2.75-1.05-5.47-2.17-8.21-3.24.92-.78,1.84-1.56,2.76-2.34,2.79,1.16,5.6,2.25,8.42,3.31-.98.78-1.97,1.52-2.97,2.26ZM88.63,108.72c-2.16-.88-4.31-1.76-6.47-2.65.93-.72,1.8-1.56,2.84-2.13,2.25.69,4.38,1.72,6.57,2.56-.99.73-1.96,1.46-2.94,2.22ZM80.76,105.51c-2.14-.95-4.3-1.87-6.42-2.85.82-.7,1.64-1.39,2.47-2.06,2.27.94,4.55,1.86,6.85,2.76-.96.72-1.93,1.44-2.9,2.15ZM73.16,102.13c-2.54-1.14-5.08-2.29-7.65-3.39.98-.63,1.95-1.25,2.91-1.88,2.43,1.1,4.84,2.22,7.29,3.26-.85.68-1.71,1.34-2.56,2.02ZM64.1,98.15c-2.69-1.15-5.47-2.11-8.13-3.32.88-.84,1.92-1.45,2.93-2.12,2.76,1.19,5.53,2.35,8.28,3.57-1.02.63-2.05,1.25-3.07,1.87ZM62.53,99.04c-1.77,1.11-3.56,2.17-5.33,3.28-2.49-1.15-5.01-2.23-7.51-3.32,1.52-1.09,3.03-2.22,4.63-3.19.4-.34.88.09,1.29.19,2.29,1.04,4.61,2.05,6.93,3.05ZM55.64,103.28c-1.77,1.13-3.56,2.25-5.33,3.39-2.38-.99-4.8-1.92-7.2-2.85,1.81-1.3,3.6-2.6,5.39-3.92,2.38,1.12,4.75,2.26,7.15,3.38ZM60.44,118.49c-4.88-1.96-9.47-4.5-14.1-6.99,1.36-1.11,2.8-2.14,4.24-3.16,7.66,3.31,15.37,6.49,23.13,9.59,1.01.42,2.23.7,2.83,1.73,3,.07,5.63,1.82,8.47,2.64-1.93,1.5-3.89,2.94-5.8,4.44-6.39-2.44-12.42-5.68-18.77-8.24ZM81.24,127.49c1.93-1.45,3.85-2.94,5.67-4.52,2.28.89,4.6,1.74,6.85,2.74-1.96,1.44-3.85,2.98-5.82,4.41-2.22-.92-4.45-1.78-6.7-2.63ZM94.43,132.83c-1.53-.58-3.05-1.22-4.55-1.85,1.97-1.45,3.87-2.99,5.82-4.48,1.81.74,3.66,1.33,5.47,2.04-2.17,1.54-4.5,2.85-6.74,4.29ZM100.81,134.07c-1.39.78-2.89-.1-4.24-.48,2.12-1.42,4.24-2.85,6.29-4.37,1.44.58,2.9,1.09,4.41,1.5-2.18,1.05-4.29,2.27-6.46,3.35ZM109.2,129.78c-1.6-.6-3.17-1.21-4.74-1.84,1.13-.79,2.27-1.57,3.41-2.35,2.25.59,4.54.88,6.83,1.31-1.82,1-3.66,1.95-5.5,2.88ZM116.9,125.71c-2.31-.57-4.63-1.02-6.95-1.53,1.73-1.2,3.44-2.4,5.16-3.6,2.6.9,5.36,1.19,8.09,1.47-2.05,1.29-4.17,2.48-6.31,3.66ZM123.93,120.71c-2.33-.47-4.67-.85-6.96-1.41,1.09-.73,2.17-1.45,3.27-2.18,2.37,1.01,4.99.95,7.44,1.71-1.12.81-2.18,2.34-3.75,1.88ZM132.58,115.85c-1.21.57-2.33,1.33-3.58,1.83-2.43-.17-4.7-1.11-7.03-1.74.92-.71,1.83-1.43,2.7-2.18,2.66.62,5.25,1.44,7.9,2.09ZM123.7,113.51c-.95.7-1.93,1.39-2.9,2.04-2.26-.62-4.47-1.44-6.64-2.33.72-.59,1.43-1.17,2.14-1.8,2.45.75,4.92,1.43,7.4,2.08ZM115.3,111.15c-.81.53-1.55,1.27-2.48,1.56-3.28-.85-6.44-2.12-9.61-3.31.49-.58.98-1.15,1.47-1.73,3.54,1.15,7.07,2.33,10.62,3.48ZM104.2,107.51c-.6.52-1.2,1.05-1.8,1.57-2.83-1.05-5.64-2.17-8.43-3.32.35-.39.72-.76,1.09-1.14,3.03,1.01,6.1,1.92,9.14,2.89ZM94.25,104.34c-.41.33-.83.68-1.24,1.03-2.19-.9-4.41-1.78-6.62-2.65.34-.33.71-.65,1.06-.98,2.26.9,4.52,1.76,6.79,2.59ZM86.39,101.37c-.4.29-.79.6-1.17.9-2.36-.91-4.72-1.83-7.06-2.77.4-.35.8-.71,1.21-1.05,2.29,1.07,4.67,1.98,7.03,2.93ZM78.4,97.97c-.42.38-.84.74-1.26,1.12-2.46-1.03-4.91-2.09-7.36-3.15.54-.38,1.09-.74,1.63-1.11,2.33,1.05,4.7,2.03,6.99,3.14ZM70.28,94.32c-.58.37-1.14.73-1.72,1.1-2.84-1.17-5.71-2.31-8.58-3.41.66-.47,1.34-.93,2.02-1.39,2.7,1.33,5.57,2.34,8.28,3.7ZM55.59,87.3c1.85,1.01,3.78,1.88,5.66,2.84-.76.48-1.53.95-2.29,1.44-2.01-.79-3.97-1.67-5.87-2.67.83-.54,1.67-1.07,2.5-1.61ZM52.44,89.35c1.72,1.13,3.56,2.04,5.42,2.89-1.12.66-2.24,1.36-3.36,2.03-2.11-.88-4.26-1.67-6.42-2.4,1.45-.84,2.93-1.65,4.36-2.52ZM47.43,92.28c1.97.9,3.98,1.75,5.93,2.68-1.77,1.1-3.56,2.16-5.29,3.32-1.99-.93-3.88-2.06-5.85-3.06,1.75-.99,3.5-1.94,5.21-2.95ZM41.42,95.62c1.81,1.19,3.58,2.4,5.47,3.46-1.93,1.29-3.8,2.65-5.7,3.97-2.35-1-4.78-1.81-7.01-3.04,2.22-1.76,4.79-2.99,7.24-4.39ZM32.94,100.65c2.14,1.43,4.58,2.27,6.9,3.31-.96.63-1.93,1.27-2.89,1.92-2.26-1.33-4.69-2.34-7.07-3.44,1.02-.61,2.04-1.2,3.06-1.8Z"/>
      <path class="cls-1" d="M132.86,50.78c.25-1.52,1.3-3.41.01-4.72-2.96-2.99-7.4-3.36-11.3-4.14-5.57-1.56-11.24-3.24-17.07-3.36-.54.02-.61.72-.82,1.11-1.22,3.45-2.36,6.93-3.44,10.43-.84,2.87-2.45,5.56-2.56,8.61-.03,1.91,1.74,3.09,3.27,3.82,2.81,1.24,5.87,1.76,8.81,2.65,4.78,1.42,9.64,2.57,14.55,3.48,1.3.3,2.44-.65,3.04-1.72,1.54-2.72,2.74-5.61,3.7-8.58.88-2.46.96-5.11,1.81-7.58ZM126.58,65.71c-.42.7-.89,1.83-1.89,1.51-5.23-.93-10.39-2.19-15.47-3.71-2.63-.81-5.39-1.3-7.83-2.59-1.1-.59-2.31-1.65-1.94-3.04.52-2.74,1.85-5.24,2.54-7.92.91-3.41,2.06-6.75,3.09-10.12,5.55.37,10.98,1.6,16.35,3.01,3.89.95,8.46,1.43,11,4.93-.31,1.95-1.04,3.79-1.44,5.73-.7,4.3-2.4,8.36-4.4,12.2Z"/>
      <path class="cls-1" d="M119.38,14.27c2.9,1.04,5.94,1.63,8.89,2.54,1.13.41,2.12-.49,3.03-1.01-.7-.76-1.58-1.41-2.65-1.51-3.38-.54-6.75-1.16-10.16-1.4.25.45.23,1.26.9,1.37Z"/>
      <path class="cls-1" d="M105.43,69.18c5.44,2.05,11.03,3.83,16.81,4.6-3.6-2.02-7.76-2.55-11.65-3.78-1.67-.45-3.39-1.23-5.16-.82Z"/>
      <path class="cls-1" d="M113.57,132.5c-.23-.11-.49-.2-.74-.27.71,1.97,2.47,3.2,4.11,4.37-.66-1.66-1.72-3.34-3.37-4.1Z"/>
      <path class="cls-1" d="M120.55,75.47c-4.77-1.64-9.66-2.89-14.56-4.06,4.34,2.66,9.49,3.98,14.56,4.06Z"/>
      <path class="cls-1" d="M108.01,135.92c.95,1.7,2.97,2.17,4.72,2.56-1.24-1.34-2.75-2.72-4.72-2.56Z"/>
      <path class="cls-1" d="M109.64,140.29c-1.55-1.51-3.59-2.56-5.81-2.44,1.57,1.48,3.66,2.29,5.81,2.44Z"/>
      <path class="cls-1" d="M103.57,139.92c-.85-.25-1.75-.03-2.6.02,1.27,1.3,3.14,1.57,4.81,2.11-.62-.81-1.21-1.75-2.21-2.13Z"/>
      <path class="cls-1" d="M102.78,65.13c-.84.06-1.58.53-2.35.88-.6-.63-1.26-1.2-1.99-1.68-1.26,2.25-.34,4.93,1.15,6.82,1.88-1.23,4.02-2.44,5.01-4.55-.19-.84-1.02-1.32-1.82-1.45Z"/>
      <path class="cls-1" d="M101.02,26.77c-.32.88-.42,1.82-.31,2.75.84-.31,1.65-.69,2.45-1.11-.49-.81-1.27-1.32-2.14-1.64Z"/>
      <path class="cls-1" d="M97.63,26.03c-1.06-.62-1.68.76-2.35,1.36.33.42.66.84,1,1.27.82-.29,1.77-.54,2.21-1.39.08-.57-.37-1.07-.85-1.25Z"/>
      <path class="cls-1" d="M91.36,25.64c-.01.37-.06,1.11-.07,1.47.43.16.86.65,1.36.35.72-.32.96-1.17,1.42-1.76-.49-.28-.94-.61-1.48-.78-.43.2-.82.47-1.23.71Z"/>
      <path class="cls-1" d="M66.98,125.88c-4.55-1.64-8.68-4.21-12.77-6.76-.51-.29-1.02-.6-1.54-.9-1.56-.89-3.18-1.7-4.99-1.87-2.79.2-4.95,2.25-7.11,3.8-1.4,1.1-3.27,2.35-3.17,4.34.4.88,1.37,1.29,2.15,1.78,6.67,3.57,13.39,7.2,20.62,9.5.48.16.96.3,1.45.44,2.01.6,4.29.71,6.16-.35,2.15-1.17,4.36-2.34,6.16-4.01-.82-3.26-4.17-4.77-6.97-5.97ZM65.9,135.14c-2.66.4-5.16-.95-7.6-1.78-6.64-2.56-12.92-5.95-19.02-9.56,1.54-1.57,3.28-2.95,5.01-4.31,1.2-.84,2.63-1.88,4.17-1.33,2.84.86,5.31,2.58,7.83,4.08,3.87,2.4,8.18,3.98,12.19,6.12,1.39.76,2.46,1.95,3.45,3.16-1.99,1.23-3.83,2.78-6.03,3.63Z"/>
    </g>
  </g>
</svg>