<?xml version="1.0" encoding="UTF-8"?>
<svg id="_レイヤー_2" data-name="レイヤー 2" xmlns="http://www.w3.org/2000/svg" viewBox="0 0 180.89 122.03">
  <defs>
    <style>
      .cls-1 {
        stroke: #000;
        stroke-miterlimit: 10;
      }

      .cls-1, .cls-2 {
        fill: #040000;
      }
    </style>
  </defs>
  <g id="_レイヤー_1-2" data-name="レイヤー 1">
    <g>
      <g>
        <path class="cls-1" d="M6.38,3.25c10.93.36,21.9.11,32.83.02,10.86-.09,21.73-.18,32.59-.27,21.81-.18,43.62-.36,65.43-.59,6.04-.07,12.07-.14,18.11-.21,6.19-.07,12.41,0,18.59-.29.85-.04.85-1.29,0-1.32-5.46-.18-10.95-.04-16.42-.02-5.47.02-10.95.04-16.42.06-10.86.05-21.73.1-32.59.18-21.81.15-43.62.3-65.43.46-12.22.08-24.49-.04-36.7.55-.92.04-.92,1.4,0,1.43h0Z"/>
        <path class="cls-1" d="M7.35,96.5c22.45.15,44.91-.08,67.37-.16,22.37-.08,44.75-.2,67.13-.31,6.28-.03,12.56-.06,18.83-.09,6.33-.03,12.77.25,19.08-.23.86-.07.87-1.28,0-1.34-5.59-.38-11.29-.1-16.9-.08-5.63.02-11.27.04-16.9.05-11.18.04-22.37.08-33.56.11-22.38.08-44.75.18-67.12.28-12.64.06-25.27.08-37.91.26-.96.01-.97,1.49,0,1.5h0Z"/>
        <path class="cls-1" d="M2.71,5.44c-.43,22.88-.58,45.76-.29,68.64.08,6.49,0,13.03.48,19.51.09,1.14,1.75,1.16,1.79,0,.23-5.77,0-11.57-.06-17.34-.06-5.7-.12-11.4-.16-17.1-.09-11.4-.1-22.8-.11-34.2,0-6.5,0-13.01.05-19.51,0-1.1-1.68-1.1-1.7,0h0Z"/>
        <path class="cls-1" d="M176.21,3.69c.59-.83,1.27.16,1.44.72.19.64.14,1.29.13,1.95-.02,1.44-.05,2.89-.08,4.34-.05,2.81-.11,5.62-.16,8.43-.11,5.7-.21,11.4-.3,17.1-.18,11.4-.37,22.8-.51,34.2-.04,3.22-.08,6.43-.12,9.64-.04,3.18-.31,6.46-.03,9.63.11,1.21,1.72,1.18,1.86,0,.37-3.17.2-6.45.25-9.63.05-3.13.1-6.27.15-9.39.11-6.34.21-12.69.28-19.03.16-12.6.33-25.21.45-37.81.02-1.77.04-3.53.05-5.3.01-1.45.25-3.13-.17-4.55-.3-1.04-1.01-1.55-2.08-1.48-.7.04-1.31.34-1.48,1.07-.04.19.21.28.31.13h0Z"/>
        <path class="cls-1" d="M169.22,9.13c-.43,1.07-.31,2.18-.31,3.31,0,1.28,0,2.56,0,3.85,0,2.49-.01,4.97-.03,7.46-.03,5.05-.08,10.11-.15,15.16-.13,9.95-.35,19.89-.6,29.83-.14,5.69-.26,11.39-.43,17.08-.04,1.33,2.02,1.33,2.07,0,.74-19.96,1.07-39.93,1.14-59.9,0-2.81,0-5.61,0-8.42,0-1.44,0-2.89,0-4.33,0-1.34.18-2.77-.32-4.03-.26-.67-1.1-.67-1.36,0h0Z"/>
        <path class="cls-1" d="M11.31,8.16c-.38,2.45-.22,4.92-.2,7.4.03,2.49.05,4.97.07,7.46.04,5.06.07,10.11.09,15.16.04,10.1.03,20.21-.03,30.32-.03,5.78-.07,11.55-.11,17.33,0,1.27,1.96,1.27,1.98,0,.25-20.21.18-40.43-.02-60.64-.03-2.89-.06-5.78-.1-8.66-.04-2.79.11-5.61-.4-8.36-.12-.63-1.19-.65-1.29,0h0Z"/>
        <path class="cls-1" d="M14.03,6.46c2.42.47,4.89.43,7.35.51,2.49.09,4.99.16,7.48.23,4.99.12,9.97.26,14.96.35,10.06.18,20.11.31,30.17.42,20.03.22,40.07.33,60.11.26,11.34-.04,22.69-.09,34.03-.18,1.11,0,1.11-1.74,0-1.73-20.12.15-40.23.12-60.35.04-20.03-.07-40.07-.26-60.1-.57-5.63-.09-11.26-.15-16.89-.23-2.82-.04-5.63-.08-8.45-.1-2.77-.01-5.57-.21-8.31.2-.4.06-.38.71,0,.79h0Z"/>
        <path class="cls-1" d="M10.12,87.62c2.51.48,5.06.3,7.62.29,2.66-.01,5.31-.03,7.97-.04,5.15-.03,10.3-.06,15.45-.09,10.54-.06,21.08-.15,31.62-.24,20.92-.17,41.84-.48,62.77-.66,5.87-.04,11.75-.09,17.62-.14,5.95-.04,11.91.04,17.86-.17.82-.03.82-1.25,0-1.27-10.45-.22-20.93.12-31.38.2-10.54.07-21.08.16-31.62.19-20.92.07-41.84.12-62.76.31-5.87.05-11.75.11-17.62.16-2.9.03-5.79.05-8.69.08-2.94.02-5.95-.19-8.82.41-.47.1-.48.87,0,.96h0Z"/>
        <path class="cls-1" d="M3.68,2.76c-.12-.15-.32-.24-.51-.27-.31-.06-.6.03-.86.21-.21.15-.37.3-.52.5-.18.25-.2.52-.16.82.03.22.28.45.49.49,0,0,.02,0,.03,0-.12-.09-.24-.19-.36-.28.17.28.47.42.79.42.52,0,.71-.72.26-.97-.04-.02-.13-.1.01.02,0,0-.03-.03-.04-.04.08.1.11.15.11.27-.15.2-.3.39-.45.59.26-.08.42-.27.54-.5.03-.06.12-.12-.05.06.02-.02.04-.05.06-.07.03-.03.19-.17.06-.07-.13.1.04-.02.08-.04.03-.01.05-.02.08-.04-.24.14-.1.04,0,0,.1-.04.18-.11.26-.17-.22.17-.13.09-.07.06.08-.04-.2.07-.09.04.08-.02-.21.01-.1.01.24,0,.47-.16.56-.38.1-.24.04-.48-.13-.67h0Z"/>
        <path class="cls-1" d="M4.05,91.87c.86,1.72,1.67,3.51,2.98,4.93.3.33.91,0,.76-.44-.64-1.82-1.84-3.38-2.95-4.95-.34-.47-1.05-.07-.78.46h0Z"/>
        <path class="cls-1" d="M171.87,2.53c.97-.1,2.05.17,2.83.76.38.28.78.66,1.05,1.04.28.4.34.89.62,1.27.12.17.42.23.53,0,.52-1.1-.48-2.63-1.34-3.29-1.13-.87-2.48-1.18-3.81-.64-.4.17-.42.91.12.85h0Z"/>
        <path class="cls-1" d="M176.43,87.89c.19.81-.21,2.05-.64,2.74-.26.42-.62.78-1.05,1.04-.41.24-.82.3-1.19.6-.34.27-.12.82.24.93,1.25.36,2.63-1.03,3.19-2.01.32-.55.54-1.18.55-1.83,0-.67-.25-1.12-.52-1.71-.15-.34-.66-.09-.58.24h0Z"/>
        <path class="cls-1" d="M56.89,96.63c-1.41.78-2.26,2.31-3.18,3.61-1.03,1.46-2,2.96-2.91,4.5-1.79,3.03-3.33,6.17-4.6,9.44-.34.87.82,1.26,1.39.81,3.12-2.49,6.06-5.19,8.74-8.16,1.27-1.4,2.47-2.85,3.62-4.35.6-.78,1.18-1.56,1.74-2.36.54-.77,1.26-1.56,1.46-2.49.1-.49-.45-1.06-.93-.72-.69.49-1.06,1.21-1.54,1.89-.56.8-1.14,1.6-1.73,2.38-1.23,1.62-2.54,3.17-3.91,4.67-2.64,2.89-5.53,5.57-8.63,7.97.44.33.87.67,1.31,1.01,1.34-3.16,2.83-6.26,4.57-9.22.87-1.48,1.79-2.92,2.77-4.33.91-1.32,2.14-2.53,2.59-4.07.13-.44-.37-.79-.75-.57h0Z"/>
        <path class="cls-1" d="M117.39,96.49c.52.79.91,1.52,1.54,2.22.68.75,1.34,1.52,1.99,2.3,1.26,1.51,2.46,3.07,3.6,4.67,1.52,2.13,3.26,6.18,6.3,6.43,1.19.1,2.34-.64,2.69-1.8.4-1.32-.22-2.72-.88-3.84-2.14-3.63-4.83-7.02-7.29-10.44-.76-1.06-2.54-.03-1.76,1.03,1.95,2.66,3.91,5.31,5.91,7.93.92,1.2,2.28,2.5,2.53,4.06.13.78-.25,1.63-1.17,1.52-.66-.08-1.29-.64-1.75-1.08-1.04-1-1.75-2.31-2.57-3.48-.83-1.17-1.69-2.32-2.58-3.45-.95-1.19-1.93-2.34-2.94-3.48-.48-.54-.97-1.08-1.47-1.6-.54-.55-1.2-.88-1.83-1.32-.19-.13-.43.13-.31.31h0Z"/>
        <path class="cls-1" d="M13.2,10.39c.98-.67,1.99-1.3,2.92-2.04.23-.18-.06-.53-.3-.39-1,.59-1.94,1.29-2.89,1.96-.28.2-.02.67.28.47h0Z"/>
      </g>
      <g>
        <path class="cls-2" d="M16.91,62.38c-1.07.77-2.1,1.51-3.28,2.1-.63.31-.05,1.33.55.94,3.31-2.09,6.4-4.58,9.6-6.83,3.21-2.27,6.46-4.49,9.7-6.71,6.5-4.43,13.06-8.79,19.63-13.11.36-.24.04-.81-.34-.59-6.88,3.98-13.58,8.2-20.17,12.64-3.26,2.2-6.48,4.46-9.67,6.76-3.15,2.26-6.48,4.43-9.41,6.98.26.26.52.52.78.78.88-.98,1.86-1.78,2.89-2.61.2-.16-.07-.5-.28-.35h0Z"/>
        <path class="cls-2" d="M15.46,71.84c5.02-3.19,9.8-6.75,14.76-10.02,4.97-3.28,9.99-6.5,15.05-9.64.43-.27.05-.93-.4-.69-5.28,2.94-10.42,6.07-15.44,9.43-4.9,3.28-9.86,6.58-14.33,10.45-.25.22.08.64.36.46h0Z"/>
        <path class="cls-2" d="M84.67,86.7c1.43-.38,2.6-1.24,3.86-2,1.42-.86,2.84-1.72,4.26-2.57,2.71-1.63,5.42-3.27,8.12-4.9,5.48-3.32,10.97-6.61,16.47-9.88,10.87-6.46,21.79-12.84,32.77-19.13,3.15-1.81,6.3-3.63,9.44-5.46,3.12-1.82,6.42-3.49,9.39-5.55.49-.34.07-1.02-.46-.78-2.95,1.31-5.74,3.06-8.57,4.62-2.77,1.53-5.52,3.08-8.27,4.65-5.57,3.16-11.1,6.38-16.63,9.61-10.92,6.38-21.79,12.84-32.61,19.38-3.11,1.88-6.22,3.77-9.31,5.69-1.48.92-2.96,1.84-4.43,2.76-1.49.93-3.18,1.73-4.35,3.05-.2.23,0,.59.3.51h0Z"/>
        <path class="cls-2" d="M99.8,85.57c17.26-10.7,34.66-21.12,52.4-31.01,5-2.79,9.97-5.65,14.99-8.42.39-.22.04-.78-.34-.59-18.18,9.04-35.87,19.09-53.02,29.95-4.85,3.07-9.65,6.21-14.39,9.44-.38.26-.04.88.37.63h0Z"/>
        <path class="cls-2" d="M114.95,85.03c8.99-4.81,17.57-10.46,26.26-15.78,4.32-2.65,8.66-5.27,12.97-7.94,4.35-2.69,8.89-5.31,12.99-8.37.29-.22.05-.66-.28-.49-4.59,2.26-8.97,5.13-13.34,7.78-4.33,2.63-8.63,5.31-12.95,7.96-8.68,5.35-17.62,10.43-25.98,16.27-.34.24-.05.77.33.57h0Z"/>
        <path class="cls-2" d="M126.91,87.42c4.72-3.5,9.51-6.88,14.43-10.08,4.93-3.21,10.15-5.91,15.14-9.01.42-.26.06-.84-.38-.65-5.42,2.34-10.56,5.64-15.5,8.85-4.9,3.18-9.6,6.64-14.06,10.42-.26.22.09.69.37.48h0Z"/>
        <path class="cls-2" d="M141.3,87.28c5.13-3.26,10.38-6.4,15.32-9.95.29-.21.03-.68-.28-.49-5.24,3.1-10.23,6.65-15.28,10.03-.25.17-.02.58.24.41h0Z"/>
      </g>
      <path class="cls-2" d="M154.85,111.5c-.09-.7-.38-1.29-.88-1.3-32.61-.28-65.22-.27-97.83-.05-9.15.07-18.3.13-27.45.33-.03,0-.06.01-.09.02h-1.72v.5c-.02-.09-.03-.19-.06-.28-.21-.89-1.53-.5-1.36.38.55,2.76.72,5.57.53,8.38-.03.44.39.8.8.8,16.45.3,32.91.59,49.36.82,16.54.23,33.07.42,49.61.61,9.28.1,18.55.21,27.83.31.9,0,1.23-.87.98-1.53h.3v-9h-.03Z"/>
    </g>
  </g>
</svg>