<?xml version="1.0" encoding="UTF-8"?>
<svg id="_レイヤー_2" data-name="レイヤー 2" xmlns="http://www.w3.org/2000/svg" viewBox="0 0 293.48 152.81">
  <defs>
    <style>
      .cls-1 {
        stroke: #000;
        stroke-linecap: round;
        stroke-linejoin: round;
      }

      .cls-1, .cls-2 {
        fill: #040000;
      }
    </style>
  </defs>
  <g id="_レイヤー_1-2" data-name="レイヤー 1">
    <g>
      <g>
        <path class="cls-2" d="M100.13,5.12c-15.02,2.13-29.65,8.59-42.5,16.49-13.03,8.02-24.72,18.23-34.32,30.15-10.23,12.71-19.01,27.71-22.18,43.87-2.97,15.18-.33,32.05,10.45,43.73,10.91,11.81,28.13,14.82,43.39,12.03,16.6-3.03,32.24-12.11,45.71-21.98,12.16-8.91,23.45-19.92,30.05-33.67,5.76-11.99,8.64-27.44.75-39.22-3.44-5.13-8.89-8.54-15.21-7.95-4.06.38-8.06,2.45-12.17,2.02-4.06-.42-6.44-3.35-4.47-7.28,1.79-3.57,5.21-6.25,7.83-9.21,2.58-2.92,4.91-6.08,6.34-9.73,2.45-6.28.94-13.69-4.65-17.82-2.52-1.86-5.55-2.44-8.54-1.46-1.87.61-1.11,3.38.81,2.95,6.78-1.51,11.07,7.08,9.83,12.71-1.72,7.76-8.36,12.34-13.07,18.18-2.2,2.73-3.92,6.19-2.72,9.74.98,2.9,3.71,4.73,6.6,5.39,6.79,1.55,13.44-3.69,20.06-.92,5.37,2.25,8.33,8.15,9.66,13.49,1.57,6.3.8,12.71-.98,18.89-4,13.89-13.45,25.48-24.2,34.82-5.63,4.9-11.72,9.24-18.06,13.18-7.05,4.38-14.39,8.43-22.18,11.34-14.61,5.45-31.83,6.75-45.58-1.8-12.97-8.07-18.58-23.88-17.77-38.62.9-16.32,8.67-31.78,17.95-44.93C37.77,35.72,62.54,18.13,90.27,9.36c3.38-1.07,6.79-2.04,10.19-3.02.81-.23.45-1.33-.34-1.22h0Z"/>
        <path class="cls-2" d="M81.96,26.28c-5.35-1.96-10.56,1.05-13.83,5.23-1.75,2.24-3.39,4.8-4.57,7.39-.98,2.14-1.2,4.55.3,6.51,3.08,4.04,8.57,2.97,12.33.66,4.34-2.67,9.45-6.31,11.24-11.29,1.41-3.92-.35-11.06-5.62-10.54-.86.08-1.39,1.29-.48,1.77,4.08,2.15,4.94,6.71,2.38,10.48-1.5,2.21-3.7,3.91-5.79,5.53-2,1.54-4.14,3.24-6.65,3.81-2.17.49-5.02-.12-6.1-2.29-1.26-2.55,1.39-5.93,2.69-8.03,2.88-4.66,7.71-9.82,13.79-8.09.75.21,1.03-.89.32-1.15h0Z"/>
        <path class="cls-2" d="M35.68,59.68c-5.98,1.97-20.78,10.75-14.95,18.85,1.01,1.4,2.5,2.06,4.19,2.14,1.79.09,4.29-.92,5.97-.19,1.8.79.6,4.39,1.69,6.03,1.01,1.51,2.92,2.34,4.7,2.37,4.41.08,8.7-4.06,11.57-6.98,2.98-3.03,5.64-6.95,5.11-11.4-.26-2.18-1.34-4.18-1.6-6.36-.32-2.73,2.12-2.6,3.92-3.63,4.11-2.35-.43-6.33-2.88-7.78-4.29-2.53-9.7-2.92-14.23-.83-4.13,1.91-7.99,6.23-8.32,10.89-.07.96,1.48,1.42,1.88.51,1.56-3.58,3.22-6.63,6.77-8.6,3.32-1.84,7.28-2.03,10.81-.66,1.62.62,3.78,1.75,4.77,3.25.8,1.21-.14,1.24-1.07,1.6-.7.28-1.44.5-2.09.89-2.68,1.61-2.43,4.61-1.63,7.23.53,1.72,1.25,3.4,1.14,5.23-.12,2.13-1.2,4.12-2.45,5.8-2.2,2.96-5.56,6.38-8.83,8.12-1.74.92-4.33,1.3-5.78-.42-1.3-1.53-.11-3.78-1.08-5.5-1.39-2.45-4.56-1.65-6.85-1.5-2.38.16-4.39-.53-4.83-3.16-.44-2.6,1.27-4.9,2.99-6.66,3.33-3.42,7.4-5.82,11.66-7.92.74-.36.22-1.59-.56-1.33h0Z"/>
        <path class="cls-2" d="M19.78,100.79c-.5-2.59-3.6-1.84-5.07-.59-2.47,2.11-3.61,6.66-3.41,9.78.2,3.12,1.81,5.87,4.69,7.21,2.62,1.22,5.67,1.04,7.76-1.07-.59-.59-1.18-1.18-1.77-1.77-2.09,2.66-.4,6.6,2.88,7.29,4.1.86,7.33-3.29,8.13-6.84,1.87-8.31-6.33-17.2-14.71-13.01-.53.26-.3,1.21.31,1.15,5.11-.5,10.75,1.87,11.9,7.34.52,2.48.09,5.36-1.64,7.3-.82.93-2.22,1.91-3.54,1.58-1.09-.28-2.44-1.91-1.56-3.04.96-1.23-.61-2.95-1.77-1.77-2.77,2.82-7.19.07-8.03-3.14-.56-2.14-.12-4.42.68-6.44.35-.87.74-1.95,1.4-2.63.22-.23,1.66-1.29,1.8-.81.39,1.25,2.18.73,1.94-.54h0Z"/>
        <path class="cls-2" d="M42.86,121.98c-2.47,3.01-5.22,6.46-5.22,10.56,0,2.99,2,5.75,4.82,6.77,1.24.45,2.61.54,3.84,0,1.7-.74,2.07-2.34,3.33-3.5,1.81-1.68,4.63.1,6.51.79,1.63.6,3.28.86,5,.51,6.12-1.26,10.35-8.98,8.16-14.81-2.43-6.47-10.11-9.29-16.54-8.25-4.13.67-7.82,3.08-10.6,6.15-2.72,3.01-5.78,7.47-5.71,11.69.01.83,1.02.99,1.46.39,1.79-2.41,2.75-5.38,4.51-7.85,1.8-2.54,4.14-4.74,6.94-6.16,4.96-2.52,11.74-2.02,15.64,2.23,3.93,4.27,2.46,11.35-2.72,13.93-3.04,1.52-5.55-.04-8.47-.95-2.47-.76-4.69-.47-6.27,1.7-1.11,1.53-1.97,2.95-4.11,2.35-1.48-.41-2.85-1.62-3.49-3.01-1.82-3.96,1.77-8.49,4.07-11.41.63-.8-.47-1.94-1.13-1.13h0Z"/>
        <path class="cls-2" d="M83.82,104c-2.08,1.36-2.98,4.02-2.18,6.38.82,2.44,3.3,3.55,5.75,3.26,2.67-.32,4.74-2.44,4.79-5.17.04-2.69-1.85-5.34-4.64-5.45-1.01-.04-1.35,1.39-.51,1.88,2.7,1.57,4.21,5.84.28,7.03-4.19,1.27-6.12-4.55-2.83-6.81.69-.47.05-1.59-.66-1.13h0Z"/>
        <path class="cls-2" d="M26.92,75.93c.73-2.65,1.21-5.32,1.7-8.04.45-2.47,1.02-4.98,1.09-7.5.01-.42-.58-.46-.7-.09-.88,2.57-1.24,5.36-1.73,8.03-.46,2.51-.89,4.97-1.12,7.5-.04.44.65.52.76.1h0Z"/>
        <path class="cls-2" d="M33.22,81.84c-.45-8.04.21-15.89.78-23.9.02-.31-.48-.38-.55-.07-1.74,7.79-1.63,16.08-.8,23.97.04.36.6.38.57,0h0Z"/>
        <path class="cls-2" d="M37.92,86.62c.22-10.4,1.43-20.7,1.87-31.07.01-.27-.42-.33-.47-.06-1.97,10.15-2.14,20.83-2.2,31.14,0,.52.8.52.81,0h0Z"/>
        <path class="cls-2" d="M43.91,80.75c.73-4.86,1.46-9.72,2.11-14.59.67-5.05,1.68-10.2,1.84-15.29.02-.51-.79-.63-.9-.12-1.07,4.77-1.39,9.79-1.97,14.63-.62,5.09-1.15,10.19-1.69,15.29-.04.34.56.43.61.08h0Z"/>
        <path class="cls-2" d="M16.5,112.88c.05-3.66.85-7.07,1.28-10.68.03-.26-.38-.36-.49-.13-1.61,3.21-1.85,7.28-1.64,10.81.03.54.85.55.85,0h0Z"/>
        <path class="cls-2" d="M21.12,116.43c.56-4.72,1.44-9.53,1.56-14.29.01-.53-.84-.67-.95-.13-.89,4.71-1.04,9.64-1.48,14.41-.05.56.81.55.87,0h0Z"/>
        <path class="cls-2" d="M41.27,139.18c1.23-7.34,3.43-14.52,6.2-21.42.09-.24-.3-.4-.41-.17-3.29,6.79-5.34,13.95-6.48,21.41-.07.45.61.65.69.19h0Z"/>
        <path class="cls-2" d="M45.41,135.74c1.21-3.58,2.45-7.14,3.62-10.73,1.16-3.56,2.56-7.14,3.26-10.83.06-.31-.4-.57-.55-.23-1.55,3.32-2.5,6.93-3.63,10.41-1.2,3.71-2.33,7.45-3.48,11.18-.15.5.61.7.78.21h0Z"/>
        <path class="cls-2" d="M50.77,133.15c1.02-2.78,2.04-5.56,3.06-8.33,1.01-2.76,2.21-5.52,2.82-8.4.06-.3-.37-.53-.53-.22-1.3,2.54-2.1,5.33-3.03,8.02-1.01,2.91-2.01,5.83-3.02,8.74-.15.44.53.62.69.19h0Z"/>
        <path class="cls-2" d="M54.92,130.98c1.6-3.97,3.23-7.93,4.73-11.94.11-.29-.38-.51-.51-.22-1.72,3.95-3.29,7.97-4.9,11.97-.17.43.52.61.69.19h0Z"/>
      </g>
      <path d="M291.58,90.14l-.26-.16c-.94-.61-89.27-62.1-93.01-63.91-11.19-5.42-29.4-12.94-30.4-13.56,0,0,0,0,0,0,.34-.29.17-.76-.1-1.13-3.46-4.71-5.11-7.19-9.62-8.48-6.22-1.78-17.2-2.08-22.61-2.27l-1.72-.06c-3.08-.1-6.26-.19-9.36-.57-.42-.04-.83.23-.98.67-.13.41.02.82.37,1.03,4.74,2.69,8.35,6.79,11.85,10.75.78.88,1.56,1.76,2.35,2.64,3.14,3.44,7.86,8.95,14.1,10.58,1.94.5,3.97-.09,5.74-.29.13-.02.26-.04.39-.06-.05.1-.11.21-.16.31-.21.44-.05.93.38,1.19.4.24.99.23,1.34-.24.08-.11.16-.23.24-.34,0,0,0,0,.01.01,3.38,2.19,8.19,6.19,20.54,13.39,6.72,3.92,108.96,56.07,110.08,55.36.33-.21.59-1.27.61-1.35.23.14.52.2.82.16.19-.02.38-.08.56-.17.46-.23.72-.63.72-1.09.01-1.21-1.09-1.9-1.9-2.41ZM159.44,21.95c-4.51,2.44-11.06-1.23-13.81-3.2-3.38-2.42-6.08-4.82-8.77-7.89-1.24-1.42-2.53-2.89-3.86-4.27-1.78-1.84-3.43-3.32-5.06-4.52,1.8.09,3.6.15,5.37.21,3.28.11,6.68.23,10,.52,6.64.58,12.01,2.47,16.37,4.72,2.85,1.46,4.91,2.87,6.65,4.55-.19.08-.36.19-.47.37-1.18,1.87-2.33,3.8-3.44,5.66l-.99,1.66c-.74,1.23-1.29.91-1.99,2.19ZM161.43,24.46c.33-.14,3-5.24,3-5.24.9-1.54,1.82-3.13,2.71-4.72,2.78,1.63,5.57,3.35,8.26,5.01.85.52,1.7,1.04,2.55,1.56-.21.3-.37.64-.51.95-.08.18-.16.36-.25.5-.48.85-5.56,7.26-5.29,7.58-2.65-1.34-10.52-5.62-10.47-5.64ZM291.5,92.23c-.27,0-.51.19-.55.46,0,.06,0,.11,0,.16-3.43-1.88-6.97-3.71-10.4-5.47-1.15-.59-2.3-1.19-3.45-1.78l-3.51-1.82c-3.59-1.86-7.19-3.73-10.79-5.58,0,0-62.18-32.44-72.42-37.77-10.3-5.36-16.86-9.57-16.83-9.61,1.27-1.3,2.47-2.83,3.79-4.8.58-.86,1.13-1.76,1.64-2.66.07-.11.14-.23.21-.35.17-.27.35-.57.48-.89.12.07.25.15.37.23,0,0,32.52,17.15,41.74,24.04l54.21,36.45c1.09.66,2.19,1.33,3.28,1.99,3.48,2.12,7.08,4.31,10.68,6.35.15.08.31.17.47.25.4.21.82.43,1.15.7.09.07.16.14.21.2-.08-.06-.18-.09-.29-.09Z"/>
      <path class="cls-2" d="M162.02,19.98c-3.64,1.13-10.34-.76-12.6-1.67-4.47-1.78-9.96-4.59-13.52-7.81-.1-.09-.25.08-.16.17,3.32,3.4,8.44,6.92,12.84,8.7,4.29,1.74,8.18,2.03,12.84,1.8.5-.02,1.62-.19,1.42-.95-.1-.38-.64-.7-.89-.3-.03.05.03.09.07.05,0,0,3.64-1.13,0,0Z"/>
      <path class="cls-2" d="M164.2,18.05c-4.6.78-17.84-1.3-25.48-7.46-.11-.09-.24.07-.16.18.65.9,1.66,1.65,2.54,2.32.97.74,1.99,1.41,3.05,2.02,1.99,1.14,4.1,2.04,6.29,2.7,4.44,1.32,9.29,1.65,13.82.64.24-.05.19-.43-.06-.38h0Z"/>
      <path class="cls-2" d="M166.15,15.32c-5.25.33-21.17-2.25-29.54-8.24-.12-.09-.24.09-.13.19,3.98,3.41,9.14,5.65,14.16,7.03,5.04,1.38,10.35,1.85,15.54,1.2.11-.01.08-.18-.03-.17h0Z"/>
      <g>
        <path class="cls-1" d="M185.32,151.88c-1.77-7.11-4.33-14.05-6.57-21.03-2.29-7.14-4.54-14.28-6.76-21.44-4.48-14.41-8.79-28.88-13.04-43.37-2.38-8.11-4.71-16.23-7-24.36-.5.31-.99.61-1.49.92,24.68,15.76,49.74,30.95,75.1,45.58,7.16,4.13,14.36,8.21,21.57,12.25,1.06.59,2.2-.95,1.13-1.55-25.56-14.29-50.85-29.09-75.71-44.57-7.02-4.37-14.01-8.79-20.98-13.24-.62-.4-1.73.06-1.49.92,8.14,28.91,16.9,57.63,26.26,86.17,2.62,7.99,4.97,16.19,8.26,23.93.16.38.82.2.71-.22h0Z"/>
        <path class="cls-1" d="M183.92,152.22c19.42-10.73,37.87-23.37,55.52-36.8,5.05-3.84,10.01-7.8,14.94-11.79.51-.41.39-1.06-.04-1.46-2.16-2.01-4.5-3.21-7.41-3.63-.66-.1-.86.89-.26,1.13,2.37.95,4.68,2.29,6.59,3.99-.01-.49-.02-.97-.04-1.46-17.07,14.26-35.2,27.28-53.92,39.29-5.25,3.37-10.57,6.65-15.87,9.94-.45.28.02,1.06.49.8h0Z"/>
        <path class="cls-2" d="M192.98,132.38c-7.39-22.04-15.65-43.78-24.62-65.23-.4.33-.8.65-1.21.98,10.01,5.72,19.88,11.69,29.61,17.9,4.86,3.1,9.68,6.27,14.47,9.49,2.39,1.61,4.77,3.24,7.14,4.88,2.37,1.64,4.67,3.43,7.17,4.85.82.46,1.59-.56.87-1.19-2.17-1.89-4.65-3.43-7.01-5.06-2.38-1.63-4.76-3.26-7.16-4.86-4.79-3.21-9.62-6.36-14.49-9.46-9.74-6.19-19.63-12.13-29.65-17.84-.67-.38-1.54.19-1.21.98,8.99,21.42,17.26,43.16,24.92,65.09.27.78,1.42.25,1.16-.52h0Z"/>
        <path class="cls-2" d="M193.04,132.82c12.71-7.53,24.85-16,36.29-25.34.38-.31.37-.8.13-1.19-1.19-1.86-2.63-3.09-4.68-3.93-.52-.21-.88.51-.46.85,1.46,1.15,2.8,2.59,3.82,4.15.04-.4.08-.79.13-1.19-11.25,9.4-23.19,17.93-35.75,25.49-.69.42-.18,1.58.52,1.16h0Z"/>
        <path class="cls-2" d="M240.28,101.44c.55.2,1.11.44,1.67.6.07.02.11-.08.04-.11-.53-.25-1.1-.44-1.65-.66-.1-.04-.17.12-.06.16h0Z"/>
        <path class="cls-2" d="M240.59,102.46c-.16.91.08,1.7.75,2.34.16.16.37.2.56.06,2.33-1.67,3.91-4.73,3.37-7.61-.06-.3-.48-.27-.53.02-.21,1.32-.46,2.66-1.02,3.88-.3.66-.69,1.28-1.14,1.84-.63.78-1.71,1.69-1.46-.48.04-.34-.47-.38-.53-.05h0Z"/>
        <path class="cls-2" d="M236.64,102.12c1.38-1.41,3.29-3.81,3.05-5.92-.03-.28-.45-.38-.6-.14-.48.73-.64,1.63-1.01,2.43-.51,1.08-1.2,2.05-2.02,2.91-.41.43.17,1.16.59.73h0Z"/>
        <path class="cls-2" d="M233.27,98.69c.29-.74.57-1.49.86-2.23.25-.66.56-1.35.56-2.06,0-.28-.31-.4-.5-.19-.48.53-.7,1.25-.95,1.91-.28.75-.56,1.49-.84,2.24-.21.56.66.9.88.33h0Z"/>
        <path class="cls-2" d="M227.91,97.73c.81-1.23,1.91-2.53,2.43-3.92.09-.25-.24-.54-.45-.33-1.04,1.06-1.74,2.59-2.52,3.85-.22.36.3.75.53.39h0Z"/>
        <path class="cls-2" d="M217.24,98.49c1.41-1.66,2.73-3.38,3.9-5.21.95-1.48,2.24-3.2,2.58-4.94.07-.36-.4-.43-.6-.23-1.28,1.39-2.05,3.47-3.07,5.07-1.06,1.67-2.19,3.31-3.39,4.89-.28.37.28.76.57.42h0Z"/>
        <path class="cls-2" d="M215.07,91.03c1.95-1.58,3.84-3.69,4.3-6.23.05-.26-.35-.4-.49-.19-1.35,2.1-2.38,4.12-4.31,5.79-.39.34.1.95.5.62h0Z"/>
        <path class="cls-2" d="M211.93,87.04c1.29-.81,3.07-2.23,3.41-3.8.07-.35-.42-.58-.67-.36-.54.5-.87,1.2-1.37,1.75-.58.65-1.26,1.18-1.99,1.65-.53.34.09,1.08.61.76h0Z"/>
        <path class="cls-2" d="M209.23,83.99c.42-.57.84-1.13,1.24-1.71.35-.49.73-.92.87-1.51.08-.33-.35-.44-.56-.3-.5.31-.81.89-1.15,1.37-.38.53-.76,1.07-1.14,1.61-.34.48.39,1.01.74.54h0Z"/>
        <path class="cls-2" d="M205.86,80.71c.17-.45.34-.89.51-1.34.16-.41.4-.84.39-1.28,0-.4-.45-.57-.72-.27-.29.33-.4.81-.55,1.22-.17.45-.33.9-.5,1.34-.21.56.65.88.87.33h0Z"/>
        <path class="cls-2" d="M202.09,78.34c.22-.6.38-1.19.52-1.82.08-.38-.53-.61-.72-.27-.31.56-.57,1.11-.81,1.71-.26.64.77,1.03,1.01.38h0Z"/>
        <path class="cls-2" d="M189.69,79.32c2.13-2.53,4.68-5.17,6.18-8.14.15-.3-.29-.6-.53-.39-2.47,2.22-4.35,5.38-6.23,8.09-.27.39.29.79.59.43h0Z"/>
        <path class="cls-2" d="M187.22,71.99c1.34-1.04,2.34-2.44,2.39-4.16,0-.31-.42-.43-.55-.13-.55,1.37-1.23,2.67-2.39,3.61-.43.35.1,1.02.55.67h0Z"/>
        <path class="cls-2" d="M183.58,69.6c1.23-1.44,2.45-2.82,3.44-4.43.16-.26-.15-.61-.41-.39-1.45,1.27-2.62,2.73-3.87,4.21-.43.51.41,1.11.83.61h0Z"/>
        <path class="cls-2" d="M180.35,67.32c1.05-1.16,2.42-2.33,3.16-3.71.2-.36-.32-.61-.59-.43-1.29.87-2.33,2.4-3.36,3.56-.42.47.37,1.04.79.58h0Z"/>
        <path class="cls-2" d="M177.54,64.86c-.39-.7.4-1.89,1.21-1.69.36.09.59-.43.21-.56-1.56-.57-3.13,1.19-2.34,2.67.3.57,1.23.15.92-.41h0Z"/>
        <path class="cls-2" d="M158.58,63.81c1.64-1.49,3.27-2.99,4.91-4.48,1.45-1.33,3.32-2.67,4.4-4.31.16-.24-.09-.65-.39-.48-1.71.98-3.17,2.73-4.58,4.09-1.6,1.54-3.2,3.08-4.79,4.62-.33.32.11.87.45.56h0Z"/>
        <path class="cls-2" d="M184.79,132.66c2.72-.39,5.61-.58,8.27-1.3.24-.07.28-.49-.02-.48-2.78.1-5.6.77-8.35,1.21-.37.06-.27.62.1.57h0Z"/>
        <path class="cls-2" d="M183.81,127.63c1.99.79,5.29.7,6.61-1.3.11-.17-.06-.44-.27-.33-.95.5-1.72,1.13-2.8,1.37-1.13.25-2.27.14-3.34-.27-.34-.13-.54.4-.2.53h0Z"/>
        <path class="cls-2" d="M183.74,122.99c1.87.07,3.75.19,5.62.13.41-.01.5-.62.06-.66-1.86-.17-3.74-.16-5.61-.2-.46-.01-.54.71-.07.73h0Z"/>
        <path class="cls-2" d="M176.69,119.47c1.8-.54,3.55-1.1,5.42-1.36,1.86-.25,3.7-.11,5.56-.24.26-.02.31-.45.05-.52-3.45-.93-8.06-.1-11.24,1.41-.36.17-.2.83.21.7h0Z"/>
        <path class="cls-2" d="M180.33,115.1c.96-.31,1.92-.61,2.88-.92.85-.27,1.8-.47,2.55-.96.26-.17.02-.5-.22-.49-.88.03-1.82.45-2.66.72-.96.3-1.92.61-2.88.91-.5.16-.16.9.33.74h0Z"/>
        <path class="cls-2" d="M178.49,109.77c1.69-.31,3.53-.45,5.12-1.12.21-.09.16-.44-.07-.44-1.72-.04-3.49.49-5.17.82-.47.09-.35.83.13.74h0Z"/>
        <path class="cls-2" d="M177.24,105.45c.71-.08,1.41-.15,2.12-.23.63-.07,1.3-.07,1.9-.28.32-.11.2-.58-.1-.62-.63-.08-1.3.06-1.93.13-.71.07-1.41.15-2.12.22-.5.05-.37.83.13.78h0Z"/>
        <path class="cls-2" d="M176.39,100.23c.77-.35,1.52-.69,2.26-1.1.31-.17.11-.63-.23-.51-.79.28-1.55.62-2.32.96-.41.19-.13.83.29.64h0Z"/>
        <path class="cls-2" d="M168.35,96.46c1.66-.37,3.31-.74,4.97-1.11,1.47-.33,3.1-.5,4.44-1.18.21-.1.18-.47-.08-.47-1.5-.04-3.04.5-4.5.83-1.65.38-3.31.76-4.96,1.13-.51.12-.38.91.13.8h0Z"/>
        <path class="cls-2" d="M171.87,91.97c1.57-.4,3.08-1.2,3.94-2.59.17-.27-.15-.63-.42-.4-1.1.93-2.24,1.78-3.66,2.15-.53.14-.39.98.14.84h0Z"/>
        <path class="cls-2" d="M172,84.37c.4-.21.79-.43,1.17-.66.26-.16.05-.64-.25-.55-.43.13-.85.28-1.27.43-.52.19-.14,1.04.35.78h0Z"/>
        <path class="cls-2" d="M171.86,81.9c-.18-.38-.35-.76-.56-1.13-.13-.24-.48-.09-.39.18.14.4.3.78.47,1.16.14.31.61.09.47-.21h0Z"/>
      </g>
    </g>
  </g>
</svg>