<?xml version="1.0" standalone="no"?>
<!DOCTYPE svg PUBLIC "-//W3C//DTD SVG 20010904//EN"
 "http://www.w3.org/TR/2001/REC-SVG-20010904/DTD/svg10.dtd">
<svg version="1.0" xmlns="http://www.w3.org/2000/svg"
 width="131.000000pt" height="123.000000pt" viewBox="0 0 131.000000 123.000000"
 preserveAspectRatio="xMidYMid meet">

<g transform="translate(0.000000,123.000000) scale(0.100000,-0.100000)"
fill="#000000" stroke="none">
<path d="M505 1210 c-27 -5 -80 -19 -116 -30 -62 -20 -69 -21 -97 -6 -39 20
-96 20 -126 1 -38 -25 -50 -67 -42 -145 6 -64 3 -76 -29 -153 -66 -161 -88
-251 -89 -367 0 -89 3 -112 22 -150 39 -79 97 -132 178 -165 39 -16 59 -30 60
-42 1 -10 2 -30 3 -45 1 -14 13 -40 27 -57 36 -43 89 -43 138 -1 l35 31 102
-11 c75 -7 127 -7 188 1 69 9 86 9 90 -2 2 -7 15 -23 29 -36 58 -54 152 -7
152 76 l0 40 73 34 c78 37 157 110 182 172 42 98 25 264 -47 458 -38 104 -41
118 -39 203 2 85 1 93 -24 122 -34 41 -80 49 -145 28 -44 -14 -53 -15 -78 -2
-82 43 -326 68 -447 46z m298 -54 c42 -8 99 -25 127 -37 51 -22 53 -22 101 -5
93 34 125 5 116 -105 -5 -63 -2 -79 38 -192 97 -276 99 -406 7 -508 -48 -53
-145 -109 -189 -109 -21 0 -23 -5 -23 -53 0 -66 -17 -92 -52 -84 -17 5 -30 18
-37 38 l-11 32 -82 -9 c-96 -10 -214 -8 -295 5 l-58 10 -28 -35 c-31 -36 -66
-44 -87 -19 -7 9 -11 36 -8 71 l3 57 -53 13 c-73 19 -102 36 -149 87 -98 106
-95 240 11 522 40 106 51 146 44 163 -14 38 -9 109 8 126 21 22 60 20 100 -5
l34 -20 64 25 c114 46 280 58 419 32z"/>
<path d="M415 700 c-48 -19 -64 -75 -34 -114 41 -53 123 -21 123 48 0 53 -43
85 -89 66z m25 -54 c0 -8 -5 -18 -11 -22 -14 -8 -33 11 -25 25 10 16 36 13 36
-3z"/>
<path d="M869 681 c-46 -37 -19 -131 37 -131 13 0 35 10 50 23 23 20 26 28 20
60 -11 61 -63 84 -107 48z m37 -57 c-5 -13 -10 -14 -18 -6 -6 6 -8 18 -4 28 5
13 10 14 18 6 6 -6 8 -18 4 -28z"/>
<path d="M662 538 c7 -20 48 -23 48 -4 0 11 -9 16 -26 16 -16 0 -24 -5 -22
-12z"/>
<path d="M580 505 c0 -24 60 -55 108 -55 54 0 102 24 102 50 0 26 -11 25 -45
-2 -16 -13 -42 -22 -61 -22 -21 0 -42 8 -57 22 -27 26 -47 28 -47 7z"/>
</g>
</svg>
