<?xml version="1.0" encoding="UTF-8"?>
<svg id="_レイヤー_1" data-name="レイヤー_1" xmlns="http://www.w3.org/2000/svg" version="1.1" viewBox="0 0 900 100">
  <!-- Generator: Adobe Illustrator 30.3.0, SVG Export Plug-In . SVG Version: 2.1.3 Build 182)  -->
  <defs>
    <style>
      .st0 {
        fill: #58c2ef;
      }
    </style>
  </defs>
  <path class="st0" d="M43.35,74.39c-.72,1.17-1.64,1.96-2.75,2.38-.72.28-1.41.62-2.06,1.03-.65.41-1.31.86-1.96,1.34-.13.28-.39.45-.78.52-.2-.07-.43-.14-.69-.21-.26-.07-.56-.14-.88-.21l-1.67-.31c-.46-.34-.85-.71-1.18-1.08-.33-.38-.65-.77-.98-1.19-.65-.83-1.11-1.34-1.37-1.55-.26-.21-.85-.55-1.77-1.03-.33-.76-.62-1.53-.88-2.32-.26-.79-.36-1.22-.29-1.29.26-.14.28-.43.05-.88-.23-.45-.41-.71-.54-.77-.39-.27-.62-.41-.69-.41-.39-.07-.82-.1-1.28-.1h-1.37c-.26-.21-.52-.38-.78-.52-.26-.14-.56-.27-.88-.41-.46.07-.78.29-.98.67-.2.38-.36.74-.49,1.08-.07.21-.1.52-.1.93,0,.48.02,1,.05,1.55.03.55-.02,1.1-.15,1.65-.13.48-.21.96-.25,1.45-.03.48-.05,1-.05,1.55-.07.28-.13.59-.2.93-.07.34-.16.69-.29,1.03-.26.48-.44,1-.54,1.55-.1.55-.31,1.03-.64,1.45-1.57.41-2.57.65-2.99.72-.43.07-1.13.07-2.11,0-.13.07-.26.14-.39.21-.13.07-.29.14-.49.21-.46-.21-.95-.46-1.47-.77-.52-.31-1.05-.6-1.57-.88-.46-.27-.69-.65-.69-1.14-.07-1.17-.21-2.32-.44-3.46-.23-1.14-.31-2.29-.25-3.46-.2-.83-.28-1.69-.25-2.58.03-.89-.02-1.79-.15-2.68-.07-.27-.1-.53-.1-.77v-.77c.13-.55.23-1.17.29-1.86-.07-.14-.15-.33-.25-.57s-.21-.43-.34-.57c-.2-.69-.26-1.31-.2-1.86.06-.55.11-1.08.15-1.6.03-.52-.02-1.08-.15-1.7,0-.34.02-.64.05-.88.03-.24.08-.5.15-.77.33-.83.29-1.69-.1-2.58-.13-.55-.29-1.1-.49-1.65-.2-.55-.39-1.1-.59-1.65v-.93c0-.34.03-.69.1-1.03,0-.76.02-1.5.05-2.22.03-.72.02-1.43-.05-2.12v-.62c.13-.48.21-.98.25-1.5.03-.52.08-1.01.15-1.5.2-.55.31-1.14.34-1.75.03-.62.08-1.17.15-1.65,0-1.17.1-2.27.29-3.3.13-.27.2-.53.2-.77v-.67c0-.34-.05-.65-.15-.93-.1-.27-.15-.55-.15-.83,0-.34.05-.67.15-.98s.15-.6.15-.88v-3.51c.06-.69.1-1.38.1-2.06s.03-1.41.1-2.17c-.07-.07-.13-.17-.2-.31-.07-.14-.16-.31-.29-.52-.13-.41-.03-.62.29-.62,1.31-.55,2.58-1.17,3.83-1.86.13,0,.23-.02.29-.05.06-.03.13-.05.2-.05.59-.14,1.16-.26,1.72-.36.55-.1,1.06-.33,1.52-.67.13-.21.42-.31.88-.31.72,0,1.34-.14,1.86-.41.46-.14.85-.16,1.18-.05.33.1.65.22.98.36v.83c0,.34.03.55.1.62,0,.14.06.21.2.21.98.83,1.47,2,1.47,3.51,0,.28.02.55.05.83.03.28.08.59.15.93v.83c-.07.62-.16,1.21-.29,1.75-.13.55-.23,1.1-.29,1.65.13.69.25,1.39.34,2.12.1.72.02,1.43-.25,2.12v.93c.13.48.16.96.1,1.45-.07.48-.1,1-.1,1.55v1.14c.2.69.25,1.38.15,2.07-.1.69-.21,1.34-.34,1.96.06.34.11.67.15.98.03.31.08.64.15.98-.07.34-.13.71-.2,1.08-.07.38-.13.74-.2,1.08,0,.48.02.95.05,1.39.03.45.08.95.15,1.5-.07.34-.13.74-.2,1.19-.07.45-.16.88-.29,1.29,0,.21.13.38.39.52.06,0,.13-.03.2-.1.26,0,.42-.1.49-.31.52-.62,1.14-1.2,1.86-1.76.33-.21.62-.45.88-.72.26-.27.59-.52.98-.72.2-.07.49-.31.88-.72.52-.41,1.05-.83,1.57-1.24.52-.41,1.08-.72,1.67-.93.59-.76,1.01-1.41,1.27-1.96.33-.14.62-.29.88-.46.26-.17.46-.29.59-.36.2-.21.36-.41.49-.62.13-.41.26-.83.39-1.24.13-.41.29-.83.49-1.24.46-.41.9-.83,1.32-1.24.42-.41.87-.86,1.32-1.34.39-.07.75-.02,1.08.15.33.17.69.33,1.08.46.65,1.1,1.42,2.1,2.31,2.99.88.9,1.78,1.76,2.7,2.58.33.07.59.41.78,1.03s.2,1.14,0,1.55c-.2.07-.41.21-.64.41-.23.21-.51.38-.83.52-.46.96-.97,1.93-1.52,2.89-.56.96-1.1,1.96-1.62,2.99-.2.41-.39.81-.59,1.19-.2.38-.46.71-.78.98-.26.14-.43.31-.49.52-.07.21-.16.45-.29.72-.26.69-.56,1.27-.88,1.76-.33.48-.72.96-1.18,1.45-.2.14-.39.34-.59.62-.2.28-.36.52-.49.72-.07.07-.1.17-.1.31.06.69.29,1.22.69,1.6.39.38.62.84.69,1.39.33.14.64.31.93.52.29.21.57.38.83.52.59.83,1.24,1.64,1.96,2.43.72.79,1.41,1.57,2.06,2.32.65.69,1.24,1.43,1.77,2.22.52.79.95,1.64,1.28,2.53.13.28.21.55.25.83.03.28-.02.55-.15.83Z"/>
  <path class="st0" d="M68.95,26.17c.2.48.26.98.2,1.5-.07.52-.16,1.02-.29,1.5-.07.41-.2.81-.39,1.19-.2.38-.36.74-.49,1.08-.26.41-.54.79-.83,1.14-.29.35-.57.69-.83,1.03-.2.07-.36.19-.49.36-.13.17-.29.33-.49.46-.46.35-1.18.67-2.16.98-.98.31-1.77.46-2.35.46-.33,0-.59-.07-.79-.21-.39,0-.78-.02-1.18-.05-.39-.03-.75-.05-1.08-.05-.2-.14-.41-.27-.64-.41-.23-.14-.41-.27-.54-.41-.33-.14-.67-.21-1.03-.21h-1.03c-.26-.21-.57-.4-.93-.57s-.7-.33-1.03-.46l-.59-1.86c.06-.55.13-1.15.2-1.81.06-.65,0-1.32-.2-2.01-.2-.14-.2-.31,0-.52.2-.48.2-.96,0-1.45-.2-.48-.2-.96,0-1.45.06-.14.1-.34.1-.62-.2-.41-.2-.81,0-1.19.2-.38.36-.71.49-.98-.07-.21-.1-.43-.1-.67v-.57c.06-.07.11-.16.15-.26.03-.1.11-.19.25-.26.52-.14.96-.39,1.32-.77.36-.38.77-.67,1.23-.88.46-.41.96-.76,1.52-1.03.56-.27,1.09-.55,1.62-.83h1.37c.39,0,.79.07,1.18.21.2.07.42.1.69.1h.79c.92-.14,1.63.24,2.16,1.14.13.34.36.55.69.62.33.07.62.17.88.31.65.62,1.08,1.41,1.28,2.38.13.41.28.83.44,1.24.16.41.28.83.34,1.24.13.41.25.84.34,1.29.1.45.18.88.25,1.29ZM68.36,49.92c-.13.41-.2.88-.2,1.39v1.6c.06.48.06.98,0,1.5-.07.52-.1,1.02-.1,1.5l-.69,1.03c.33.35.52.72.59,1.14.06.41.1.86.1,1.34v1.5c0,.52-.03,1.05-.1,1.6-.07.48-.2,1-.39,1.55-.2.55-.36,1.14-.49,1.75,0,.69-.02,1.5-.05,2.43-.03.93-.02,1.84.05,2.74.06,1.31,0,2.63-.2,3.97-.2,1.34-.59,2.6-1.18,3.77,0,.55.06,1.08.2,1.6.13.52.26,1.05.39,1.6,0,.07-.03.16-.1.26-.07.1-.1.22-.1.36-.33.48-.72.89-1.18,1.24-.07,0-.13.03-.2.1h-.39c-.72,0-1.46.05-2.21.16-.75.1-1.59.05-2.5-.16-.26-.14-.54-.31-.83-.52-.29-.21-.61-.38-.93-.52-.26,0-.57-.02-.93-.05-.36-.04-.7-.09-1.03-.16-.52-.62-1.05-1.27-1.57-1.96-.2-.14-.43-.24-.69-.31-.26-.07-.52-.17-.79-.31-.46-.34-.62-.89-.49-1.65.13-.76.29-1.41.49-1.96.2-.89.16-1.75-.1-2.58l-.39-1.45c0-.55-.03-1.07-.1-1.55-.07-.48-.07-.96,0-1.45.06-.69.08-1.34.05-1.96-.03-.62-.05-1.27-.05-1.96.06-.96.1-1.91.1-2.84v-2.74c0-.34.03-.55.1-.62.33-.55.49-1.08.49-1.6v-1.6c-.07-.55-.05-1.12.05-1.7.1-.58.08-1.12-.05-1.6v-1.81c0-.58.03-1.19.1-1.81.06-.34.11-.71.15-1.08.03-.38-.02-.81-.15-1.29.59-.27,1.09-.48,1.52-.62.42-.14.83-.21,1.23-.21h.83c.29,0,.57-.03.83-.1.65-.14,1.21-.27,1.67-.41.33.07.6.19.83.36.23.17.47.33.74.46.46,0,.91-.1,1.37-.31.46-.07.87-.03,1.23.1.36.14.64.48.83,1.03.06.07.11.14.15.21.03.07.08.14.15.21l.69.41c.46.07.85-.02,1.18-.26.33-.24.65-.4.98-.46.39,0,.62.17.69.52.2.48.33,1.21.39,2.17Z"/>
  <path class="st0" d="M118.29,35.15c-.33,1.24-.52,2.5-.59,3.77-.07,1.27-.13,2.53-.2,3.77-.07,1.24-.1,2.5-.1,3.77v3.77c0,1.03-.07,2.07-.2,3.1-.13,1.03-.23,2.1-.29,3.2,0,.28-.02.58-.05.93-.03.35-.05.69-.05,1.03,0,.96-.13,1.86-.39,2.68-.2.9-.29,1.79-.29,2.68,0,.48-.03,1-.1,1.55-.07.55-.2,1.1-.39,1.65-.07.35-.1.86-.1,1.55-.07.55-.2,1.1-.39,1.65-.13.48-.26.95-.39,1.39-.13.45-.26.95-.39,1.5-.26.41-.51.84-.74,1.29-.23.45-.47.88-.74,1.29-.59.35-1.08.79-1.47,1.34-.66.55-1.29,1.14-1.91,1.75-.62.62-1.23,1.21-1.81,1.76-.79.69-1.57,1.03-2.35,1.03-.07,0-.15.03-.25.1-.1.07-.21.1-.34.1-1.24.14-2.26.55-3.04,1.24-.07.07-.15.12-.25.16-.1.03-.21.12-.34.26-.85.14-1.72.07-2.6-.21-.88-.28-1.68-.62-2.4-1.03h-1.57c-.26,0-.52-.02-.78-.05-.26-.04-.56-.09-.88-.15-1.77-.41-3.47-1.2-5.1-2.38-.2-.21-.43-.34-.69-.41-.26-.07-.56-.14-.88-.21-.39-.07-.79-.17-1.18-.31-.39-.14-.78-.27-1.18-.41-.33-.21-.59-.5-.79-.88-.2-.38-.39-.71-.59-.98-.33-.69-.62-1.32-.88-1.91-.26-.58-.56-1.22-.88-1.91-.26-.55-.56-1.12-.88-1.7-.33-.58-.65-1.12-.98-1.6,0-.07.03-.1.1-.1s.1-.03.1-.1l-.2-.21c0,.07-.02.12-.05.16-.03.04-.05.09-.05.15-.07-.07-.15-.12-.25-.15-.1-.03-.18-.09-.25-.16-.26-.14-.46-.36-.59-.67-.13-.31-.26-.6-.39-.88.2-.41.29-.96.29-1.65.13-.89.1-1.69-.1-2.38-.26-1.03-.38-2.07-.34-3.1.03-1.03.08-2.1.15-3.2,0-.34.13-.79.39-1.34.46-1.17.72-2.2.79-3.1.65-.96,1.18-2,1.57-3.1.39-1.1.85-2.13,1.37-3.1.33-.14.6-.27.83-.41.23-.14.47-.24.74-.31.13-.14.23-.31.29-.52.06-.21.2-.38.39-.52.2-.14.42-.26.69-.36.26-.1.55-.19.88-.26.13-.21.25-.41.34-.62.1-.21.21-.41.34-.62.2-.21.33-.31.39-.31,1.5-.55,3.07-.96,4.71-1.24.26-.07.54-.12.83-.16.29-.03.57-.09.83-.16.85-.27,1.7-.38,2.55-.31.85.07,1.7.07,2.55,0,.2,0,.41.04.64.1.23.07.44.14.64.21.2,0,.46.07.78.21.33.14.52.14.59,0,.65-.14,1.28.07,1.86.62.13.07.41.09.83.05.42-.03.67-.05.74-.05.59-.14.93-.43,1.03-.88.1-.45.08-.67-.05-.67l-.2-.21c.06-.89.05-1.79-.05-2.68-.1-.89-.12-1.79-.05-2.68.06-.34.1-.71.1-1.08v-1.08c-.07-.34-.07-.67,0-.98.06-.31.1-.64.1-.98s.02-.67.05-.98c.03-.31-.02-.57-.15-.77-.2-.55-.28-1.1-.25-1.65.03-.55.11-1.1.25-1.65.2-.76.34-1.51.44-2.27.1-.76.08-1.58-.05-2.48v-.52c.26-.69.41-1.38.44-2.07.03-.69.08-1.31.15-1.86.33-.48.74-.81,1.23-.98.49-.17.87-.39,1.13-.67,1.04-.07,2.03-.07,2.94,0,.92.07,1.83-.03,2.75-.31.46.21.9.36,1.32.46.42.1.8.19,1.13.26.72.55,1.08,1.27,1.08,2.17v1.14c0,.41-.03.83-.1,1.24.06.28.16.52.29.72.13.21.23.48.29.83-.07.14-.12.33-.15.57-.03.24-.08.5-.15.77.06.28.13.62.2,1.03.06.41.13.79.2,1.14,0,1.1.02,2.17.05,3.2.03,1.03.01,2.06-.05,3.1,0,1.1.02,1.82.05,2.17.03.34.18,1.03.44,2.06ZM103.97,61.17c-.2-.55-.34-1.08-.44-1.6-.1-.52-.21-.98-.34-1.39-.2-.48-.44-.93-.74-1.34s-.54-.86-.74-1.34c-.66-.34-1.15-.69-1.47-1.03-.33-.14-.64-.24-.93-.31-.29-.07-.61-.14-.93-.21-.26-.14-.51-.26-.74-.36-.23-.1-.47-.19-.74-.26-.46.21-.9.41-1.32.62-.43.21-.83.41-1.23.62-1.05.48-1.77,1.38-2.16,2.68-.07.28-.1.55-.1.83s-.03.58-.1.93c-.07.21-.18.41-.34.62-.16.21-.31.48-.44.83v1.86c.13.9.38,1.74.74,2.53.36.79.96,1.46,1.82,2.01.2.07.38.19.54.36.16.17.38.33.64.46.39.41.79.62,1.18.62,1.05-.14,2.06-.26,3.04-.36.98-.1,1.93-.36,2.84-.77.39-.34.69-.69.88-1.03.2-.27.36-.53.49-.77.13-.24.29-.5.49-.77v-2.68c0-.27.03-.52.1-.72Z"/>
  <path class="st0" d="M157.13,39.49c-.2.9-.59,1.65-1.18,2.27-.26.28-.48.57-.64.88-.16.31-.38.53-.64.67-.26.28-.46.52-.59.72-.13.21-.26.48-.39.83-.33.69-.88.76-1.67.21-.39-.27-.65-.55-.78-.83l-1.18-.1c-.13,0-.23-.03-.29-.1-.33-.14-.56-.36-.69-.67-.13-.31-.36-.57-.69-.77-.98-.48-1.96-.83-2.94-1.03-.98-.21-2-.14-3.04.21-.65.9-1.08,1.53-1.28,1.91-.2.38-.43,1.05-.69,2.01,0,.48.08.95.25,1.39.16.45.31.95.44,1.5.33.55.75.93,1.28,1.14.26,0,.52.02.78.05.26.04.52.09.79.16.26.21.49.4.69.57.2.17.39.33.59.46.46.28.9.64,1.32,1.08.42.45.87.77,1.32.98.52.28,1.01.52,1.47.72.46.21.92.45,1.37.72.39.07.74.24,1.03.52.29.28.57.58.83.93.2.41.44.83.74,1.24.29.41.57.86.83,1.34.2.76.38,1.53.54,2.32.16.79.25,1.64.25,2.53,0,.62.03,1.22.1,1.81.06.59.13,1.19.2,1.81.06.35.11.72.15,1.14.03.41.01.86-.05,1.34-.2.41-.39.86-.59,1.34-.2.48-.36,1-.49,1.55-.26,1.03-.62,2-1.08,2.89-.26.34-.56.69-.88,1.03-.33.35-.66.69-.98,1.03-.2.14-.36.31-.49.52-.13.21-.26.38-.39.52-.65.41-1.18.89-1.57,1.45-.39.55-.75,1.14-1.08,1.75-.46.07-.92.16-1.37.26-.46.1-.95.22-1.47.36-.39.07-.78.19-1.18.36-.39.17-.75.33-1.08.46h-2.35c-.72-.34-1.41-.48-2.06-.41-.65.07-1.34.21-2.06.41-.65.14-1.11.07-1.37-.21-.46-.35-.93-.6-1.42-.77-.49-.17-.97-.29-1.42-.36-.65-.69-1.34-1.34-2.06-1.96s-1.37-1.31-1.96-2.07c0-.21-.02-.43-.05-.67-.03-.24-.05-.46-.05-.67,0-.55.02-1.05.05-1.5.03-.45.05-.91.05-1.39.2-.96.54-1.89,1.03-2.79.49-.89.96-1.79,1.42-2.68.39.07.75.14,1.08.21.33.07.69.17,1.08.31.33.28.72.52,1.18.72.46.21.92.41,1.37.62.59.35,1.04.48,1.37.41.26,0,.49.04.69.1.2.07.42.14.69.21.79.35,1.54.24,2.26-.31.33-.21.64-.43.93-.67.29-.24.54-.57.74-.98v-1.39c0-.52.03-1.01.1-1.5,0-.21-.03-.41-.1-.62-.07-.21-.13-.43-.2-.67-.07-.24-.13-.46-.2-.67l-1.37-1.14c-.26-.34-.46-.71-.59-1.08-.13-.38-.36-.67-.69-.88l-2.35-.72c-.39-.21-.72-.45-.98-.72-.26-.27-.52-.52-.78-.72-.13-.14-.26-.24-.39-.31-.13-.07-.26-.14-.39-.21-.26-.07-.52-.14-.78-.21-.26-.07-.56-.17-.88-.31-.39-.34-.92-.65-1.57-.93-.39-.48-.66-.96-.79-1.45-.13-.48-.36-.93-.69-1.34-.26-.34-.52-.72-.79-1.14-.26-.41-.56-.83-.88-1.24-.2-.76-.38-1.53-.54-2.32-.16-.79-.34-1.56-.54-2.32-.33-1.03-.36-2.03-.1-2.99.13-.62.28-1.27.44-1.96.16-.69.38-1.38.64-2.06.39-.83.88-1.96,1.47-3.41.65-1.1,1.52-2.12,2.6-3.05,1.08-.93,2.14-1.88,3.19-2.84.26-.14.55-.26.88-.36.33-.1.62-.19.88-.26.78-.27,1.37-.5,1.77-.67s.83-.29,1.32-.36c.49-.07,1.23-.1,2.21-.1h.2c.92-.34,1.81-.45,2.7-.31.88.14,1.75.34,2.6.62.2,0,.41.02.64.05.23.04.38.05.44.05.59.34,1.09.76,1.52,1.24.42.48.9.93,1.42,1.34.33.21.69.4,1.08.57.39.17.75.36,1.08.57.65.55,1.23,1.17,1.72,1.86.49.69.96,1.34,1.42,1.96.13.48.23.96.29,1.45.06.48.16,1,.29,1.55Z"/>
  <path class="st0" d="M227.36,38.77c-.33.55-.62,1.12-.88,1.7-.26.58-.39,1.26-.39,2.01-.52.35-1,.79-1.42,1.34-.43.55-.8,1.14-1.13,1.75-.26.48-.51.95-.74,1.39-.23.45-.51.91-.83,1.39-.07.14-.18.14-.34,0-.16-.14-.28-.31-.34-.52,0-.27-.13-.41-.39-.41-.2,0-.36.1-.49.31-.13.07-.26.19-.39.36-.13.17-.26.33-.39.46-.07.07-.18.12-.34.16-.16.04-.31.09-.44.16-.26-.27-.56-.53-.88-.77-.33-.24-.65-.5-.98-.77-.39-.14-.78-.27-1.18-.41-.39-.14-.75-.24-1.08-.31-.26-.14-.36-.21-.29-.21-.2-.14-.36-.31-.49-.52-.13-.21-.36-.24-.69-.1-.2.21-.28.4-.25.57.03.17.02.4-.05.67-.46,0-.78.04-.98.1-.13.07-.26.14-.39.21-.13.07-.29.14-.49.21-.2-.07-.43-.12-.69-.16-.26-.03-.56-.08-.88-.15-.59.07-1.16.26-1.72.57-.56.31-1.1.6-1.62.88-.39.07-.69.35-.88.83-.26.69-.66,1.34-1.18,1.96-.52.62-.98,1.27-1.37,1.96-.07.14-.16.33-.29.57-.13.24-.26.46-.39.67-.07.21-.12.4-.15.57-.03.17-.05.36-.05.57.13.41.26.69.39.83-.13.21-.26.41-.39.62-.13.21-.26.41-.39.62.06.21.1.41.1.62s.03.38.1.52c.2.69.46,1.24.79,1.65.2.28.36.57.49.88.13.31.29.67.49,1.08.26.21.52.41.79.62.26.21.52.45.78.72.26.28.51.53.74.77.23.24.44.5.64.77.26-.07.51-.1.74-.1s.51-.03.83-.1c.13.07.28.12.44.15.16.04.31.09.44.16.46.07.9.14,1.32.21.42.07.83,0,1.23-.21.52-.14,1.08-.29,1.67-.46.59-.17,1.11-.29,1.57-.36.46.07.9.17,1.32.31.42.14.87.28,1.32.41.46-.34.93-.64,1.42-.88.49-.24,1.03-.39,1.62-.46.59.21,1.01.58,1.28,1.14.26.34.47.72.64,1.14.16.41.34.83.54,1.24.13.48.31.93.54,1.34.23.41.47.83.74,1.24.2.28.41.58.64.93.23.35.41.66.54.93.2,1.1.13,2.06-.2,2.89-.46.35-.92.72-1.37,1.14-.46.41-.92.83-1.37,1.24-.13.28-.26.53-.39.77-.13.24-.26.5-.39.77-.26.07-.52.16-.79.26-.26.1-.52.26-.78.46-.2.07-.41.12-.64.16-.23.04-.48.12-.74.26-.39.28-.88.59-1.47.93-.46-.27-.98-.45-1.57-.52-.46.34-.98.52-1.57.52s-1.15.07-1.67.21c-.59.07-1.13-.02-1.62-.26-.49-.24-1-.43-1.52-.57l-1.37.72-2.06-.72c-.26.07-.54.1-.83.1s-.61.04-.93.1c-.26-.14-.56-.27-.88-.41-.33-.14-.65-.24-.98-.31h-.64c-.23,0-.47.04-.74.1-.39-.27-.69-.52-.88-.72-.26-.21-.52-.43-.79-.67-.26-.24-.56-.4-.88-.46-1.11-.62-2.06-1.41-2.84-2.38-.46-.55-.93-1.08-1.42-1.6-.49-.52-1.06-1.02-1.72-1.5-.33-.34-.69-.83-1.08-1.45-.13-.89-.43-1.74-.88-2.53-.46-.79-.92-1.57-1.37-2.32.06-.48,0-.89-.2-1.24-.2-.34-.36-.72-.49-1.14.13-.55.18-1.15.15-1.81-.03-.65-.02-1.32.05-2.01.06-.34-.13-.76-.59-1.24,0-.27.08-.46.25-.57.16-.1.28-.26.34-.46.33-.21.49-.55.49-1.03-.13-.14-.25-.33-.34-.57-.1-.24-.21-.43-.34-.57.13-.27.26-.58.39-.93.13-.34.2-.65.2-.93v-1.86c.26-.41.52-.72.78-.93,0-.55-.18-.86-.54-.93-.36-.07-.64-.24-.83-.52.46-1.58.77-2.56.93-2.94.16-.38.54-1.01,1.13-1.91.06-.76.1-1.51.1-2.27s.26-1.55.78-2.38c.13-.07.29-.21.49-.41.2-.21.39-.41.59-.62.13-.34.25-.67.34-.98.1-.31.18-.6.25-.88.39-.34.78-.67,1.18-.98.39-.31.82-.64,1.28-.98.13-.14.28-.24.44-.31.16-.07.38-.14.64-.21.33-.07.62-.21.88-.41.26-.21.52-.41.78-.62.13.07.29.1.49.1s.39.04.59.1c.52-.14.98-.38,1.37-.72.39-.34.82-.72,1.28-1.14.79-.21,1.58-.4,2.4-.57.82-.17,1.58-.43,2.3-.77.46,0,.9.1,1.32.31.42.21.87.17,1.32-.1.13-.14.29-.14.49,0,.65,0,1.32.04,2.01.1.69.07,1.36.14,2.01.21.98.14,1.77-.1,2.35-.72.06-.07.13-.14.2-.21.06-.07.13-.14.2-.21.13.07.28.14.44.21.16.07.28.14.34.21,1.63,1.51,3.5,2.37,5.59,2.58.33,0,.65.07.98.21.33.14.62.28.88.41l2.06,2.17c.65.55.88,1.24.69,2.06,0,.14.02.28.05.41.03.14.05.28.05.41Z"/>
  <path class="st0" d="M270.22,37.74c.13,1.1-.03,1.89-.49,2.37-.33.41-.54.86-.64,1.34-.1.48-.18,1-.25,1.55-.13.21-.25.41-.34.62-.1.21-.21.41-.34.62-.26.28-.51.58-.74.93-.23.35-.44.69-.64,1.03-.13.28-.23.58-.29.93-.07.35-.16.69-.29,1.03-.07.07-.11.16-.15.26-.03.1-.08.19-.15.26-.07.07-.15.1-.25.1s-.18.04-.25.1h-.49c-1.44-.62-2.84-.65-4.22-.1-.26.07-.49.1-.69.1h-.69c-.2.07-.38.1-.54.1s-.31.04-.44.1c-.79.35-1.47.79-2.06,1.34-.59.55-1.15,1.14-1.67,1.76-.26.83-.54,1.67-.83,2.53-.29.86-.44,1.81-.44,2.84,0,.07-.03.19-.1.36-.07.17-.13.33-.2.46-.07.28-.15.5-.25.67-.1.17-.21.4-.34.67-.13.41-.29.83-.49,1.24s-.36.83-.49,1.24c.13.48.11.93-.05,1.34-.16.41-.25.83-.25,1.24.13.62.15,1.19.05,1.7-.1.52-.21,1.05-.34,1.6-.2.62-.28,1.26-.25,1.91.03.66.05,1.29.05,1.91-.07.76-.08,1.55-.05,2.38.03.83.05,1.62.05,2.38,0,.48-.03,1-.1,1.55-.07.55-.1,1.1-.1,1.65-.2.41-.36.69-.49.83-.46.76-1.01,1.29-1.67,1.6-.65.31-1.37.43-2.16.36-.52-.07-1.06-.14-1.62-.21-.56-.07-1.1-.14-1.62-.21-.26-.07-.59-.15-.98-.26s-.75-.22-1.08-.36c-.26.07-.48.12-.64.16-.16.03-.34.08-.54.15-.85-.28-1.64-.79-2.35-1.55.06-.48.1-.96.1-1.45s.03-.96.1-1.45c-.07-.21-.12-.46-.15-.77-.03-.31-.11-.6-.25-.88-.07-.41-.16-.83-.29-1.24-.13-.41-.16-.86-.1-1.34-.07-1.03-.26-2.24-.59-3.61.13-.14.25-.33.34-.57.1-.24.18-.46.25-.67.06-.21.11-.4.15-.57.03-.17.05-.36.05-.57,0-.14.03-.26.1-.36.06-.1.03-.22-.1-.36-.07-.21-.11-.43-.15-.67-.03-.24-.08-.46-.15-.67-.07-.69-.07-1.38,0-2.07.06-.27.11-.53.15-.77.03-.24.08-.5.15-.77.13-.34.18-.72.15-1.14-.03-.41-.21-.76-.54-1.03-.07-.07-.12-.16-.15-.26-.03-.1-.12-.19-.25-.26-.07-.34-.12-.72-.15-1.14-.03-.41-.12-.79-.25-1.14-.07-.48-.15-.93-.25-1.34-.1-.41-.15-.86-.15-1.34.13-.83.16-1.63.1-2.43-.07-.79,0-1.6.2-2.43,0-.14-.02-.31-.05-.52-.03-.21-.05-.38-.05-.52-.07-.76-.12-1.51-.15-2.27-.03-.76.08-1.51.34-2.27.13-.27.2-.58.2-.93v-1.03c0-.62.02-1.22.05-1.81.03-.58.18-1.15.44-1.7,0-.21-.1-.55-.29-1.03.13-.34.25-.71.34-1.08.1-.38.18-.74.25-1.08.13-.34.23-.67.29-.98.06-.31.13-.6.2-.88.39-.41.75-.58,1.08-.52.65.21,1.32.22,2.01.05.69-.17,1.36-.22,2.01-.15.2,0,.39-.05.59-.16s.39-.19.59-.26c1.11-.34,2.03-.31,2.75.1.46.83.72,1.45.79,1.86.06.41.13,1.41.2,2.99.2.76.55,1.48,1.08,2.17.13.14.34.22.64.26.29.04.51-.02.64-.16.26-.21.49-.4.69-.57.2-.17.39-.39.59-.67.39-.34.77-.71,1.13-1.08.36-.38.67-.71.93-.98.72-.34,1.42-.69,2.11-1.03.69-.34,1.45-.69,2.31-1.03h2.26l.2-.1c.06,0,.11-.02.15-.05.03-.03.08-.02.15.05l.29-.1c.79.41,1.47.52,2.06.31,1.04-.34,2.06-.21,3.04.41.59.28,1.14.55,1.67.83.52.28,1.08.59,1.67.93.2.28.42.55.69.83.26.28.49.55.69.83Z"/>
  <path class="st0" d="M320.84,44.86c-.07.69-.12,1.39-.15,2.12-.03.72-.12,1.43-.25,2.12-.07.69-.1,1.43-.1,2.22s-.13,1.6-.39,2.43c-.13.21-.29.43-.49.67-.2.24-.39.53-.59.88,0,.28.01.52.05.72.03.21.08.45.15.72-.13.35-.33.64-.59.88-.26.24-.52.43-.79.57-.65.21-1.26.41-1.81.62-.56.21-1.13.38-1.72.52-.92.14-1.86.16-2.84.05-.98-.1-1.96-.12-2.94-.05-.85,0-1.75.02-2.7.05-.95.04-1.91.05-2.89.05h-5.49c-.26.21-.54.28-.83.21-.29-.07-.57-.03-.83.1-.26-.14-.56-.15-.88-.05-.33.1-.65.09-.98-.05-.26.07-.51.12-.74.16-.23.04-.51.09-.83.16-.26-.07-.49-.16-.69-.26-.2-.1-.43-.05-.69.16.13.21.28.43.44.67.16.24.28.53.34.88.2.28.36.55.49.83.13.28.26.58.39.93.13.28.23.57.29.88.06.31.13.6.2.88.33.34.69.69,1.08,1.03.39.35.78.69,1.18,1.03.33.07.67.14,1.03.21.36.07.7.14,1.03.21.39.07.79.14,1.18.21.39.07.82.07,1.27,0,.46-.14.88-.12,1.28.05s.82.29,1.28.36c.59-.07,1.19-.14,1.81-.21.62-.07,1.23-.14,1.81-.21.26-.21.54-.4.83-.57.29-.17.57-.36.83-.57.85-.21,1.7-.17,2.55.1.2.35.44.69.74,1.03.29.34.57.72.83,1.14.39.62.79,1.22,1.18,1.81.39.59.65,1.26.78,2.01.13.34.33.69.59,1.03.26.35.46.66.59.93.06.34.05.65-.05.93-.1.28-.18.59-.25.93-.26.28-.59.52-.98.72-.07,0-.13.07-.2.21-.07.14-.16.24-.29.31-.39.28-.79.55-1.18.83-.39.28-.75.55-1.08.83-.92.83-1.86,1.24-2.84,1.24-.39,0-.69.04-.88.1-.33.07-.66.21-.98.41-.33.21-.69.38-1.08.52-.33,0-.65.05-.98.16-.33.1-.65.19-.98.26-.2,0-.43-.02-.69-.05-.26-.04-.52-.05-.78-.05-.59.07-1.18.03-1.77-.1-.59-.14-1.18-.21-1.77-.21-.2-.07-.39-.14-.59-.21-.2-.07-.39-.1-.59-.1-1.11.07-2.16-.12-3.14-.57-.98-.45-1.96-.91-2.94-1.39-.79-.21-1.34-.58-1.67-1.14-.46-.55-.96-1.01-1.52-1.39-.56-.38-1.16-.71-1.82-.98-.39-.14-.78-.33-1.18-.57-.39-.24-.82-.5-1.28-.77-.07-.27-.16-.55-.29-.83-.13-.27-.26-.55-.39-.83-.13-.21-.31-.41-.54-.62-.23-.21-.44-.41-.64-.62-.2-.21-.36-.45-.49-.72-.33-1.17-.66-2.32-.98-3.46-.33-1.14-.75-2.25-1.28-3.36.06-.48.11-.98.15-1.5.03-.52-.02-1.08-.15-1.7-.07-.14-.1-.31-.1-.52v-.52c0-.34.02-.64.05-.88.03-.24.02-.46-.05-.67-.07-.55-.13-1.1-.2-1.65-.07-.55-.03-1.07.1-1.55.13-.55.26-1.1.39-1.65.13-.55.29-1.14.49-1.75-.07-.14-.1-.34-.1-.62s-.03-.55-.1-.83c.13-.76.26-1.51.39-2.27.13-.76.29-1.48.49-2.17.2-.41.41-.81.64-1.19.23-.38.47-.77.74-1.19.46-.83.82-1.62,1.08-2.38.78-.41,1.26-.67,1.42-.77.16-.1.31-.26.44-.46.13-.21.55-.62,1.28-1.24-.07-.21.1-.52.49-.93s.52-.76.39-1.03c.59-1.17,1.44-2.1,2.55-2.79.39-.27.77-.57,1.13-.88.36-.31.67-.6.93-.88.33-.21.64-.29.93-.26.29.04.57.05.83.05.2-.07.41-.12.64-.15.23-.03.47-.09.74-.16.13-.07.29-.14.49-.21.2-.07.36-.17.49-.31.13-.07.26-.14.39-.21.13-.07.26-.1.39-.1.59-.07,1.14-.24,1.67-.52.52-.27,1.01-.55,1.47-.83.98.41,1.99.55,3.04.41.65-.07,1.29-.03,1.91.1.62.14,1.19.31,1.72.52l1.37-.41c.52.07,1.01.24,1.47.52.46.28.92.55,1.37.83h.88c.06.07.13.12.2.15.06.04.13.09.2.16.72.69,1.41,1.33,2.06,1.91.65.59,1.34,1.19,2.06,1.81.98.69,1.6,1.51,1.86,2.48.26.41.49.72.69.93.79.69,1.47,1.62,2.06,2.79,0,.14.01.33.05.57.03.24.05.46.05.67-.07.34,0,.69.2,1.03.2.35.33.72.39,1.14ZM308.38,48.27v-2.58c0-.34-.03-.55-.1-.62-.07-.21-.15-.41-.25-.62-.1-.21-.18-.34-.25-.41v-1.75l-.29-.31c-.26,0-.59-.07-.98-.21-.13-.62-.29-1.1-.49-1.45-.2-.27-.46-.45-.79-.52-.33-.07-.69-.17-1.08-.31-.85.28-1.77.52-2.75.72-.98.21-1.93.48-2.84.83-.46.07-.88.1-1.28.1s-.78.04-1.18.1c-.65.28-1.23.71-1.72,1.29-.49.59-.97,1.15-1.42,1.7-.26.34-.49.72-.69,1.14-.2.41-.43.79-.69,1.14-.07.07-.1.28-.1.62.2.55.49.9.88,1.03.39.07.79.17,1.18.31.39.14.82.28,1.28.41.2-.07.38-.1.54-.1s.34-.03.54-.1c.79-.34,1.44-.38,1.96-.1.52.07,1,.07,1.42,0,.42-.07.87-.14,1.32-.21.39.21.8.34,1.23.41.42.07.83.17,1.23.31.85.28,1.67.41,2.45.41s1.57-.1,2.35-.31c.33-.34.49-.65.49-.93Z"/>
  <path class="st0" d="M376.45,76.25c.2.48.26.93.2,1.34-.07.41-.2.83-.39,1.24-.07.07-.2.16-.39.26-.2.1-.36.22-.49.36-.26.07-.49.1-.69.1s-.43.07-.69.21c-.98.21-1.57.76-1.77,1.65-.07.14-.2.31-.39.52-.46.07-.79.16-.98.26-.2.1-.59.33-1.18.67-.46,0-.92.07-1.37.21-.46.14-.88.41-1.28.83-.13,0-.23.02-.29.05-.07.03-.16.05-.29.05-.26.14-.56.08-.88-.16-.33-.24-.49-.53-.49-.88v-.62c-.26-.14-.57-.14-.93,0-.36.14-.64,0-.83-.41v-1.55c-.2-.14-.38-.26-.54-.36-.16-.1-.34-.19-.54-.26-.26-.55-.56-1.14-.88-1.76-.33-.62-.65-1.17-.98-1.65-.26-.21-.49-.27-.69-.21-.2.07-.36.17-.49.31-.13.14-.23.29-.29.46-.07.17-.16.33-.29.46-.13.14-.23.31-.29.52-.07.21-.16.38-.29.52-.85.41-1.7.77-2.55,1.08-.85.31-1.67.57-2.45.77-.46.35-.92.66-1.37.93-.46.27-.88.55-1.28.83-.39.07-.78.17-1.18.31-.39.14-.75.24-1.08.31-.39-.21-.77-.26-1.13-.15-.36.1-.8.22-1.32.36-.59-.14-1.21-.29-1.86-.46-.65-.17-1.34-.33-2.06-.46-.2.07-.39.1-.59.1s-.36.03-.49.1c-.26-.14-.48-.28-.64-.41-.16-.14-.38-.24-.64-.31-.33-.14-.62-.14-.88,0-.26.14-.56.27-.88.41-.33-.14-.69-.22-1.08-.26-.39-.04-.79-.09-1.18-.16-.33-.34-.61-.65-.83-.93-.23-.27-.38-.62-.44-1.03-.13-.14-.26-.26-.39-.36-.13-.1-.23-.19-.29-.26-.26-.96-.56-1.79-.88-2.48-.92-2.07-1.54-4.34-1.86-6.81-.13-.14-.26-.29-.39-.46-.13-.17-.29-.36-.49-.57-.07-.62-.13-1.22-.2-1.81-.07-.58-.16-1.22-.29-1.91.13-.41.2-.79.2-1.14-.13-.69-.26-1.31-.39-1.86.26-.83.54-1.65.83-2.48s.38-1.69.25-2.58c.13-.27.29-.53.49-.77.2-.24.36-.46.49-.67.59-.69,1.01-1.48,1.28-2.38.2-.76.54-1.41,1.03-1.96.49-.55,1.03-1,1.62-1.34.72-.34,1.42-.71,2.11-1.08.69-.38,1.36-.7,2.01-.98.13,0,.31.02.54.05.23.04.41.02.54-.05,1.18-.21,2.19-.27,3.04-.21.39.07.79.07,1.18,0,.39-.07.75-.1,1.08-.1l2.06-.41c.39.07.79.17,1.18.31.39.14.79.1,1.18-.1.13,0,.25.02.34.05.1.04.18.05.25.05.33.14.62.29.88.46.26.17.55.26.88.26.72.14,1.18,0,1.37-.41-.07-1.17-.15-1.93-.25-2.27-.1-.34-.31-.89-.64-1.65-.2-.41-.33-.84-.39-1.29-.07-.45-.13-.88-.2-1.29-.07-.27-.12-.53-.15-.77-.03-.24-.18-.5-.44-.77-.85-.27-1.9-.48-3.14-.62h-.59c-.59.28-1.21.41-1.86.41s-1.34.07-2.06.21c-.46.07-.93.21-1.42.41-.49.21-1,.38-1.52.52-.52.28-1.05.14-1.57-.41-.2-.62-.28-1.25-.25-1.91.03-.65.08-1.32.15-2.01-.13-.48-.29-1.05-.49-1.7-.2-.65-.29-1.43-.29-2.32l.1-.72c-.07-.14-.18-.27-.34-.41-.16-.14-.31-.24-.44-.31-.2-.21-.23-.41-.1-.62,0-.21.1-.31.29-.31.52-.14,1.01-.24,1.47-.31.46-.07.92-.14,1.37-.21l1.18-1.24c.13-.07.29-.1.49-.1,1.5.28,2.6.38,3.29.31.69-.07,1.75-.34,3.19-.83.72.07,1.42.17,2.11.31.69.14,1.39.17,2.11.1.2.21.41.4.64.57.23.17.47.36.74.57.33-.14.65-.26.98-.36s.62-.19.88-.26c.39.28.82.55,1.28.83.33.07.6,0,.83-.21.23-.21.47-.31.74-.31.59.07,1.06.36,1.42.88.36.52.77.95,1.23,1.29.39.28.77.62,1.13,1.03.36.41.74.79,1.13,1.14.13.21.26.41.39.62.13.21.23.41.29.62.33.28.62.5.88.67.26.17.49.4.69.67.33.28.67.48,1.03.62.36.14.64.38.83.72.13.35.26.71.39,1.08.13.38.36.71.69.98.2.69.39,1.39.59,2.12.2.72.23,1.46.1,2.22,0,.34-.03.65-.1.93.13.35.23.72.29,1.14.06.41.16.79.29,1.14v.52c0,.21-.02.43-.05.67-.03.24-.02.43.05.57.13.41.29.72.49.93,0,.41-.16.79-.49,1.14-.13.07-.29.14-.49.21-.2.07-.36.17-.49.31-.79.48-.88,1.1-.29,1.86.06.07.18.19.34.36.16.17.28.36.34.57.06.28.1.57.1.88s.03.64.1.98c-.26,1.31-.75,2.55-1.47,3.72.2.96.51,1.89.93,2.79.42.9.8,1.82,1.13,2.79.33.21.59.41.79.62.2.21.42.38.69.52.06.21.11.34.15.41.03.07.05.17.05.31,0,.69.08,1.38.25,2.06.16.69.38,1.34.64,1.96.26.62.52,1.21.78,1.76.26.55.59,1.1.98,1.65.33.28.59.66.78,1.14.2.48.36.9.49,1.24ZM334.18,79.24c-.07,0-.1.07-.1.21.13-.14.16-.21.1-.21ZM354.97,62.31c-.39-1.03-.88-1.72-1.47-2.06-.72-.34-1.18-.79-1.37-1.34-.07-.27-.2-.45-.39-.52-.2-.07-.39-.14-.59-.21-.26,0-.57.02-.93.05-.36.04-.7.09-1.03.16-.39,0-.77-.07-1.13-.21-.36-.14-.7-.24-1.03-.31-.59,0-1.14.17-1.67.52-.26.21-.49.4-.69.57-.2.17-.39.4-.59.67l-1.28,2.48c.13.41.29.77.49,1.08.2.31.2.74,0,1.29.13.62.28,1.26.44,1.91.16.65.41,1.29.74,1.91.13.14.23.21.29.21.72.14,1.44.21,2.16.21s1.41-.03,2.06-.1c.26,0,.46-.03.59-.1.72-.41,1.6-.79,2.65-1.14.39-.07.75-.38,1.08-.93.26-.62.52-1.29.78-2.01.26-.72.55-1.43.88-2.12Z"/>
  <path class="st0" d="M416.96,73.87c-.33.69-.62,1.38-.88,2.07-.26.69-.56,1.38-.88,2.06l-2.06,2.07c-1.24,1.45-2.71,2.31-4.41,2.58-.85.14-1.72.19-2.6.16-.88-.04-1.78-.19-2.7-.46-.52-.14-1.06-.33-1.62-.57-.56-.24-1.1-.5-1.62-.77-.39-.21-.82-.36-1.28-.46-.46-.1-.95-.19-1.47-.26-.2-.14-.43-.29-.69-.46-.26-.17-.56-.36-.88-.57-.46-.83-1-1.58-1.62-2.27-.62-.69-1.1-1.55-1.42-2.58,0-.83-.03-1.39-.1-1.7-.07-.31-.26-.95-.59-1.91v-6.81c0-.55-.02-1.08-.05-1.6-.03-.52-.12-1.01-.25-1.5-.07-.48-.08-.89-.05-1.24.03-.34.08-.76.15-1.24.2-.83.2-1.69,0-2.58.2-.83.42-1.65.69-2.48,0-.41-.1-1-.29-1.75-.2-.76-.43-1.48-.69-2.17-.33,0-.65-.03-.98-.1-.33-.07-.69-.14-1.08-.21-.39.14-.8.28-1.23.41-.43.14-.9.28-1.42.41-.2.14-.49.21-.88.21-.07,0-.18-.08-.34-.26-.16-.17-.25-.29-.25-.36-.07-.21-.1-.41-.1-.62v-.62c-.07-.55-.1-1.14-.1-1.75v-1.76c0-.55-.03-1.08-.1-1.6-.07-.52-.16-1.02-.29-1.5.06-.34.13-.67.2-.98.06-.31.13-.6.2-.88v-1.96c0-.55.08-1.03.25-1.45.16-.41.51-.79,1.03-1.14.39-.14.83-.21,1.32-.21h1.62c.52.07,1.06.05,1.62-.05.55-.1,1.06-.4,1.52-.88.13-.14.31-.21.54-.21h.54c1.31.07,2.45-.48,3.43-1.65.06-.41.26-1,.59-1.75-.2-.48-.36-1.02-.49-1.6-.13-.58-.29-1.15-.49-1.7.13-.21.26-.41.39-.62.13-.21.23-.45.29-.72.13-.34.13-.67,0-.98-.13-.31-.16-.57-.1-.77-.13-.34-.2-.58-.2-.72s-.07-.38-.2-.72c.06-.14.13-.29.2-.46.06-.17.13-.33.2-.46.06-.27.13-.5.2-.67.06-.17.13-.39.2-.67h1.08c.33.07.67.12,1.03.16.36.04.7.02,1.03-.05.13,0,.29.02.49.05.2.04.39.05.59.05,1.11.14,2.21.31,3.29.52,1.08.21,2.14.31,3.19.31.13,0,.28.04.44.1.16.07.28.14.34.21.26.14.49.31.69.52-.07.28-.16.53-.29.77-.13.24-.23.46-.29.67-.07.28-.12.59-.15.93-.03.35-.08.69-.15,1.03-.07.48-.13.96-.2,1.45-.07.48-.16,1.03-.29,1.65.06.07.1.24.1.52s.03.52.1.72c-.07.48-.15.93-.25,1.34-.1.41-.18.9-.25,1.45.85.69,1.78,1.27,2.79,1.75,1.01.48,2.24.93,3.68,1.34.72.48,1.14,1.27,1.28,2.37,0,1.58-.1,3.17-.29,4.75-.07.62-.13,1.24-.2,1.86-.07.62-.07,1.24,0,1.86-.85.55-1.86.83-3.04.83-.2,0-.39.04-.59.1-.2.07-.36.1-.49.1-1.05.07-1.85.17-2.4.31-.56.14-1.42.48-2.6,1.03-.2.28-.29.66-.29,1.14-.07.41-.12.83-.15,1.24-.03.41-.02.86.05,1.34,0,.07-.07.14-.2.21-.39.83-.69,1.45-.88,1.86-.2.41-.31.83-.34,1.24-.03.41-.05,1.1-.05,2.06v4.96c0,.35.03.55.1.62.06.62.36,1.14.88,1.55.26.07.51.14.74.21.23.07.41.24.54.52.59.83,1.26,1.26,2.01,1.29.75.04,1.55-.08,2.4-.36.26-.14.52-.27.78-.41.26-.14.52-.24.79-.31.52.14.85.45.98.93.13.48.36.9.69,1.24.33.34.6.72.83,1.14.23.41.47.83.74,1.24.13.41.29.88.49,1.39.2.52.36,1.08.49,1.7Z"/>
  <path class="st0" d="M442.37,26.17c.2.48.26.98.2,1.5-.07.52-.16,1.02-.29,1.5-.07.41-.2.81-.39,1.19-.2.38-.36.74-.49,1.08-.26.41-.54.79-.83,1.14-.29.35-.57.69-.83,1.03-.2.07-.36.19-.49.36-.13.17-.29.33-.49.46-.46.35-1.18.67-2.16.98-.98.31-1.77.46-2.35.46-.33,0-.59-.07-.79-.21-.39,0-.78-.02-1.18-.05-.39-.03-.75-.05-1.08-.05-.2-.14-.41-.27-.64-.41-.23-.14-.41-.27-.54-.41-.33-.14-.67-.21-1.03-.21h-1.03c-.26-.21-.57-.4-.93-.57s-.7-.33-1.03-.46l-.59-1.86c.06-.55.13-1.15.2-1.81.06-.65,0-1.32-.2-2.01-.2-.14-.2-.31,0-.52.2-.48.2-.96,0-1.45-.2-.48-.2-.96,0-1.45.06-.14.1-.34.1-.62-.2-.41-.2-.81,0-1.19.2-.38.36-.71.49-.98-.07-.21-.1-.43-.1-.67v-.57c.06-.07.11-.16.15-.26.03-.1.11-.19.25-.26.52-.14.96-.39,1.32-.77.36-.38.77-.67,1.23-.88.46-.41.96-.76,1.52-1.03.56-.27,1.09-.55,1.62-.83h1.37c.39,0,.79.07,1.18.21.2.07.42.1.69.1h.79c.92-.14,1.63.24,2.16,1.14.13.34.36.55.69.62.33.07.62.17.88.31.65.62,1.08,1.41,1.28,2.38.13.41.28.83.44,1.24.16.41.28.83.34,1.24.13.41.25.84.34,1.29.1.45.18.88.25,1.29ZM441.78,49.92c-.13.41-.2.88-.2,1.39v1.6c.06.48.06.98,0,1.5-.07.52-.1,1.02-.1,1.5l-.69,1.03c.33.35.52.72.59,1.14.06.41.1.86.1,1.34v1.5c0,.52-.03,1.05-.1,1.6-.07.48-.2,1-.39,1.55-.2.55-.36,1.14-.49,1.75,0,.69-.02,1.5-.05,2.43-.03.93-.02,1.84.05,2.74.06,1.31,0,2.63-.2,3.97-.2,1.34-.59,2.6-1.18,3.77,0,.55.06,1.08.2,1.6.13.52.26,1.05.39,1.6,0,.07-.03.16-.1.26-.07.1-.1.22-.1.36-.33.48-.72.89-1.18,1.24-.07,0-.13.03-.2.1h-.39c-.72,0-1.46.05-2.21.16-.75.1-1.59.05-2.5-.16-.26-.14-.54-.31-.83-.52-.29-.21-.61-.38-.93-.52-.26,0-.57-.02-.93-.05-.36-.04-.7-.09-1.03-.16-.52-.62-1.05-1.27-1.57-1.96-.2-.14-.43-.24-.69-.31-.26-.07-.52-.17-.79-.31-.46-.34-.62-.89-.49-1.65.13-.76.29-1.41.49-1.96.2-.89.16-1.75-.1-2.58l-.39-1.45c0-.55-.03-1.07-.1-1.55-.07-.48-.07-.96,0-1.45.06-.69.08-1.34.05-1.96-.03-.62-.05-1.27-.05-1.96.06-.96.1-1.91.1-2.84v-2.74c0-.34.03-.55.1-.62.33-.55.49-1.08.49-1.6v-1.6c-.07-.55-.05-1.12.05-1.7.1-.58.08-1.12-.05-1.6v-1.81c0-.58.03-1.19.1-1.81.06-.34.11-.71.15-1.08.03-.38-.02-.81-.15-1.29.59-.27,1.09-.48,1.52-.62.42-.14.83-.21,1.23-.21h.83c.29,0,.57-.03.83-.1.65-.14,1.21-.27,1.67-.41.33.07.6.19.83.36.23.17.47.33.74.46.46,0,.91-.1,1.37-.31.46-.07.87-.03,1.23.1.36.14.64.48.83,1.03.06.07.11.14.15.21.03.07.08.14.15.21l.69.41c.46.07.85-.02,1.18-.26.33-.24.65-.4.98-.46.39,0,.62.17.69.52.2.48.33,1.21.39,2.17Z"/>
  <path class="st0" d="M495.43,40.01c-.13.48-.25,1.02-.34,1.6-.1.58-.21,1.15-.34,1.7-.07.41-.21.83-.44,1.24-.23.41-.41.83-.54,1.24-.26.69-.52,1.33-.79,1.91-.26.58-.56,1.22-.88,1.91-.2.55-.44,1.12-.74,1.7-.29.59-.64,1.15-1.03,1.7-.39.62-.69,1.24-.88,1.86-.2.62-.43,1.27-.69,1.96-.2.21-.38.4-.54.57-.16.17-.38.33-.64.46-.26.62-.56,1.22-.88,1.81-.33.59-.65,1.22-.98,1.91-.26.41-.48.83-.64,1.24-.16.41-.41.83-.74,1.24-.13.21-.26.41-.39.62-.13.21-.23.45-.29.72-.39,1.1-.98,2-1.77,2.68-.33.9-.65,1.76-.98,2.58-.33.83-.75,1.58-1.28,2.27v1.55c-.26.34-.56.71-.88,1.08-.33.38-.59.74-.79,1.08-.26.34-.54.64-.83.88-.29.24-.57.53-.83.88-.07.28-.12.57-.15.88-.03.31-.18.57-.44.77-.59.48-1.14.69-1.67.62-.52-.07-1.08-.1-1.67-.1s-1.14-.07-1.67-.21c-.39-.14-.79-.19-1.18-.15-.39.04-.78.05-1.18.05-.39-.14-.8-.21-1.23-.21s-.9-.03-1.42-.1c-.26,0-.59-.14-.98-.41-.07-.34-.16-.69-.29-1.03-.13-.34-.23-.65-.29-.93-.33-.34-.65-.53-.98-.57-.33-.03-.62-.16-.88-.36l-.49-.41c-.26-.96-.51-1.88-.74-2.74-.23-.86-.48-1.74-.74-2.63-.2-.76-.44-1.51-.74-2.27-.29-.76-.54-1.51-.74-2.27-.07-.76-.21-1.51-.44-2.27-.23-.76-.48-1.51-.74-2.27-.26-.89-.59-1.76-.98-2.58-.39-.83-.72-1.69-.98-2.58,0-.14-.03-.27-.1-.41-.07-.14-.13-.27-.2-.41-.2-1.1-.47-2.17-.83-3.2-.36-1.03-.7-2.07-1.03-3.1-.26-.89-.51-1.84-.74-2.84-.23-1-.41-1.94-.54-2.84-.07-.14-.13-.29-.2-.46-.07-.17-.13-.29-.2-.36-.92-1.38-.85-2.68.2-3.92.26-.34.52-.62.79-.83.26-.21.52-.38.78-.52.33-.14.65-.29.98-.46.33-.17.62-.33.88-.46,1.24-.83,2.44-1.36,3.58-1.6,1.14-.24,2.34-.53,3.58-.88.26.07.44.19.54.36.1.17.18.36.25.57.33.35.69.41,1.08.21l.69-.31.2.21c.13.48.28.98.44,1.5.16.52.28,1.02.34,1.5v.72c0,1.1.26,2.27.79,3.51.06.28.13.53.2.77.06.24.1.5.1.77.33,1.31.62,2.62.88,3.92.26,1.31.42,2.65.49,4.03.06.28.23.55.49.83.39.9.77,1.81,1.13,2.74.36.93.57,1.88.64,2.84.06.07.18.33.34.77.16.45.28.67.34.67.06.41.23.46.49.15.26-.31.65-.95,1.18-1.91.52-.69.9-1.34,1.13-1.96.23-.62.57-1.27,1.03-1.96.13-.14.21-.27.25-.41.03-.14.08-.27.15-.41.06-.27.11-.55.15-.83.03-.27.11-.48.25-.62.33-.41.56-.89.69-1.45.13-.55.36-1,.69-1.34.2-.14.26-.33.2-.57-.07-.24-.07-.43,0-.57.33-.96.78-1.82,1.37-2.58.59-.76.98-1.69,1.18-2.79.13-.14.26-.24.39-.31.13-.07.29-.14.49-.21.33-.55.47-1.08.44-1.6-.03-.52.02-1.08.15-1.7.13-.27.31-.58.54-.93.23-.34.44-.69.64-1.03.2-.34.38-.71.54-1.08.16-.38.38-.77.64-1.19.33-.27.62-.52.88-.72.26-.21.56-.41.88-.62.59.14,1.06.29,1.42.46.36.17.87.22,1.52.16.46.28.87.55,1.23.83.36.28.64.69.83,1.24,0,.07.03.14.1.21.06.07.1.17.1.31.46.21.85.34,1.18.41.13.28.28.52.44.72.16.21.31.45.44.72.33.35.72.57,1.18.67.46.1.82.43,1.08.98Z"/>
  <path class="st0" d="M546.54,44.86c-.07.69-.12,1.39-.15,2.12-.03.72-.12,1.43-.25,2.12-.07.69-.1,1.43-.1,2.22s-.13,1.6-.39,2.43c-.13.21-.29.43-.49.67-.2.24-.39.53-.59.88,0,.28.01.52.05.72.03.21.08.45.15.72-.13.35-.33.64-.59.88-.26.24-.52.43-.79.57-.65.21-1.26.41-1.81.62-.56.21-1.13.38-1.72.52-.92.14-1.86.16-2.84.05-.98-.1-1.96-.12-2.94-.05-.85,0-1.75.02-2.7.05-.95.04-1.91.05-2.89.05h-5.49c-.26.21-.54.28-.83.21-.29-.07-.57-.03-.83.1-.26-.14-.56-.15-.88-.05-.33.1-.65.09-.98-.05-.26.07-.51.12-.74.16-.23.04-.51.09-.83.16-.26-.07-.49-.16-.69-.26-.2-.1-.43-.05-.69.16.13.21.28.43.44.67.16.24.28.53.34.88.2.28.36.55.49.83.13.28.26.58.39.93.13.28.23.57.29.88.06.31.13.6.2.88.33.34.69.69,1.08,1.03.39.35.78.69,1.18,1.03.33.07.67.14,1.03.21.36.07.7.14,1.03.21.39.07.79.14,1.18.21.39.07.82.07,1.27,0,.46-.14.88-.12,1.28.05s.82.29,1.28.36c.59-.07,1.19-.14,1.81-.21.62-.07,1.23-.14,1.81-.21.26-.21.54-.4.83-.57.29-.17.57-.36.83-.57.85-.21,1.7-.17,2.55.1.2.35.44.69.74,1.03.29.34.57.72.83,1.14.39.62.79,1.22,1.18,1.81.39.59.65,1.26.78,2.01.13.34.33.69.59,1.03.26.35.46.66.59.93.06.34.05.65-.05.93-.1.28-.18.59-.25.93-.26.28-.59.52-.98.72-.07,0-.13.07-.2.21-.07.14-.16.24-.29.31-.39.28-.79.55-1.18.83-.39.28-.75.55-1.08.83-.92.83-1.86,1.24-2.84,1.24-.39,0-.69.04-.88.1-.33.07-.66.21-.98.41-.33.21-.69.38-1.08.52-.33,0-.65.05-.98.16-.33.1-.65.19-.98.26-.2,0-.43-.02-.69-.05-.26-.04-.52-.05-.78-.05-.59.07-1.18.03-1.77-.1-.59-.14-1.18-.21-1.77-.21-.2-.07-.39-.14-.59-.21-.2-.07-.39-.1-.59-.1-1.11.07-2.16-.12-3.14-.57-.98-.45-1.96-.91-2.94-1.39-.79-.21-1.34-.58-1.67-1.14-.46-.55-.96-1.01-1.52-1.39-.56-.38-1.16-.71-1.82-.98-.39-.14-.78-.33-1.18-.57-.39-.24-.82-.5-1.28-.77-.07-.27-.16-.55-.29-.83-.13-.27-.26-.55-.39-.83-.13-.21-.31-.41-.54-.62-.23-.21-.44-.41-.64-.62-.2-.21-.36-.45-.49-.72-.33-1.17-.66-2.32-.98-3.46-.33-1.14-.75-2.25-1.28-3.36.06-.48.11-.98.15-1.5.03-.52-.02-1.08-.15-1.7-.07-.14-.1-.31-.1-.52v-.52c0-.34.02-.64.05-.88.03-.24.02-.46-.05-.67-.07-.55-.13-1.1-.2-1.65-.07-.55-.03-1.07.1-1.55.13-.55.26-1.1.39-1.65.13-.55.29-1.14.49-1.75-.07-.14-.1-.34-.1-.62s-.03-.55-.1-.83c.13-.76.26-1.51.39-2.27.13-.76.29-1.48.49-2.17.2-.41.41-.81.64-1.19.23-.38.47-.77.74-1.19.46-.83.82-1.62,1.08-2.38.78-.41,1.26-.67,1.42-.77.16-.1.31-.26.44-.46.13-.21.55-.62,1.28-1.24-.07-.21.1-.52.49-.93s.52-.76.39-1.03c.59-1.17,1.44-2.1,2.55-2.79.39-.27.77-.57,1.13-.88.36-.31.67-.6.93-.88.33-.21.64-.29.93-.26.29.04.57.05.83.05.2-.07.41-.12.64-.15.23-.03.47-.09.74-.16.13-.07.29-.14.49-.21.2-.07.36-.17.49-.31.13-.07.26-.14.39-.21.13-.07.26-.1.39-.1.59-.07,1.14-.24,1.67-.52.52-.27,1.01-.55,1.47-.83.98.41,1.99.55,3.04.41.65-.07,1.29-.03,1.91.1.62.14,1.19.31,1.72.52l1.37-.41c.52.07,1.01.24,1.47.52.46.28.92.55,1.37.83h.88c.06.07.13.12.2.15.06.04.13.09.2.16.72.69,1.41,1.33,2.06,1.91.65.59,1.34,1.19,2.06,1.81.98.69,1.6,1.51,1.86,2.48.26.41.49.72.69.93.79.69,1.47,1.62,2.06,2.79,0,.14.01.33.05.57.03.24.05.46.05.67-.07.34,0,.69.2,1.03.2.35.33.72.39,1.14ZM534.08,48.27v-2.58c0-.34-.03-.55-.1-.62-.07-.21-.15-.41-.25-.62-.1-.21-.18-.34-.25-.41v-1.75l-.29-.31c-.26,0-.59-.07-.98-.21-.13-.62-.29-1.1-.49-1.45-.2-.27-.46-.45-.79-.52-.33-.07-.69-.17-1.08-.31-.85.28-1.77.52-2.75.72-.98.21-1.93.48-2.84.83-.46.07-.88.1-1.28.1s-.78.04-1.18.1c-.65.28-1.23.71-1.72,1.29-.49.59-.97,1.15-1.42,1.7-.26.34-.49.72-.69,1.14-.2.41-.43.79-.69,1.14-.07.07-.1.28-.1.62.2.55.49.9.88,1.03.39.07.79.17,1.18.31.39.14.82.28,1.28.41.2-.07.38-.1.54-.1s.34-.03.54-.1c.79-.34,1.44-.38,1.96-.1.52.07,1,.07,1.42,0,.42-.07.87-.14,1.32-.21.39.21.8.34,1.23.41.42.07.83.17,1.23.31.85.28,1.67.41,2.45.41s1.57-.1,2.35-.31c.33-.34.49-.65.49-.93Z"/>
  <path class="st0" d="M608.33,39.49c-.2.9-.59,1.65-1.18,2.27-.26.28-.48.57-.64.88-.16.31-.38.53-.64.67-.26.28-.46.52-.59.72-.13.21-.26.48-.39.83-.33.69-.88.76-1.67.21-.39-.27-.65-.55-.78-.83l-1.18-.1c-.13,0-.23-.03-.29-.1-.33-.14-.56-.36-.69-.67-.13-.31-.36-.57-.69-.77-.98-.48-1.96-.83-2.94-1.03-.98-.21-2-.14-3.04.21-.65.9-1.08,1.53-1.28,1.91-.2.38-.43,1.05-.69,2.01,0,.48.08.95.25,1.39.16.45.31.95.44,1.5.33.55.75.93,1.28,1.14.26,0,.52.02.78.05.26.04.52.09.79.16.26.21.49.4.69.57.2.17.39.33.59.46.46.28.9.64,1.32,1.08.42.45.87.77,1.32.98.52.28,1.01.52,1.47.72.46.21.92.45,1.37.72.39.07.74.24,1.03.52.29.28.57.58.83.93.2.41.44.83.74,1.24.29.41.57.86.83,1.34.2.76.38,1.53.54,2.32.16.79.25,1.64.25,2.53,0,.62.03,1.22.1,1.81.06.59.13,1.19.2,1.81.06.35.11.72.15,1.14.03.41.01.86-.05,1.34-.2.41-.39.86-.59,1.34-.2.48-.36,1-.49,1.55-.26,1.03-.62,2-1.08,2.89-.26.34-.56.69-.88,1.03-.33.35-.66.69-.98,1.03-.2.14-.36.31-.49.52-.13.21-.26.38-.39.52-.65.41-1.18.89-1.57,1.45-.39.55-.75,1.14-1.08,1.75-.46.07-.92.16-1.37.26-.46.1-.95.22-1.47.36-.39.07-.78.19-1.18.36-.39.17-.75.33-1.08.46h-2.35c-.72-.34-1.41-.48-2.06-.41-.65.07-1.34.21-2.06.41-.65.14-1.11.07-1.37-.21-.46-.35-.93-.6-1.42-.77-.49-.17-.97-.29-1.42-.36-.65-.69-1.34-1.34-2.06-1.96s-1.37-1.31-1.96-2.07c0-.21-.02-.43-.05-.67-.03-.24-.05-.46-.05-.67,0-.55.02-1.05.05-1.5.03-.45.05-.91.05-1.39.2-.96.54-1.89,1.03-2.79.49-.89.96-1.79,1.42-2.68.39.07.75.14,1.08.21.33.07.69.17,1.08.31.33.28.72.52,1.18.72.46.21.92.41,1.37.62.59.35,1.04.48,1.37.41.26,0,.49.04.69.1.2.07.42.14.69.21.79.35,1.54.24,2.26-.31.33-.21.64-.43.93-.67.29-.24.54-.57.74-.98v-1.39c0-.52.03-1.01.1-1.5,0-.21-.03-.41-.1-.62-.07-.21-.13-.43-.2-.67-.07-.24-.13-.46-.2-.67l-1.37-1.14c-.26-.34-.46-.71-.59-1.08-.13-.38-.36-.67-.69-.88l-2.35-.72c-.39-.21-.72-.45-.98-.72-.26-.27-.52-.52-.78-.72-.13-.14-.26-.24-.39-.31-.13-.07-.26-.14-.39-.21-.26-.07-.52-.14-.78-.21-.26-.07-.56-.17-.88-.31-.39-.34-.92-.65-1.57-.93-.39-.48-.66-.96-.79-1.45-.13-.48-.36-.93-.69-1.34-.26-.34-.52-.72-.79-1.14-.26-.41-.56-.83-.88-1.24-.2-.76-.38-1.53-.54-2.32-.16-.79-.34-1.56-.54-2.32-.33-1.03-.36-2.03-.1-2.99.13-.62.28-1.27.44-1.96.16-.69.38-1.38.64-2.06.39-.83.88-1.96,1.47-3.41.65-1.1,1.52-2.12,2.6-3.05,1.08-.93,2.14-1.88,3.19-2.84.26-.14.55-.26.88-.36.33-.1.62-.19.88-.26.78-.27,1.37-.5,1.77-.67s.83-.29,1.32-.36c.49-.07,1.23-.1,2.21-.1h.2c.92-.34,1.81-.45,2.7-.31.88.14,1.75.34,2.6.62.2,0,.41.02.64.05.23.04.38.05.44.05.59.34,1.09.76,1.52,1.24.42.48.9.93,1.42,1.34.33.21.69.4,1.08.57.39.17.75.36,1.08.57.65.55,1.23,1.17,1.72,1.86.49.69.96,1.34,1.42,1.96.13.48.23.96.29,1.45.06.48.16,1,.29,1.55Z"/>
  <path class="st0" d="M656,38.77c-.33.55-.62,1.12-.88,1.7-.26.58-.39,1.26-.39,2.01-.52.35-1,.79-1.42,1.34-.43.55-.8,1.14-1.13,1.75-.26.48-.51.95-.74,1.39-.23.45-.51.91-.83,1.39-.07.14-.18.14-.34,0-.16-.14-.28-.31-.34-.52,0-.27-.13-.41-.39-.41-.2,0-.36.1-.49.31-.13.07-.26.19-.39.36-.13.17-.26.33-.39.46-.07.07-.18.12-.34.16-.16.04-.31.09-.44.16-.26-.27-.56-.53-.88-.77-.33-.24-.65-.5-.98-.77-.39-.14-.78-.27-1.18-.41-.39-.14-.75-.24-1.08-.31-.26-.14-.36-.21-.29-.21-.2-.14-.36-.31-.49-.52-.13-.21-.36-.24-.69-.1-.2.21-.28.4-.25.57.03.17.02.4-.05.67-.46,0-.78.04-.98.1-.13.07-.26.14-.39.21-.13.07-.29.14-.49.21-.2-.07-.43-.12-.69-.16-.26-.03-.56-.08-.88-.15-.59.07-1.16.26-1.72.57-.56.31-1.1.6-1.62.88-.39.07-.69.35-.88.83-.26.69-.66,1.34-1.18,1.96-.52.62-.98,1.27-1.37,1.96-.07.14-.16.33-.29.57-.13.24-.26.46-.39.67-.07.21-.12.4-.15.57-.03.17-.05.36-.05.57.13.41.26.69.39.83-.13.21-.26.41-.39.62-.13.21-.26.41-.39.62.06.21.1.41.1.62s.03.38.1.52c.2.69.46,1.24.79,1.65.2.28.36.57.49.88.13.31.29.67.49,1.08.26.21.52.41.79.62.26.21.52.45.78.72.26.28.51.53.74.77.23.24.44.5.64.77.26-.07.51-.1.74-.1s.51-.03.83-.1c.13.07.28.12.44.15.16.04.31.09.44.16.46.07.9.14,1.32.21.42.07.83,0,1.23-.21.52-.14,1.08-.29,1.67-.46.59-.17,1.11-.29,1.57-.36.46.07.9.17,1.32.31.42.14.87.28,1.32.41.46-.34.93-.64,1.42-.88.49-.24,1.03-.39,1.62-.46.59.21,1.01.58,1.28,1.14.26.34.47.72.64,1.14.16.41.34.83.54,1.24.13.48.31.93.54,1.34.23.41.47.83.74,1.24.2.28.41.58.64.93.23.35.41.66.54.93.2,1.1.13,2.06-.2,2.89-.46.35-.92.72-1.37,1.14-.46.41-.92.83-1.37,1.24-.13.28-.26.53-.39.77-.13.24-.26.5-.39.77-.26.07-.52.16-.79.26-.26.1-.52.26-.78.46-.2.07-.41.12-.64.16-.23.04-.48.12-.74.26-.39.28-.88.59-1.47.93-.46-.27-.98-.45-1.57-.52-.46.34-.98.52-1.57.52s-1.15.07-1.67.21c-.59.07-1.13-.02-1.62-.26-.49-.24-1-.43-1.52-.57l-1.37.72-2.06-.72c-.26.07-.54.1-.83.1s-.61.04-.93.1c-.26-.14-.56-.27-.88-.41-.33-.14-.65-.24-.98-.31h-.64c-.23,0-.47.04-.74.1-.39-.27-.69-.52-.88-.72-.26-.21-.52-.43-.79-.67-.26-.24-.56-.4-.88-.46-1.11-.62-2.06-1.41-2.84-2.38-.46-.55-.93-1.08-1.42-1.6-.49-.52-1.06-1.02-1.72-1.5-.33-.34-.69-.83-1.08-1.45-.13-.89-.43-1.74-.88-2.53-.46-.79-.92-1.57-1.37-2.32.06-.48,0-.89-.2-1.24-.2-.34-.36-.72-.49-1.14.13-.55.18-1.15.15-1.81-.03-.65-.02-1.32.05-2.01.06-.34-.13-.76-.59-1.24,0-.27.08-.46.25-.57.16-.1.28-.26.34-.46.33-.21.49-.55.49-1.03-.13-.14-.25-.33-.34-.57-.1-.24-.21-.43-.34-.57.13-.27.26-.58.39-.93.13-.34.2-.65.2-.93v-1.86c.26-.41.52-.72.78-.93,0-.55-.18-.86-.54-.93-.36-.07-.64-.24-.83-.52.46-1.58.77-2.56.93-2.94.16-.38.54-1.01,1.13-1.91.06-.76.1-1.51.1-2.27s.26-1.55.78-2.38c.13-.07.29-.21.49-.41.2-.21.39-.41.59-.62.13-.34.25-.67.34-.98.1-.31.18-.6.25-.88.39-.34.78-.67,1.18-.98.39-.31.82-.64,1.28-.98.13-.14.28-.24.44-.31.16-.07.38-.14.64-.21.33-.07.62-.21.88-.41.26-.21.52-.41.78-.62.13.07.29.1.49.1s.39.04.59.1c.52-.14.98-.38,1.37-.72.39-.34.82-.72,1.28-1.14.79-.21,1.58-.4,2.4-.57.82-.17,1.58-.43,2.3-.77.46,0,.9.1,1.32.31.42.21.87.17,1.32-.1.13-.14.29-.14.49,0,.65,0,1.32.04,2.01.1.69.07,1.36.14,2.01.21.98.14,1.77-.1,2.35-.72.06-.07.13-.14.2-.21.06-.07.13-.14.2-.21.13.07.28.14.44.21.16.07.28.14.34.21,1.63,1.51,3.5,2.37,5.59,2.58.33,0,.65.07.98.21.33.14.62.28.88.41l2.06,2.17c.65.55.88,1.24.69,2.06,0,.14.02.28.05.41.03.14.05.28.05.41Z"/>
  <path class="st0" d="M704.95,64.37c-.26.9-.34,1.77-.25,2.63.1.86.08,1.74-.05,2.63-.07.48-.07.96,0,1.45.06.48.03,1-.1,1.55-.07.41-.08.84-.05,1.29.03.45.05.88.05,1.29-.07.28-.1.62-.1,1.03-.13.48-.21.95-.25,1.39-.03.45-.12.95-.25,1.5,0,.07-.02.16-.05.26-.03.1-.05.22-.05.36,0,.48-.26.72-.78.72-.07-.07-.23-.1-.49-.1-.46-.21-.85-.24-1.18-.1-.33.14-.65.28-.98.41-.2.21-.39.41-.59.62-.2.21-.39.45-.59.72-.72.41-1.39.53-2.01.36-.62-.17-1.26-.46-1.91-.88-.39,0-.69.03-.88.1h-.29c-.07-.07-.16-.1-.29-.1-.26-.21-.51-.41-.74-.62-.23-.21-.48-.41-.74-.62-.52-.55-.72-1.1-.59-1.65.06-.27.15-.53.25-.77.1-.24.11-.5.05-.77-.07-.34-.15-.69-.25-1.03-.1-.34-.15-.69-.15-1.03s.05-.69.15-1.03c.1-.34.18-.69.25-1.03-.13-.55-.33-1.1-.59-1.65-.26-.55-.46-1.14-.59-1.75-.07-.55-.15-1.12-.25-1.7-.1-.58-.15-1.15-.15-1.7-.07-.62-.12-1.22-.15-1.81-.03-.58-.05-1.22-.05-1.91-.13-.83-.46-1.48-.98-1.96-.46-.55-.85-1.07-1.18-1.55-.33-.48-.62-1.03-.88-1.65-.33-.27-.75-.52-1.27-.72-.07-.14-.13-.27-.2-.41-.07-.14-.16-.24-.29-.31-.07-.07-.1-.15-.1-.26s-.03-.19-.1-.26l-.59-.62c-.26-.14-.52-.14-.79,0-.26.14-.49.21-.69.21-.26.07-.49.1-.69.1s-.46.04-.79.1c-.26.14-.47.29-.64.46-.16.17-.41.33-.74.46-.2.21-.43.36-.69.46-.26.1-.52.22-.78.36-.26.62-.29,1.21-.1,1.75.13.69.21,1.41.25,2.17.03.76.11,1.52.25,2.27.06.69,0,1.48-.2,2.37,0,.21-.03.43-.1.67-.07.24-.1.5-.1.77.06,1.1,0,2.19-.2,3.25-.2,1.07-.46,2.15-.79,3.25.06.69.13,1.36.2,2.01.06.66.13,1.33.2,2.01v2.17c0,.9-.46,1.41-1.37,1.55h-2.06c-.65.07-1.29.14-1.91.21-.62.07-1.19.27-1.72.62-.26.07-.51.17-.74.31-.23.14-.51.27-.83.41l-.69.72c-.13,0-.28.02-.44.05-.16.03-.31.02-.44-.05-.65-.34-1.28-.62-1.86-.83-.65-.9-1.05-1.86-1.18-2.89-.13-1.03-.36-2-.69-2.89.06-.41.15-.81.25-1.19.1-.38.08-.74-.05-1.08-.07-.21-.1-.58-.1-1.14,0-.21.02-.4.05-.57.03-.17.01-.33-.05-.46-.2-1.31-.13-2.44.2-3.41.13-.62.1-1.27-.1-1.96-.26-1.24-.36-2.51-.29-3.82.2-1.1.16-2.2-.1-3.3-.2-.21-.2-.48,0-.83,0-.34.02-.71.05-1.08.03-.38.08-.71.15-.98.06-.27.2-.5.39-.67.2-.17.36-.33.49-.46l.29-1.86c.13-.21.03-.55-.29-1.03-.07-.14-.16-.16-.29-.05-.13.1-.26.19-.39.26l-.1-.1c0-.76.02-1.46.05-2.12.03-.65.01-1.32-.05-2.01-.07-.27-.07-.52,0-.72.06-.21.1-.45.1-.72,0-.21-.03-.45-.1-.72-.07-.27-.1-.55-.1-.83v-.52c0-.21.03-.41.1-.62.06-.34.13-.69.2-1.03.06-.34.16-.72.29-1.14-.26-.55-.38-1.14-.34-1.75.03-.62-.02-1.27-.15-1.96-.07-.21-.05-.45.05-.72.1-.27.18-.58.25-.93-.26-.62-.36-1.32-.29-2.12.06-.79.06-1.57,0-2.32.13-.41.16-.81.1-1.19-.07-.38-.1-.77-.1-1.19.06-.69.06-1.34,0-1.96-.07-.62-.03-1.24.1-1.86.06-.21.08-.38.05-.52-.03-.14-.05-.27-.05-.41-.13-1.31-.1-2.51.1-3.61.06-.21.1-.48.1-.83v-.93c-.07-.27-.12-.52-.15-.72-.03-.21-.02-.45.05-.72.2-.41.28-.84.25-1.29-.03-.45.08-.88.34-1.29.06-.14.1-.24.1-.31l.2-.1c0-.07.1-.1.29-.1.33-.14.64-.26.93-.36.29-.1.6-.19.93-.26.2.14.39.28.59.41.2.14.42.28.69.41h1.57c.13-.14.26-.24.39-.31.13-.07.23-.14.29-.21l.98-.72c.26-.14.54-.22.83-.26.29-.03.54.05.74.26.59.41,1.16.76,1.72,1.03.55.28,1.13.45,1.72.52.33.55.57,1.07.74,1.55.16.48.34,1,.54,1.55.2.69.49,1.48.88,2.38,0,.34-.12.62-.34.83-.23.21-.38.52-.44.93,0,.14.02.34.05.62.03.28.08.59.15.93,0,.28-.03.55-.1.83-.07.28-.07.58,0,.93.13,1.1.16,2.2.1,3.3-.07,1.1-.16,2.17-.29,3.2v1.45c0,.69.16,1.38.49,2.06.26.28.51.57.74.88.23.31.44.64.64.98.39.41.82.62,1.28.62.92,0,1.85.09,2.8.26.95.17,1.88.19,2.79.05.2-.07.36-.09.49-.05.13.04.29.05.49.05.2.14.44.24.74.31.29.07.57.14.83.21.72.14,1.01.59.88,1.34.13.07.23.14.29.21.13-.07.26-.1.39-.1s.23-.03.29-.1c.85-.34,1.6-.27,2.26.21.39.35.85.6,1.37.77.52.17,1.01.53,1.47,1.08.46.83,1.05,1.6,1.77,2.32.72.72,1.44,1.5,2.16,2.32.13.21.29.4.49.57.2.17.36.33.49.46.59.62.92,1.24.98,1.86.2.96.42,1.72.69,2.27.2.76.49,1.62.88,2.58v1.03c.06.28.13.57.2.88.06.31.1.64.1.98.06.83.13,1.65.2,2.48.06.83.13,1.65.2,2.48,0,.07.02.15.05.26.03.1.02.22-.05.36Z"/>
  <path class="st0" d="M756.55,53.12c.2.83.16,1.58-.1,2.27-.13.34-.23.69-.29,1.03-.07.34-.07.69,0,1.03.06.07.08.16.05.26-.03.1-.05.22-.05.36-.26.55-.38,1.14-.34,1.75.03.62.08,1.21.15,1.75l-.98,1.45v1.34c-.13.14-.29.29-.49.46-.2.17-.46.4-.78.67-.13.48-.31,1-.54,1.55-.23.55-.41,1.07-.54,1.55v1.03c-.26.28-.59.52-.98.72-.39.21-.72.52-.98.93-.26.21-.52.38-.79.52-.26.14-.56.31-.88.52-.13.07-.28.09-.44.05-.16-.03-.31-.02-.44.05-.98,0-1.47.48-1.47,1.45-.72.48-1.42,1-2.11,1.55-.69.55-1.39,1.1-2.11,1.65-1.11.9-2.55,1.51-4.32,1.86-.59.07-1.14.22-1.67.46-.52.24-1.08.43-1.67.57-.13,0-.29-.03-.49-.1-.2-.07-.36-.07-.49,0-.79.07-1.6,0-2.45-.21-.26-.07-.52-.07-.79,0-.26.07-.49.14-.69.21-.46-.07-.92-.14-1.37-.21-.46-.07-.95-.14-1.47-.21-.59-.27-1.13-.58-1.62-.93-.49-.34-1-.65-1.52-.93-.39-.14-.75-.38-1.08-.72-.33-.34-.59-.69-.78-1.03-.07-.14-.15-.26-.25-.36-.1-.1-.21-.22-.34-.36-.2-.14-.39-.26-.59-.36s-.39-.26-.59-.46c-1.05-.76-1.98-1.58-2.8-2.48-.82-.89-1.42-2-1.81-3.3-.33-.89-.72-1.69-1.18-2.38-.13-.27-.28-.53-.44-.77-.16-.24-.31-.5-.44-.77.06-.14.16-.41.29-.83-.13-.21-.26-.41-.39-.62-.13-.21-.2-.45-.2-.72,0-.21-.02-.43-.05-.67-.03-.24-.02-.5.05-.77.13-.48.16-.96.1-1.45-.07-.48-.07-.96,0-1.45.06-.41.05-.86-.05-1.34-.1-.48-.05-.93.15-1.34.13-.48.23-.93.29-1.34.06-.41.16-.83.29-1.24.13-.41.26-.81.39-1.19.13-.38.26-.74.39-1.08.13-.41.26-.83.39-1.24.13-.41.33-.86.59-1.34v-.52c0-.21.03-.34.1-.41.26-.55.46-1.07.59-1.55.13-.48.16-.96.1-1.45.26-.34.49-.62.69-.83.2-.21.36-.45.49-.72.13-.34.28-.67.44-.98s.34-.6.54-.88c.2-.55.49-1.03.88-1.45.26-.34.49-.64.69-.88.2-.24.36-.43.49-.57.2-.41.26-.77.2-1.08-.07-.31-.1-.57-.1-.77.13-.34.23-.55.29-.62.2-.07.38-.17.54-.31.16-.14.34-.24.54-.31.52-.34,1.08-.69,1.67-1.03.59-.34,1.18-.62,1.77-.83.59-.41,1.19-.71,1.82-.88.62-.17,1.26-.36,1.91-.57h1.57c.52,0,1.01.04,1.47.1h.88c.72.28,1.45.41,2.21.41s1.49-.03,2.21-.1c.33,0,.67-.02,1.03-.05.36-.03.7-.05,1.03-.05.33.28.6.5.83.67.23.17.47.4.74.67.2.07.39.17.59.31.2.14.42.24.69.31.92.07,1.75.38,2.5.93.75.55,1.46,1.1,2.11,1.65v.57c0,.24.03.46.1.67,0,.34.2.65.59.93.2.07.42.1.69.1s.52.07.79.21c.13.28.31.59.54.93.23.34.44.69.64,1.03.26.28.52.55.79.83.26.28.46.59.59.93.13.14.25.31.34.52.1.21.18.38.25.52.2.21.39.41.59.62.2.21.33.48.39.83.13.48.33.96.59,1.45.26.48.46,1,.59,1.55.06.21.18.41.34.62.16.21.34.45.54.72.13.62.25,1.27.34,1.96.1.69.28,1.34.54,1.96ZM742.81,56.84c.06-.48,0-.91-.2-1.29-.2-.38-.26-.77-.2-1.19,0-.14-.1-.31-.29-.52-.07-.14-.1-.41-.1-.83.06-.14.1-.33.1-.57v-.46c-.46-.76-.88-1.46-1.27-2.12-.39-.65-.82-1.29-1.28-1.91,0-.14-.07-.22-.2-.26-.13-.03-.26-.16-.39-.36-1.11,0-2.32-.31-3.63-.93-.79-.41-1.73-.45-2.84-.1-.07,0-.15.04-.25.1-.1.07-.21.17-.34.31h-.49c-1.05-.21-1.73.21-2.06,1.24-.13.28-.28.57-.44.88-.16.31-.28.64-.34.98-.07.28-.2.57-.39.88-.2.31-.36.6-.49.88-.26.34-.49.72-.69,1.14-.2.41-.43.79-.69,1.14-.07.69-.21,1.38-.44,2.06-.23.69-.38,1.34-.44,1.96.2.35.39.71.59,1.08.2.38.36.74.49,1.08.39.9.55,1.76.49,2.58,0,.14.03.28.1.41.06.14.13.28.2.41.59.14,1.16.28,1.72.41.55.14,1.09.31,1.62.52.46.14.92.24,1.37.31.46.07.92,0,1.37-.21h.29c.52.14,1.03.15,1.52.05.49-.1,1.03-.22,1.62-.36.46-.34.93-.72,1.42-1.14.49-.41,1-.76,1.52-1.03.46-.96,1.01-1.82,1.67-2.58.65-.76,1.11-1.62,1.37-2.58Z"/>
  <path class="st0" d="M808.34,53.12c.2.83.16,1.58-.1,2.27-.13.34-.23.69-.29,1.03-.07.34-.07.69,0,1.03.06.07.08.16.05.26-.03.1-.05.22-.05.36-.26.55-.38,1.14-.34,1.75.03.62.08,1.21.15,1.75l-.98,1.45v1.34c-.13.14-.29.29-.49.46-.2.17-.46.4-.78.67-.13.48-.31,1-.54,1.55-.23.55-.41,1.07-.54,1.55v1.03c-.26.28-.59.52-.98.72-.39.21-.72.52-.98.93-.26.21-.52.38-.79.52-.26.14-.56.31-.88.52-.13.07-.28.09-.44.05-.16-.03-.31-.02-.44.05-.98,0-1.47.48-1.47,1.45-.72.48-1.42,1-2.11,1.55-.69.55-1.39,1.1-2.11,1.65-1.11.9-2.55,1.51-4.32,1.86-.59.07-1.14.22-1.67.46-.52.24-1.08.43-1.67.57-.13,0-.29-.03-.49-.1-.2-.07-.36-.07-.49,0-.79.07-1.6,0-2.45-.21-.26-.07-.52-.07-.79,0-.26.07-.49.14-.69.21-.46-.07-.92-.14-1.37-.21-.46-.07-.95-.14-1.47-.21-.59-.27-1.13-.58-1.62-.93-.49-.34-1-.65-1.52-.93-.39-.14-.75-.38-1.08-.72-.33-.34-.59-.69-.78-1.03-.07-.14-.15-.26-.25-.36-.1-.1-.21-.22-.34-.36-.2-.14-.39-.26-.59-.36s-.39-.26-.59-.46c-1.05-.76-1.98-1.58-2.8-2.48-.82-.89-1.42-2-1.81-3.3-.33-.89-.72-1.69-1.18-2.38-.13-.27-.28-.53-.44-.77-.16-.24-.31-.5-.44-.77.06-.14.16-.41.29-.83-.13-.21-.26-.41-.39-.62-.13-.21-.2-.45-.2-.72,0-.21-.02-.43-.05-.67-.03-.24-.02-.5.05-.77.13-.48.16-.96.1-1.45-.07-.48-.07-.96,0-1.45.06-.41.05-.86-.05-1.34-.1-.48-.05-.93.15-1.34.13-.48.23-.93.29-1.34.06-.41.16-.83.29-1.24.13-.41.26-.81.39-1.19.13-.38.26-.74.39-1.08.13-.41.26-.83.39-1.24.13-.41.33-.86.59-1.34v-.52c0-.21.03-.34.1-.41.26-.55.46-1.07.59-1.55.13-.48.16-.96.1-1.45.26-.34.49-.62.69-.83.2-.21.36-.45.49-.72.13-.34.28-.67.44-.98s.34-.6.54-.88c.2-.55.49-1.03.88-1.45.26-.34.49-.64.69-.88.2-.24.36-.43.49-.57.2-.41.26-.77.2-1.08-.07-.31-.1-.57-.1-.77.13-.34.23-.55.29-.62.2-.07.38-.17.54-.31.16-.14.34-.24.54-.31.52-.34,1.08-.69,1.67-1.03.59-.34,1.18-.62,1.77-.83.59-.41,1.19-.71,1.82-.88.62-.17,1.26-.36,1.91-.57h1.57c.52,0,1.01.04,1.47.1h.88c.72.28,1.45.41,2.21.41s1.49-.03,2.21-.1c.33,0,.67-.02,1.03-.05.36-.03.7-.05,1.03-.05.33.28.6.5.83.67.23.17.47.4.74.67.2.07.39.17.59.31.2.14.42.24.69.31.92.07,1.75.38,2.5.93.75.55,1.46,1.1,2.11,1.65v.57c0,.24.03.46.1.67,0,.34.2.65.59.93.2.07.42.1.69.1s.52.07.79.21c.13.28.31.59.54.93.23.34.44.69.64,1.03.26.28.52.55.79.83.26.28.46.59.59.93.13.14.25.31.34.52.1.21.18.38.25.52.2.21.39.41.59.62.2.21.33.48.39.83.13.48.33.96.59,1.45.26.48.46,1,.59,1.55.06.21.18.41.34.62.16.21.34.45.54.72.13.62.25,1.27.34,1.96.1.69.28,1.34.54,1.96ZM794.61,56.84c.06-.48,0-.91-.2-1.29-.2-.38-.26-.77-.2-1.19,0-.14-.1-.31-.29-.52-.07-.14-.1-.41-.1-.83.06-.14.1-.33.1-.57v-.46c-.46-.76-.88-1.46-1.27-2.12-.39-.65-.82-1.29-1.28-1.91,0-.14-.07-.22-.2-.26-.13-.03-.26-.16-.39-.36-1.11,0-2.32-.31-3.63-.93-.79-.41-1.73-.45-2.84-.1-.07,0-.15.04-.25.1-.1.07-.21.17-.34.31h-.49c-1.05-.21-1.73.21-2.06,1.24-.13.28-.28.57-.44.88-.16.31-.28.64-.34.98-.07.28-.2.57-.39.88-.2.31-.36.6-.49.88-.26.34-.49.72-.69,1.14-.2.41-.43.79-.69,1.14-.07.69-.21,1.38-.44,2.06-.23.69-.38,1.34-.44,1.96.2.35.39.71.59,1.08.2.38.36.74.49,1.08.39.9.55,1.76.49,2.58,0,.14.03.28.1.41.06.14.13.28.2.41.59.14,1.16.28,1.72.41.55.14,1.09.31,1.62.52.46.14.92.24,1.37.31.46.07.92,0,1.37-.21h.29c.52.14,1.03.15,1.52.05.49-.1,1.03-.22,1.62-.36.46-.34.93-.72,1.42-1.14.49-.41,1-.76,1.52-1.03.46-.96,1.01-1.82,1.67-2.58.65-.76,1.11-1.62,1.37-2.58Z"/>
  <path class="st0" d="M842.96,72.95c0,.62-.26,1.14-.79,1.55-.52.55-.65,1.21-.39,1.96.13.48.2,1,.2,1.55v1.65c-.07.14-.15.29-.25.46-.1.17-.21.33-.34.46-.26.14-.43.21-.49.21-.52.07-1.05.12-1.57.16-.52.04-1.05.05-1.57.05h-.49c-.92-.27-1.81-.43-2.7-.46-.88-.03-1.75-.12-2.6-.26-.52-.14-1.01-.21-1.47-.21s-.92.07-1.37.21c-.66-.34-1.29-.7-1.91-1.08-.62-.38-1.29-.74-2.01-1.08-.46-.76-1.03-1.39-1.72-1.91s-1.29-1.15-1.81-1.91c-.13-.34-.28-.69-.44-1.03-.16-.34-.34-.65-.54-.93-.65-1.03-1.08-2.17-1.27-3.41,0-.48-.16-.89-.49-1.24-.52-1.03-.65-2-.39-2.89.06-.14.08-.29.05-.46-.03-.17-.02-.29.05-.36-.26-.34-.46-.62-.59-.83-.13-.21-.26-.41-.39-.62,0-.48.03-.83.1-1.03l-.78-1.03c.13-.76.25-1.53.34-2.32.1-.79.21-1.53.34-2.22l-.69-1.03c0-.27.1-.5.29-.67.2-.17.36-.4.49-.67.26-.76.42-1.48.49-2.17.2-.83.29-1.62.29-2.38-.13-1.51-.13-2.99,0-4.44.13-1.45.16-2.92.1-4.44.33-1.51.46-3.03.39-4.54-.07-1.51.03-2.99.29-4.44v-.52c-.2-.83-.2-1.62,0-2.37.2-.76.42-1.45.69-2.07-.07-.14-.1-.31-.1-.52s-.07-.38-.2-.52c.13-.48.33-.88.59-1.19.26-.31.49-.6.69-.88.13-.27.25-.57.34-.88.1-.31.18-.6.25-.88l.69-.72c.59-.14,1.21-.17,1.86-.1.2.07.41.17.64.31.23.14.47.28.74.41.46.28.9.5,1.32.67.42.17.9.22,1.42.16.72.28,1.42.45,2.11.52.69.07,1.36.07,2.01,0h.39c.06.07.13.1.2.1.33.07.62.24.88.52.26.28.33.58.2.93-.13,1.03-.21,2.07-.25,3.1-.03,1.03-.12,2.07-.25,3.1-.13.96-.26,1.95-.39,2.94-.13,1-.29,1.98-.49,2.94-.07,1.51-.18,3.01-.34,4.49-.16,1.48-.25,2.94-.25,4.39,0,.21.02.38.05.52.03.14.05.28.05.41-.33.69-.57,1.38-.74,2.07-.16.69-.34,1.41-.54,2.17-.13.55-.13,1.14,0,1.75.2.83.28,1.65.25,2.48-.03.83-.12,1.69-.25,2.58v.62c.13.28.28.58.44.93.16.35.31.69.44,1.03-.07.21-.13.43-.2.67-.07.24-.13.46-.2.67.13.34.21.72.25,1.14.03.41.08.79.15,1.14.26.35.52.67.79.98.26.31.42.67.49,1.08,0,.14.06.31.2.52.13.21.23.38.29.52.13.34.34.62.64.83.29.21.57.38.83.52.46.07.88.17,1.28.31.39.14.82.28,1.28.41.26,0,.47-.02.64-.05.16-.03.34-.05.54-.05.13.07.31.14.54.21.23.07.44.14.64.21.06.07.13.15.2.26.06.1.13.19.2.26.13.55.49,1.14,1.08,1.76.33.28.64.57.93.88.29.31.51.67.64,1.08Z"/>
  <path class="st0" d="M895.15,34.74c-.07.48-.16.96-.29,1.45-.13.48-.26.96-.39,1.45-.13.34-.26.71-.39,1.08-.13.38-.26.74-.39,1.08-.13.28-.21.59-.25.93-.03.34-.08.69-.15,1.03-.46.35-.75.79-.88,1.34-.13.55-.29,1.1-.49,1.65-.33.41-.65.81-.98,1.19-.33.38-.69.81-1.08,1.29-.33.07-.67.19-1.03.36-.36.17-.7.33-1.03.46-.39.28-.8.46-1.23.57-.43.1-.9.22-1.42.36-.33.07-.64.16-.93.26-.29.1-.61.19-.93.26-.98.34-1.73.9-2.26,1.65-.2.48-.28.96-.25,1.45.03.48-.02,1-.15,1.55-.07.41-.12.84-.15,1.29-.03.45-.08.88-.15,1.29-.07.48-.1.98-.1,1.5s-.16.98-.49,1.39c-.2.21-.33.31-.39.31-1.05.21-2.06.55-3.04,1.03-.39.28-.83.45-1.32.52-.49.07-.96.1-1.42.1-.59-.07-1.18-.1-1.77-.1s-1.18-.1-1.77-.31c-.26-.14-.54-.15-.83-.05-.29.1-.61.02-.93-.26-.07-.07-.15-.17-.25-.31-.1-.14-.18-.27-.25-.41-.07-.76-.13-1.53-.2-2.32-.07-.79-.07-1.56,0-2.32.13-.76.2-1.51.2-2.27s-.13-1.51-.39-2.27c-.07-.41-.07-.86,0-1.34.2-.62.31-1.24.34-1.86.03-.62.05-1.27.05-1.96.2-.14.36-.27.49-.41.13-.14.23-.24.29-.31.52-.34,1.06-.6,1.62-.77.55-.17,1.03-.46,1.42-.88.13-.07.26-.1.39-.1.85-.14,1.6-.48,2.26-1.03.65-.55,1.28-1.07,1.86-1.55.33-.14.62-.24.88-.31.26-.07.52-.14.79-.21.2-.21.36-.46.49-.77.13-.31.36-.53.69-.67.26-.14.46-.27.59-.41.85-.76,1.31-1.72,1.37-2.89.06-.89.05-1.76-.05-2.58-.1-.83-.31-1.69-.64-2.58-.65-1.24-1.67-2.2-3.04-2.89-.33,0-.7.02-1.13.05-.43.04-.83.09-1.23.15-.26-.14-.56-.24-.88-.31-.33-.07-.66-.17-.98-.31-.07.07-.12.09-.15.05-.03-.03-.08.02-.15.15-.65.21-1.28.46-1.86.77-.59.31-1.14.71-1.67,1.19-.72.76-1.54,1.51-2.45,2.27-.2.69-.39,1.36-.59,2.01-.2.66-.43,1.33-.69,2.01-.13.48-.33.91-.59,1.29-.26.38-.46.74-.59,1.08-.33.35-.69.59-1.08.72-.39.14-.75.24-1.08.31h-1.28c-.26-.07-.54-.14-.83-.21-.29-.07-.54-.07-.74,0-.85,0-1.57.14-2.16.41-.65.28-1.32.4-2.01.36-.69-.03-1.36-.08-2.01-.15-.07-.07-.13-.16-.2-.26-.07-.1-.13-.19-.2-.26-.07-.48-.13-.93-.2-1.34-.07-.41-.2-.83-.39-1.24-.07-.41-.13-.83-.2-1.24-.07-.41-.16-.83-.29-1.24.2-.55.41-1.08.64-1.6.23-.52.38-1.05.44-1.6,0-.21.08-.41.25-.62.16-.21.28-.41.34-.62.13-.27.26-.57.39-.88.13-.31.2-.64.2-.98.06-.62.33-1.34.78-2.17.13-.14.23-.33.29-.57.06-.24.2-.4.39-.46.52-.34.88-.83,1.08-1.45.2-.62.52-1.1.98-1.45.13-.07.23-.14.29-.21.06-.07.13-.14.2-.21.39-.14.7-.34.93-.62.23-.27.41-.58.54-.93.13-.21.23-.4.29-.57.06-.17.16-.4.29-.67.33-.14.65-.29.98-.46.33-.17.62-.33.88-.46.33-.14.65-.34.98-.62.33-.27.62-.55.88-.83.26-.14.46-.21.59-.21.72-.34,1.47-.72,2.26-1.14.78-.41,1.6-.83,2.45-1.24.98.07,2.01-.05,3.09-.36s2.14-.6,3.19-.88c.52.21,1.01.38,1.47.52,1.11-.34,1.88-.52,2.3-.52s1.36.07,2.8.21c.92.55,1.81,1.17,2.7,1.86.88.69,1.68,1.48,2.4,2.38.13.14.31.28.54.41.23.14.38.28.44.41.33.48.67.98,1.03,1.5.36.52.7.98,1.03,1.39.39.41.78.81,1.18,1.19.39.38.75.77,1.08,1.19.13.21.26.43.39.67.13.24.26.46.39.67.33.55.67,1.12,1.03,1.7.36.58.74,1.26,1.13,2.01.2,1.1.28,2.27.25,3.51-.03,1.24-.12,2.48-.25,3.72ZM882.1,77.08c-.13.55-.29,1.1-.49,1.65s-.36,1.14-.49,1.75c-.46.48-1,1.01-1.62,1.6-.62.58-1.29,1.15-2.01,1.7-.66.07-1.29.14-1.91.21-.62.07-1.26.24-1.91.52-.52.21-1.11.29-1.77.26-.65-.04-1.31-.09-1.96-.16-.78-.48-1.49-1.07-2.11-1.75-.62-.69-1.16-1.41-1.62-2.17-.26-.48-.59-.91-.98-1.29-.39-.38-.78-.77-1.18-1.19-.07-.96-.1-1.91-.1-2.84s.13-1.84.39-2.74c.13-.41.21-.83.25-1.24.03-.41.08-.86.15-1.34.33-.41.67-.84,1.03-1.29.36-.45.7-.91,1.03-1.39,2.42-1.17,4.84-1.96,7.26-2.38.65.21,1.28.38,1.86.52.59.14,1.14.31,1.67.52.72.62,1.37,1.31,1.96,2.06.59.76,1.14,1.52,1.67,2.27.33.48.56,1,.69,1.55.13.55.2,1.1.2,1.65v3.51Z"/>
</svg>