<?xml version="1.0" encoding="UTF-8"?>
<svg id="_レイヤー_1" data-name="レイヤー_1" xmlns="http://www.w3.org/2000/svg" version="1.1" viewBox="0 0 420 82">
  <!-- Generator: Adobe Illustrator 30.3.0, SVG Export Plug-In . SVG Version: 2.1.3 Build 182)  -->
  <defs>
    <style>
      .st0 {
        fill: #57bae5;
      }
    </style>
  </defs>
  <g>
    <path class="st0" d="M124.89,40.08c.04.3,0,.58-.08.86-.09.28-.19.55-.31.8-.22,0-.41.02-.55.06-.15.07-.19.2-.14.39.06.19.03.35-.08.5-.07.15-.15.31-.22.5-.07.19-.15.33-.22.44-.04.26.03.46.19.61.17.15.25.33.25.55.04.15.03.29-.03.42-.06.13-.12.27-.19.42-.07.15-.16.28-.25.39-.09.11-.18.24-.25.39-.11.19-.23.39-.36.61-.13.22-.25.43-.36.61-.15.15-.32.3-.53.44-.2.15-.4.3-.58.44-.07.11-.15.23-.22.36-.07.13-.15.29-.22.47-.59.48-1.18.96-1.77,1.44-.59.48-1.2.92-1.83,1.33-.44.15-.91.27-1.39.36-.48.09-.96.18-1.44.25-.37.04-.74.09-1.11.17-.37.07-.76.17-1.16.28-.22.04-.44.06-.67.08s-.48.03-.78.03c-.48.04-.95.06-1.41.08-.46.02-.9.03-1.3.03-.44.19-.68.41-.72.67-.04.22-.09.44-.17.67-.07.22-.15.44-.22.67,0,.48-.03.98-.08,1.5-.06.52-.06,1.02-.03,1.5,0,.19-.02.31-.06.39,0,.22,0,.45-.03.69-.02.24-.03.47-.03.69s0,.43.03.64c.02.2.05.4.08.58.11.7.02,1.41-.28,2.11,0,.18-.04.35-.11.5-.11.3-.31.41-.61.33-.55-.19-1.1-.29-1.64-.31-.54-.02-1.1,0-1.69.08h-.72c-.52.26-1.05.42-1.61.5-.55.07-1.13.13-1.72.17-.33,0-.54-.11-.61-.33-.04-.04-.06-.07-.06-.11-.07-.92-.17-1.87-.28-2.83s-.15-1.9-.11-2.83c0-.18,0-.37-.03-.55-.02-.18-.05-.35-.08-.5-.07-.41-.13-.82-.17-1.25-.04-.42-.07-.84-.11-1.25v-.44c0-.15-.04-.3-.11-.44-.15-.29-.21-.61-.19-.94.02-.33.03-.63.03-.89.11-.26.18-.47.22-.64.04-.17.07-.36.11-.58-.11-.15-.16-.29-.14-.42.02-.13,0-.25-.08-.36,0-.07-.02-.14-.06-.2-.04-.05-.06-.1-.06-.14-.04-.92-.06-1.98-.08-3.16-.02-1.18-.02-2.29,0-3.33.02-1.03.05-1.77.08-2.22.07-.15.16-.28.25-.39.09-.11.16-.22.19-.33,0-.11-.04-.19-.11-.25-.07-.06-.15-.1-.22-.14.07-.33.16-.67.25-1,.09-.33.18-.67.25-1-.04-.18-.07-.35-.11-.5-.04-.15-.09-.3-.17-.44.11-.26.22-.55.33-.89-.04-.3-.06-.63-.08-1-.02-.37-.06-.76-.14-1.16.07-.11.13-.27.17-.47.04-.2.09-.4.17-.58.07-.18.08-.37.03-.55-.06-.18-.03-.35.08-.5.22-.07.41-.09.55-.06.07.04.17.08.28.14.11.06.2.1.28.14h.39c.44-.15.9-.29,1.36-.42.46-.13.9-.29,1.3-.47.26-.15.55-.18.89-.11.22.04.43.06.64.08.2.02.4,0,.58-.08.26-.04.51-.06.75-.08.24-.02.49-.03.75-.03.7,0,1.4-.06,2.11-.17.7-.11,1.4-.24,2.11-.39.3-.11.61-.15.94-.11.33.04.65.04.94,0,.26.07.52.16.78.25.26.09.52.18.78.25.26.07.52.14.78.19.26.06.55.12.89.19.55-.15,1.15-.21,1.77-.19.63.02,1.24.05,1.83.08.33.04.66.11.97.22.31.11.6.26.86.44.37.15.78.39,1.22.72.18.15.36.31.53.47.17.17.32.34.47.53.07.04.13.1.17.19.04.09.07.18.11.25.07.26.2.46.39.61.18.15.35.31.5.5.67,1,1,2.14,1,3.44.07.22.17.45.28.69.11.24.2.45.28.64ZM115.96,40.86c-.04-.22-.1-.44-.19-.67s-.18-.44-.25-.67c-.04-.11-.08-.2-.14-.28-.06-.07-.1-.13-.14-.17-.07-.18-.22-.24-.44-.17-.07.07-.15.13-.22.17-.07.04-.15.09-.22.17-.19.04-.36.06-.53.08-.17.02-.34.05-.53.08h-.67c-.11-.07-.23-.16-.36-.25-.13-.09-.29-.19-.47-.31-.26-.04-.55-.06-.86-.08-.31-.02-.62,0-.91.03-.7.15-1.26.43-1.66.83-.22-.07-.41-.11-.55-.11-.11-.07-.22-.09-.33-.06-.11.04-.22.06-.33.06-.22.11-.43.24-.61.39-.19.15-.33.35-.44.61-.04.15-.08.31-.14.47-.06.17-.08.34-.08.53-.04.37-.06.75-.08,1.14-.02.39-.05.79-.08,1.19,0,.22,0,.45-.03.69-.02.24,0,.47.03.69,0,.04.02.11.06.22.04.11.07.2.11.28.52-.07,1-.12,1.44-.14.44-.02.87,0,1.28.08.41.11.82.19,1.25.22.42.04.82.11,1.19.22.18.04.41.02.67-.05.22-.19.43-.37.64-.55.2-.19.42-.37.64-.55.18-.04.36-.06.53-.08.17-.02.32-.04.47-.08.22-.19.44-.38.67-.58s.42-.4.61-.58c.07-.26.14-.5.19-.72.06-.22.1-.46.14-.72.07-.22.16-.43.25-.64.09-.2.14-.43.14-.69Z"/>
    <path class="st0" d="M149.5,56.6c.04.26.03.54-.03.86-.06.31-.08.62-.08.91,0,.26-.02.54-.06.83-.04.3-.09.59-.17.89-.11.26-.15.53-.11.8.04.28.04.56,0,.86-.07.15-.16.31-.25.5s-.19.37-.31.55c-.04.15-.09.3-.17.47-.07.17-.15.34-.22.53-.26.11-.51.23-.75.36-.24.13-.47.23-.69.3-.48.11-.99.13-1.52.06-.54-.07-1.06-.04-1.58.11-.07.04-.16.07-.25.11-.09.04-.21.09-.36.17-.15.04-.32.07-.53.11-.2.04-.4.07-.58.11h-.42c-.13,0-.23-.02-.31-.05-.22-.11-.44-.17-.64-.17s-.4.04-.58.11c-.15,0-.3-.02-.44-.06-.15-.04-.31-.07-.5-.11-.19.19-.43.33-.72.44-.3.11-.61.14-.94.08-.33-.06-.63,0-.89.19-.22-.11-.42-.2-.58-.28-.17-.08-.34-.13-.53-.17-.26-.04-.51-.02-.75.06-.24.07-.51.09-.8.06-.3-.07-.58-.07-.86,0s-.56.11-.86.11c-.3-.04-.57-.05-.83-.03-.26.02-.5.06-.72.14-.04-.11-.09-.19-.17-.25-.07-.06-.11-.1-.11-.14-.26-1.15-.39-2.38-.39-3.71.07-.37.09-.73.06-1.08-.04-.35-.06-.73-.06-1.14-.26-.74-.42-1.48-.47-2.22-.06-.74-.06-1.5-.03-2.27.04-.74.07-1.5.11-2.27.04-.78.07-1.57.11-2.38,0-.29.02-.61.06-.94.04-.33.09-.65.17-.94.15-.37.24-.75.28-1.14.04-.39.06-.79.06-1.19v-1.03c0-.35-.02-.71-.06-1.08v-.5c0-.18-.02-.37-.06-.55-.07-.3-.13-.59-.17-.89-.04-.3-.06-.57-.06-.83.04-.18.05-.37.03-.55-.02-.18-.05-.37-.08-.55-.04-.15-.04-.31,0-.5.04-.18.04-.35,0-.5-.04-.26-.06-.5-.06-.72s.04-.44.11-.67c.04-.22.02-.46-.06-.72-.04-.3-.06-.6-.08-.91-.02-.31,0-.6.08-.86.11-.44.18-.9.22-1.36.04-.46.07-.88.11-1.25.07-.3.19-.53.36-.69.17-.17.23-.36.19-.58-.04-.22.06-.38.28-.47.22-.09.24-.27.06-.53.26,0,.41.02.44.06.7.3,1.31.33,1.83.11.22.04.44.07.67.11.22.04.42.06.61.06.18.04.39.04.61,0,.22-.04.42-.07.61-.11.44-.11.88-.21,1.3-.3.42-.09.86-.14,1.3-.14.41-.07.78-.07,1.11,0,.11,0,.28.07.5.22-.04.15-.06.3-.08.44-.02.15-.05.3-.08.44.04.19.08.38.14.58.06.2.08.42.08.64.04.19.1.38.19.58.09.2.17.42.25.64-.11.22-.22.47-.33.75-.11.28-.22.55-.33.8.07.15.13.29.17.42.04.13.07.27.11.42-.15.67-.29,1.33-.42,2-.13.67-.21,1.35-.25,2.05-.04.19-.08.38-.14.58-.06.2-.12.44-.19.69.07.15.15.3.22.47.07.17.13.34.17.53l-.22,1.11v.47c0,.17-.04.3-.11.42-.11.26-.18.52-.19.78-.02.26-.06.54-.14.83,0,.48-.02.97-.06,1.47-.04.5-.04,1.01,0,1.53,0,.33-.05.64-.14.91-.09.28-.18.6-.25.97.07.15.13.3.17.44.04.15.07.31.11.5-.04.18-.08.38-.14.58-.06.2-.12.42-.19.64.11.26.22.52.33.78.11.26.22.54.33.83.07.15.13.29.17.42.04.13.07.27.11.42.11.3.23.48.36.55.13.07.32.09.58.05.52-.15,1.05-.26,1.61-.33s1.11-.17,1.66-.28c.11-.04.3-.06.55-.06.33,0,.67-.04,1.03-.11.35-.07.67-.2.97-.39.67-.41,1.35-.55,2.05-.44.18.04.37.04.55,0,.18-.04.37-.02.55.05.04.04.07.1.11.2.04.09.06.18.06.25.11.33.17.66.19.97.02.31.03.64.03.97Z"/>
    <path class="st0" d="M187.31,61.54c.07.19.02.44-.17.78-.3.04-.6.03-.91-.03-.31-.06-.62-.12-.92-.19-.48.19-.8.31-.97.39-.17.07-.32.1-.47.08-.15-.02-.44-.03-.89-.03-.11.04-.21.09-.31.17-.09.08-.21.15-.36.22-.04.04-.07.05-.11.05-.37,0-.74,0-1.11.03-.37.02-.72.03-1.05.03-.22-.22-.36-.39-.42-.5-.06-.11-.14-.37-.25-.78-.07-.22-.24-.48-.5-.78-.37-.41-.75-.96-1.14-1.66s-.69-1.29-.92-1.77l-.28-.28c-.15,0-.26.04-.33.11-.59.37-1.15.43-1.66.17-.33-.07-.66-.11-.97-.11h-.97c-.26-.04-.52-.04-.78,0-.26.04-.54.05-.83.05-.22,0-.45,0-.69-.03-.24-.02-.47-.03-.69-.03-.3.04-.6.09-.91.17-.31.07-.62.19-.92.33-.26.15-.53.24-.8.28-.28.04-.56.07-.86.11-.41,0-.8.05-1.19.14s-.79.19-1.19.3c-.11.04-.23.08-.36.14-.13.05-.23.16-.31.3,0,.19,0,.38-.03.58-.02.2-.03.42-.03.64-.11.33-.19.68-.22,1.05-.15.52-.38.96-.69,1.33-.31.37-.64.74-.97,1.11-.15,0-.29,0-.42-.03-.13-.02-.27-.03-.42-.03-.11,0-.23,0-.36.03-.13.02-.27.05-.42.08-.41.04-.83-.02-1.27-.17-.04-.04-.06-.05-.08-.03-.02.02-.06.03-.14.03h-.28l-.11-.06c-.04-.07-.08-.1-.14-.08-.06.02-.18,0-.36-.03-.22-.07-.43-.11-.61-.11h-.39c-.11,0-.26-.02-.44-.05-.07-.04-.19-.06-.33-.08-.15-.02-.31-.06-.5-.14-.11-.04-.19-.05-.25-.03-.06.02-.14,0-.25-.03l-.17-.06h-.11l-.11-.05c.07-.52.16-1.03.25-1.53.09-.5.27-.99.53-1.47.07-.15.13-.28.17-.39.04-.11.06-.24.06-.39l.17-.94c.11-.18.22-.39.33-.61s.22-.41.33-.55c.07-.22.08-.44.03-.67-.06-.22,0-.42.14-.61.11-.18.17-.37.19-.55.02-.18.1-.33.25-.44.15-.29.29-.58.42-.86.13-.28.23-.56.3-.86.04-.04.06-.11.06-.22.11-.78.42-1.44.94-2-.04-.15-.06-.29-.06-.42v-.3c.07-.22.2-.42.39-.61.18-.19.35-.35.5-.5.18-.22.35-.44.5-.67.15-.22.24-.46.28-.72.15-.55.35-1.07.61-1.55.26-.48.57-.94.94-1.39.22-.29.42-.62.58-.97.17-.35.34-.71.53-1.08.15-.3.29-.61.42-.94.13-.33.21-.67.25-1,.3-.37.5-.66.61-.86.11-.2.21-.44.31-.72.09-.28.21-.71.36-1.3.07-.07.17-.14.3-.19.13-.06.21-.16.25-.3,0-.15.09-.26.28-.33.3-.18.5-.44.61-.78.11-.3.27-.56.47-.8.2-.24.4-.47.58-.69.18-.18.3-.37.33-.55.18-.52.43-.99.75-1.41.31-.42.58-.86.8-1.3.18-.15.35-.23.5-.25.15-.02.3-.03.44-.03h.17c.37.15.76.26,1.16.33.26.04.5.06.72.06h.89c.11,0,.22.02.33.06.48.15.98.22,1.5.22s1.02.02,1.5.06c.63.44,1.16.87,1.61,1.28.44.41.79,1.11,1.05,2.11.04.04.09.07.17.11.07.04.13.09.17.17.07.04.15.07.22.11.07.04.15.09.22.17.07.15.14.3.19.47.06.17.12.34.19.53.07.15.17.3.28.47.11.17.24.34.39.53.07.37.19.74.36,1.11.17.37.23.8.19,1.28l.39.55c0,.19,0,.38.03.58.02.2.03.42.03.64.18.11.29.26.31.44.02.19.05.39.08.61.11.15.22.31.33.47.11.17.22.32.33.47.07.26.15.51.22.75.07.24.13.47.17.69-.04.15-.07.3-.08.44-.02.15-.05.3-.08.44.07.37.21.69.42.97s.4.56.58.86c.18.7.36,1.41.53,2.13.17.72.29,1.45.36,2.19.41.52.66,1.07.75,1.66.09.59.21,1.2.36,1.83.07.26.11.51.11.75s.02.49.06.75c.07.22.24.51.5.86.26.35.46.62.61.8,0,.37.02.75.06,1.14.04.39.13.77.28,1.14ZM173.95,49.84c-.04-.26-.13-.49-.28-.69-.15-.2-.19-.43-.11-.69-.15-.26-.22-.57-.22-.94s.04-.57.11-.61c-.04-.07-.06-.18-.06-.33-.15-.18-.29-.35-.42-.5-.13-.15-.25-.31-.36-.5,0,.04-.07-.02-.22-.17-.19-.04-.33-.15-.44-.33-.04-.11-.08-.22-.14-.33s-.14-.18-.25-.22c-.15,0-.26.05-.33.14-.07.09-.19.18-.33.25-.15.04-.29.08-.42.11-.13.04-.27.08-.42.11-.26.22-.43.52-.5.89v.67c-.15.26-.3.48-.47.67-.17.19-.29.39-.36.61-.11.52-.28.98-.5,1.38,0,.26-.06.49-.17.69-.11.2-.2.42-.28.64-.04.04-.06.15-.06.33,0,.22.13.33.39.33.15,0,.3,0,.44-.03.15-.02.3-.03.44-.03.07.04.17.08.28.14.11.05.2.1.28.14.55-.07,1.08-.19,1.58-.33.5-.15.99-.31,1.47-.5.22-.18.46-.31.72-.39.26-.07.46-.24.61-.5Z"/>
    <path class="st0" d="M221.41,36.26c-.04.15-.08.29-.14.42-.05.13-.12.25-.19.36-.19.26-.33.52-.44.78-.11.26-.21.52-.28.78-.22.26-.46.44-.72.53-.26.09-.52.19-.78.3-.29.22-.51.49-.64.8-.13.31-.29.6-.47.86-.22.15-.44.29-.64.42-.2.13-.4.25-.58.36l-1.11.78c-.11,0-.21,0-.3.03-.09.02-.19.03-.3.03-.26.26-.51.55-.75.86-.24.31-.45.62-.64.92-.11.22-.26.42-.44.58-.19.17-.33.34-.45.53-.04.11-.05.28-.05.5-.37.15-.73.29-1.08.44-.35.15-.68.31-.97.5-.22.37-.32.75-.3,1.14.02.39,0,.79-.03,1.19-.04.3-.13.54-.28.72-.15.18-.21.44-.17.78.04.04.06.14.06.3s.05.29.17.36c.07.07.12.21.14.42.02.2.03.4.03.58.04.19.09.34.17.47.07.13.07.29,0,.47-.04.15-.05.3-.05.44v.39c.04.48.06.96.08,1.44.02.48,0,.96-.08,1.44,0,.15.03.31.08.5.06.19.1.37.14.55.07.22.1.43.08.61-.02.19-.03.39-.03.61.04.15.06.31.08.5.02.19.05.37.08.55.07.15.12.31.14.5.02.19.03.35.03.5s.02.27.05.36c.04.09.07.21.11.36l-.28.28c-.11.11-.2.22-.28.33-.11.15-.19.29-.25.42-.06.13-.12.23-.2.3-.15.15-.31.22-.5.22s-.37.02-.55.06c-.15.04-.3.05-.44.05h-.39c-.29.11-.49.21-.58.31-.09.09-.21.23-.36.42-.26,0-.44-.03-.55-.08-.11-.06-.26-.1-.44-.14-.19-.07-.37-.08-.55-.03-.19.05-.37.1-.55.14-.26,0-.52,0-.78-.03-.26-.02-.5-.1-.72-.25-.15-.11-.29-.19-.42-.22-.13-.04-.27-.07-.42-.11-.15,0-.27,0-.36-.03-.09-.02-.21-.03-.36-.03-.04-.22-.09-.43-.17-.64-.07-.2-.11-.42-.11-.64,0-.52-.05-1-.17-1.44s-.24-.89-.39-1.33c.07-.33.09-.55.05-.67-.07-.29-.06-.57.03-.83.09-.26.06-.52-.08-.78-.15-.67-.21-1.34-.19-2.02.02-.68.03-1.38.03-2.08,0-.07.02-.17.05-.3s.07-.25.11-.36c-.04-.52-.09-1.02-.17-1.5-.07-.48-.2-.94-.39-1.39.04-.19.06-.34.06-.47s.02-.23.06-.3c.18-.48.24-.95.17-1.41-.07-.46-.2-.93-.39-1.41-.04-.19-.09-.37-.17-.55-.07-.18-.17-.39-.28-.61-.07-.07-.15-.18-.22-.31-.07-.13-.19-.25-.33-.36-.19-.18-.4-.37-.64-.55-.24-.18-.45-.39-.64-.61-.19-.18-.38-.37-.58-.55-.2-.18-.4-.37-.58-.55-.19-.18-.38-.31-.58-.39-.2-.07-.4-.18-.58-.33-.26-.55-.52-1.16-.78-1.83-.55-.41-1.11-.85-1.66-1.33-.55-.48-1.02-1.11-1.39-1.88.07-.33.19-.67.36-1.03.17-.35.36-.69.58-1.03.07-.07.16-.17.25-.28s.16-.18.19-.22c.3-.3.56-.59.8-.89.24-.3.47-.59.69-.89.18.04.35.06.5.06s.3.02.44.06c.07-.07.14-.13.19-.17.06-.04.1-.11.14-.22.11-.07.2-.18.28-.33.07-.15.13-.28.17-.39.22-.3.48-.37.78-.22.89.37,1.83.78,2.83,1.22.18.19.37.38.55.58.18.2.35.4.5.58.22.26.48.5.78.72.29.22.52.5.66.83.26.19.53.38.8.58.28.2.56.42.86.64.11.19.26.41.44.67.18.26.39.55.61.89.11.07.26.19.44.33.19.15.35.28.5.39.26.11.5.22.72.33.22.11.44.2.66.28.22.07.44.06.67-.06.22-.15.45-.29.69-.42.24-.13.49-.23.75-.31.07,0,.15-.04.22-.11.07-.07.15-.13.22-.17.11-.15.24-.3.39-.44.15-.15.29-.31.44-.5.26-.48.68-.87,1.28-1.16.15-.11.29-.2.44-.28.15-.07.29-.15.44-.22.29-.41.57-.8.83-1.19.26-.39.5-.78.72-1.19.07-.11.15-.21.22-.3s.15-.16.22-.19c.29-.15.52-.33.66-.55.15-.22.33-.41.55-.55.41-.11.74,0,1,.33.11.15.22.3.33.47.11.17.24.36.39.58.33.15.64.35.92.61.28.26.54.54.8.83.07.11.14.23.19.36.06.13.1.29.14.47.44.26.81.54,1.11.83,0,.07,0,.16.03.25.02.09,0,.19-.03.31Z"/>
    <path class="st0" d="M290.65,57.38c.04.59.06,1.17.08,1.75s-.05,1.16-.19,1.75c-.04.19-.07.37-.08.55s-.03.37-.03.55c0,.3-.07.52-.22.67s-.31.28-.5.39c-.11.04-.22.08-.33.11-.11.04-.24.06-.39.06-.3-.04-.57,0-.83.14-.26.13-.5.27-.72.42-.15,0-.3-.02-.44-.06-.15-.04-.28-.02-.39.06-.59.11-1.16.28-1.72.5-.52.11-1,.15-1.44.11-.04-.04-.07-.07-.11-.08s-.09-.05-.17-.08c-.15-.19-.22-.41-.22-.67s-.04-.5-.11-.72c-.11-.52-.19-1.03-.25-1.52s-.1-1.01-.14-1.52c0-.3-.02-.58-.06-.86s-.07-.58-.11-.92c.04-.26.07-.53.11-.8s0-.56-.11-.86c.04-.48-.02-.93-.17-1.36s-.2-.86-.17-1.3c-.04-.26-.1-.52-.19-.78-.09-.26-.18-.52-.25-.78.04-.63.04-1.27,0-1.91-.04-.65-.15-1.27-.33-1.86.04-.26.08-.5.14-.72s.1-.44.14-.67c0-.22-.09-.46-.28-.72l-.78-.11c-.26-.04-.44-.18-.55-.44-.15.04-.28.07-.39.11-.11.04-.2.09-.28.17-.3.26-.57.54-.83.83-.26.29-.44.66-.55,1.11-.04.26-.11.51-.22.75-.11.24-.22.47-.33.69-.22.33-.44.68-.64,1.03-.2.35-.4.71-.58,1.08-.11.26-.19.54-.22.83-.04.3-.11.59-.22.89-.18.37-.34.75-.47,1.14-.13.39-.27.79-.42,1.19-.15.37-.32.74-.53,1.11-.2.37-.4.72-.58,1.05-.26.48-.51.93-.75,1.36-.24.42-.45.9-.64,1.41-.04.15-.13.27-.28.36-.15.09-.3.12-.44.08-.41-.15-.82-.19-1.25-.14-.43.06-.84,0-1.25-.14-.04-.04-.09-.05-.17-.03s-.15.03-.22.03c-.26.11-.52.13-.78.06s-.52-.13-.78-.17c-.26-.04-.43-.2-.5-.5-.19-.74-.44-1.44-.78-2.11-.33-.67-.54-1.37-.61-2.11-.15-.18-.29-.39-.42-.61-.13-.22-.27-.41-.42-.55-.11-.52-.22-1.04-.33-1.58-.11-.54-.22-1.06-.33-1.58-.15-.18-.28-.36-.39-.53-.11-.17-.26-.34-.44-.53-.04-.26-.08-.53-.14-.8s-.12-.56-.19-.86c-.18-.52-.42-.96-.72-1.33-.22-.07-.37.02-.44.28-.04.07-.05.17-.05.28v.28c-.11.15-.23.29-.36.42-.13.13-.23.27-.31.42-.07,1.18-.17,2.34-.28,3.46-.11,1.13-.26,2.25-.44,3.35.07.44.06.89-.03,1.33-.09.44-.12.92-.08,1.44.04.33.03.68-.03,1.03-.05.35-.08.71-.08,1.08-.04.44-.08.85-.14,1.22-.06.37-.16.76-.3,1.16-.11.26-.3.41-.55.44-.15.04-.28.07-.39.11-.11.04-.22.09-.33.17-.26.11-.55.24-.86.39-.31.15-.62.31-.91.5-.81.04-1.41.06-1.8.06s-.68-.02-.89-.06c-.2-.04-.49-.09-.86-.17-.11-.11-.19-.23-.22-.36-.04-.13-.07-.25-.11-.36,0-.66-.13-1.31-.39-1.94-.19-.48-.3-.97-.33-1.47-.04-.5-.04-1.03,0-1.58.07-.26.15-.57.22-.94.07-.41.11-.8.11-1.19s-.04-.77-.11-1.14c-.04-.29-.06-.58-.06-.86s-.02-.56-.06-.86c0-.07,0-.16.03-.25.02-.09.05-.19.08-.3.11-.41.11-.79,0-1.16-.08-.22-.09-.41-.06-.55.07-.22.09-.44.06-.67-.04-.22-.08-.42-.11-.61.11-.18.22-.32.33-.42.11-.09.2-.21.28-.36.07-.11.1-.23.08-.36-.02-.13-.05-.27-.08-.42-.08-.3-.19-.52-.33-.67-.04-.22-.07-.44-.08-.67-.02-.22,0-.44.08-.66.22-.37.31-.74.28-1.11,0-.18,0-.35.03-.5s.05-.3.08-.44.06-.28.08-.39c.02-.11,0-.24-.03-.39-.07-.41-.09-.8-.06-1.19s.02-.77-.05-1.14c-.04-.3,0-.58.08-.86.09-.28.17-.54.25-.8,0-.37-.06-.72-.17-1.05,0-.11.04-.22.11-.33.07-.15.14-.3.19-.44.06-.15.08-.3.08-.44.07-.26.14-.51.19-.75.06-.24.08-.49.08-.75.07-.33.1-.66.08-.97-.02-.31-.06-.62-.14-.91.07-.3.19-.5.36-.61.17-.11.38-.2.64-.28.18.04.38.07.58.11.2.04.4.07.58.11.26-.07.53-.16.8-.25.28-.09.54-.16.8-.19.22.04.45.06.69.08.24.02.45.05.64.08.07,0,.12,0,.14-.03.02-.02.05-.03.08-.03.15-.15.29-.28.42-.39.13-.11.25-.22.36-.33.41-.07.79-.13,1.14-.17.35-.04.69-.07,1.03-.11.18-.07.37-.08.55-.03.18.06.37.08.55.08.22,0,.41-.11.55-.33.18.07.3.17.33.28.59.78,1.14,1.58,1.64,2.41s.84,1.77,1.03,2.8c.11.44.26.88.44,1.3.18.43.41.86.67,1.3.18.33.48.67.89,1,0,.3,0,.59.03.89.02.3.03.61.03.94.11.15.22.3.33.44.11.15.22.31.33.5.15.26.3.52.47.78.17.26.34.54.53.83.07.07.17.11.3.11s.21-.07.25-.22c.15-.33.29-.67.42-1,.13-.33.25-.65.36-.94.15-.26.3-.51.47-.75.17-.24.4-.4.69-.47.33-.11.55-.39.67-.83.18-.48.4-.91.64-1.3.24-.39.53-.77.86-1.14.3-.41.57-.83.83-1.27.26-.44.54-.87.83-1.28.07-.15.17-.3.28-.44.11-.15.24-.28.39-.39.59-.41.96-.91,1.11-1.5.04-.15.08-.28.14-.39s.1-.22.14-.33c.3-.41.61-.8.94-1.19.33-.39.63-.77.89-1.14.48-.33.98-.5,1.5-.5s1.02-.02,1.5-.06c.44.15.88.31,1.3.47.42.17.88.34,1.36.53.3-.07.6-.14.92-.19.31-.06.66-.05,1.03.03.44.19.72.48.83.89.18.37.34.74.47,1.11.13.37.19.76.19,1.16,0,.15.04.28.11.39.07.22.16.45.25.69.09.24.14.49.14.75,0,.48.03.96.08,1.44.06.48.08.96.08,1.44v1.3c0,.43.02.84.06,1.25,0,.15,0,.31.03.47.02.17.03.34.03.53-.04.26-.08.54-.11.83-.04.3-.09.61-.17.94.04.33.06.69.08,1.08.02.39,0,.79-.03,1.19-.08.26-.1.56-.08.91.02.35,0,.67-.08.97-.04.37-.04.76,0,1.16.15.41.24.82.28,1.25.04.42.07.84.11,1.25.04.22.07.44.11.67.04.22,0,.44-.11.67v.39c.18.67.29,1.41.33,2.22.07.15.16.32.25.53.09.2.19.4.3.58Z"/>
    <path class="st0" d="M319.7,60.43s-.08-.06-.11-.06l.06.06c-.15.07-.25.24-.3.5-.06.26-.16.44-.31.55-.04.11-.17.28-.39.5-.22.22-.39.31-.5.28-.52-.11-1.13-.11-1.83,0l-.33.33c-.11.11-.26.24-.44.39-.04,0-.08,0-.11.03-.04.02-.09.03-.17.03-.11.04-.28.06-.5.06-1.18-.04-2.35.19-3.49.67-.26.08-.54.12-.83.14-.3.02-.59-.03-.89-.14-.22-.11-.44-.17-.64-.19-.2-.02-.42,0-.64.03-.48,0-.94-.07-1.39-.22-.19.04-.38.07-.58.11s-.4.09-.58.17c-.19.07-.37.18-.55.3-.19.13-.39.17-.61.14-.04-.07-.09-.16-.17-.25-.07-.09-.15-.21-.22-.36-.08-.04-.17-.08-.28-.14-.11-.06-.2-.1-.28-.14-.48-.07-.92-.24-1.33-.5-.55-.37-1.09-.65-1.61-.83-.26-.07-.47-.21-.64-.42-.17-.2-.34-.38-.53-.53-.15-.37-.28-.72-.39-1.05-.11-.33-.19-.68-.22-1.05-.11-.07-.2-.16-.28-.25-.08-.09-.15-.17-.22-.25-.22-.15-.33-.28-.33-.39-.04-.33-.15-.59-.33-.78-.19-.19-.35-.44-.5-.78,0-.07,0-.18-.03-.33-.02-.15-.05-.29-.08-.44v-.3c0-.13-.02-.23-.06-.3-.15-.3-.3-.58-.44-.86-.15-.28-.28-.54-.39-.8,0-.18.04-.46.11-.83.18-.78.17-1.53-.06-2.27-.11-.26-.19-.52-.22-.78-.04-.26-.09-.52-.17-.78.04-.07.08-.18.14-.3.06-.13.12-.23.19-.31l-.39-1.16c-.07-.18-.18-.36-.3-.53-.13-.17-.25-.32-.36-.47-.04-.3.03-.57.19-.83.17-.26.27-.52.3-.78,0-.11,0-.22-.03-.33s-.03-.22-.03-.33c.29-.41.49-.83.58-1.28.09-.44.16-.91.19-1.39.26-.15.48-.31.67-.5.18-.18.31-.42.39-.72.04-.11.06-.24.08-.39.02-.15.05-.3.08-.44.18-.3.38-.6.58-.92.2-.31.4-.6.58-.86.07-.18.14-.39.19-.61.05-.22.16-.41.3-.55.18-.11.32-.26.42-.44.09-.18.17-.37.25-.55.26-.04.48-.09.67-.17.18-.07.35-.13.5-.17.18-.11.28-.22.28-.33.11-.52.34-.9.69-1.14.35-.24.75-.42,1.19-.53.15-.04.28-.06.39-.08.11-.02.26-.05.44-.08.07-.07.17-.18.28-.31.11-.13.22-.27.33-.42.22-.07.43-.15.64-.22.2-.07.38-.15.53-.22h.39c.3.11.6.21.92.31.31.09.66.19,1.03.3.29-.04.6-.1.92-.19.31-.09.62-.1.91-.03.04,0,.07,0,.11.03.04.02.07,0,.11-.03.26,0,.52-.04.78-.11.26-.07.52-.09.78-.06.22,0,.45-.02.69-.06.24-.04.47-.11.69-.22.18-.04.36-.06.53-.08.17-.02.34,0,.53.08.11.11.22.21.33.3.11.09.24.21.39.36.3.04.62.1.97.19.35.09.71.19,1.08.3.18.04.36.13.53.28.17.15.38.26.64.33.22.07.45.12.69.14.24.02.49.03.75.03.59.59,1.29,1,2.11,1.22.07.04.15.07.22.11.07.04.15.07.22.11.3.26.58.53.86.8.28.28.54.55.8.8.26.3.41.61.44.94.29.26.47.45.53.58.06.13.08.49.08,1.08.22.11.42.23.61.36.18.13.29.32.33.58.07.15.15.29.22.42.07.13.13.27.17.42.11.15.23.27.36.36.13.09.27.21.42.36.11.26.2.51.28.75.07.24.07.51,0,.8-.07.26-.09.54-.06.83s.04.61,0,.94c-.04.3-.04.61,0,.94s.07.65.11.94c.04.15.06.3.06.47s.02.3.06.42c.15.26.23.52.25.78.02.26,0,.52-.03.78,0,.15,0,.29.03.42.02.13.03.29.03.47-.15.48-.28.97-.39,1.47s-.28.97-.5,1.41c-.22.41-.44.81-.67,1.22s-.48.79-.78,1.16v.94c-.19.11-.36.23-.53.36-.17.13-.31.23-.42.3-.26.44-.42.84-.47,1.19-.05.35-.14.68-.25.97l-.44.44c-.15.15-.31.3-.5.44-.19.15-.4.27-.64.36-.24.09-.51.08-.8-.03-.33-.07-.61-.06-.83.06-.15.04-.3.07-.44.11-.15.04-.28.07-.39.11ZM318.81,47.9c-.07-.18-.12-.36-.14-.53-.02-.17-.05-.34-.08-.53,0-.29-.02-.54-.06-.72-.07-.29-.18-.62-.3-.97-.13-.35-.27-.69-.42-1.03-.04-.15-.1-.3-.19-.47-.09-.17-.18-.32-.25-.47-.3-.59-.76-.94-1.39-1.05-.11-.04-.24-.08-.39-.14-.15-.06-.28-.12-.39-.19-.22-.15-.44-.26-.67-.33-.22-.07-.44-.13-.67-.17-.3-.07-.61-.16-.94-.25-.33-.09-.65-.16-.94-.19-.37-.18-.72-.17-1.05.06-1,.41-1.9.93-2.72,1.58-.81.65-1.52,1.52-2.11,2.63-.11.15-.21.31-.31.5-.09.19-.18.37-.25.55-.15.18-.28.38-.39.58-.11.2-.2.4-.28.58.04.3.17.54.39.72.22.19.35.42.39.72,0,.15-.06.29-.17.42-.11.13-.19.27-.22.42.07.15.17.31.28.5s.2.37.28.55c.11.19.19.38.25.58.06.2.1.42.14.64.07.19.14.37.19.55.06.19.1.37.14.55l.78.61c.11.07.23.18.36.3.13.13.27.23.42.3.44.11.83.22,1.17.33.29.08.55.11.78.11h.72s-.05.02-.05.06h.11s-.06-.02-.06-.06c.07-.07.17-.12.28-.14.11-.02.2-.03.28-.03.22,0,.45,0,.69.03.24.02.49,0,.75-.03.07-.07.17-.08.3-.03.13.06.25.1.36.14.15,0,.26-.04.33-.11,0-.15,0-.28-.03-.39-.02-.11.03-.2.14-.28.48-.26.94-.46,1.39-.61.18-.15.34-.28.47-.39.13-.11.25-.24.36-.39.15-.07.27-.17.36-.28.09-.11.21-.18.36-.22.33-.11.62-.27.86-.47.24-.2.47-.42.69-.64.04-.07.06-.14.08-.19s.05-.12.08-.19c.41-.85.5-1.7.28-2.55Z"/>
    <path class="st0" d="M366.1,36.87c-.19.33-.38.65-.58.94-.2.3-.36.61-.47.94-.15.26-.31.55-.5.86-.19.31-.37.62-.55.91-.04.07-.08.18-.14.31-.05.13-.12.27-.19.42-.22.41-.38.83-.47,1.28-.09.44-.29.87-.58,1.28-.33.37-.61.79-.83,1.25-.22.46-.48.9-.78,1.3-.26.37-.52.74-.78,1.11-.26.37-.54.76-.83,1.16-.04.04-.06.08-.08.14-.02.06-.06.14-.14.25-.3.81-.59,1.64-.89,2.5-.3.85-.54,1.72-.72,2.61-.11.37-.22.7-.33,1-.11.3-.26.59-.44.89-.22.37-.44.72-.67,1.05s-.43.68-.61,1.05c-.07.19-.18.33-.33.44-.41.44-.75.92-1.03,1.44-.28.52-.53,1.07-.75,1.66-.15.44-.44.81-.89,1.11-.19.15-.39.29-.61.44-.22.15-.44.3-.67.44-.07-.04-.24-.06-.5-.06-.11-.04-.21-.06-.3-.06s-.18-.02-.25-.05c-.11.04-.21.1-.3.19s-.21.18-.36.25c-.26-.04-.59-.15-1-.33-.26.04-.52.07-.78.11-.26.04-.5.06-.72.06-.55.04-1.12.08-1.69.11-.57.04-1.14.09-1.69.17-.3.07-.55.04-.78-.11-.15-.22-.22-.47-.22-.75s-.04-.6-.11-.97c-.15-.26-.32-.52-.53-.78-.2-.26-.34-.55-.42-.89v-.61c-.04-.18-.15-.35-.33-.5-.19-.15-.3-.33-.33-.55-.04-.11-.06-.23-.06-.36s-.04-.27-.11-.42c-.04-.29-.1-.58-.19-.86-.09-.28-.25-.54-.47-.8-.41-.41-.67-.91-.78-1.5-.04-.26-.1-.53-.19-.8-.09-.28-.19-.54-.31-.8-.26-.63-.49-1.27-.69-1.91-.2-.65-.44-1.3-.69-1.97-.15-.29-.25-.59-.3-.89-.06-.29-.12-.59-.19-.89-.07-.07-.16-.16-.25-.25-.09-.09-.18-.21-.25-.36.04-.15.09-.32.17-.53.07-.2.13-.4.17-.58-.07-.3-.17-.54-.28-.75s-.15-.45-.11-.75c-.15-.07-.29-.16-.42-.25-.13-.09-.27-.16-.42-.2-.59-.63-.85-1.39-.78-2.27-.07-.3-.19-.53-.36-.69s-.32-.32-.47-.47c-.11-.3-.22-.59-.33-.89-.11-.3-.22-.57-.33-.83-.15-.15-.3-.28-.44-.39-.15-.11-.3-.24-.44-.39-.19-.41-.29-.79-.3-1.16-.02-.37,0-.76.08-1.16.07-.15.15-.3.22-.44.07-.15.17-.26.28-.33.52-.37,1.02-.77,1.5-1.19.48-.42.98-.8,1.5-1.14.3-.15.57-.3.83-.44.26-.15.54-.24.83-.28.29-.07.55-.17.78-.28s.44-.2.67-.28c.15-.04.3-.06.47-.08.17-.02.32-.05.47-.08.07,0,.17.02.28.06.11.04.17.11.17.22.04.3.18.53.44.69.26.17.41.4.44.69.07.19.16.36.25.53.09.17.16.32.19.47.04.22.1.44.19.64.09.2.17.42.25.64.26.48.54.96.86,1.44.31.48.66.94,1.03,1.39.26.3.5.63.72,1,.22.37.35.8.39,1.28,0,.15.04.27.11.36.07.09.13.21.17.36.22.59.43,1.17.64,1.75.2.57.38,1.17.53,1.8.04.19.08.39.14.61s.06.44.03.67c.15.74.37,1.53.67,2.38.15.22.31.44.5.64.18.2.35.42.5.64.07,0,.17,0,.28.03.11.02.2,0,.28-.03.41-.11.74-.39,1-.83.07-.15.12-.28.14-.39.02-.11.05-.22.08-.33.44-.52.82-1.05,1.14-1.61.31-.55.67-1.07,1.08-1.55v-.67c.15-.22.31-.44.5-.67.18-.22.3-.46.33-.72.07-.44.21-.86.42-1.25s.43-.75.69-1.08c.48-.81.94-1.55,1.39-2.22.11-.11.21-.2.31-.28.09-.07.16-.15.19-.22.04-.18.05-.33.03-.44-.02-.11.03-.24.14-.39.22-.3.37-.63.44-1,.07-.37.22-.68.44-.94.07-.59.25-1.11.53-1.55s.53-.91.75-1.39c0,.04.04-.02.11-.17.15-.22.39-.26.72-.11.15.11.3.21.44.3.15.09.31.23.5.42h.58c.2,0,.42.02.64.06.22.04.45.09.69.17.24.07.47.19.69.33.29.15.58.31.86.5.28.19.54.35.8.5.18.26.36.49.53.69.17.2.32.4.47.58.07.3.16.59.25.89.09.3.25.55.47.78ZM337.11,47.51c-.04.07-.05.13-.05.17.07-.04.12-.07.14-.11.02-.04,0-.05-.08-.05Z"/>
    <path class="st0" d="M389.17,33.76c.11.26.18.54.19.83.02.3-.06.59-.25.89-.08.15-.1.29-.08.42.02.13.03.29.03.47-.07.11-.17.21-.28.3-.11.09-.2.21-.28.36-.07.07-.14.17-.19.28-.05.11-.16.2-.3.28-.19-.04-.41-.06-.67-.06h-.72c-.55,0-1.05.15-1.5.44-.15.15-.3.25-.44.31-.15.06-.3.12-.44.19-.22.22-.3.44-.22.67v1.05c.04.33.08.66.14.97.05.31.06.66.03,1.03-.04.07-.04.18,0,.3.04.13.07.23.11.31-.04.15-.08.27-.14.36-.06.09-.1.21-.14.36.04.15.07.29.11.42s.07.27.11.42c0,.18-.02.31-.06.39-.07.22-.14.44-.19.67-.05.22-.12.44-.19.67-.11.26-.13.5-.06.72.07.22.06.44-.06.66,0,.78-.04,1.54-.11,2.27-.08.74-.13,1.48-.17,2.22,0,.96.17,1.94.5,2.94.15.33.39.5.72.5.07-.04.16-.09.25-.17.09-.07.19-.13.3-.17.11,0,.2.04.28.11.29.33.63.55,1,.67.59.15.76.44.5.89-.11.26-.16.54-.14.83.02.3,0,.59-.03.89-.07.81-.11,1.64-.11,2.47s.05,1.67.17,2.52c0,.41-.03.67-.08.8-.06.13-.29.34-.69.64h-.17c-.3-.04-.58-.07-.86-.11-.28-.04-.55-.07-.8-.11-.7.11-1.33.17-1.88.17-.26.04-.51.1-.75.19s-.51.12-.8.08c-.3-.07-.59-.07-.89,0-.3.07-.59.11-.89.11-.15-.07-.29-.13-.42-.17-.13-.04-.29-.09-.47-.17-.89.15-1.77.24-2.66.28s-1.79.07-2.72.11c-.19-.26-.37-.49-.55-.69-.19-.2-.35-.42-.5-.64-.08-.26-.21-.48-.42-.67-.2-.18-.4-.35-.58-.5-.04-.37-.11-.72-.22-1.05-.08-.29-.08-.59,0-.89.11-.18.15-.37.11-.55-.07-.33-.08-.67-.03-1.03.06-.35.12-.69.19-1.03v-.67c.3-.07.59-.14.89-.19.29-.05.59-.05.89.03.15-.07.28-.16.39-.25.11-.09.24-.19.39-.3.18.07.37.15.55.22.18.07.39.15.61.22.37-.22.79-.52,1.28-.89.07-.22.11-.39.11-.5v-1.25c0-.42.02-.84.06-1.25v-.17c-.15-.37-.2-.72-.17-1.05.04-.33.04-.68,0-1.05v-.72c.07-.85.1-1.69.08-2.52-.02-.83-.05-1.67-.08-2.52l.39-.72c-.04-.18-.07-.37-.11-.55-.04-.19-.08-.37-.11-.55.04-.18.08-.35.14-.5s.1-.31.14-.5c0-.15-.02-.26-.06-.33-.19-.44-.26-.85-.22-1.22v-.83c0-.15-.04-.27-.11-.36-.08-.09-.11-.21-.11-.36.04-.07.06-.24.06-.5-.04-.22-.07-.44-.11-.67s-.09-.44-.17-.67c-.19-.18-.39-.25-.61-.19-.22.06-.43.06-.61.03-.19-.07-.39-.11-.61-.11h-.72c-.26-.15-.55-.21-.86-.19-.31.02-.62-.03-.92-.14-.15-.18-.21-.41-.19-.67.02-.26-.03-.44-.14-.55-.07-.15-.07-.34,0-.58.07-.24.07-.45,0-.64.15-.18.17-.31.06-.39-.11-.07-.11-.22,0-.44.11-.18.17-.4.17-.64s.07-.43.22-.58c.07-.07.1-.19.08-.36-.02-.17,0-.32.03-.47.07-.07.24-.12.5-.14.26-.02.41-.06.44-.14.15-.18.32-.31.53-.39.2-.07.42-.17.64-.28.07,0,.17,0,.28-.03.11-.02.24-.03.39-.03h.94c.33,0,.65-.02.94-.06.29-.07.59-.14.89-.19.3-.06.61-.1.94-.14.33-.07.67-.06,1,.06.48.15,1.07.13,1.77-.06.15-.04.28-.07.39-.11.11-.04.2-.07.28-.11.26.04.49.07.69.11.2.04.38.06.53.06.11,0,.23-.02.36-.06.13-.04.23-.06.3-.06.37,0,.71,0,1.03.03.31.02.64.06.97.14.7.11,1.33.15,1.88.11.18-.04.34-.05.47-.03.13.02.21.03.25.03.26.04.45.12.58.25.13.13.23.23.3.31.59.59.72,1.2.39,1.83-.04.04-.06.17-.06.39.04.07.06.16.08.25.02.09.05.21.08.36Z"/>
    <path class="st0" d="M416.11,37.25c-.22.19-.48.28-.78.28h-.86c-.28,0-.51.06-.69.17l-.94-.17c-.15.04-.28.06-.39.08-.11.02-.26.05-.44.08-.11,0-.31-.04-.61-.11-.44-.07-.83-.06-1.16.06-.44.15-.94.2-1.5.17-.33-.07-.67-.06-1.03.03-.35.09-.67.18-.97.25-.15-.04-.29-.06-.42-.08-.13-.02-.23-.05-.31-.08-.22.04-.43.11-.64.22-.2.11-.42.24-.64.39-.11.15-.21.32-.31.53-.09.2-.21.4-.36.58-.04.44-.05.9-.05,1.36s-.02.9-.06,1.3c-.04.3-.14.53-.3.69-.17.17-.25.36-.25.58.11.3.31.46.61.5.22.07.46.12.72.14.26.02.52.05.78.08.29-.11.59-.22.89-.33.29-.11.57-.22.83-.33h1.05c.3,0,.59-.02.89-.06.11,0,.22,0,.33-.03.11-.02.22-.05.33-.08.52-.22,1.03-.33,1.55-.33s1.03.04,1.55.11c.37.11.61.39.72.83,0,.07,0,.16.03.25.02.09.05.19.08.3-.04.11-.07.24-.11.39-.04.15-.06.31-.06.5.04.59.03,1.18-.03,1.77-.06.59-.07,1.2-.03,1.83.04.26,0,.52-.08.78-.09.26-.19.48-.3.67l-.17.11c-.22.04-.42.03-.58-.03-.17-.06-.34-.08-.53-.08-.22,0-.41.05-.55.17s-.31.2-.5.28c-.26.04-.53.05-.8.05s-.56-.02-.86-.05c-.15-.07-.3-.07-.47,0s-.32.15-.47.22c-.33-.04-.66-.08-.97-.14-.31-.06-.62-.16-.92-.3h-.67c-.22,0-.46.02-.72.06-.48.04-.98.04-1.5,0-.41-.07-.78.04-1.11.33-.08.04-.15.14-.22.3s-.09.3-.05.42c.15.3.23.61.25.94.02.33.03.65.03.94.04.11.07.2.11.28.04.07.07.15.11.22-.04.07-.08.15-.14.22-.06.07-.1.15-.14.22-.15.37-.06.59.28.67.44.11.9.22,1.36.33.46.11.93.2,1.41.28.11-.04.24-.07.39-.11.15-.04.28-.06.39-.06.52,0,1.04-.05,1.58-.14.54-.09,1.06-.14,1.58-.14.11,0,.24,0,.39-.03.15-.02.3,0,.44.03.3.11.61.19.94.22.33.04.67.06,1,.06.22,0,.43,0,.64.03.2.02.42.05.64.08.3.08.44.22.44.44-.04.19-.1.38-.19.58-.09.2-.18.38-.25.53-.04.26,0,.46.11.61.11.15.18.3.22.44-.04.37-.08.72-.14,1.05-.06.33-.18.63-.36.89,0,.22.06.39.17.5s.18.24.22.39c-.07.07-.14.18-.19.3-.06.13-.12.27-.19.42.07.3.14.61.19.94.05.33-.03.65-.25.94-.11.04-.23.1-.36.19-.13.09-.27.12-.42.08-.37-.07-.73-.07-1.08,0s-.69.13-1.03.17c-.26.04-.5.11-.72.22-.22.11-.44.2-.67.28-.37.07-.74.13-1.11.17-.37.04-.76.09-1.16.17l-.78-.17c-.33.04-.72.09-1.16.17l-1.5-.33c-.15-.11-.29-.23-.42-.36-.13-.13-.29-.23-.47-.3-.04-.04-.1-.05-.19-.03-.09.02-.14.05-.14.08,0,.37-.2.61-.61.72-.19-.08-.39-.13-.61-.17-.22-.04-.42-.07-.61-.11-.19-.04-.39-.05-.61-.03-.22.02-.42.03-.61.03-.44,0-.88-.06-1.3-.17-.43-.11-.86-.35-1.3-.72-.04-.11-.09-.22-.17-.33s-.15-.24-.22-.39c-.15-.07-.29-.17-.42-.28-.13-.11-.27-.2-.42-.28l-.61-.33c-.15-.22-.22-.43-.22-.64s-.02-.4-.06-.58c-.04-.19-.06-.38-.08-.58s-.05-.42-.08-.64c.07-.44.12-.89.14-1.33s0-.91-.03-1.39c-.04-.41-.03-.82.03-1.25.06-.43.16-.84.3-1.25-.04-.15-.08-.28-.14-.39-.05-.11-.08-.24-.08-.39,0-.18.04-.37.11-.55.07-.19.07-.37,0-.55,0-.07.03-.13.08-.17s.1-.07.14-.11c.11-.26.07-.41-.11-.44-.37-.11-.55-.29-.55-.55.07-.22.09-.44.05-.67s-.05-.46-.05-.72c0-.18.02-.37.05-.55.04-.18.02-.37-.05-.55,0-.04,0-.09-.03-.17-.02-.07,0-.13.03-.17.18-.41.25-.79.19-1.16-.05-.37-.14-.74-.25-1.11.15-.33.24-.66.28-.97.04-.31.05-.64.05-.97v-1.5c.04-.11.06-.23.06-.36s.02-.23.06-.31c.29-.81.28-1.66-.06-2.55-.04-.07-.06-.18-.06-.33.07-.22.16-.43.25-.64.09-.2.16-.42.19-.64.07-.29.16-.61.25-.94.09-.33.16-.65.19-.94v-.39c-.04-.18-.05-.38-.03-.58.02-.2,0-.4-.03-.58-.04-.18-.05-.37-.03-.55.02-.18.03-.35.03-.5s0-.27-.03-.36c-.02-.09-.05-.19-.08-.31.07-.26.22-.46.44-.61.22-.15.35-.33.39-.55.44-.3.9-.49,1.36-.58.46-.09.9-.25,1.3-.47.41-.22.83-.35,1.28-.39.44-.04.87-.13,1.28-.28.26.07.51.15.75.22.24.07.49.15.75.22.15,0,.31,0,.47-.03.17-.02.32-.05.47-.08.26.04.5.09.72.17.22.07.46.09.72.06.41-.11.79-.11,1.17,0,.18,0,.35,0,.5.03.15.02.29.05.44.08.55-.41,1.14-.52,1.77-.33.3.11.59.15.89.11.29-.04.59,0,.89.11.3.07.58.1.86.08.28-.02.54-.03.8-.03.33-.07.67-.07,1,0,.3.07.62.13.97.17.35.04.67.06.97.06.18,0,.44.13.78.39.52,2.03.61,4.03.28,5.99Z"/>
  </g>
  <path class="st0" d="M59.02,28.91l5.86,8.46h-6.62l-5.86-8.46h-8.38l5.86,8.46h-6.62l-5.86-8.46h-8.38l5.86,8.46h-6.62l-5.86-8.46h-8.38l5.86,8.46h-6.62l-5.64-8.15,58.36-16.28-.66-2.35-.14-.5-.91-3.26c-.58-2.08-2.43-3.45-4.47-3.54l-3.18,9.19-6.38,1.78,3.29-9.5-8.07,2.25-3.29,9.5-6.38,1.78,3.29-9.5-8.07,2.25-3.29,9.5-6.38,1.78,3.29-9.5-8.07,2.25-3.29,9.5-6.38,1.78,3.29-9.5-2.72.76c-2.6.72-4.12,3.42-3.39,6.02l.91,3.26-.19.05.8,2.86.19-.05v43.77c0,2.7,2.19,4.88,4.88,4.88h52.73c2.7,0,4.88-2.19,4.88-4.88V28.91h-9.25ZM44.82,58.58l-12.42,7.41c-.09.05-.2.06-.29,0-.09-.05-.15-.15-.15-.26v-14.82c0-.11.06-.2.15-.26.09-.05.2-.05.29,0l12.42,7.41c.09.05.14.15.14.25s-.05.2-.14.25Z"/>
</svg>