<?xml version="1.0" encoding="UTF-8"?>
<svg id="_レイヤー_1" data-name="レイヤー_1" xmlns="http://www.w3.org/2000/svg" version="1.1" viewBox="0 0 300 170">
  <!-- Generator: Adobe Illustrator 30.3.0, SVG Export Plug-In . SVG Version: 2.1.3 Build 182)  -->
  <defs>
    <style>
      .st0 {
        fill: #121a1f;
      }

      .st1 {
        fill: #231815;
      }

      .st2 {
        fill: #fff;
      }

      .st3 {
        fill: #f6f0e1;
      }

      .st4 {
        fill: #1d171f;
      }

      .st5 {
        fill: #1f1114;
      }

      .st6 {
        fill: #131215;
      }

      .st7 {
        stroke: #000;
        stroke-miterlimit: 10;
      }

      .st8 {
        fill: #f8f7f7;
      }
    </style>
  </defs>
  <g>
    <path class="st7" d="M54.74,154.67c.5.29.63.7.38,1.24-.32.47-.74.6-1.26.38-1.78-1.01-3.37-2.25-4.77-3.74.02.77-.02,1.56-.1,2.35v.63c-.1.57-.44.87-1.01.88-.52-.12-.77-.45-.76-1.01v-.63c.07-2.29.15-4.58.25-6.87.05-2.31-.03-4.61-.25-6.92-.02-.56.24-.89.76-1.01.56-.02.89.24,1.01.76.22,2.39.34,4.78.35,7.17-.02.67-.06,1.34-.13,1.99,1.48-1.16,2.82-2.46,4.01-3.89.44-.35.91-.4,1.41-.13.35.47.35.93,0,1.39-1.3,1.43-2.68,2.77-4.17,4.01,1.25,1.33,2.67,2.46,4.27,3.38Z"/>
    <path class="st7" d="M61.16,144.77c-.17.86-.67,1.31-1.51,1.36-.86-.07-1.3-.52-1.34-1.36,0-.87.45-1.35,1.34-1.44.88.07,1.38.55,1.51,1.44ZM58.66,149.04c.05-.59.38-.91.98-.96.56.05.87.37.93.96v6.61c-.05.61-.36.92-.93.93-.61-.02-.93-.33-.98-.93v-6.61Z"/>
    <path class="st7" d="M64.11,151.56c0-2.31,1.05-3.74,3.16-4.29,1.48-.34,2.83-.05,4.04.86.03-2.32.14-4.64.33-6.97.12-.52.45-.77.98-.76.49.05.73.34.73.86-.2,2.41-.29,4.81-.25,7.22.13,2.09.22,4.17.25,6.24v.73c0,.54-.24.87-.73.98-.57,0-.9-.29-.98-.86v-.61c-1.56,1.21-3.3,1.5-5.2.86-1.7-.84-2.47-2.26-2.32-4.27ZM67.04,154.11c1.68.49,3.15.08,4.39-1.24.03-.03.08-.06.13-.08-.05-.57-.09-1.15-.13-1.74v-.13c-.89-1.46-2.16-2.11-3.81-1.94-1.2.34-1.8,1.2-1.82,2.58-.08,1.14.33,1.99,1.24,2.55Z"/>
    <path class="st7" d="M77.26,146.61c.98-.69,2.04-1,3.21-.93.91-.05,1.69.21,2.35.78.74.69,1.02,1.52.83,2.5-.02.62-.33.93-.93.93-.57-.05-.88-.36-.93-.93-.02-.4-.1-.8-.25-1.19-.4-.18-.8-.28-1.19-.28-.62-.02-1.14.16-1.56.53-.19.15-.28.33-.28.53.1.49.37.86.81,1.12.44.26.87.5,1.29.72.74.37,1.44.82,2.11,1.35.66.53,1.03,1.22,1.1,2.06-.02.79-.29,1.48-.83,2.07-.93.74-1.99,1.05-3.18.93-2.17-.03-3.31-1.04-3.41-3,.02-.55.3-.86.86-.91.61.05.93.35.96.91-.03.46.15.77.54.93.4.17.79.24,1.2.23.62.07,1.14-.1,1.57-.5.2-.13.29-.31.28-.53-.12-.46-.4-.82-.83-1.09-.44-.27-.86-.51-1.26-.73-.74-.37-1.44-.83-2.08-1.36-.65-.54-1.02-1.23-1.12-2.07,0-.79.26-1.48.78-2.07Z"/>
    <path class="st7" d="M104.42,146.03c1.36-.15,2.62.16,3.76.93.42.39.51.84.28,1.36-.37.49-.82.57-1.34.25h-.15c-.67-.61-1.48-.82-2.42-.66-1.88.4-2.92,1.57-3.1,3.51.22,1.94,1.3,3.05,3.23,3.36,1.03-.05,1.93-.41,2.7-1.09.44-.4.88-.4,1.34,0,.42.45.42.91,0,1.36-1.11,1.06-2.46,1.6-4.04,1.62-1.4-.05-2.59-.57-3.57-1.55-.98-.99-1.49-2.18-1.53-3.57,0-1.4.45-2.63,1.35-3.71.9-1.08,2.07-1.68,3.5-1.82Z"/>
    <path class="st7" d="M111.89,145.88c0-.59.29-.92.86-.98.54.07.82.4.86.98v1.87c.22-.13.43-.27.63-.4,1.83-.54,3.18.08,4.04,1.87l.1.1c.27.54.19.99-.25,1.36-.49.27-.91.19-1.26-.25l-.1-.13c-.4-.89-1.03-1.25-1.87-1.08-.49.32-.79.76-.9,1.33-.11.56-.18,1.12-.21,1.67-.03.55-.04,1.1-.03,1.65v1.62c-.1.57-.44.87-1.01.91-.57-.05-.86-.35-.86-.91v-9.59Z"/>
    <path class="st7" d="M125.78,145.93c1.23-.1,2.31.25,3.26,1.06.96,1.08,1.46,2.34,1.49,3.79-.07.54-.36.82-.88.83h-6.89c.44,1.77,1.56,2.76,3.38,2.98.88.07,1.73-.08,2.55-.45.52-.2.92-.05,1.19.45.15.52,0,.89-.45,1.11-1.11.56-2.29.78-3.53.68-1.33-.15-2.46-.71-3.38-1.67-.93-.96-1.4-2.11-1.41-3.46,0-1.36.43-2.57,1.3-3.62.87-1.05,2-1.62,3.4-1.7ZM125.88,147.62c-1.35.19-2.27.91-2.78,2.17h5.43c-.1-.54-.34-1.02-.71-1.44-.56-.49-1.2-.73-1.94-.73Z"/>
    <path class="st7" d="M143.25,154.62c.5.3.69.71.56,1.21-.32.46-.74.61-1.26.46-.86-.39-1.55-.9-2.07-1.54.05.07.03.16-.05.28-.96.84-2.1,1.26-3.41,1.26-.91.02-1.73-.28-2.45-.88-.71-.62-1.09-1.42-1.16-2.4.2-2.09,1.36-3.25,3.48-3.48,1.14-.02,2.06.3,2.75.96v-.2c.13-.88-.03-1.68-.5-2.42-.56-.35-1.19-.52-1.89-.5-.89,0-1.62.32-2.17.96l-.23.35c-.42.34-.85.37-1.29.1-.2-.4-.25-.85-.15-1.34l.25-.2c.89-1.13,2.05-1.66,3.48-1.59,1.26-.12,2.37.24,3.33,1.06.79,1.13,1.14,2.39,1.04,3.79-.05.56-.07,1.11-.06,1.67,0,.56.18,1.06.5,1.51.33.46.76.77,1.3.96ZM136.89,154.49c.49-.02.96-.11,1.43-.29s.76-.5.9-.97c-.13-.49-.39-.93-.76-1.33s-.85-.58-1.44-.57c-1.01.15-1.57.71-1.69,1.67.05.42.24.78.56,1.09.25.27.59.4,1.01.4Z"/>
    <path class="st7" d="M153.4,146.82c.57.03.88.35.93.93-.05.57-.36.88-.93.93h-2.1v7.02c-.03.56-.34.86-.91.91-.62.05-.97-.25-1.04-.91v-7.02h-2.2c-.57-.05-.88-.36-.91-.93.03-.59.34-.9.91-.93h2.2v-3.05c.07-.62.41-.96,1.04-1.01.57.07.87.4.91,1.01v3.05h2.1Z"/>
    <path class="st7" d="M160.36,144.77c-.17.86-.67,1.31-1.51,1.36-.86-.07-1.3-.52-1.34-1.36,0-.87.45-1.35,1.34-1.44.88.07,1.38.55,1.51,1.44ZM157.86,149.04c.05-.59.38-.91.98-.96.56.05.87.37.93.96v6.61c-.05.61-.36.92-.93.93-.61-.02-.93-.33-.98-.93v-6.61Z"/>
    <path class="st7" d="M163.97,146.61c.54-.15.96-.02,1.26.4.98,2.04,1.91,4.06,2.8,6.08.82-1.97,1.7-3.96,2.63-5.96.32-.39.74-.52,1.26-.4.52.32.65.76.38,1.31l-3.51,7.65c-.22.34-.51.51-.88.53-.37-.07-.64-.24-.81-.53l-3.51-7.77c-.1-.52.03-.96.38-1.31Z"/>
    <path class="st7" d="M179.77,145.93c1.23-.1,2.31.25,3.26,1.06.96,1.08,1.46,2.34,1.49,3.79-.07.54-.36.82-.88.83h-6.89c.44,1.77,1.56,2.76,3.38,2.98.88.07,1.73-.08,2.55-.45.52-.2.92-.05,1.19.45.15.52,0,.89-.45,1.11-1.11.56-2.29.78-3.53.68-1.33-.15-2.46-.71-3.38-1.67-.93-.96-1.4-2.11-1.41-3.46,0-1.36.43-2.57,1.3-3.62.87-1.05,2-1.62,3.4-1.7ZM179.88,147.62c-1.35.19-2.27.91-2.78,2.17h5.43c-.1-.54-.34-1.02-.71-1.44-.56-.49-1.2-.73-1.94-.73Z"/>
    <path class="st7" d="M201.21,146.61c.98-.69,2.04-1,3.21-.93.91-.05,1.69.21,2.35.78.74.69,1.02,1.52.83,2.5-.02.62-.33.93-.93.93-.57-.05-.88-.36-.93-.93-.02-.4-.1-.8-.25-1.19-.4-.18-.8-.28-1.19-.28-.62-.02-1.14.16-1.56.53-.19.15-.28.33-.28.53.1.49.37.86.81,1.12.44.26.87.5,1.29.72.74.37,1.44.82,2.11,1.35.66.53,1.03,1.22,1.1,2.06-.02.79-.29,1.48-.83,2.07-.93.74-1.99,1.05-3.18.93-2.17-.03-3.31-1.04-3.41-3,.02-.55.3-.86.86-.91.61.05.93.35.96.91-.03.46.15.77.54.93.4.17.79.24,1.2.23.62.07,1.14-.1,1.57-.5.2-.13.29-.31.28-.53-.12-.46-.4-.82-.83-1.09-.44-.27-.86-.51-1.26-.73-.74-.37-1.44-.83-2.08-1.36-.65-.54-1.02-1.23-1.12-2.07,0-.79.26-1.48.78-2.07Z"/>
    <path class="st7" d="M215.44,146.03c1.36-.15,2.62.16,3.76.93.42.39.51.84.28,1.36-.37.49-.82.57-1.34.25h-.15c-.67-.61-1.48-.82-2.42-.66-1.88.4-2.92,1.57-3.1,3.51.22,1.94,1.3,3.05,3.23,3.36,1.03-.05,1.93-.41,2.7-1.09.44-.4.88-.4,1.34,0,.42.45.42.91,0,1.36-1.11,1.06-2.46,1.6-4.04,1.62-1.4-.05-2.59-.57-3.57-1.55-.98-.99-1.49-2.18-1.53-3.57,0-1.4.45-2.63,1.35-3.71.9-1.08,2.07-1.68,3.5-1.82Z"/>
    <path class="st7" d="M222.79,140.58c0-.54.28-.84.83-.91.56.07.85.37.88.91v7.4c.52-1.01,1.34-1.53,2.45-1.56.96.03,1.78.42,2.47,1.16.81,1.16,1.33,2.44,1.57,3.82.24,1.39.34,2.78.3,4.18-.15.61-.48.92-.98.93-.56-.05-.87-.36-.93-.93,0-1.14-.06-2.3-.19-3.47-.13-1.17-.5-2.24-1.12-3.22-.3-.35-.67-.53-1.11-.53-.54.12-.95.46-1.24,1.04-.29.57-.5,1.14-.66,1.72-.35,1.46-.54,2.95-.56,4.47-.03.61-.33.96-.88,1.06-.56-.08-.83-.44-.83-1.06v-15Z"/>
    <path class="st7" d="M234.43,151.36c-.02-1.31.39-2.48,1.21-3.5s1.93-1.55,3.31-1.6c1.35.07,2.44.61,3.28,1.63.84,1.02,1.25,2.17,1.24,3.47,0,1.28-.42,2.42-1.26,3.42-.84,1-1.93,1.54-3.26,1.63-1.36-.05-2.46-.58-3.29-1.59s-1.24-2.16-1.22-3.46ZM236.27,151.36c-.02.81.21,1.54.69,2.2.48.66,1.14,1,1.98,1.04.81-.07,1.43-.43,1.88-1.09.45-.66.67-1.37.67-2.15s-.22-1.49-.67-2.15c-.45-.66-1.07-1.03-1.88-1.11-.82.05-1.48.4-1.97,1.06s-.72,1.39-.71,2.2Z"/>
    <path class="st7" d="M246.34,151.36c-.02-1.31.39-2.48,1.21-3.5s1.93-1.55,3.31-1.6c1.35.07,2.44.61,3.28,1.63.84,1.02,1.25,2.17,1.24,3.47,0,1.28-.42,2.42-1.26,3.42-.84,1-1.93,1.54-3.26,1.63-1.36-.05-2.46-.58-3.29-1.59s-1.24-2.16-1.22-3.46ZM248.18,151.36c-.02.81.21,1.54.69,2.2.48.66,1.14,1,1.98,1.04.81-.07,1.43-.43,1.88-1.09.45-.66.67-1.37.67-2.15s-.22-1.49-.67-2.15c-.45-.66-1.07-1.03-1.88-1.11-.82.05-1.48.4-1.97,1.06s-.72,1.39-.71,2.2Z"/>
    <path class="st7" d="M258.91,141.26c0-.54.29-.85.88-.93.57.08.9.4.98.93v14.49c-.08.5-.41.82-.98.93-.59-.05-.88-.33-.88-.83v-14.59Z"/>
  </g>
  <g>
    <g>
      <path class="st2" d="M39.15,126.5c-1.69,0-3.26-.78-4.41-2.18-1.74-2.12-2.32-5.41-1.59-9.03l.51-2.53-2.54-.43c-8.15-1.38-15.21-6.18-19.36-13.19-8.43-14.22.18-36.28,6.47-52.38.47-1.21.93-2.38,1.36-3.51l.36-.95-.4-.93c-1.48-3.47-2.32-8.91-.68-12.68.76-1.74,1.94-2.88,3.62-3.5,1.02-.37,2.02-.55,3.04-.55,2.29,0,4.69.93,7.33,2.84l1.3.94,1.4-.79c6.76-3.82,17.91-6.09,29.83-6.09s21.32,2.07,27.4,5.69l.52.31.68.04h.09c.75,0,1.34-.28,2.52-.83,1.42-.68,3.81-1.81,5.8-1.98h.48s.5,0,.67,0c2.94,0,5,.75,6.3,2.3,2.94,3.5,1.67,10.68,1.13,13.74-.23,1.3-.34,1.95-.27,2.57l.04.35.13.32c5.93,14.28,16.96,40.85,7.85,55.2-4.04,6.37-11.93,11.99-19.17,13.65l-2.18.5.25,2.22c.43,3.79-.27,6.93-1.98,8.84-1.1,1.23-2.58,1.91-4.18,1.91-2.14,0-4.89-1.3-6.18-4.96l-.47-1.34-2.47-.49-.58.17c-4.72,1.37-9.84,2.04-15.68,2.04-5.03,0-10.5-.49-17.22-1.55l-1.64-.26-.87,1.41c-2,3.23-4.64,5.08-7.25,5.08Z"/>
      <path d="M65.41,24.05h0c10.73,0,20.5,2,26.12,5.34l1.03.61,1.2.08h.18s.16.01.16.01c1.32,0,2.27-.45,3.59-1.08,1.24-.59,3.28-1.56,4.82-1.73.12,0,.24,0,.36,0,.08,0,.16,0,.25,0,.16,0,.31,0,.46,0,3.2,0,4.09,1.06,4.39,1.41,2.19,2.6,1.02,9.21.59,11.7-.25,1.44-.41,2.31-.29,3.3l.08.69.27.64c5.75,13.86,16.46,39.65,8.05,52.9-3.72,5.86-10.97,11.02-17.62,12.55l-4.35,1,.51,4.44c.35,3.07-.13,5.52-1.36,6.89-.79.89-1.7,1.08-2.31,1.08-1.29,0-2.97-.86-3.82-3.29l-.94-2.68-2.79-.56-.47-.09-1.2-.24-1.18.34c-4.49,1.3-9.39,1.94-14.98,1.94-4.9,0-10.24-.48-16.83-1.52l-3.28-.52-1.75,2.83c-1.53,2.48-3.4,3.9-5.12,3.9-1.19,0-2-.69-2.48-1.27-1.26-1.54-1.65-4.07-1.07-6.95l1.01-5.05-5.08-.86c-7.43-1.26-13.85-5.63-17.63-12-7.81-13.17.89-35.45,6.65-50.19.47-1.21.93-2.39,1.37-3.52l.73-1.89-.79-1.86c-1.28-3.01-1.96-7.79-.69-10.71.48-1.11,1.15-1.77,2.19-2.14.74-.27,1.46-.4,2.19-.4,1.75,0,3.66.77,5.86,2.37l2.6,1.88,2.79-1.58c6.31-3.56,17.27-5.77,28.61-5.77M65.41,19.05c-11.74,0-23.64,2.23-31.06,6.42-2.72-1.97-5.65-3.32-8.8-3.32-1.27,0-2.57.22-3.9.7-7.61,2.77-6.99,13.4-4.39,19.51C11.01,58.6-.12,84.02,9.61,100.42c4.55,7.67,12.32,12.89,21.1,14.38-1.71,8.54,2.94,14.2,8.45,14.2,3.2,0,6.68-1.91,9.38-6.27,5.76.91,11.7,1.58,17.6,1.58,5.54,0,11.06-.59,16.37-2.14q.23.05.47.09c1.55,4.4,5.07,6.63,8.54,6.63,4.89,0,9.67-4.45,8.64-13.53,8-1.84,16.33-7.83,20.72-14.75,9.79-15.43-1.24-42.05-7.65-57.5-.2-1.7,5.95-20.83-9.65-20.83-.2,0-.41,0-.62,0-.03,0-.06,0-.09,0-.15,0-.3,0-.45,0-.07,0-.14,0-.21,0-3.56.3-7.5,2.8-8.11,2.8,0,0,0,0-.01,0-6.9-4.1-17.72-6.04-28.68-6.04h0Z"/>
    </g>
    <g>
      <path class="st0" d="M60.46,82.48c1.35-.02.76,1.06,2.08,2.23,6.96,6.2,12.6-2.11,13.43-2.23,3.29-.47,2.74,5.33-4.99,6.59-10.92,1.78-15.69-6.53-10.53-6.59Z"/>
      <path class="st6" d="M67.38,79.57c4.05-.59,4.55,4.23,0,3.49-2.28-.37-2.24-3.16,0-3.49Z"/>
    </g>
    <g>
      <path class="st5" d="M48.07,78.86c-.42.24-1.26.66-1.68.75-1.93.41-3.39.15-5.04-.93-.55-.36-1.33-1.12-1.68-1.68-1.1-1.74-1.26-3.24-.93-5.23.17-1.01.57-1.93,1.12-2.8,2.49-3.92,8.1-3.99,10.64-.47,2.5,3.47,1.24,8.29-2.43,10.36Z"/>
      <path class="st8" d="M43.86,69.9c2.57,0,2.25,4.87-.56,4.29-2.1-.43-1.6-4.29.56-4.29Z"/>
    </g>
    <g>
      <path class="st4" d="M87.83,65.98c4.85-.29,7.97,4.91,6.53,9.33-.01.03-.11.09-.37.56-1.64,2.95-2.94,3.12-5.79,3.92-8.24-.24-8.07-13.36-.37-13.82Z"/>
      <path class="st3" d="M94.36,75.31c1.44-4.42-1.69-9.62-6.53-9.33,5.8-1.44,8.62,4.15,6.53,9.33Z"/>
      <path class="st8" d="M86.62,69.9c2.57-.33,2.5,3.81.56,4.11-2.55.39-2.8-3.82-.56-4.11Z"/>
    </g>
  </g>
  <g>
    <g>
      <path class="st1" d="M274.34,89.45c.87-.46,14.51-15.2,15.05-15.78.54-.57.32-6.86-.54-6.74-.87.11-20.03,1.94-21.65,2.29,0,0-.32.91.22,1.6.54.69,1.3,4.92,1.84,4.92s11.37-2.4,12.02-2.63,1.19-.23.87.46c-.32.69-10.93,13.26-11.37,13.6-.43.34,2.71,2.74,3.57,2.29Z"/>
      <g>
        <path class="st1" d="M231.23,67.6l18.72-.94.52-4.72s-18.31.3-19.24.3v5.37Z"/>
        <polygon class="st1" points="235.88 87.51 240.85 87.81 244.45 76.11 252.95 75.61 254.19 69.96 227.71 70.91 227.51 77.1 240.03 76.37 235.88 87.51"/>
      </g>
      <g>
        <path class="st1" d="M285.59,64.87h2.12s1.95-6.11,1.95-6.11l-3.07.31c-.3,1.05-.99,5.8-.99,5.8Z"/>
        <polygon class="st1" points="294.78 58.92 291.58 59.05 289.87 64.59 292.56 64.85 294.78 58.92"/>
      </g>
      <path class="st1" d="M206.37,81.19c-.14-.15-.34-.23-.54-.21l-8.45.71c-.06,0-.12-.02-.17-.06-.05-.04-.07-.1-.08-.17l-.34-7.67c0-.13.09-.24.21-.25l7.2-.59c.33-.03.59-.29.63-.63l.42-4.14c.02-.21-.05-.41-.19-.57-.14-.15-.34-.23-.54-.22l-20.12,1.35c-.36.02-.64.33-.64.71v4.42c0,.2.08.39.22.52.14.13.33.2.52.19l7.39-.61c.06,0,.12.02.17.06.05.04.07.1.07.17l.16,7.7c0,.12-.09.23-.21.24l-8.72.74c-.37.03-.65.36-.63.74l.21,4.43c0,.19.09.37.23.5.13.12.29.18.45.18.02,0,.03,0,.05,0l21.8-1.63c.33-.02.6-.29.63-.64l.43-4.69c.02-.21-.05-.42-.19-.56Z"/>
      <path class="st1" d="M222.09,72.85c-.65.07-11.16,7.65-12.02,8.77-.29.37,1.38,3,1.96,2.77.24-.09,2.45-1.51,4.95-3.15-.09,2.11-.26,7.37-.32,7.87-.07.6,2.75-.22,2.9-.6.13-.33.09-6.87.17-9.1,2.55-1.7,4.77-3.23,4.9-3.42.29-.45-1.88-3.22-2.54-3.15Z"/>
      <path class="st1" d="M263.39,72.85c-.65.07-11.16,7.65-12.02,8.77-.29.37,1.38,3,1.96,2.77.24-.09,2.45-1.51,4.95-3.15-.09,2.11-.26,7.37-.32,7.87-.07.6,2.75-.22,2.9-.6.13-.33.09-6.87.17-9.1,2.55-1.7,4.77-3.23,4.9-3.42.29-.45-1.88-3.22-2.54-3.15Z"/>
      <g>
        <path class="st1" d="M164.52,80.61c.43-.54,2.44-10.95,2.9-15.27.08-.76-.44-1.41-1.1-1.41l-4.2.05c-.57,0-1.06.5-1.13,1.14-.44,3.68-1.82,15.1-1.97,15.58-.18.57,5.02.51,5.51-.1Z"/>
        <path class="st1" d="M174.72,64.23c-.31.01-.58.31-.63.7-.72,5.87-3.11,23.26-2.97,25.07.14,1.88,4.38,1.29,4.58.64.99-3.18,3.61-18.04,4.81-25.04.35-2.06-4.04-1.44-5.79-1.37Z"/>
      </g>
      <path class="st1" d="M143.28,89.29c0,.47,5.39.28,5.39,0s2.19-6.62,3.65-10.78c1.46-4.16,5.66-12.95,4.93-13.24-.73-.28-19.73,0-20.46.09s-3.93,10.5-4.02,11.35c0,0,5,.39,5.45.11.46-.28,1.92-5.57,2.28-6.14.37-.57,6.51-.3,7.79-.21,1.28.09,1.28.28.91,1.23-1.28,2.46-5.94,17.11-5.94,17.59Z"/>
    </g>
    <g>
      <g>
        <path class="st1" d="M256.45,100.68c.06-.46-.31-.85-.75-.81l-4.32.38c-.33.03-.59.29-.63.62-.46,3.63-3.14,17.4-3.73,21.03-.33,2.02,5.1.67,5.1.67,2.49-8.66,3.94-18.87,4.33-21.89Z"/>
        <path class="st1" d="M270.85,112.45c-.59.67-4.87,3.88-5.46,2.7-.59-1.18,1.33-12.15,1.03-12.66s-4.42-.67-4.28.51c-.59,4.89-2.21,17.04-1.33,18.56.88,1.52,7.52-1.35,11.35-4.89,0,0-.74-4.89-1.33-4.22Z"/>
      </g>
      <path class="st1" d="M238.52,108.85s-17.32.04-18.46.33v6.24c.65.29,18.46-.51,18.46-.51v-6.07Z"/>
      <path class="st1" d="M199.43,125c0,.5,5.89.3,5.89,0s2.4-6.99,3.99-11.38c1.6-4.39,6.19-13.68,5.39-13.98-.8-.3-21.56,0-22.36.1s-4.29,11.08-4.39,11.98c0,0,4.29.3,4.79,0,.5-.3,1.81-5.69,2.21-6.29.4-.6,8.57-.4,9.97-.3,1.4.1,1.4.3,1,1.3-1.4,2.6-6.49,18.07-6.49,18.57Z"/>
      <path class="st1" d="M171.95,106.54l-13.41,15.98,4.28,2.15s2.85-3.59,6.25-7.89l6.71,6.93,2.84-3.83s-4.81-4.37-7.09-6.22c4.34-5.51,8.71-11.08,8.85-11.41.28-.66.78-1.53-.56-1.92s-22.68-.45-25.1-.05c0,0,.03,7.88-.09,8.8s17.31-2.52,17.31-2.52Z"/>
    </g>
    <g>
      <g>
        <path class="st1" d="M239.44,34.27l-10.04,12.84,4.98,3.33,6.15-8.32,7.71,5.57,3-4.72-6.95-5.93,7.53-10.18,4.95.89,1.9-7.87-5.28-.96-1.74,6.21c-5.7-.8-25.95,1.38-25.95,1.38l.61,9.39,13.12-1.64Z"/>
        <polygon class="st1" points="266.22 21.45 261.53 20.55 259.07 28.05 263.21 28.57 266.22 21.45"/>
      </g>
      <g>
        <path class="st1" d="M209.61,43.96l2.49-1.3c.23-.12.35-.38.29-.63l-1.02-4.28c-.08-.32-.41-.51-.72-.4l-3,1c-.29.1-.45.42-.35.71l1.53,4.58c.11.33.49.48.79.32Z"/>
        <path class="st1" d="M205.78,44.53l-1.76-4.35c-.13-.32-.51-.45-.81-.27l-2.52,1.48c-.24.14-.34.44-.24.7l1.65,4c.12.29.45.43.74.3l2.64-1.13c.28-.12.41-.44.3-.73Z"/>
        <path class="st1" d="M222.41,40.85l-3.14-2.58c-.24-.2-.59-.16-.79.08-1.71,2.07-9.07,10.98-10.75,13.39-.2.29-.09.68.23.83l2.66,1.21c.22.1.48.05.64-.13l11.2-11.97c.22-.24.2-.61-.05-.82Z"/>
      </g>
      <path class="st1" d="M182.92,54.33l5.24-1.25-3.07-14.1,8.44-2.91-1.44-5.2s-3.7,1.19-8.2,2.62l-1.43-5.61,11.05-3.39-1.87-7.54-10.45,2.85-1.71-6.5-6.15,1.59,1.46,6.83-13.36,3.83,2.41,8.14,12.79-3.86,1.66,5.43c-5.29,1.68-10.15,3.22-10.4,3.26l1.91,5.71,9.85-3.39,3.28,13.48Z"/>
    </g>
  </g>
</svg>