<?xml version="1.0" encoding="UTF-8"?>
<svg id="_レイヤー_2" data-name="レイヤー 2" xmlns="http://www.w3.org/2000/svg" viewBox="0 0 266.92 112">
  <defs>
    <style>
      .cls-1 {
        fill: #181617;
      }
    </style>
  </defs>
  <g id="_レイヤー_1-2" data-name="レイヤー 1">
    <g>
      <g>
        <path class="cls-1" d="M127.62,80.42c1.54-2,2.51-4.48,2.57-7.04.14-3.71-.37-7.4-.37-11.11-.52-13.16-3.75-25.99-6.53-38.81-.79-3.71-1.88-7.97-5.41-9.98-3.06-1.41-6.57-1.14-9.86-1.17-.16-4-.41-8.18-2.24-11.82-1.13-.72-2.61-.42-3.88-.47-4.88.37-9.77.8-14.65,1.21-3.85.56-8.07,1.31-10.98,4.12-1.14,1-.31,2.58-.2,3.82-2.68-1.42-5.49-2.58-8.31-3.68-2.57-1-5.41-.62-8.01.03-6.67,1.71-13.07,4.22-19.47,6.68-2.07.69-3.27,2.67-3.92,4.64-.92,2.75-2.61,5.13-4.08,7.61-2.17.37-4.34.8-6.53,1.07-5.1.69-9.89,2.79-14.37,5.25-1,.62-2.2,1.17-2.74,2.3.08,1.54.45,3.05.63,4.6-1.64,1.02-3.5,1.9-4.51,3.61-.97,1.68-1.66,3.51-2.24,5.36-3.19,11.45-3.26,23.65-.76,35.24,1.04,4.5,1.73,9.07,2.83,13.54,1.06,4.3,2.27,8.97,5.82,11.92,2.83,1.99,6.33,2.59,9.66,3.27,4.71.42,9.39,1.69,14.14,1.33,5.33-1.03,10.52-2.65,15.69-4.26,5.92-1.62,11.9-3.06,17.77-4.91,1.71-.56,3.6-.89,4.99-2.16,4.1,1.27,7.78,3.85,12.14,4.33,1.85.07,3.71-.42,5.56-.08,6.04.99,12.32-.61,17.47-3.85,6.2-3.88,10.67-10.01,13.51-16.68,2.26-.97,4.54-2.09,6.26-3.91ZM126.6,76.31c-.68,1.71-2.35,2.61-3.74,3.67.82-3.51,1.24-7.11,1.3-10.7,1.04-.42,2.1-.85,3.14-1.3.2,2.78.52,5.74-.71,8.33ZM107.82,13.46c3.72,1.1,8.69.99,10.79,4.88,1.76,3.36,2.06,7.23,3.07,10.84-3.12,1.18-6.09,2.74-9.34,3.54-5.22,1.33-10.35,2.98-15.24,5.2-3.91-1.71-8.11-2.65-12.31-3.24-4.16-.55-8.31.59-12.27,1.75-6.67,2.14-11.97,7.22-16.02,12.76-5.51,1.75-10.84,4.05-16.37,5.77-7.06,2.55-14.02,5.41-21.21,7.63.61-4.16,1.41-8.33,3-12.24.49-1.37,1.52-2.55,2.95-2.99,2.98-1.03,5.81-2.48,8.94-2.99,3.72-.73,7.83-.93,10.89-3.47,2.79-2.04,3.68-5.54,5.15-8.5,1.16-2.3,2.37-4.64,3.91-6.71.92-1.26,1.97-2.4,3.2-3.37,3.55-2.93,8.22-3.78,12.54-5.06,4.29-1.06,8.49-2.72,12.96-2.83,1.73,3.64,4.68,7.19,8.83,7.95,5.51.99,10.79-1.31,16.1-2.31,2.45-.45,4.77-1.47,6.94-2.68-4.96-.89-9.77.92-14.54,1.99,3.2-1.02,6.9-2.38,8.04-5.91ZM53.81,75.14c-1.33-5.22-.55-10.66.51-15.85,1.59-7.09,6.26-13.26,12.37-17.12,3.03-2.19,6.7-3.24,10.38-3.68-3.58,1.49-7.16,3.38-9.63,6.49-3.09,3.84-5.15,8.39-6.64,13.06-1.4,4.32-2.71,8.74-2.68,13.31-.17,8.07,1.82,16.46,6.99,22.79-3.33-1.57-5.82-4.39-7.74-7.46-1.97-3.54-2.57-7.64-3.55-11.53ZM59.65,70.11c1.4.54,2.9.89,4.39.42-.16,1.93-.27,3.88-.32,5.82-1.28-.16-2.57-.21-3.84-.18-.16-2.03-.21-4.05-.23-6.06ZM60.25,79.15c1.09.03,2.17-.01,3.26-.16.08,1.78.35,3.53.69,5.26-.8.08-1.61.17-2.38.27-.63-1.76-1.16-3.55-1.57-5.37ZM59.87,67.91c.32-1.75.72-3.48,1.17-5.2,1.37.45,2.74.89,4.15,1.26-.37,1.61-.69,3.22-.97,4.84-1.38-.58-2.86-.82-4.34-.89ZM61.65,60.65c.68-1.96,1.38-3.92,2.1-5.87,1.33.44,2.67.85,4.03,1.24-.71,1.68-1.34,3.38-1.88,5.13-1.41-.25-2.83-.39-4.26-.51ZM64.54,52.93c.89-1.59,1.8-3.17,2.75-4.72,1.23.35,2.47.71,3.72,1.04-.75,1.45-1.45,2.92-2.14,4.4-1.42-.35-2.88-.54-4.33-.72ZM68.38,46.7c1.27-1.33,2.62-2.57,4.1-3.67,1.07.35,2.16.68,3.26.99-1.28.94-2.52,1.96-3.64,3.09-1.24-.2-2.48-.32-3.72-.41ZM74.64,41.72c3.64-1.73,7.49-3.12,11.51-3.6-3.06,1.35-6.22,2.57-8.84,4.72-.89-.38-1.79-.76-2.67-1.13ZM93.03,15.89c.07-3.07-1.66-5.73-3.12-8.29,1.33-.2,2.67-.41,4-.63,1,3.47,1.65,7.05,3.12,10.36-2.99.45-6.04.38-8.98,1.07-.41-3.51-.66-7.06-2-10.36,1.1-.1,2.19-.23,3.3-.34.86,2.38,1.82,4.74,2.31,7.23.23.78.18,1.71.76,2.34.56-.25.78-.72.61-1.38ZM95.03,6.7c1.09-.3,2.19-.61,3.27-.9,1.71,3.14,1.79,6.9,3.65,9.97-1.31.52-2.64,1-3.96,1.44-.1-3.71-1.59-7.12-2.96-10.51ZM87.15,17.86c-1.97-1.76-2.68-4.72-5.32-5.74.01-1.28-.01-2.57-.08-3.84,1.24-.03,2.48-.1,3.74-.17.68,3.23.86,6.54,1.66,9.74ZM104.5,2.75c.87,2.95.99,6.05.92,9.1,0,1.92-1.89,2.81-3.26,3.72-.55-3.47-.87-7.16-3.2-10,2-.58,4.19-1.11,5.54-2.82ZM90.8,2.87c3.85-.32,7.67-1.03,11.55-1.13-3.27,2.19-7.21,3.12-10.96,4.09-4.63,1-9.34,1.68-14.07,1.38,3.85-2.96,8.76-3.91,13.48-4.34ZM77.18,7.87c1.1.11,2.21.23,3.33.34.04,1.14.1,2.28.18,3.44-1.17-.65-2.34-1.28-3.51-1.92v-1.86ZM37.88,27.41c-2.72,3.05-6.97,3.82-10.66,5.13-5.41,1.24-11.22,3.3-16.71,1.24,7.83-5.41,17.87-9.07,27.37-6.37ZM39.09,29.46c-.21,2.03-.39,4.16-1.83,5.75-.03-1.27-.1-2.51-.21-3.77.68-.66,1.35-1.33,2.04-1.99ZM36,36.07c-.44.18-.86.37-1.28.55-.11-1.26-.28-2.51-.47-3.75.48-.25.99-.52,1.48-.78.06,1.33.16,2.65.27,3.98ZM33.32,37.21l-3.51,1.4c-.06-1.34-.13-2.68-.24-4.02.9-.31,1.82-.61,2.72-.93.31,1.2.65,2.38,1.03,3.55ZM29.17,38.69c-1.2.24-2.4.49-3.58.76-.2-1.21-.38-2.43-.56-3.64,1.13-.28,2.26-.58,3.38-.86.2,1.26.45,2.5.76,3.74ZM24.42,39.68l-3.81.51c-.1-1.16-.18-2.3-.27-3.45,1.13-.21,2.26-.42,3.38-.63.16,1.2.39,2.4.69,3.58ZM19.95,40.27c-1.33-.04-2.64-.08-3.93-.17-.17-.96-.31-1.9-.47-2.85,1.26-.11,2.52-.23,3.79-.34.18,1.11.38,2.24.61,3.36ZM15.02,40c-1.99-.48-3.78-1.59-4.48-3.6,1.33.27,2.65.52,3.99.75.16.96.31,1.9.49,2.85ZM5.58,43.23c.82-1.72,2.85-2.2,4.3-3.24,2.26,2.92,6.3,3.13,9.69,3.02,6.43-.93,13.09-2.33,18.46-6.19,1.85.21,3.68.45,5.54.55-1.16-.99-2.5-1.69-3.86-2.3.79-1.76,1.37-3.64,1.47-5.58.59-3.38-3.44-4.96-6.18-5.22,1.42-2.61,2.57-5.36,3.31-8.24.97,1.26,2.59,1.34,4,1.83,2.62.82,5.03,2.37,7.84,2.65-2.09-1.44-4.2-2.85-6.4-4.1-1.58-.92-3.45-.71-5.19-.87,2.55-1.51,5.49-2.03,8.28-2.93,5.19-1.64,10.45-3.09,15.82-4.02,2.98-.58,5.85.59,8.69,1.37,2.88.8,5.68,1.85,8.5,2.81-5.74,1.34-11.44,2.92-17.15,4.36-4.23,1.03-8.18,3.2-11.18,6.36-2.93,3.3-4.63,7.45-6.13,11.55-.32.86-.78,1.64-1.31,2.34-1.64,2.12-4.13,3.53-6.73,4.13-4.84,1.14-9.45,2.99-14.09,4.7-2.09.75-2.96,2.96-3.74,4.84-1.58,3.85-2.5,7.92-3.2,12.01-4.98-1.04-9.83-2.71-14.26-5.22.62-4.96,1.14-10.1,3.51-14.59ZM14.24,106.03c-3.95-1.52-5.27-5.96-6.28-9.67,4.23,2.35,8.8,4,13.28,5.81.58,2.14,1.33,4.24,2.33,6.25-3.2-.37-6.33-1.27-9.34-2.38ZM50.24,104.35c-4.03,1.17-8,2.62-12.07,3.71-2.9.76-6.08,2.23-8.97.65-2.75-.73-3.67-3.62-4.44-6.02,5.87-1.65,11.52-3.86,17.29-5.8,5.27-1.44,10.32-3.6,15.71-4.63,2.93,3.44,7.36,4.71,11.1,7.01-6.12,1.97-12.41,3.4-18.61,5.08ZM64.85,90.75c-.92-1.28-1.65-2.68-2.33-4.1.68-.06,1.37-.13,2.09-.18.9,3.77,2.85,7.16,5.01,10.35-2.58-1.13-3.23-3.98-4.77-6.06ZM73.33,98c-3.43-3.51-6.43-7.78-7.18-12.73-.52-2.26-1.1-4.55-1.03-6.88.31-4.19.3-8.43,1.26-12.54,1.03-5.74,3.6-11.04,6.36-16.12,1.35-2.48,3.99-3.79,6.19-5.41,3.37-2.48,7.3-4.19,11.37-5.16,3.27.06,6.33,1.49,9.45,2.38-8.14-.47-16.32,2.79-21.98,8.63-7.67,7.67-11.15,19.07-9.69,29.75,1.16,8.02,5.22,15.74,11.76,20.66-2.13-.94-4.29-1.88-6.5-2.58ZM120.13,78.39c-2.17,9.17-8.47,17.43-17.13,21.32-4.27,1.99-9.17,2.57-13.76,1.52-.51-.11-1-.25-1.49-.41-7.35-2.06-13.04-8.11-15.91-15.05-3.99-9.46-2.58-20.8,3.14-29.26,3.98-5.89,10.08-10.49,17.09-12.06,2.88-.69,5.85-.76,8.74-.28,5.84.93,11.34,4.08,14.89,8.86,5.61,7.05,6.56,16.82,4.43,25.35Z"/>
        <path class="cls-1" d="M112.7,78.47c-1.68,5.53-4.99,10.59-9.57,14.13,2.33-4.6,3.29-9.7,4.37-14.71,1.1-5.29,1.23-10.9-.61-16.05-1.21-3.37-2.67-6.83-5.3-9.32-1.61-1.55-3.75-2.33-5.74-3.26,4.1-.3,8.26.9,11.41,3.58,1.8,1.34,2.81,3.5,4.75,4.67-.31-2.59-2.2-4.57-4.05-6.22-2.17-1.89-4.86-3.09-7.69-3.57-2.48-.42-5.06-.3-7.47.41-6.57,1.82-11.83,6.92-14.86,12.92-4.74,9.12-4.5,20.83,1.26,29.46,2.14,3.06,5.12,5.7,8.74,6.85.65.21,1.31.38,1.97.49,3.96.73,8.16-.13,11.66-2.07,4.47-2.48,7.97-6.47,10.29-10.98,1.52-2.96,2.85-6.16,2.92-9.56-1.52.38-1.64,2.02-2.09,3.23ZM101.39,90.51c-.72,1.48-1.61,2.86-2.31,4.34-2.95,1.07-6.22,1.49-9.25.52-4.77-1.37-8.32-5.33-10.35-9.7-3.64-8.04-2.92-17.71,1.33-25.35,2.58-4.51,6.56-8.38,11.51-10.15.69-.21,1.48-.59,2.17-.11,2.55,1.33,5.36,2.54,7.08,4.96,4.44,6.18,5.71,14.28,4.06,21.65-1.1,4.7-2.14,9.48-4.23,13.85Z"/>
        <path class="cls-1" d="M112.33,74.17c2.57-4.16,2.31-9.52.14-13.79-.54,2.17.44,4.3.59,6.47.39,2.47-.23,4.92-.73,7.32Z"/>
        <path class="cls-1" d="M92,56.52c-1.78.62-3.05,2.38-3.2,4.24.16,1.55,1.09,2.86,1.76,4.23,1.66,3.13,2.38,6.84,1.66,10.35-.39,2.33-1.31,4.68-.83,7.08.41,1.85,2.76,3.57,4.46,2.07,3.43-3.06,4.22-7.85,4.79-12.18.28-4.98-1.11-9.93-3.62-14.19-1.16-1.48-3.23-2.12-5.02-1.61ZM98.89,72.35c-.52,4-1.23,8.53-4.57,11.22-.85-.39-1.66-1.13-1.57-2.14.1-3.55,1.75-6.98,1.1-10.56-.28-3.1-1.58-5.96-3.16-8.6-1.18-1.62.13-3.69,1.69-4.46,1.31-.58,3.06-.04,3.98,1.02,1.55,4.33,3.07,8.84,2.52,13.52Z"/>
        <path class="cls-1" d="M76.4,20.13c-2.04.87-4.32,1-6.44,1.61-3.78,1.02-7.46,2.45-10.94,4.27-.63.32-1.09.78-1.41,1.31-.99,1.59-.83,3.91-1.16,5.71-.42,1.41.42,2.62,1.34,3.61,4.64-.79,9-2.55,13.42-4.09,1.38-.49,2.78-.94,4.19-1.34,1.9-.75,4.36-1.14,5.41-3.13,1.44-2.75,1.42-6.35-.45-8.88-1.35.17-2.71.38-3.96.93ZM77.71,28c-2.9,1.35-6.06,1.95-9.07,2.99-3.37,1.17-6.77,2.27-10.31,2.76.01-1.86.14-3.72.32-5.57,3.75-1.48,7.4-3.29,11.38-4.06,3.09-.56,6.15-1.3,9.19-2.06-.01,1.95.71,4.94-1.52,5.94Z"/>
      </g>
      <g>
        <path class="cls-1" d="M204.11,79.51c-3.92-1.66-8.02-2.98-11.77-5.06-2.57-1.41-5.58-1.75-8.17-3.12-.95-.41-1.19-1.49-1.58-2.34-1.02-2.83-1.69-5.77-2.29-8.7-.26-2.66.3-5.34.58-7.96-5.28,2.23-9.73,7.31-15.98,6.38-2.29-1.75-2.4-4.97-2.55-7.61-.65-1.84-.73-3.78.06-5.58,2.25-6.21,4.02-12.57,5.69-18.95,1.62-6.4,4.52-12.41,5.77-18.9.61-1.79.84-4.3,2.79-5.13,2.14-.35,3.83,1.34,4.72,3.11,4.02,6.81,8.5,13.47,10.66,21.17,1.84-3.89,3.87-7.7,6.34-11.23,1.86-2.62,3.57-5.95,6.94-6.81,5.26-.65,10.23,1.73,15.22,2.99,8.04,2.06,15.98,4.48,23.9,6.94,5.1,1.6,10.43,2.38,15.42,4.26,2.6.89,3.63,3.65,4.84,5.86,1.02,2.19,2.64,4.41,2.12,6.96-.86,7.51-2.83,14.82-4.2,22.25-1.6,8.31-4.24,16.35-6.92,24.37-.84,2.23-1.3,4.91-3.22,6.51-2.88.67-5.67-.95-8.57-.91-4.72-.15-9.26-1.6-13.95-2.18-4.3-.54-8.48-1.66-12.59-2.98-4.33-1.4-9-1.58-13.24-3.31ZM166,55.49c2.36-.54,4.82-.84,6.88-2.18,2.73-1.73,5.73-2.99,8.8-4,.22-.89.43-1.77.63-2.64-5.54,2.27-11.12,4.67-17.19,5.08.3,1.25.6,2.49.87,3.74ZM223.22,15.46c-4.59-1.17-9.06-2.85-13.69-3.91-1.99-.37-4.54-.73-5.99,1.08-2.31,2.7-3.98,5.86-5.8,8.91-2.01,3.48-3.05,7.63-5.95,10.55-1.51-.87-1.77-2.9-2.51-4.35-2.55-7.91-7.35-14.81-12.02-21.58-1.71,7.74-5.04,14.97-6.98,22.64-1.64,6.68-3.79,13.21-5.97,19.72,3.89-.63,7.81-1.43,11.4-3.14,3.52-1.4,7.14-3.63,11.05-2.66-2.05,5.15-3.92,10.6-3.85,16.2,1.26,1.43,3.37,1.73,5.06,2.46,10.38,3.16,20.14,7.98,30.56,11.03,4.97,1.53,10.03,2.75,15.1,3.78,1.04-5.54,2.88-10.88,4.35-16.29,1.99-6.9,3.94-13.8,5.97-20.68,1.51-5.34,2.49-10.86,4.52-16.05-8.44-2.46-16.74-5.45-25.26-7.68ZM250.37,23.63c-2.03,7.05-3.03,14.32-5.08,21.35-2.66,10.66-5.52,21.26-8.31,31.88,3.26.47,6.55.73,9.78,1.28,1.43-1.95,3.12-3.89,3.46-6.4,1.73-8.44,3.68-16.85,5-25.39,1.04-6.6,3.22-12.96,3.89-19.64-2.79-1.32-5.77-2.25-8.74-3.09Z"/>
        <path class="cls-1" d="M217.21,42.53c-3.18,1.8-7.38,1.02-10.01-1.45-3.31-3.18-4.69-8.28-3.27-12.69,1.51-4.02,6.31-5.93,10.32-4.93,3.22.6,6.08,2.81,7.35,5.84,2.29,4.65-.02,10.68-4.39,13.22Z"/>
      </g>
    </g>
  </g>
</svg>