<?xml version="1.0" encoding="UTF-8"?>
<svg id="_レイヤー_2" data-name="レイヤー 2" xmlns="http://www.w3.org/2000/svg" viewBox="0 0 231.82 126.52">
  <defs>
    <style>
      .cls-1 {
        fill: #181617;
      }
    </style>
  </defs>
  <g id="_レイヤー_1-2" data-name="レイヤー 1">
    <g>
      <path class="cls-1" d="M225,88.23c-3.81-3.91-9.73-4.17-14.67-2.66-3.21-5.8-6.05-11.78-9.47-17.45-3.94-6.62-8.33-12.96-12.85-19.18,4.81-3.95,8.71-9.76,8.36-16.22-.25-7.68-6.65-14.03-13.9-15.68-8.63-2.69-18.85,1.32-22.96,9.44-3.83,7.39-2.2,17.3,4.43,22.57-8.25,12.46-16.91,24.7-24.56,37.55-4.97-1.42-10.7-1.04-14.77,2.46-8.77,6.52-8.48,22.52,1.63,27.57,11.47,5.6,25.13-7.18,22.74-19.01-.67-3.86-3.34-6.94-6.19-9.42,7.52-12.74,15.8-24.98,22.93-37.92,2.91,1.61,6.11,2.52,9.4,2.94-.9,6.32-1.4,12.71-1.28,19.09.09,6.95-.95,13.91-.11,20.82-2.76.46-5.63,1.09-7.85,2.95-7.79,5.73-7.5,18.97.08,24.74,3.07,2.07,6.89,3.35,10.62,2.77,8.5-1.39,15.38-10.51,13.15-19.07-1.51-5.87-6.78-10.04-12.64-11.15,1.14-5.56.32-11.23.51-16.85-.36-7.81-.42-15.61.16-23.38,2.85-.59,5.63-1.53,8.21-2.86,3.29,6.67,7.4,12.88,11.02,19.37,3.37,5.81,5.98,11.99,9.07,17.93-2.85,2.14-5.75,4.5-7.1,7.92-2.82,7.28-.58,15.76,4.41,21.57,2.05,2.33,5.37,2.6,8.16,3.48,6.99,1.55,13.8-3.06,17.75-8.5,5.26-7.56,1.71-17.82-4.26-23.81ZM175.76,97.69c5.35.3,10.3,4.77,10.81,10.15.31,7.63-8.25,13.96-15.44,11.32-6.65-2.45-9.09-11.46-5.45-17.27,2.08-3.32,6.35-4.48,10.08-4.2ZM187.86,44.18c-5.53,5.44-15.16,7.22-21.6,2.33-6.09-4.6-6.9-14.29-2.2-20.14,3.51-4.39,9.51-6,14.93-5.51,6.22.47,12.16,5.04,13.45,11.27.83,4.47-1.48,8.94-4.58,12.04Z"/>
      <path class="cls-1" d="M1.39,120.34c.29,2.26.51,5.56,3.29,6.07,3.45.22,6.95.11,10.4-.2,2.11-1.07,2.1-3.76,2.71-5.75,1.97-1.8,2.84-4.31,2.8-6.96.69,4.2,1.87,8.36,3.89,12.13,4.4-.86,8.85-.66,13.29-.65,3.88-.16,4.16-4.82,4.78-7.72,1.15-1.66,2.09-3.45,2.82-5.34.04,3.38.89,6.7,2.32,9.77,6.27-.4,12.55.52,18.79.06,2.76-2.87,3.58-6.89,5.12-10.43.68,3.75.64,7.73,2.23,11.23.54,1.31,2.07,1.02,3.2,1.18,4.21.29,8.2-1.35,12.37-1.5,1.88-.09,3.8-.08,5.7-.14,3.88-4.9,6.85-10.78,7.47-17.09.75-8.11,1.58-16.23,1.49-24.38-.14-10.19.58-20.4-.36-30.58-.11-1.27-.58-2.8-2.01-3.1-4.21-1.18-8.62-.71-12.95-.7-2.74.16-5.7.12-8.1,1.67-.22.96-.42,1.95-.56,2.93-1.68,1.95-3.67,3.64-5.01,5.85-.88,9.93-1.73,19.94-2.99,29.85.73-9.73.44-19.51,1.38-29.23-2.71-1.5-5.91-.46-8.81-.15-4.35.87-8.77.88-13.17,1.15-2.5,2.82-5.05,5.8-6.87,9.16.44,6.32.58,12.66.26,19.01-.31,5.41.5,10.87-.12,16.27.02-9.32-.38-18.64-.49-27.98-.18-1.86.11-4.58-2.13-5.31-3.48-1.05-7.01.34-10.4,1.15-2.27.68-4.71.94-6.81,2.08-3.22,2.76-5.21,6.68-7.08,10.42.24.66.48,1.34.73,2-4.87-.53-9.32,1.9-13.96,2.96-1.78,4.14-5.01,7.99-4.58,12.74.06,6.55.81,13.04,1.35,19.55ZM100.85,50.63c.85,10.04,0,20.12-.23,30.17-.19,6.51-.94,12.98-1.86,19.42-.45,3.09-.4,6.28-1.61,9.21-5.29.77-10.51,1.91-15.8,2.69-.15-3.42-.07-6.85.26-10.25.73-7.75.61-15.54,1.45-23.27,1.04-9.2,1.25-18.43,1.59-27.67,5.39-.34,10.8-.6,16.21-.3ZM76.96,57.04c1.04-1.34,2.08-2.67,3.16-3.96-.48,8.48-.44,17.01-1.15,25.49-.58,5.91.15,11.88-.83,17.76-.39,2.64-.51,5.31-.52,7.97.05,3.72-.82,7.51.19,11.18-.76,1.02-1.51,2.05-2.27,3.07-1.33-5.57-.96-11.32-1.22-16.99-.37-7.31.89-14.58,1.24-21.9.33-7.55,2.02-15.03,1.4-22.62ZM70.17,60.54c-.47,2.92-.73,5.88-.75,8.84-.04,8.45-1.19,16.87-.68,25.3.16,5.25.83,10.77-1.17,15.76-3.88,2-8.68.87-12.96,1.21-.41-10.47.27-20.91-.15-31.38-.23-5.85-.53-11.69.02-17.54,5.27-.29,10.5-1.23,15.69-2.19ZM46.83,67.67c.99-1.57,2.03-3.12,3.06-4.66-.02,6.83,1.02,13.63,1.23,20.44-.36,4.83-.66,9.7-.34,14.57.33,5.57-.17,11.16.36,16.72-.73.64-1.48,1.26-2.21,1.9-1.93-7.67-.91-15.59-1.47-23.37-.52-8.5,1.06-17.15-.63-25.59ZM40.72,72.95c.54,13.13.64,26.32-.12,39.44-3.87.36-7.75.61-11.61.93-.7-4.89-1.05-9.83-.77-14.77.37-7.41-1.03-14.79-.32-22.21,4.1-1.62,8.48-2.53,12.81-3.4ZM23.76,76.62c-.08,6.82,1.35,13.55,1.5,20.37-.24,7.18-1.03,14.76,1.73,21.6-.4.79-1.21,2.38-1.6,3.15-2.52-6.66-3.28-13.84-3.63-20.92-.23-5.97.24-12.05-1.24-17.93.96-2.15,2.07-4.22,3.24-6.27ZM16.24,88.67c.49,8.57,1.14,17.21.26,25.77-2.89-.14-5.79.04-8.66.4-.41-3.38-.1-6.79-.12-10.18,0-4.44-.46-8.86-.65-13.27,3.12-.73,6.1-1.85,9.18-2.72Z"/>
      <path class="cls-1" d="M56.14.24c4.89,1.28,9.69,2.91,14.53,4.42,3.54,1.18,7.4,1.77,10.47,4.06.93.63,1.29,1.75,1.4,2.82.19,1.73.53,3.45.41,5.2-.43,1.99-1.75,3.63-2.77,5.36-4.51,7.14-8.1,15.17-14.56,20.85-2.95-2.28-6.22-4.09-9.23-6.29-1.82,1.52-3.59,3.1-5.64,4.27-5.03,2.76-10.23,5.2-15.42,7.65-2.59,1.2-5.4,1.82-8.06,2.8-3.43,1.27-7.07,1.93-10.7,2.24-.81-1.25-1.42-2.62-1.83-4.06-.45-.64-.96-1.3-.91-2.12-.09-3.64.15-7.29-.09-10.93-.02-3.1-1.08-6.29.17-9.31,9.24-2.62,18.31-5.82,27.12-9.64,3.77-1.59,7.33-3.63,11.08-5.24-.19-3.58-.91-7.28.1-10.79.35-1.85,2.56-1.64,3.94-1.28ZM54.98,13.65c-1.62,1.2-3.63,1.58-5.45,2.38-10.88,5.23-22.1,9.81-33.66,13.27.8,6.13.51,12.33.03,18.49,4.08-1.56,8.32-2.59,12.58-3.57,4.93-1.19,9.41-3.63,13.78-6.15,4.65-2.48,9.1-5.35,13.29-8.53,1.1-.7,2.31-1.86,3.71-1.26,3.13,1.07,4.55,4.32,6.84,6.47,2.1-3.14,3.92-6.46,5.6-9.85,2.43-4.92,5.31-9.59,7.73-14.51-1.73-.93-3.52-1.74-5.42-2.25-6.54-1.77-12.94-4.04-19.52-5.58-.14,3.69.41,7.38.5,11.08Z"/>
    </g>
  </g>
</svg>