<?xml version="1.0" encoding="UTF-8"?>
<svg id="_レイヤー_1" data-name="レイヤー_1" xmlns="http://www.w3.org/2000/svg" version="1.1" viewBox="0 0 430 430">
  <!-- Generator: Adobe Illustrator 30.3.0, SVG Export Plug-In . SVG Version: 2.1.3 Build 182)  -->
  <defs>
    <style>
      .st0 {
        fill: #e95989;
      }

      .st1 {
        fill: #76bc33;
      }

      .st2 {
        fill: #f5df4c;
      }

      .st3 {
        fill: #fff;
      }
    </style>
  </defs>
  <path class="st1" d="M120.39,374.44c-52.39-22.65-88.55-63.33-108.11-122.56-10.26-31.07-10.23-64.6,1.23-97.75C40.41,76.34,88.92,26.23,160.11,10.86c53.92-11.64,105.66-4.09,154.65,15.74,25.03,10.13,47.94,25.08,66.22,46.71,35.82,42.37,50.13,95.11,41.16,157.49-4.88,33.93-19.44,63.93-40.34,90.24-31.86,40.12-70.21,64.06-115.56,69.42-17.62,2.08-35.24,3.2-52.86,4.96-2,.2-4.59,1.09-5.93,2.72-6,7.28-13.16,12.28-21.04,15.26-20.49,7.75-41.14,14.03-62.18,11.31-13.88-1.79-26.57-6.88-38.32-14.47-1.14-.74-2.57-2.7-2.32-3.81.34-1.52,1.98-3.27,3.38-4.05,12.48-6.97,23.48-16.33,33.41-27.94ZM205.07,377.71c1.46,8.73,4.99,10.98,12.53,10.52,15.56-.96,31.15-2.47,46.73-4.23,31.36-3.55,60.42-15.96,86.64-39.16,31.62-27.98,54.88-62.44,63.65-106.27,11.27-56.3.32-105.37-28.2-147.7-.62-.92-1.49-1.62-2.24-2.43,1.21,3.58,2.84,6.65,4.37,9.79,19.2,39.21,25.31,82.33,18.25,129.38-8.24,54.98-34.6,95.22-79.27,121.12-27.36,15.86-55.73,24.33-85.01,27.05-12.41,1.15-24.8,1.31-37.46,1.94ZM199.25,382.85c-25.09,26.33-54.62,30.22-84.67,32.87,8.54,1.61,17.12,3.35,25.73,2.47,18.75-1.9,37.66-5.33,54.82-17.02,11.31-7.71,9.57-8.4,4.12-18.32ZM127.79,364.51c-18.66-9.53-36.91-18.86-54.05-27.62,8.62,9.78,32.02,23.99,51.98,31.05.79-1.31,1.61-2.67,2.07-3.43Z"/>
  <g>
    <path class="st3" d="M143.35,120.96c-3.41.52-6.68.85-10.29.79-5.04-.13-5.31-6.95.66-6.22,2.69.33,5.7.2,10.16-.46-.07-3.47-.07-6.55,0-8.65.13-5.04,6.95-3.87,6.68-.07-.2,2.36-.33,4.98-.39,7.6,1.38-.26,2.88-.66,4.46-.98,4.32-.98,6.09,5.11.39,6.03-1.77.26-3.41.59-4.91.85,0,2.42,0,4.85.07,7.27,1.57-.46,3.21-.92,4.98-1.51,4.85-1.57,7.34,4.46,1.51,6.09-2.29.66-4.39,1.25-6.29,1.7.13,2.23.26,4.26.46,6.16.2,1.77.39,4.13.52,6.49,3.28,1.25,6.09,3.01,8.12,4.65,4.39,3.6.13,9.57-4,5.77-1.38-1.25-3.01-2.49-4.78-3.54-2.29,5.57-10.29,9.96-18.35,5.96-6.22-3.08-6.62-10.42.52-13.43,4-1.7,8.39-1.83,12.51-1.11-.07-1.38-.2-2.75-.33-4.26-.13-1.57-.26-3.41-.39-5.44-5.18.98-8.65,1.18-11.93.72-4.65-.66-3.87-7.4,1.38-6.29,1.9.39,5.18.39,10.22-.59-.13-2.49-.26-5.04-.33-7.6l-.66.07ZM134.89,150.18c-1.7.72-2.03,2.82-.2,3.73,4,1.97,9.11,0,10.09-3.67-3.54-1.11-7.01-1.31-9.89-.07Z"/>
    <path class="st3" d="M195.64,139.57c-2.29-6.36,1.25-11.07,5.24-12.32,1.9-.59,3.87-.85,5.63-.59-.07-1.44-.13-3.41-.2-5.31-5.5.52-10.94,1.31-14.35,1.83-4.72.72-7.8,1.57-9.76,1.9-4.39.79-5.7-5.77-.52-6.62,2.62-.46,6.88-.92,9.63-1.38,3.28-.52,9.17-1.25,14.94-1.77v-1.18c.07-4.06-.33-4.32-.33-6.42,0-4.78,6.62-4.32,6.88-.2.07,1.51-.13,4.52-.26,6.29,0,.33-.07.66-.07.98,1.9-.13,3.6-.2,5.04-.2,3.21,0,5.5-.07,9.96,0,5.5.13,5.24,7.08,0,6.68-4.65-.39-6.22-.39-10.29-.46-1.51,0-3.08.07-4.78.13.07,2.1.13,4.13.13,6.03,0,.92.13,2.29.2,3.73,5.83,9.17-1.11,23.06-8.06,28.63-4.39,3.47-10.09-1.18-4.39-5.24,3.15-2.23,5.9-5.9,7.47-9.63-4.32,2.23-10.02.98-12.12-4.91ZM206.64,132.69c-.92-.79-2.82-.92-4.19-.26-1.57.72-2.62,2.75-1.9,4.98,1.18,3.54,6.88,3.54,7.54-1.11.2-1.38,0-1.97-.39-2.49-.33-.39-.66-.79-1.05-1.11ZM222.43,112.25c-.66-1.18-3.41-3.93-4.59-4.72-3.01-1.97.13-5.44,2.95-3.8,1.57.92,4.59,3.28,5.77,5.05,2.03,3.14-2.42,6.36-4.13,3.47ZM230.43,108.45c-1.11-1.11-3.54-3.93-4.78-4.65-3.08-1.83-.07-5.37,2.82-3.87,1.64.85,4.72,3.15,5.96,4.85,2.16,3.08-1.64,6.03-4,3.67Z"/>
    <path class="st3" d="M244.39,154.7c-2.1-6.62-1.9-15.07-1.05-23,.85-7.93,2.29-15.27,2.62-19.52.39-5.31,7.27-4,6.62.13-.46,2.95-1.57,8.65-2.42,14.22s-1.51,11.07-1.25,13.69c.13,1.18.2,1.38.85.07.2-.39.66-1.57.79-1.9,1.51-3.14,6.49-.92,4.13,4-.85,1.77-1.51,3.54-2.03,5.18-.52,1.64-.92,3.08-1.18,4.13-.52,1.83.33,3.67-1.31,5.24-1.7,1.57-4.65,1.31-5.77-2.23ZM264.77,156.08c-5.7-3.28-5.83-10.75.98-13.76,3.54-1.57,7.54-1.64,11.53-.79,0-1.05-.13-2.03-.2-3.28-.2-2.69-.33-7.73-.52-12.91-3.54.52-7.01.79-10.75.46-4.52-.39-3.73-7.08,1.31-6.22,2.88.52,6.03.33,9.24-.2-.07-3.67-.13-7.01-.07-9.04.13-4.26,6.55-3.67,6.29-.13-.13,1.83-.2,4.59-.2,7.8,1.11-.33,2.29-.59,3.34-.92,4.26-1.31,7.08,4.65,1.44,6.03-1.57.39-3.15.79-4.72,1.11.07,5.11.26,10.22.39,13.43.07,1.64.33,3.8.39,5.9,2.75,1.31,5.37,2.95,7.4,4.78,3.73,3.41-.92,9.11-4.19,5.63-1.18-1.18-2.56-2.36-4.06-3.41-2.49,5.18-10.48,9.57-17.62,5.5ZM276.69,147.5c-3.28-1.25-6.55-1.57-9.04-.39-1.57.72-1.97,2.95-.39,3.87,3.15,1.77,8.45.39,9.5-3.47h-.07Z"/>
    <path class="st3" d="M94,236.39v11.34c0,1.77-1.51,2.62-3.01,2.62s-3.01-.85-3.01-2.62v-11.34h-5.7c-2.03,0-2.95-1.31-2.95-2.62,0-1.44,1.05-2.88,2.95-2.88h5.7v-1.64l.2-11.33c-3.41,6.88-7.8,13.04-13.82,18.61-.72.72-1.57.98-2.36.98-1.11,0-2.1-.59-2.62-1.44l-.2,11.6c0,2.03-1.64,3.01-3.21,3.01s-3.08-.98-3.08-2.95v-.07l.66-30.27c-4.19,5.44-5.96,6.42-7.4,6.42-1.7,0-3.08-1.31-3.08-2.88,0-.72.33-1.57,1.11-2.29,6.22-5.96,11.92-14.61,14.94-23.72.52-1.44,1.64-2.1,2.82-2.1,1.77,0,3.67,1.38,3.67,3.21,0,1.57-3.21,7.73-5.63,11.86l-.52,25.36c.2-.33.52-.66.85-.92,6.49-5.31,11.79-11.92,15.92-20.38l-11.14.2h-.07c-2.03,0-2.95-1.31-2.95-2.75s1.05-2.95,3.01-2.95h12.78v-11.14c0-1.9,1.57-2.82,3.08-2.82,1.64,0,3.21.98,3.21,2.82v11.14h14.61c1.9,0,2.88,1.44,2.88,2.88s-.92,2.82-2.82,2.82h-.07l-13.1-.2c4.72,8.06,11.01,14.02,17.17,18.61.98.72,1.38,1.7,1.38,2.62,0,1.7-1.38,3.28-3.21,3.28-.79,0-1.7-.33-2.62-1.05-5.11-4.19-10.35-10.48-14.54-17.43l.2,11.2v1.7h5.83c1.9,0,2.82,1.38,2.82,2.75s-.92,2.75-2.82,2.75h-5.83Z"/>
    <path class="st3" d="M114.12,240.78c0-.52.2-1.18.59-1.83.72-1.25,2.29-5.04,2.42-8.19.07-1.51,1.05-2.23,2.03-2.23.66,0,2.36.26,2.36,2.56,0,2.69-1.64,12.12-5.04,12.12-1.25,0-2.36-.98-2.36-2.42ZM135.35,221.38c1.11,0,5.77.2,5.77,6.62,0,11.34-1.57,20.64-11.6,20.64-4.26,0-6.42-.72-6.42-3.34,0-1.44.92-2.82,2.55-2.82.2,0,.46,0,.72.07,1.38.33,2.56.52,3.6.52,2.49,0,4.72-1.31,5.24-8.32-.33.46-.85.72-1.38.72-.59,0-1.11-.33-1.31-1.18-.59-2.1-1.57-4.06-2.16-5.11-.13-.26-.2-.46-.2-.72,0-.66.66-1.11,1.44-1.11,2.03,0,3.67,4.65,3.8,5.11.07-1.38.07-2.62.07-3.47,0-2.56-.33-2.82-4.98-2.82-2.23,0-4.72.07-6.75.07-2.95,0-5.9-1.31-6.03-5.5-.07-2.56-.07-6.55-.07-10.48s0-7.8.07-9.96c.13-3.74,2.42-6.03,6.03-6.09,1.83-.07,5.7-.07,9.24-.07,2.56,0,4.98,0,6.29.07,1.44.07,2.16,1.18,2.16,2.36,0,1.25-.85,2.49-2.49,2.56h-6.09v4.32h4.39c1.64,0,2.42,1.11,2.42,2.23,0,1.18-.79,2.29-2.42,2.29h-4.39v4.39h4.39c1.64,0,2.42,1.11,2.42,2.23,0,1.18-.79,2.29-2.42,2.29h-4.39v4.52h2.49ZM122.51,238.35v-.26c.07-.98.13-2.1.13-3.15,0-1.96-.13-3.8-.2-4.59v-.26c0-1.11.72-1.7,1.51-1.7.92,0,2.23.07,2.23,8.45,0,.98-.07,3.21-2.1,3.21-.85,0-1.57-.59-1.57-1.7ZM127.82,199.04c-1.24,0-2.29.07-2.88.07-.98.07-1.77.52-1.83,2.1,0,.59-.07,1.38-.07,2.23h4.78v-4.39ZM127.82,207.95h-4.78v4.39h4.78v-4.39ZM127.82,216.86h-4.78c0,.92.07,1.77.07,2.49.07,1.25.79,2.03,2.03,2.03h2.69v-4.52ZM127.75,236.26c-.26-2.55-.72-4.65-1.24-6.16-.07-.26-.13-.46-.13-.66,0-.92.72-1.44,1.51-1.44.59,0,1.24.33,1.57,1.11.79,1.64,1.7,5.5,1.7,6.75s-.92,1.96-1.83,1.96c-.72,0-1.44-.46-1.57-1.57ZM159.14,211.69v4.13c1.83,0,3.67,0,5.24.07,3.34.07,5.7,1.83,5.96,4.39.13.98.13,2.29.13,3.6,0,1.05,0,2.16-.07,3.08-.2,2.95-2.42,5.04-6.36,5.18-1.05.07-2.29.07-3.47.07,2.62,5.5,7.14,9.24,11.6,11.47,1.25.66,1.83,1.7,1.83,2.75,0,1.64-1.25,3.28-3.15,3.28-2.88,0-10.48-5.96-14.28-14.15-5.11,13.04-15.73,14.81-15.86,14.81-1.7,0-2.95-1.64-2.95-3.14,0-1.11.59-2.16,1.97-2.62,7.08-2.42,10.68-7.34,12.38-12.38-7.21,0-9.89,0-9.89-7.93,0-1.31,0-2.62.07-3.67.13-2.56,2.1-4.65,5.7-4.72,1.7-.07,3.6-.07,5.57-.07v-4.13h-4.65c-1.18,0-1.83-.79-2.1-1.7l-2.16,2.16c-.66.66-1.38.92-2.1.92-1.57,0-2.95-1.38-2.95-2.82,0-.72.33-1.44,1.05-2.03,3.93-3.21,7.14-7.73,10.09-12.38,1.31-2.1,3.15-3.01,4.98-3.01s3.87.98,5.37,2.75c3.47,4.06,7.4,7.93,11.6,11.27.85.72,1.24,1.57,1.24,2.42,0,1.7-1.44,3.34-3.14,3.34-1.31,0-1.9-.59-4.85-3.54v.13c0,1.24-.85,2.49-2.29,2.49h-4.52ZM147.67,224.01c0,3.14,0,3.67,5.57,3.67.33-2.56.33-3.54.33-7.4-5.77,0-5.9,0-5.9,3.74ZM163.66,206.71c-2.49-2.69-4.85-5.44-6.68-7.67-.26-.33-.66-.52-1.05-.52-.33,0-.66.13-.85.52-1.77,2.75-3.54,5.31-5.44,7.67h14.02ZM159,224.4c-.07,1.05-.26,2.16-.39,3.28,6.22,0,6.29-.13,6.29-4.06,0-3.14,0-3.34-5.83-3.34,0,2.03-.07,3.74-.07,4.13Z"/>
    <path class="st3" d="M204.81,227.94c-3.87,0-6.95-3.08-6.95-6.95s3.08-6.95,6.95-6.95,6.95,3.08,6.95,6.95-3.08,6.95-6.95,6.95Z"/>
    <path class="st3" d="M239.35,250.54c-2.1,0-3.34-1.57-3.34-3.08,0-1.38.92-2.69,2.95-2.95,8.52-1.18,13.96-4.46,16.58-10.02.66-1.44,1.83-1.97,2.95-1.97,1.7,0,3.47,1.38,3.47,3.08,0,.46-.13.85-.33,1.31-5.83,12.32-22.28,13.63-22.28,13.63ZM254.41,231.28c-4.72-.13-7.54-2.82-7.67-6.55-.13-2.88-.2-7.6-.2-12.19s.07-9.17.2-11.73c.13-3.08,2.1-6.22,7.21-6.42,3.01-.13,6.95-.13,11.01-.13s8.12,0,11.47.13c3.93.13,6.68,3.08,6.81,5.96.13,2.88.2,7.08.2,11.4,0,4.78-.07,9.63-.2,12.84-.13,3.54-2.88,6.55-7.14,6.68-1.11,0-2.23.13-3.34.13-.07,2.62-.13,5.7-.13,7.8,0,3.6.79,4.46,6.42,4.46,5.05,0,8.19-.79,8.19-6.68,0-2.1,1.51-3.08,3.08-3.08,1.11,0,3.47.52,3.47,3.54,0,11.27-7.6,12.12-15.07,12.12-6.62,0-12.32-.66-12.32-7.93,0-1.77,0-6.68.07-10.22-4.06,0-8.25-.07-12.06-.13ZM277.35,210.25h-24.83v5.11h24.83v-5.11ZM277.28,205.2c0-.98-.13-1.9-.13-2.62-.07-1.7-.92-2.69-3.08-2.82-2.16-.07-5.04-.13-8.12-.13-3.67,0-7.47.07-10.22.13-2.03.07-3.01,1.51-3.08,2.88,0,.72-.07,1.57-.07,2.56h24.7ZM252.58,220.4c0,.98.07,1.83.07,2.62.07,2.1,1.24,2.82,3.14,2.88,3.01.13,6.29.2,9.63.2,2.95,0,5.9-.07,8.71-.2,3.15-.13,3.15-2.55,3.15-5.5h-24.7Z"/>
    <path class="st3" d="M334.36,232.98c.13.92.2,1.9.2,2.88,0,5.9-2.75,14.81-14.15,14.81-5.11,0-7.86-1.38-7.86-3.93,0-1.64,1.24-3.08,3.08-3.08.33,0,.66,0,1.05.13,1.44.46,2.95.72,4.33.72,7.34,0,7.34-8.78,7.34-9.3,0-.79-.07-1.51-.2-2.23l-27.78.13c-2.03,0-3.01-1.44-3.01-2.88s1.05-3.01,2.95-3.01l24.24.13c-.79-.52-1.64-1.05-2.62-1.38-1.38-.46-1.97-1.31-1.97-2.16,0-1.38,1.51-2.75,3.47-2.75,1.44,0,2.82.72,3.87,1.31,1.7-1.11,5.18-3.54,5.18-4.32,0-.26-.26-.39-.72-.39-.72-.07-1.97-.07-3.47-.07-4.19,0-10.55.13-15.14.33h-.13c-1.97,0-2.95-1.38-2.95-2.75s.98-2.69,3.01-2.75c2.82-.13,6.36-.13,9.83-.13,4.78,0,9.57.07,12.58.13,3.74.07,5.31,1.97,5.31,4,0,3.21-3.47,5.9-9.37,9.57.33.46.66.92.92,1.38l19.53-.2c1.9,0,2.88,1.51,2.88,3.01s-.92,2.88-2.82,2.88l-17.56-.07ZM345.17,212.02c0-2.75-1.44-3.21-4.13-3.28-5.24-.07-11.14-.13-16.84-.13-4.65,0-9.24.07-13.3.13-3.6.07-4.19.98-4.39,3.28v3.87c0,1.83-1.64,2.88-3.34,2.88-1.51,0-3.08-.92-3.14-2.95,0-.85-.07-1.83-.07-2.88,0-1.11.07-2.23.07-3.21.13-3.08,2.55-6.22,7.67-6.29l5.5-.07c-.33-.2-.59-.52-.85-.92-1.38-2.29-2.82-3.15-4.59-4.72-.59-.52-.85-1.11-.85-1.7,0-1.44,1.64-2.82,3.34-2.82,2.49,0,7.6,4.98,7.6,7.27,0,1.18-.85,2.29-1.9,2.88,5.77-.07,11.47-.07,17.23-.07,1.9-2.16,3.6-5.96,4.65-8.65.59-1.51,1.77-2.1,2.95-2.1,1.83,0,3.73,1.38,3.73,3.21,0,1.25-2.1,4.46-4.78,7.6,1.51,0,3.08.07,4.59.07,3.87.07,7.47,2.16,7.6,6.22.07.92.07,2.29.07,3.54,0,.92,0,1.77-.07,2.42-.13,1.9-1.83,2.88-3.47,2.88s-3.28-.92-3.28-2.75v-3.73ZM326.63,203.04c-.92,0-1.77-.46-2.23-1.57-.92-2.42-2.36-3.87-3.87-5.63-.39-.46-.59-.98-.59-1.44,0-1.38,1.64-2.55,3.34-2.55,3.34,0,6.95,6.42,6.95,7.93,0,1.77-1.9,3.28-3.6,3.28Z"/>
  </g>
  <g>
    <polygon class="st2" points="329.05 146.76 338.74 115.31 359.48 131.04 329.05 146.76"/>
    <polygon class="st0" points="344.27 158.57 384.89 146.76 384.89 172.33 344.27 158.57"/>
  </g>
  <g>
    <path class="st3" d="M152.9,296.88c-9.61,0-14.79-7.14-14.79-14.67s5.52-15.29,14.94-15.29c6.14,0,10.31,3.55,10.31,5.64,0,1.31-1.12,2.39-2.35,2.39-.7,0-1.39-.31-1.97-1.04-1.51-1.85-3.94-2.74-6.37-2.74-6.52,0-10,5.56-10,10.77,0,3.24,1.89,10.5,10.04,10.5,2.93,0,5.83-1.12,7.41-3.24.54-.73,1.2-1,1.89-1,1.31,0,2.59,1.16,2.59,2.47,0,2.01-4.59,6.22-11.7,6.22Z"/>
    <path class="st3" d="M167.49,287c0-5.64,4.21-9.77,9.73-9.77s9.69,4.13,9.69,9.77-4.17,9.77-9.69,9.77-9.73-3.94-9.73-9.77ZM183.01,287c0-3.82-2.62-6.22-5.79-6.22s-5.83,2.39-5.83,6.22,2.62,6.14,5.83,6.14,5.79-2.35,5.79-6.14Z"/>
    <path class="st3" d="M204.12,294.65c.04-1.58.08-4.52.08-6.87,0-1.54-.04-2.86-.08-3.47-.16-2.39-1.51-3.36-3.13-3.36-2.36,0-5.17,2.08-5.29,4.67-.04.7-.04,1.58-.04,2.66,0,1.58.04,3.63.12,6.37.04.81-.42,1.97-1.97,1.97-1.04,0-2.05-.66-2.05-1.89v-.08c.12-3.67.15-6.22.15-8.49s-.04-4.32-.12-6.91v-.08c0-1.16,1.12-1.74,2.08-1.74s1.97.58,1.97,1.81c0,.15-.04.27-.04.39v.12s0,.08.04.08.12-.08.19-.15c1.43-1.54,3.47-2.32,5.48-2.32,3.24,0,6.37,2.12,6.52,6.45.04,1.39.12,4.83.12,7.68,0,1.2,0,2.28-.04,3.09-.04,1.39-1,2.05-2.01,2.05s-2.01-.7-2.01-1.93v-.04Z"/>
    <path class="st3" d="M219.64,281.21c-.58,0-.58.19-.58.42,0,1.43-.12,4.71-.12,7.26,0,3.01.12,4.25,2.28,4.25.27,0,.58-.04.89-.08.12,0,.19-.04.31-.04,1.04,0,1.66.85,1.66,1.7,0,1.39-1.27,2.05-3.28,2.05-5.71,0-5.71-5.06-5.71-6.64,0-2.24.08-6.1.08-7.8v-.58c0-.5-.23-.54-.62-.54h-1.16c-1.12,0-1.74-.93-1.74-1.85s.58-1.78,1.74-1.78h1.12c.62,0,.66-.12.66-.66,0,0,.04-.77.04-1.66,0-.46,0-.93-.04-1.35v-.12c0-1.16.93-1.74,1.93-1.74,2.05,0,2.05,1.85,2.05,2.35,0,1.04-.08,2.51-.08,2.51,0,.62.15.66.54.66h2.59c1.16,0,1.7.89,1.7,1.81s-.54,1.81-1.7,1.81h-2.55Z"/>
    <path class="st3" d="M241.22,295.8c-.35-.27-.7-.7-1.04-1.27-.04-.08-.12-.12-.15-.12-.08,0-.15.04-.23.12-1.31,1.51-3.75,2.32-6.02,2.32-4.25,0-6.76-3.09-6.76-6.06,0-1.97,1.16-3.94,3.75-4.83,2.66-.93,5.98-1.66,6.6-1.7.39-.04.7-.5.7-1.31,0-.46-.12-2.43-2.74-2.43-1.74,0-3.05.81-3.78,1.62-.42.5-.96.69-1.43.69-1,0-1.85-.77-1.85-1.78,0-1.85,3.4-3.9,7.3-3.9,4.25,0,6.56,2.08,6.56,6.52,0,.5-.04.96-.08,1.51-.08.58-.19,2.05-.19,3.2,0,.35,0,.66.04.89.35,3.09,1.78,3.2,2.08,3.44.42.31.62.81.62,1.35,0,1.08-.85,2.32-1.97,2.32-.42,0-.93-.19-1.39-.58ZM237.67,287.5c-6.52.81-6.91,2.43-6.91,3.36,0,1.2,1.04,2.39,3.01,2.39,3.13,0,4.48-1.58,4.48-4.32,0-.58-.08-1.43-.54-1.43h-.04Z"/>
    <path class="st3" d="M256.62,296.77c-7.03,0-9.65-5.48-9.65-9.61,0-5.21,3.71-9.96,9.77-9.96,4.13,0,6.95,2.43,6.95,4.01,0,1.08-.96,2.01-2.05,2.01-.54,0-1.12-.23-1.62-.85-.81-1-2.16-1.47-3.51-1.47-3.28,0-5.64,2.55-5.64,6.06,0,.85.39,5.98,5.71,5.98,1.62,0,3.24-.62,4.09-1.78.46-.62,1.04-.85,1.58-.85,1.12,0,2.16.97,2.16,2.05,0,1.66-3.28,4.4-7.8,4.4Z"/>
    <path class="st3" d="M274.3,281.21c-.58,0-.58.19-.58.42,0,1.43-.12,4.71-.12,7.26,0,3.01.12,4.25,2.28,4.25.27,0,.58-.04.89-.08.12,0,.19-.04.31-.04,1.04,0,1.66.85,1.66,1.7,0,1.39-1.27,2.05-3.28,2.05-5.71,0-5.71-5.06-5.71-6.64,0-2.24.08-6.1.08-7.8v-.58c0-.5-.23-.54-.62-.54h-1.16c-1.12,0-1.74-.93-1.74-1.85s.58-1.78,1.74-1.78h1.12c.62,0,.66-.12.66-.66,0,0,.04-.77.04-1.66,0-.46,0-.93-.04-1.35v-.12c0-1.16.93-1.74,1.93-1.74,2.05,0,2.05,1.85,2.05,2.35,0,1.04-.08,2.51-.08,2.51,0,.62.15.66.54.66h2.59c1.16,0,1.7.89,1.7,1.81s-.54,1.81-1.7,1.81h-2.55Z"/>
  </g>
</svg>